<svg id="svg" version="1.1" xmlns="http://www.w3.org/2000/svg" xmlns:xlink="http://www.w3.org/1999/xlink" width="400" height="583.3024118738404" viewBox="0, 0, 400,583.3024118738404"><g id="svgg"><path id="path0" d="M38.419 0.726 C 38.419 2.663,35.572 3.801,33.598 2.653 C 32.770 2.172,32.214 2.237,32.426 2.791 C 32.492 2.962,32.463 3.197,32.362 3.314 C 32.260 3.430,31.981 4.073,31.742 4.742 C 31.226 6.181,30.827 6.550,28.571 7.673 C 27.377 8.267,26.652 8.822,26.140 9.530 C 25.564 10.328,25.104 10.646,23.951 11.045 C 21.993 11.724,21.088 12.243,20.362 13.107 C 19.596 14.017,17.502 15.319,16.804 15.319 C 15.929 15.319,14.655 15.967,13.751 16.872 C 13.093 17.529,12.391 17.877,10.703 18.384 L 8.509 19.042 7.862 20.403 C 7.505 21.151,6.937 22.065,6.599 22.433 C 5.695 23.420,6.156 23.654,10.334 24.325 C 11.003 24.433,28.915 24.530,50.138 24.541 C 94.994 24.566,92.698 24.437,94.490 27.023 C 96.056 29.283,95.914 19.501,96.049 134.590 C 96.170 238.298,96.173 238.911,96.657 239.875 C 97.176 240.911,98.242 241.750,99.667 242.246 C 100.867 242.663,269.568 242.826,271.574 242.412 C 275.326 241.638,275.502 240.924,275.498 226.521 C 275.493 211.696,275.290 210.513,272.838 211.039 C 270.491 211.542,134.978 211.406,133.147 210.898 C 130.948 210.289,130.179 209.701,129.543 208.146 L 128.997 206.809 128.937 167.660 C 128.904 146.128,128.849 99.787,128.815 64.681 C 128.781 29.574,128.660 0.660,128.545 0.426 C 128.348 0.023,125.955 0.000,83.378 0.000 L 38.419 0.000 38.419 0.726 M137.143 0.213 C 137.143 0.331,137.307 0.563,137.508 0.729 C 137.812 0.982,137.872 0.947,137.872 0.516 C 137.872 0.219,137.717 0.000,137.508 0.000 C 137.307 0.000,137.143 0.096,137.143 0.213 M302.492 0.850 C 302.492 1.740,301.081 3.647,300.422 3.647 C 300.251 3.647,299.799 4.030,299.417 4.497 C 299.036 4.964,298.400 5.744,298.004 6.229 C 297.609 6.715,296.823 7.310,296.257 7.553 C 295.602 7.833,294.892 8.435,294.302 9.209 C 293.697 10.001,292.942 10.635,292.134 11.028 C 291.152 11.505,290.789 11.853,290.392 12.698 C 289.793 13.971,289.604 14.132,288.024 14.701 C 286.736 15.166,285.471 16.163,285.471 16.714 C 285.471 17.247,284.444 18.048,282.442 19.076 C 281.187 19.721,280.323 20.361,279.818 21.022 C 279.404 21.563,278.892 22.148,278.681 22.322 C 278.339 22.605,278.362 22.687,278.902 23.096 C 279.234 23.347,279.544 23.516,279.589 23.471 C 279.635 23.425,280.019 23.498,280.444 23.634 C 280.868 23.769,281.708 23.995,282.310 24.135 C 283.040 24.306,297.193 24.441,324.863 24.540 C 364.571 24.682,366.374 24.707,367.538 25.143 C 369.643 25.930,370.820 27.460,371.296 30.030 C 371.494 31.095,371.585 104.313,371.635 300.669 C 371.699 555.633,371.725 569.931,372.126 571.429 C 372.359 572.298,372.578 573.173,372.613 573.374 C 372.810 574.494,373.372 575.344,373.427 574.606 C 373.485 573.843,374.193 572.956,375.489 572.025 C 376.157 571.545,376.640 571.088,376.561 571.009 C 376.482 570.930,376.506 570.746,376.613 570.600 C 376.721 570.454,377.069 569.534,377.387 568.557 C 377.847 567.140,378.201 566.547,379.126 565.639 C 380.050 564.732,380.362 564.208,380.652 563.082 C 381.248 560.765,382.671 559.031,383.979 559.028 C 384.599 559.027,385.755 558.024,385.394 557.801 C 385.219 557.693,385.048 556.891,384.986 555.891 C 384.816 553.131,385.794 551.542,387.903 551.150 C 388.404 551.057,388.815 550.889,388.815 550.777 C 388.815 550.665,389.061 550.504,389.362 550.420 C 389.861 550.279,389.872 550.244,389.483 550.014 C 388.057 549.172,389.201 545.315,391.111 544.525 C 392.257 544.051,392.811 543.286,392.760 542.249 C 392.743 541.915,392.749 540.109,392.773 538.237 C 392.892 528.943,392.807 5.099,392.686 2.796 L 392.546 0.122 347.519 0.060 L 302.492 -0.001 302.492 0.850 M137.750 102.371 C 137.750 156.602,137.777 178.787,137.812 151.672 C 137.846 124.556,137.846 80.185,137.812 53.070 C 137.777 25.954,137.750 48.140,137.750 102.371 M280.547 10.209 C 279.329 11.488,279.866 11.586,281.233 10.334 C 281.973 9.656,282.066 9.486,281.689 9.495 C 281.429 9.501,280.915 9.823,280.547 10.209 M270.314 20.344 C 269.945 20.714,270.135 21.472,270.517 21.155 C 270.717 20.989,270.881 20.702,270.881 20.517 C 270.881 20.163,270.586 20.073,270.314 20.344 M270.152 27.451 C 270.152 27.749,270.054 27.932,269.934 27.858 C 269.688 27.705,269.413 28.285,269.442 28.895 C 269.454 29.150,269.507 29.188,269.584 28.995 C 269.652 28.827,269.795 28.744,269.903 28.811 C 270.127 28.949,270.498 27.256,270.289 27.047 C 270.214 26.972,270.152 27.153,270.152 27.451 M111.125 340.905 L 99.818 341.033 98.540 341.742 C 97.522 342.305,97.138 342.703,96.653 343.693 L 96.045 344.936 96.112 459.337 C 96.177 572.569,96.183 573.757,96.660 575.499 L 97.143 577.258 98.211 576.410 C 98.798 575.944,99.372 575.562,99.487 575.562 C 99.822 575.562,100.609 574.682,101.051 573.812 C 101.632 572.669,103.075 570.943,103.682 570.667 C 104.164 570.447,105.486 568.557,106.273 566.962 C 106.462 566.579,107.192 565.898,107.893 565.449 C 109.065 564.700,109.205 564.508,109.600 563.125 C 109.964 561.850,110.187 561.506,111.050 560.894 C 111.638 560.476,112.306 559.697,112.630 559.051 C 113.247 557.821,114.475 556.353,114.887 556.353 C 115.391 556.353,116.634 554.992,117.220 553.798 C 117.546 553.136,118.434 551.991,119.195 551.252 C 120.091 550.383,120.890 549.283,121.460 548.134 C 122.053 546.940,122.536 546.285,122.934 546.134 C 123.259 546.010,123.526 545.778,123.526 545.619 C 123.526 545.460,123.601 545.404,123.692 545.495 C 123.900 545.704,124.722 544.001,124.733 543.339 C 124.745 542.624,125.776 541.219,126.791 540.534 C 127.797 539.855,128.225 538.711,128.607 535.684 C 128.749 534.566,128.846 497.477,128.859 439.878 C 128.881 342.789,128.873 343.734,129.648 342.445 L 130.115 341.668 129.191 341.483 C 128.683 341.382,128.213 341.286,128.146 341.270 C 127.874 341.207,124.546 340.896,123.526 340.839 C 122.924 340.805,117.343 340.835,111.125 340.905 M137.750 440.851 C 137.750 491.872,137.777 512.745,137.812 487.234 C 137.846 461.723,137.846 419.979,137.812 394.468 C 137.777 368.957,137.750 389.830,137.750 440.851 M131.611 547.531 C 131.246 547.661,131.201 548.328,131.558 548.328 C 131.809 548.328,132.177 547.647,132.006 547.500 C 131.956 547.457,131.778 547.471,131.611 547.531 M393.249 556.149 C 392.884 556.514,392.853 557.082,393.199 557.082 C 393.493 557.082,393.762 556.483,393.637 556.108 C 393.579 555.934,393.450 555.948,393.249 556.149 M117.991 564.903 C 117.626 565.268,117.595 565.836,117.941 565.836 C 118.234 565.836,118.504 565.237,118.379 564.862 C 118.321 564.688,118.192 564.702,117.991 564.903 M116.185 566.017 C 115.482 566.836,115.441 567.168,116.124 566.512 C 116.503 566.148,116.754 565.792,116.683 565.720 C 116.611 565.648,116.387 565.782,116.185 566.017 M114.100 569.766 C 113.735 570.131,113.705 570.699,114.050 570.699 C 114.344 570.699,114.613 570.101,114.488 569.725 C 114.430 569.551,114.301 569.565,114.100 569.766 " stroke="none" fill="#a9b953" fill-rule="evenodd"></path><path id="path1" d="M137.169 1.529 C 137.628 3.846,137.829 4.132,137.851 2.501 C 137.869 1.262,137.791 0.946,137.419 0.747 C 136.998 0.522,136.980 0.576,137.169 1.529 M271.793 18.963 C 271.425 19.349,271.125 19.941,271.125 20.280 C 271.125 20.646,270.928 21.000,270.638 21.155 C 270.327 21.322,270.152 21.664,270.152 22.107 C 270.152 22.554,269.959 22.926,269.605 23.161 L 269.058 23.524 268.997 112.492 C 268.956 171.021,269.018 201.334,269.175 201.094 C 269.358 200.817,269.420 200.933,269.436 201.581 C 269.453 202.262,269.496 202.334,269.652 201.945 C 269.835 201.491,269.856 201.499,269.967 202.067 L 270.086 202.675 270.143 202.067 L 270.200 201.459 270.380 202.067 C 270.479 202.401,270.683 202.649,270.833 202.617 C 270.984 202.585,271.053 202.699,270.988 202.870 C 270.818 203.311,272.308 205.471,272.950 205.715 C 273.866 206.063,274.797 209.137,274.279 210.103 C 274.088 210.461,274.084 210.700,274.267 210.920 C 275.495 212.400,276.207 235.589,275.135 239.199 C 274.640 240.868,273.330 242.050,271.574 242.412 C 269.568 242.826,100.867 242.663,99.667 242.246 C 98.242 241.750,97.176 240.911,96.657 239.875 C 96.173 238.911,96.170 238.298,96.049 134.590 C 95.914 19.501,96.056 29.283,94.490 27.023 C 92.698 24.437,94.994 24.566,50.138 24.541 C 28.915 24.530,11.003 24.433,10.334 24.325 C 8.064 23.960,6.493 23.586,6.195 23.339 C 6.031 23.203,5.747 23.143,5.563 23.206 C 5.379 23.269,4.805 23.381,4.289 23.456 C 3.147 23.622,1.945 24.432,1.945 25.035 C 1.945 25.279,1.809 25.473,1.641 25.467 C 1.474 25.460,1.036 25.473,0.669 25.494 L 0.000 25.532 0.000 302.675 L 0.000 579.818 1.155 579.893 C 4.964 580.140,91.961 580.186,93.389 579.941 C 96.575 579.396,97.412 578.281,96.673 575.569 L 96.174 573.739 96.110 459.337 L 96.045 344.936 96.653 343.693 C 97.138 342.703,97.522 342.305,98.540 341.742 L 99.818 341.033 111.368 340.912 C 124.313 340.776,126.390 340.859,129.970 341.658 C 132.491 342.220,132.955 342.431,133.734 343.373 C 134.163 343.892,134.625 344.316,134.762 344.316 C 134.899 344.316,135.396 344.726,135.868 345.228 C 136.340 345.729,136.637 345.976,136.528 345.775 C 136.400 345.540,136.518 345.575,136.858 345.874 C 137.418 346.365,137.565 346.644,137.119 346.368 C 136.924 346.248,136.924 346.339,137.118 346.701 C 137.264 346.975,137.312 347.398,137.225 347.642 C 137.094 348.005,137.179 347.982,137.690 347.516 C 138.050 347.188,138.505 346.996,138.763 347.062 C 139.142 347.160,139.131 347.182,138.689 347.206 C 138.283 347.228,137.872 347.649,137.872 348.044 C 137.872 348.067,167.334 348.085,203.343 348.085 L 268.815 348.085 268.936 464.530 L 269.058 580.974 269.605 581.337 C 269.959 581.572,270.152 581.945,270.152 582.392 C 270.152 582.838,270.327 583.177,270.646 583.348 C 271.151 583.618,271.170 583.279,270.727 581.892 C 270.664 581.695,270.688 581.610,270.779 581.701 C 270.871 581.793,271.158 581.598,271.418 581.268 C 271.865 580.700,273.283 580.370,272.948 580.912 C 272.728 581.268,272.952 581.213,273.913 580.673 C 274.760 580.197,275.373 580.191,321.884 580.184 C 367.720 580.178,371.111 580.126,372.242 579.420 C 373.421 578.684,373.780 575.256,372.809 574.018 C 372.688 573.864,372.581 573.574,372.572 573.374 C 372.562 573.173,372.362 572.298,372.128 571.429 C 371.724 569.928,371.699 556.189,371.635 300.669 C 371.585 104.313,371.494 31.095,371.296 30.030 C 370.820 27.460,369.643 25.930,367.538 25.143 C 366.374 24.707,364.571 24.682,324.863 24.540 C 297.193 24.441,283.040 24.306,282.310 24.135 C 281.708 23.995,280.860 23.766,280.426 23.628 C 279.991 23.490,279.635 23.427,279.635 23.488 C 279.635 23.548,279.367 23.422,279.038 23.207 C 278.710 22.991,278.349 22.872,278.236 22.942 C 277.494 23.400,274.736 23.308,274.236 22.808 C 273.851 22.423,273.756 22.393,273.871 22.693 C 273.957 22.917,273.921 23.100,273.792 23.100 C 273.662 23.100,273.556 22.940,273.556 22.743 C 273.556 22.520,273.414 22.441,273.178 22.531 C 272.969 22.611,272.855 22.823,272.924 23.002 C 272.992 23.181,272.927 23.403,272.779 23.495 C 272.615 23.596,272.577 23.551,272.682 23.381 C 272.782 23.219,272.708 23.100,272.506 23.100 C 272.314 23.100,272.014 22.929,271.840 22.719 C 271.559 22.379,271.490 22.399,271.211 22.901 C 270.776 23.687,270.806 23.340,271.270 22.229 C 271.627 21.377,271.627 21.326,271.270 21.621 C 271.056 21.799,270.881 22.129,270.881 22.354 C 270.881 22.580,270.712 22.977,270.504 23.236 C 270.141 23.690,270.133 23.685,270.287 23.100 C 270.565 22.045,271.872 19.601,272.529 18.906 C 272.946 18.464,273.042 18.241,272.811 18.249 C 272.619 18.255,272.161 18.577,271.793 18.963 M271.182 24.649 C 271.356 24.987,271.340 25.057,271.122 24.922 C 270.959 24.822,270.721 24.891,270.590 25.075 C 270.420 25.315,270.392 25.238,270.492 24.802 C 270.569 24.468,270.642 24.030,270.654 23.830 C 270.674 23.506,270.692 23.506,270.812 23.830 C 270.886 24.030,271.053 24.399,271.182 24.649 M270.263 28.058 C 270.172 28.539,270.001 28.872,269.882 28.798 C 269.763 28.725,269.666 28.798,269.666 28.962 C 269.666 29.126,269.601 29.195,269.521 29.116 C 269.441 29.036,269.453 28.620,269.547 28.192 C 269.673 27.620,269.775 27.502,269.932 27.749 C 270.088 27.995,270.146 27.928,270.148 27.497 C 270.150 27.174,270.214 26.972,270.289 27.047 C 270.365 27.123,270.353 27.578,270.263 28.058 M137.623 534.518 C 137.559 535.147,137.596 535.571,137.706 535.461 C 137.816 535.352,137.868 534.837,137.823 534.318 L 137.740 533.374 137.623 534.518 M131.403 547.205 C 131.121 547.488,130.799 547.884,130.686 548.085 C 130.574 548.286,130.845 548.089,131.289 547.649 C 131.733 547.208,132.055 546.812,132.005 546.768 C 131.956 546.725,131.684 546.921,131.403 547.205 M113.886 569.380 C 112.992 570.668,112.964 570.831,113.771 570.029 C 114.210 569.594,114.526 569.110,114.474 568.953 C 114.422 568.797,114.157 568.989,113.886 569.380 M271.125 582.293 C 271.125 582.562,271.358 582.990,271.644 583.245 L 272.164 583.708 271.735 582.857 C 271.181 581.757,271.125 581.706,271.125 582.293 " stroke="none" fill="#9c9c9a" fill-rule="evenodd"></path><path id="path2" d="M22.492 0.864 C 22.004 1.419,21.545 1.694,21.103 1.697 C 20.695 1.700,20.343 1.888,20.182 2.188 C 20.021 2.490,19.672 2.676,19.262 2.677 C 18.799 2.679,18.348 2.968,17.751 3.647 C 17.190 4.285,16.692 4.617,16.292 4.620 C 15.891 4.623,15.393 4.955,14.833 5.593 C 14.295 6.204,13.770 6.561,13.408 6.563 C 13.027 6.565,12.362 7.055,11.429 8.024 C 10.425 9.066,9.844 9.483,9.397 9.483 C 9.020 9.483,8.667 9.677,8.511 9.970 C 8.349 10.271,8.000 10.457,7.590 10.458 C 7.127 10.460,6.676 10.749,6.079 11.429 C 5.518 12.066,5.020 12.398,4.620 12.401 C 4.220 12.404,3.722 12.736,3.161 13.374 C 2.619 13.991,2.100 14.343,1.730 14.344 C 0.251 14.350,0.062 15.036,0.019 20.535 L -0.020 25.545 0.962 25.478 C 1.694 25.428,1.945 25.306,1.945 25.001 C 1.946 24.238,3.495 23.414,5.027 23.362 C 5.881 23.332,6.992 22.202,7.771 20.568 L 8.498 19.046 10.697 18.386 C 12.391 17.877,13.093 17.529,13.751 16.872 C 14.655 15.967,15.929 15.319,16.804 15.319 C 17.502 15.319,19.596 14.017,20.362 13.107 C 21.088 12.243,21.993 11.724,23.951 11.045 C 25.104 10.646,25.564 10.328,26.140 9.530 C 26.652 8.822,27.377 8.267,28.571 7.673 C 30.827 6.550,31.226 6.181,31.742 4.742 C 31.981 4.073,32.260 3.430,32.362 3.314 C 32.463 3.197,32.492 2.962,32.426 2.791 C 32.214 2.237,32.770 2.172,33.598 2.653 C 35.574 3.802,38.419 2.663,38.419 0.723 L 38.419 -0.005 30.821 0.015 L 23.222 0.036 22.492 0.864 M128.544 0.421 C 128.660 0.658,128.781 29.421,128.815 64.681 C 128.849 99.787,128.904 146.128,128.937 167.660 L 128.997 206.809 129.543 208.146 C 130.179 209.701,130.948 210.289,133.147 210.898 C 134.946 211.397,270.487 211.543,272.792 211.049 C 273.757 210.842,274.051 210.658,274.274 210.121 C 274.765 208.933,273.821 205.904,272.882 205.658 C 272.329 205.514,270.824 203.298,270.988 202.870 C 271.053 202.699,270.984 202.585,270.833 202.617 C 270.683 202.649,270.485 202.401,270.393 202.067 L 270.226 201.459 270.101 202.067 L 269.975 202.675 269.925 202.067 C 269.878 201.504,269.859 201.495,269.666 201.945 C 269.494 202.344,269.453 202.279,269.436 201.581 C 269.420 200.933,269.358 200.817,269.175 201.094 C 269.018 201.334,268.957 171.016,268.997 112.601 C 269.030 63.728,269.019 23.953,268.972 24.212 C 268.925 24.470,268.733 24.853,268.547 25.064 C 268.258 25.391,268.198 38.531,268.146 113.210 L 268.085 200.973 203.526 200.973 L 138.967 200.973 138.905 100.486 C 138.845 0.203,138.843 0.000,138.358 0.000 C 137.873 0.000,137.872 0.202,137.812 100.486 L 137.752 200.973 137.619 101.763 C 137.527 32.690,137.408 2.241,137.227 1.526 C 137.084 0.962,137.060 0.557,137.174 0.627 C 137.288 0.697,137.318 0.592,137.242 0.394 C 137.127 0.094,136.357 0.029,132.718 0.012 C 128.602 -0.009,128.346 0.016,128.544 0.421 M286.565 4.265 C 283.482 7.405,282.277 8.480,281.824 8.495 C 281.435 8.508,280.908 8.865,280.365 9.483 C 279.846 10.073,279.299 10.452,278.963 10.454 C 278.144 10.457,271.125 17.525,271.125 18.346 C 271.125 18.701,270.924 19.057,270.638 19.210 C 270.075 19.511,269.950 20.488,270.501 20.276 C 270.954 20.103,270.940 21.438,270.478 22.545 C 270.056 23.557,270.075 23.831,270.524 23.236 C 270.721 22.977,270.881 22.580,270.881 22.354 C 270.881 22.129,271.056 21.799,271.270 21.621 C 271.627 21.326,271.627 21.377,271.270 22.229 C 270.806 23.340,270.776 23.687,271.211 22.901 C 271.490 22.399,271.559 22.379,271.840 22.719 C 272.014 22.929,272.314 23.100,272.506 23.100 C 272.708 23.100,272.782 23.219,272.682 23.381 C 272.577 23.551,272.615 23.596,272.779 23.495 C 272.927 23.403,272.992 23.181,272.924 23.002 C 272.855 22.823,272.969 22.611,273.178 22.531 C 273.414 22.441,273.556 22.520,273.556 22.743 C 273.556 22.940,273.662 23.100,273.792 23.100 C 273.921 23.100,273.957 22.917,273.871 22.693 C 273.756 22.393,273.851 22.423,274.236 22.808 C 274.698 23.269,274.946 23.314,276.395 23.199 C 278.154 23.058,278.313 22.957,279.810 21.022 C 280.316 20.367,281.198 19.715,282.442 19.076 C 284.444 18.048,285.471 17.247,285.471 16.714 C 285.471 16.163,286.736 15.166,288.024 14.701 C 289.604 14.132,289.793 13.971,290.392 12.698 C 290.789 11.853,291.152 11.505,292.134 11.028 C 292.942 10.635,293.697 10.001,294.302 9.209 C 294.892 8.435,295.602 7.833,296.257 7.553 C 296.823 7.310,297.609 6.715,298.004 6.229 C 298.400 5.744,299.036 4.964,299.417 4.497 C 299.799 4.030,300.251 3.647,300.422 3.647 C 301.082 3.647,302.492 1.739,302.492 0.846 L 302.492 -0.008 296.596 0.024 L 290.699 0.055 286.565 4.265 M392.679 2.736 C 392.805 5.065,392.897 528.601,392.773 538.237 C 392.749 540.109,392.743 541.915,392.760 542.249 C 392.811 543.286,392.257 544.051,391.111 544.525 C 389.201 545.315,388.057 549.172,389.483 550.014 C 389.872 550.244,389.861 550.279,389.362 550.420 C 389.061 550.504,388.815 550.665,388.815 550.777 C 388.815 550.889,388.404 551.057,387.903 551.150 C 385.794 551.542,384.816 553.131,384.986 555.891 C 385.048 556.891,385.219 557.693,385.394 557.801 C 385.755 558.024,384.599 559.027,383.979 559.028 C 382.671 559.031,381.248 560.765,380.652 563.082 C 380.362 564.208,380.050 564.732,379.126 565.639 C 378.201 566.547,377.847 567.140,377.387 568.557 C 377.069 569.534,376.721 570.454,376.613 570.600 C 376.506 570.746,376.480 570.928,376.556 571.004 C 376.632 571.080,376.103 571.579,375.380 572.113 C 373.707 573.349,373.252 574.261,373.371 576.134 C 373.529 578.616,372.789 579.559,370.372 579.953 C 369.567 580.085,349.450 580.180,321.884 580.184 C 275.373 580.191,274.760 580.197,273.913 580.673 C 272.952 581.213,272.728 581.268,272.948 580.912 C 273.283 580.370,271.865 580.700,271.418 581.268 C 271.158 581.598,270.871 581.793,270.779 581.701 C 270.688 581.610,270.664 581.695,270.727 581.892 C 270.789 582.088,270.907 582.549,270.987 582.916 L 271.133 583.582 325.110 583.586 C 376.406 583.589,379.088 583.568,379.091 583.162 C 379.092 582.928,379.528 582.353,380.061 581.884 C 380.740 581.287,381.029 580.837,381.031 580.373 C 381.033 579.964,381.218 579.614,381.520 579.453 C 381.836 579.284,382.006 578.944,382.006 578.480 C 382.006 578.017,382.176 577.677,382.492 577.508 C 382.785 577.351,382.979 576.998,382.979 576.621 C 382.979 576.174,383.396 575.593,384.438 574.590 C 385.803 573.274,385.897 573.113,385.897 572.072 C 385.897 571.208,386.005 570.901,386.383 570.699 C 386.685 570.538,386.870 570.188,386.872 569.779 C 386.873 569.315,387.163 568.865,387.842 568.267 C 388.521 567.670,388.811 567.220,388.812 566.756 C 388.814 566.347,388.999 565.997,389.301 565.836 C 389.617 565.667,389.787 565.327,389.787 564.863 C 389.787 564.417,389.957 564.060,390.241 563.908 C 390.548 563.744,390.747 563.274,390.855 562.462 C 390.992 561.426,391.200 561.069,392.346 559.905 C 393.240 558.997,393.678 558.353,393.678 557.947 C 393.678 557.591,393.878 557.235,394.164 557.082 C 394.521 556.891,394.650 556.573,394.650 555.888 C 394.650 554.106,394.928 553.453,396.262 552.097 C 397.136 551.210,397.568 550.570,397.568 550.166 C 397.568 549.810,397.769 549.454,398.055 549.301 C 398.345 549.145,398.541 548.792,398.541 548.423 C 398.541 548.060,398.843 547.503,399.271 547.075 L 400.000 546.346 400.000 273.173 L 400.000 0.000 396.266 0.000 L 392.532 0.000 392.679 2.736 M281.233 10.334 C 280.373 11.122,279.878 11.383,279.878 11.048 C 279.878 10.698,281.268 9.505,281.689 9.495 C 282.066 9.486,281.973 9.656,281.233 10.334 M272.535 18.906 C 272.191 19.274,271.730 19.930,271.511 20.365 C 271.012 21.354,270.936 21.356,271.080 20.374 C 271.203 19.538,272.237 18.268,272.811 18.249 C 273.044 18.241,272.951 18.461,272.535 18.906 M269.587 21.213 C 269.264 21.451,269.165 21.787,269.222 22.454 C 269.294 23.292,269.338 23.341,269.744 23.042 C 270.068 22.804,270.166 22.469,270.109 21.801 C 270.037 20.964,269.993 20.914,269.587 21.213 M270.654 23.830 C 270.642 24.030,270.569 24.468,270.492 24.802 C 270.392 25.238,270.420 25.315,270.590 25.075 C 270.721 24.891,270.959 24.822,271.122 24.922 C 271.340 25.057,271.356 24.987,271.182 24.649 C 271.053 24.399,270.886 24.030,270.812 23.830 C 270.692 23.506,270.674 23.506,270.654 23.830 M129.617 342.432 C 128.934 343.504,128.911 346.491,128.875 439.635 C 128.852 497.287,128.748 534.568,128.607 535.684 C 128.225 538.711,127.797 539.855,126.791 540.534 C 125.776 541.219,124.745 542.624,124.733 543.339 C 124.722 544.001,123.900 545.704,123.692 545.495 C 123.601 545.404,123.526 545.460,123.526 545.619 C 123.526 545.778,123.259 546.010,122.934 546.134 C 122.536 546.285,122.053 546.940,121.460 548.134 C 120.890 549.283,120.091 550.383,119.195 551.252 C 118.434 551.991,117.546 553.136,117.220 553.798 C 116.634 554.992,115.391 556.353,114.887 556.353 C 114.475 556.353,113.247 557.821,112.630 559.051 C 112.306 559.697,111.638 560.476,111.050 560.894 C 110.187 561.506,109.964 561.850,109.600 563.125 C 109.205 564.508,109.065 564.700,107.893 565.449 C 107.192 565.898,106.462 566.579,106.273 566.962 C 105.486 568.557,104.164 570.447,103.682 570.667 C 103.075 570.943,101.632 572.669,101.051 573.812 C 100.609 574.683,99.822 575.562,99.486 575.562 C 99.064 575.562,97.371 577.082,96.861 577.920 C 96.136 579.110,95.257 579.622,93.389 579.941 C 91.936 580.190,5.070 580.151,1.337 579.899 L 0.122 579.818 0.051 581.702 L -0.020 583.587 52.495 583.587 L 105.011 583.587 105.879 582.768 C 106.368 582.307,106.748 581.713,106.748 581.410 C 106.748 581.056,107.419 580.214,108.693 578.967 C 110.020 577.668,110.639 576.882,110.641 576.495 C 110.642 576.139,111.005 575.609,111.611 575.076 C 112.248 574.515,112.580 574.017,112.584 573.617 C 112.587 573.217,112.919 572.719,113.556 572.158 C 114.513 571.317,114.902 570.328,114.165 570.611 C 113.900 570.712,113.810 570.594,113.835 570.178 C 113.854 569.863,113.826 569.446,113.773 569.251 C 113.721 569.057,113.842 568.891,114.043 568.883 C 114.243 568.876,114.462 569.141,114.530 569.472 C 114.685 570.233,119.392 565.769,119.392 564.861 C 119.392 564.529,120.417 563.334,122.310 561.459 C 124.253 559.535,125.228 558.393,125.228 558.042 C 125.228 557.716,125.784 556.979,126.687 556.109 C 127.656 555.176,128.147 554.511,128.148 554.130 C 128.150 553.768,128.507 553.243,129.119 552.705 C 129.724 552.172,130.087 551.642,130.089 551.286 C 130.090 550.899,130.710 550.113,132.036 548.815 C 133.299 547.579,133.982 546.723,133.982 546.377 C 133.982 546.043,134.528 545.317,135.441 544.438 C 136.482 543.434,136.900 542.853,136.900 542.406 C 136.900 542.029,137.093 541.677,137.386 541.520 C 137.771 541.314,137.872 541.011,137.872 540.061 C 137.872 539.111,137.973 538.808,138.358 538.602 C 139.127 538.191,139.249 347.905,138.480 348.015 C 137.995 348.085,137.994 348.294,137.933 441.690 C 137.899 493.173,137.790 535.377,137.690 535.478 C 137.435 535.733,137.704 348.181,137.959 347.660 C 138.074 347.426,138.283 347.234,138.425 347.234 C 138.567 347.234,138.609 347.161,138.520 347.071 C 138.430 346.981,138.097 347.152,137.780 347.450 L 137.204 347.991 137.182 347.430 C 137.147 346.492,137.007 346.028,136.667 345.712 C 136.404 345.468,136.379 345.480,136.534 345.775 C 136.640 345.976,136.340 345.729,135.868 345.228 C 135.396 344.726,134.900 344.316,134.765 344.316 C 134.629 344.316,134.206 343.929,133.825 343.456 C 132.583 341.918,130.298 341.362,129.617 342.432 M268.146 463.065 C 268.201 564.970,268.249 578.213,268.572 578.481 C 268.786 578.658,268.936 579.189,268.936 579.766 C 268.936 580.307,268.964 580.704,268.997 580.648 C 269.313 580.121,268.768 348.083,268.450 348.022 C 268.126 347.959,268.092 360.851,268.146 463.065 M131.955 547.397 C 131.915 548.164,131.307 548.716,131.307 547.984 C 131.307 547.772,131.435 547.599,131.591 547.599 C 131.747 547.599,131.794 547.518,131.696 547.420 C 131.597 547.322,131.296 547.513,131.026 547.846 C 130.756 548.178,130.615 548.286,130.713 548.085 C 130.856 547.792,131.794 546.700,131.955 546.641 C 131.976 546.633,131.976 546.973,131.955 547.397 M393.587 556.725 C 393.417 557.167,392.948 557.197,392.948 556.766 C 392.948 556.323,393.525 555.773,393.637 556.108 C 393.685 556.251,393.662 556.529,393.587 556.725 M118.328 565.479 C 118.159 565.921,117.690 565.950,117.690 565.520 C 117.690 565.077,118.267 564.526,118.379 564.862 C 118.426 565.005,118.404 565.283,118.328 565.479 M116.501 566.273 C 116.360 566.536,116.072 566.818,115.860 566.899 C 115.440 567.060,115.553 566.754,116.185 566.017 C 116.646 565.480,116.840 565.638,116.501 566.273 M269.179 582.111 C 269.179 583.124,269.623 583.595,270.562 583.579 C 270.978 583.572,270.979 583.558,270.578 583.324 C 270.326 583.178,270.152 582.786,270.152 582.367 C 270.152 581.907,269.981 581.567,269.666 581.398 C 269.217 581.158,269.179 581.213,269.179 582.111 M271.845 583.191 C 271.850 583.308,271.690 583.267,271.489 583.100 C 271.289 582.934,271.128 582.565,271.133 582.280 C 271.142 581.749,271.822 582.618,271.845 583.191 " stroke="none" fill="#747e3c" fill-rule="evenodd"></path></g></svg>