<svg id="svg" version="1.1" xmlns="http://www.w3.org/2000/svg" xmlns:xlink="http://www.w3.org/1999/xlink" width="400" height="512" viewBox="0, 0, 400,512"><g id="svgg"><path id="path0" d="M163.532 0.201 C 163.396 0.337,161.389 0.457,159.072 0.466 C 156.280 0.478,154.498 0.672,153.784 1.042 C 153.120 1.386,151.455 1.600,149.434 1.600 C 147.369 1.600,145.961 1.785,145.621 2.100 C 145.184 2.506,145.142 2.488,145.400 2.000 C 145.658 1.512,145.616 1.494,145.179 1.900 C 144.852 2.204,143.512 2.400,141.769 2.400 C 139.705 2.400,138.758 2.569,138.400 3.000 C 138.042 3.431,137.095 3.600,135.031 3.600 C 133.452 3.600,131.989 3.770,131.780 3.977 C 131.571 4.185,130.437 4.398,129.259 4.450 C 127.933 4.510,127.042 4.747,126.917 5.073 C 126.782 5.424,125.951 5.600,124.437 5.600 C 123.185 5.600,121.989 5.766,121.780 5.970 C 121.571 6.173,119.393 6.406,116.939 6.488 C 114.385 6.573,112.242 6.833,111.924 7.097 C 111.619 7.350,110.600 7.603,109.659 7.659 C 108.718 7.714,107.860 7.904,107.751 8.080 C 107.642 8.256,106.856 8.400,106.005 8.400 C 105.154 8.400,104.187 8.670,103.857 9.000 C 103.502 9.355,102.524 9.600,101.462 9.600 C 100.475 9.600,99.607 9.760,99.533 9.956 C 99.460 10.151,98.596 10.402,97.614 10.513 C 96.632 10.624,95.762 10.914,95.681 11.157 C 95.600 11.401,94.929 11.600,94.190 11.600 C 93.452 11.600,92.736 11.780,92.600 12.000 C 92.464 12.220,91.746 12.400,91.005 12.400 C 90.264 12.400,89.401 12.656,89.088 12.969 C 88.738 13.319,87.533 13.573,85.959 13.628 C 84.552 13.678,83.212 13.863,82.981 14.041 C 82.751 14.218,81.883 14.438,81.053 14.530 C 80.223 14.621,79.341 14.899,79.092 15.148 C 78.843 15.397,78.082 15.600,77.400 15.600 C 76.718 15.600,75.989 15.767,75.780 15.971 C 75.571 16.176,74.770 16.401,74.000 16.471 C 73.143 16.550,72.639 16.794,72.700 17.100 C 72.766 17.432,72.271 17.600,71.224 17.600 C 70.357 17.600,69.536 17.780,69.400 18.000 C 69.264 18.220,68.735 18.400,68.225 18.400 C 67.715 18.400,67.074 18.670,66.800 19.000 C 66.498 19.364,65.622 19.600,64.575 19.600 C 63.625 19.600,62.736 19.780,62.600 20.000 C 62.464 20.220,61.746 20.400,61.005 20.400 C 60.264 20.400,59.387 20.670,59.057 21.000 C 58.727 21.330,57.940 21.600,57.309 21.600 C 56.677 21.600,55.989 21.769,55.780 21.976 C 55.571 22.183,54.861 22.449,54.203 22.567 C 53.545 22.685,52.945 22.966,52.870 23.191 C 52.795 23.416,52.163 23.606,51.467 23.613 C 50.770 23.620,49.858 23.884,49.441 24.200 C 49.024 24.516,48.527 24.679,48.338 24.562 C 48.149 24.445,47.886 24.631,47.754 24.975 C 47.602 25.372,47.019 25.600,46.157 25.600 C 45.411 25.600,44.800 25.757,44.800 25.948 C 44.800 26.139,43.951 26.392,42.913 26.509 C 41.875 26.626,40.960 26.919,40.880 27.161 C 40.799 27.402,40.129 27.600,39.390 27.600 C 38.652 27.600,37.936 27.780,37.800 28.000 C 37.664 28.220,37.126 28.400,36.605 28.400 C 36.084 28.400,35.387 28.670,35.057 29.000 C 34.727 29.330,34.095 29.600,33.652 29.600 C 33.209 29.600,32.736 29.780,32.600 30.000 C 32.464 30.220,31.926 30.400,31.405 30.400 C 30.884 30.400,30.187 30.670,29.857 31.000 C 29.527 31.330,28.985 31.600,28.652 31.600 C 28.319 31.600,27.936 31.780,27.800 32.000 C 27.664 32.220,27.133 32.400,26.619 32.400 C 26.106 32.400,25.582 32.670,25.455 33.000 C 25.298 33.410,24.657 33.600,23.436 33.600 C 22.452 33.600,21.536 33.780,21.400 34.000 C 21.264 34.220,20.816 34.400,20.405 34.400 C 19.994 34.400,19.387 34.670,19.057 35.000 C 18.727 35.330,18.084 35.600,17.629 35.600 C 17.173 35.600,16.800 35.768,16.800 35.973 C 16.800 36.179,16.305 36.404,15.700 36.473 C 15.081 36.545,14.644 36.819,14.700 37.100 C 14.755 37.375,14.468 37.600,14.061 37.600 C 13.388 37.600,11.689 38.265,9.905 39.226 C 9.523 39.432,8.893 39.606,8.505 39.613 C 8.117 39.620,7.468 39.877,7.061 40.185 C 6.655 40.493,6.079 40.652,5.782 40.538 C 5.485 40.424,4.647 40.642,3.921 41.022 C 1.564 42.257,1.220 42.400,0.605 42.400 C -0.108 42.400,-0.290 46.974,0.407 47.404 C 0.630 47.542,0.724 47.799,0.615 47.975 C 0.506 48.152,0.863 48.814,1.408 49.448 C 1.953 50.082,2.399 50.818,2.400 51.084 C 2.400 51.350,3.120 52.302,4.000 53.200 C 4.880 54.098,5.600 55.011,5.600 55.230 C 5.600 55.449,5.891 56.072,6.246 56.614 C 6.601 57.156,6.768 57.600,6.617 57.600 C 6.466 57.600,6.713 58.071,7.166 58.647 C 7.618 59.223,7.873 59.898,7.730 60.147 C 7.588 60.396,7.620 60.466,7.800 60.302 C 8.121 60.012,8.447 60.463,9.808 63.082 C 10.174 63.786,10.727 64.574,11.037 64.831 C 11.347 65.088,11.600 65.475,11.600 65.691 C 11.600 65.908,12.050 66.439,12.600 66.871 C 13.150 67.304,13.600 67.969,13.600 68.349 C 13.600 68.729,13.825 69.282,14.100 69.579 C 14.507 70.017,14.488 70.055,14.000 69.782 C 13.366 69.427,13.861 70.214,15.100 71.527 C 15.375 71.819,15.600 72.295,15.600 72.586 C 15.600 72.877,15.881 73.222,16.225 73.354 C 16.569 73.486,16.739 73.776,16.602 73.997 C 16.465 74.219,16.633 74.400,16.976 74.400 C 17.319 74.400,17.600 74.734,17.600 75.142 C 17.600 75.549,18.005 76.321,18.500 76.857 C 19.411 77.842,20.587 79.981,20.483 80.462 C 20.451 80.606,20.690 80.943,21.013 81.211 C 21.336 81.479,21.600 81.970,21.600 82.303 C 21.600 82.636,22.050 83.325,22.600 83.835 C 23.150 84.345,23.600 85.064,23.600 85.434 C 23.600 85.803,24.229 86.699,24.998 87.424 C 25.767 88.149,26.454 89.118,26.524 89.577 C 26.594 90.036,26.864 90.624,27.125 90.885 C 27.386 91.146,27.600 91.658,27.600 92.022 C 27.600 92.385,28.050 93.169,28.600 93.762 C 29.150 94.356,29.600 95.012,29.600 95.221 C 29.600 95.429,29.759 95.600,29.953 95.600 C 30.148 95.600,30.415 95.915,30.548 96.300 C 30.956 97.487,32.456 99.783,33.043 100.120 C 33.349 100.296,33.600 100.862,33.600 101.377 C 33.600 101.893,33.881 102.422,34.225 102.554 C 34.569 102.686,34.748 102.961,34.622 103.165 C 34.496 103.369,34.664 103.807,34.996 104.139 C 35.328 104.471,35.600 104.859,35.600 105.000 C 35.600 105.141,35.825 105.508,36.100 105.815 C 37.287 107.138,37.600 107.591,37.600 107.983 C 37.600 108.212,37.737 108.400,37.905 108.400 C 38.211 108.400,38.933 109.585,39.429 110.900 C 39.574 111.285,39.852 111.600,40.047 111.600 C 40.241 111.600,40.400 111.960,40.400 112.400 C 40.400 112.840,40.545 113.200,40.723 113.200 C 40.901 113.200,41.352 113.894,41.726 114.741 C 42.100 115.589,42.855 116.804,43.403 117.441 C 43.951 118.079,44.399 118.797,44.400 119.038 C 44.400 119.279,44.850 119.999,45.400 120.638 C 45.949 121.277,46.399 121.935,46.400 122.100 C 46.400 122.265,46.670 122.400,47.000 122.400 C 47.419 122.400,47.600 122.822,47.600 123.800 C 47.600 124.570,47.780 125.200,48.000 125.200 C 48.220 125.200,48.400 125.463,48.400 125.784 C 48.400 127.359,52.281 129.163,53.038 127.939 C 53.153 127.752,53.665 127.600,54.175 127.600 C 54.685 127.600,55.326 127.330,55.600 127.000 C 55.874 126.670,56.375 126.400,56.715 126.400 C 57.576 126.400,60.400 125.115,60.400 124.723 C 60.400 124.545,60.850 124.400,61.400 124.400 C 61.950 124.400,62.400 124.220,62.400 124.000 C 62.400 123.780,62.831 123.600,63.357 123.600 C 63.884 123.600,64.418 123.330,64.545 123.000 C 64.677 122.654,65.275 122.400,65.954 122.400 C 66.603 122.400,67.196 122.212,67.273 121.982 C 67.349 121.752,67.859 121.539,68.406 121.508 C 68.953 121.477,69.755 121.215,70.189 120.926 C 70.623 120.637,71.478 120.400,72.089 120.400 C 72.700 120.400,73.200 120.220,73.200 120.000 C 73.200 119.780,73.538 119.600,73.951 119.600 C 74.364 119.600,74.926 119.330,75.200 119.000 C 75.474 118.670,76.000 118.400,76.369 118.400 C 76.738 118.400,77.282 118.175,77.579 117.900 C 78.016 117.494,78.058 117.512,77.800 118.000 C 77.542 118.488,77.584 118.506,78.021 118.100 C 78.318 117.825,78.952 117.600,79.431 117.600 C 79.910 117.600,80.526 117.330,80.800 117.000 C 81.074 116.670,81.711 116.400,82.216 116.400 C 82.720 116.400,83.193 116.236,83.267 116.036 C 83.340 115.836,84.027 115.575,84.793 115.456 C 85.560 115.338,86.250 115.051,86.327 114.820 C 86.404 114.589,87.362 114.400,88.457 114.400 C 89.682 114.400,90.352 114.246,90.200 114.000 C 90.064 113.780,90.323 113.578,90.776 113.550 C 92.184 113.465,92.346 113.414,92.860 112.900 C 93.135 112.625,93.828 112.400,94.400 112.400 C 94.972 112.400,95.611 112.235,95.820 112.033 C 96.029 111.831,96.827 111.570,97.593 111.453 C 98.360 111.336,99.050 111.051,99.127 110.820 C 99.204 110.589,99.702 110.400,100.233 110.400 C 100.765 110.400,101.200 110.220,101.200 110.000 C 101.200 109.780,101.836 109.600,102.613 109.600 C 103.499 109.600,104.111 109.377,104.255 109.000 C 104.420 108.570,105.092 108.400,106.619 108.400 C 107.793 108.400,108.864 108.220,109.000 108.000 C 109.136 107.780,109.742 107.600,110.347 107.600 C 110.952 107.600,111.796 107.336,112.224 107.013 C 112.651 106.690,113.574 106.420,114.276 106.413 C 114.978 106.406,115.664 106.220,115.800 106.000 C 115.936 105.780,116.564 105.600,117.195 105.600 C 117.826 105.600,118.613 105.330,118.943 105.000 C 119.273 104.670,120.171 104.400,120.938 104.400 C 121.705 104.400,122.393 104.226,122.467 104.013 C 122.540 103.800,123.195 103.581,123.923 103.526 C 124.651 103.471,125.438 103.195,125.672 102.913 C 125.906 102.631,126.605 102.400,127.225 102.400 C 127.845 102.400,128.449 102.244,128.567 102.053 C 128.685 101.862,130.172 101.617,131.872 101.508 C 133.660 101.393,135.027 101.118,135.115 100.855 C 135.205 100.586,136.201 100.400,137.553 100.400 C 138.811 100.400,140.011 100.232,140.220 100.027 C 140.429 99.821,141.402 99.575,142.383 99.478 C 143.363 99.382,144.233 99.100,144.316 98.852 C 144.405 98.584,145.430 98.400,146.833 98.400 C 148.144 98.400,149.200 98.222,149.200 98.000 C 149.200 97.780,150.177 97.600,151.371 97.600 C 152.768 97.600,153.757 97.386,154.143 97.000 C 154.563 96.580,155.590 96.400,157.571 96.400 C 159.190 96.400,160.400 96.229,160.400 96.000 C 160.400 95.769,161.650 95.600,163.351 95.600 C 165.486 95.600,166.440 95.434,166.800 95.000 C 167.224 94.489,169.222 94.400,180.225 94.400 C 188.412 94.400,193.243 94.253,193.400 94.000 C 193.712 93.495,198.673 93.471,198.983 93.972 C 199.114 94.185,203.775 94.359,209.883 94.380 C 218.044 94.407,220.700 94.538,221.177 94.938 C 221.520 95.226,222.610 95.508,223.600 95.565 C 224.590 95.622,225.460 95.833,225.533 96.034 C 225.607 96.235,226.532 96.400,227.591 96.400 C 228.932 96.400,229.584 96.582,229.745 97.000 C 229.879 97.351,230.479 97.600,231.187 97.600 C 231.854 97.600,232.400 97.780,232.400 98.000 C 232.400 98.220,233.008 98.400,233.751 98.400 C 234.494 98.400,235.326 98.670,235.600 99.000 C 235.874 99.330,236.400 99.600,236.769 99.600 C 237.138 99.600,237.682 99.825,237.979 100.100 C 238.416 100.506,238.455 100.491,238.186 100.021 C 237.994 99.684,238.365 99.805,239.075 100.311 C 239.746 100.789,240.974 101.264,241.804 101.367 C 242.634 101.470,243.504 101.744,243.737 101.977 C 243.970 102.210,244.465 102.400,244.837 102.400 C 245.210 102.400,245.618 102.670,245.745 103.000 C 245.871 103.330,246.181 103.600,246.434 103.600 C 246.686 103.600,247.727 104.202,248.746 104.937 C 249.766 105.672,250.915 106.386,251.300 106.524 C 251.685 106.662,252.000 106.971,252.000 107.211 C 252.000 107.451,252.161 107.548,252.358 107.426 C 252.555 107.304,252.819 107.474,252.946 107.802 C 253.072 108.131,253.345 108.400,253.554 108.400 C 254.165 108.400,257.600 111.764,257.600 112.362 C 257.600 112.662,258.061 113.336,258.625 113.858 C 259.189 114.381,259.676 115.154,259.708 115.577 C 259.740 115.999,259.909 116.256,260.083 116.149 C 260.257 116.041,260.400 116.239,260.400 116.589 C 260.400 116.939,260.670 117.329,261.000 117.455 C 261.330 117.582,261.600 118.016,261.600 118.419 C 261.600 118.823,261.780 119.264,262.000 119.400 C 262.220 119.536,262.400 119.988,262.400 120.404 C 262.400 120.820,262.715 121.337,263.100 121.552 C 264.127 122.127,264.085 141.201,263.054 142.340 C 262.694 142.738,262.400 143.634,262.400 144.331 C 262.400 145.029,262.220 145.600,262.000 145.600 C 261.780 145.600,261.600 145.951,261.600 146.379 C 261.600 146.808,261.150 147.644,260.600 148.238 C 260.050 148.831,259.600 149.615,259.600 149.978 C 259.600 150.342,259.416 150.824,259.191 151.049 C 258.965 151.275,258.697 151.895,258.595 152.428 C 258.492 152.961,258.226 153.458,258.004 153.532 C 257.782 153.606,257.600 154.020,257.600 154.452 C 257.600 154.885,257.150 155.655,256.600 156.165 C 256.050 156.675,255.600 157.301,255.600 157.557 C 255.600 158.065,245.015 168.799,244.511 168.802 C 244.340 168.803,243.043 169.883,241.628 171.202 C 240.213 172.521,238.878 173.600,238.661 173.600 C 238.444 173.600,238.386 173.719,238.531 173.864 C 238.770 174.104,238.034 174.657,236.401 175.465 C 236.072 175.628,235.388 176.175,234.883 176.681 C 234.377 177.186,233.715 177.600,233.411 177.600 C 233.107 177.600,232.504 178.050,232.071 178.600 C 231.639 179.150,231.168 179.600,231.025 179.600 C 230.882 179.600,230.280 180.050,229.687 180.600 C 229.093 181.150,228.402 181.600,228.150 181.600 C 227.214 181.600,222.400 184.658,222.400 185.253 C 222.400 185.444,222.156 185.600,221.858 185.600 C 221.561 185.600,220.867 186.017,220.317 186.527 C 219.767 187.036,218.706 187.771,217.959 188.159 C 214.835 189.783,214.400 190.063,214.400 190.445 C 214.400 190.666,214.239 190.748,214.042 190.626 C 213.845 190.504,213.581 190.674,213.454 191.002 C 213.328 191.331,212.874 191.600,212.446 191.600 C 212.017 191.600,211.607 191.735,211.533 191.900 C 211.233 192.575,206.412 195.600,205.636 195.600 C 205.176 195.600,204.800 195.760,204.800 195.957 C 204.800 196.153,204.350 196.426,203.800 196.564 C 203.250 196.702,202.800 196.992,202.800 197.208 C 202.800 197.423,202.530 197.600,202.200 197.600 C 201.870 197.600,201.600 197.780,201.600 198.000 C 201.600 198.220,201.234 198.400,200.787 198.400 C 200.341 198.400,199.871 198.670,199.745 199.000 C 199.618 199.330,199.326 199.600,199.095 199.600 C 198.864 199.600,198.086 200.050,197.364 200.600 C 196.643 201.150,195.771 201.600,195.427 201.600 C 195.082 201.600,194.800 201.780,194.800 202.000 C 194.800 202.220,194.462 202.400,194.049 202.400 C 193.636 202.400,193.074 202.670,192.800 203.000 C 192.526 203.330,192.048 203.600,191.738 203.600 C 191.429 203.600,191.071 203.870,190.945 204.200 C 190.818 204.530,190.464 204.800,190.157 204.800 C 189.851 204.800,189.600 204.980,189.600 205.200 C 189.600 205.420,189.330 205.600,189.000 205.600 C 188.670 205.600,188.400 205.780,188.400 206.000 C 188.400 206.220,188.034 206.400,187.587 206.400 C 187.141 206.400,186.671 206.670,186.545 207.000 C 186.418 207.330,186.053 207.600,185.734 207.600 C 185.414 207.600,185.241 207.743,185.349 207.917 C 185.456 208.091,185.177 208.262,184.728 208.295 C 184.278 208.329,183.601 208.637,183.224 208.979 C 182.846 209.320,182.326 209.600,182.069 209.600 C 181.811 209.600,181.600 209.780,181.600 210.000 C 181.600 210.220,181.337 210.400,181.016 210.400 C 180.695 210.400,179.685 211.133,178.771 212.028 C 177.858 212.924,176.778 213.682,176.372 213.712 C 175.966 213.743,175.710 213.844,175.804 213.937 C 176.134 214.268,174.060 215.600,173.213 215.600 C 172.740 215.600,172.452 215.761,172.574 215.957 C 172.695 216.154,172.346 216.427,171.797 216.565 C 171.249 216.703,170.800 216.992,170.800 217.208 C 170.800 217.423,170.596 217.600,170.346 217.600 C 170.096 217.600,169.475 218.050,168.965 218.600 C 168.455 219.150,167.749 219.600,167.395 219.600 C 167.042 219.600,166.864 219.780,167.000 220.000 C 167.136 220.220,166.961 220.400,166.611 220.400 C 166.261 220.400,165.871 220.670,165.745 221.000 C 165.618 221.330,165.305 221.600,165.050 221.600 C 164.794 221.600,163.714 222.320,162.649 223.200 C 161.584 224.080,160.569 224.800,160.394 224.800 C 160.219 224.800,159.165 225.677,158.053 226.749 C 156.941 227.821,155.960 228.626,155.873 228.539 C 155.785 228.452,155.486 228.655,155.208 228.990 C 154.930 229.326,154.499 229.602,154.251 229.604 C 154.003 229.606,153.170 230.324,152.400 231.200 C 151.630 232.076,150.769 232.794,150.487 232.796 C 150.206 232.798,149.855 233.113,149.708 233.495 C 149.435 234.208,147.219 236.400,146.772 236.400 C 146.396 236.400,144.792 237.857,144.967 238.041 C 145.051 238.128,144.867 238.432,144.560 238.716 C 144.252 238.999,144.000 239.107,144.000 238.955 C 144.000 238.802,143.640 239.093,143.200 239.600 C 142.760 240.107,142.400 240.688,142.400 240.890 C 142.400 241.344,141.375 242.398,140.929 242.404 C 140.244 242.413,137.203 245.683,137.461 246.133 C 137.608 246.390,137.586 246.471,137.411 246.314 C 137.010 245.951,135.600 247.710,135.600 248.573 C 135.600 248.929,135.150 249.391,134.600 249.600 C 134.016 249.822,133.600 250.297,133.600 250.743 C 133.600 251.170,133.248 251.599,132.802 251.715 C 132.363 251.830,131.886 252.231,131.742 252.606 C 131.599 252.981,131.058 253.744,130.540 254.302 C 130.023 254.860,129.600 255.661,129.600 256.082 C 129.600 256.503,129.427 256.740,129.216 256.610 C 129.005 256.480,128.420 257.210,127.916 258.234 C 126.421 261.272,126.225 261.600,125.905 261.600 C 125.737 261.600,125.600 261.882,125.600 262.227 C 125.600 262.571,125.150 263.443,124.600 264.164 C 124.050 264.886,123.600 265.738,123.600 266.058 C 123.600 266.378,123.416 266.824,123.191 267.049 C 122.965 267.275,122.700 267.882,122.600 268.400 C 122.500 268.918,122.235 269.525,122.009 269.751 C 121.784 269.976,121.600 270.642,121.600 271.231 C 121.600 271.820,121.330 272.526,121.000 272.800 C 120.670 273.074,120.400 273.638,120.400 274.054 C 120.400 274.829,119.649 276.416,119.086 276.832 C 118.913 276.960,118.677 277.590,118.562 278.232 C 118.447 278.875,118.184 279.460,117.976 279.533 C 117.769 279.607,117.600 280.357,117.600 281.200 C 117.600 282.043,117.416 282.795,117.191 282.870 C 116.966 282.945,116.685 283.545,116.567 284.203 C 116.449 284.861,116.183 285.571,115.976 285.780 C 115.769 285.989,115.600 287.168,115.600 288.400 C 115.600 289.632,115.406 290.834,115.169 291.071 C 114.927 291.313,114.636 293.910,114.508 296.965 C 114.382 299.970,114.126 302.522,113.940 302.637 C 113.521 302.896,113.482 343.199,113.900 343.201 C 114.566 343.204,239.436 343.206,239.900 343.203 C 240.292 343.201,240.400 339.486,240.400 325.971 C 240.400 312.116,240.505 308.638,240.935 308.208 C 241.230 307.913,241.504 306.711,241.545 305.536 C 241.586 304.361,241.795 303.340,242.010 303.267 C 242.224 303.193,242.400 302.533,242.400 301.800 C 242.400 301.067,242.607 300.398,242.861 300.313 C 243.284 300.172,243.479 299.388,243.567 297.476 C 243.585 297.078,243.780 296.864,244.000 297.000 C 244.227 297.140,244.400 296.804,244.400 296.224 C 244.400 295.661,244.580 295.200,244.800 295.200 C 245.020 295.200,245.200 294.952,245.200 294.649 C 245.200 294.346,245.470 293.874,245.800 293.600 C 246.130 293.326,246.400 292.853,246.400 292.549 C 246.400 292.245,247.300 291.115,248.400 290.038 C 249.500 288.961,250.400 287.911,250.400 287.706 C 250.400 287.246,253.208 284.400,253.662 284.400 C 254.226 284.400,255.570 283.074,255.356 282.729 C 255.244 282.548,255.517 282.400,255.962 282.400 C 256.408 282.400,256.987 281.995,257.251 281.500 C 257.830 280.411,259.934 278.495,260.900 278.177 C 261.285 278.050,261.600 277.768,261.600 277.549 C 261.600 277.331,261.780 277.264,262.000 277.400 C 262.220 277.536,262.400 277.367,262.400 277.024 C 262.400 276.631,262.758 276.400,263.367 276.400 C 263.898 276.400,264.393 276.265,264.467 276.100 C 264.540 275.935,265.410 275.278,266.400 274.639 C 267.390 274.001,268.344 273.236,268.520 272.939 C 268.696 272.643,269.092 272.400,269.401 272.400 C 269.709 272.400,270.573 271.770,271.321 271.000 C 272.069 270.230,273.055 269.600,273.512 269.600 C 273.969 269.600,274.613 269.330,274.943 269.000 C 275.273 268.670,275.736 268.400,275.971 268.400 C 276.207 268.400,276.400 268.261,276.400 268.091 C 276.400 267.921,277.030 267.443,277.800 267.028 C 278.570 266.613,279.200 266.122,279.200 265.937 C 279.200 265.752,279.470 265.600,279.800 265.600 C 280.130 265.600,280.400 265.330,280.400 265.000 C 280.400 264.627,280.778 264.400,281.400 264.400 C 281.950 264.400,282.400 264.219,282.400 263.999 C 282.400 263.778,283.120 263.286,284.000 262.904 C 284.880 262.523,285.600 262.074,285.600 261.906 C 285.600 261.738,285.966 261.600,286.413 261.600 C 286.859 261.600,287.329 261.330,287.455 261.000 C 287.582 260.670,288.007 260.400,288.400 260.400 C 288.793 260.400,289.222 260.119,289.354 259.775 C 289.486 259.431,289.749 259.245,289.939 259.362 C 290.129 259.479,290.701 259.131,291.212 258.588 C 291.722 258.044,292.384 257.600,292.682 257.600 C 292.981 257.600,293.329 257.330,293.455 257.000 C 293.582 256.670,294.120 256.400,294.651 256.400 C 295.601 256.400,298.873 254.604,299.133 253.940 C 299.207 253.753,299.502 253.600,299.791 253.600 C 300.079 253.600,300.418 253.330,300.545 253.000 C 300.671 252.670,301.141 252.400,301.587 252.400 C 302.034 252.400,302.400 252.220,302.400 252.000 C 302.400 251.780,302.642 251.600,302.938 251.600 C 303.234 251.600,303.999 251.150,304.638 250.600 C 305.277 250.051,306.019 249.601,306.288 249.600 C 306.999 249.600,309.717 248.123,310.710 247.198 C 311.181 246.759,311.754 246.400,311.983 246.400 C 312.212 246.400,312.400 246.240,312.400 246.043 C 312.400 245.847,312.850 245.574,313.400 245.436 C 313.950 245.298,314.400 245.008,314.400 244.792 C 314.400 244.577,314.588 244.400,314.817 244.400 C 315.047 244.400,315.720 243.950,316.313 243.400 C 316.907 242.850,317.799 242.400,318.296 242.400 C 318.793 242.400,319.200 242.241,319.200 242.047 C 319.200 241.852,319.515 241.588,319.900 241.458 C 320.701 241.189,321.915 240.430,322.712 239.700 C 323.012 239.425,323.406 239.200,323.589 239.200 C 323.771 239.200,324.550 238.570,325.320 237.800 C 326.090 237.030,326.986 236.400,327.311 236.400 C 327.636 236.400,328.124 236.132,328.396 235.804 C 328.668 235.477,329.027 235.293,329.193 235.396 C 329.360 235.499,330.014 235.137,330.648 234.592 C 331.282 234.047,331.935 233.601,332.100 233.600 C 332.265 233.600,332.400 233.330,332.400 233.000 C 332.400 232.654,332.762 232.400,333.254 232.400 C 333.724 232.400,334.525 231.950,335.035 231.400 C 335.545 230.850,336.161 230.400,336.405 230.400 C 336.648 230.400,336.759 230.257,336.651 230.083 C 336.544 229.909,336.823 229.738,337.272 229.705 C 337.722 229.671,338.399 229.363,338.776 229.021 C 339.154 228.680,339.592 228.400,339.749 228.400 C 339.906 228.400,340.520 227.950,341.113 227.400 C 341.707 226.850,342.338 226.400,342.516 226.400 C 342.694 226.400,343.488 225.770,344.281 225.000 C 345.074 224.230,345.875 223.600,346.061 223.600 C 346.248 223.600,346.400 223.330,346.400 223.000 C 346.400 222.652,346.762 222.400,347.262 222.400 C 348.151 222.400,350.331 220.948,351.881 219.323 C 352.365 218.815,352.879 218.400,353.023 218.400 C 353.167 218.400,353.639 217.950,354.071 217.400 C 354.504 216.850,355.121 216.400,355.443 216.400 C 356.021 216.400,356.992 215.649,359.194 213.500 C 359.814 212.895,360.416 212.400,360.531 212.400 C 360.647 212.400,362.314 210.870,364.235 209.000 C 366.156 207.130,367.879 205.600,368.064 205.600 C 368.249 205.600,368.400 205.330,368.400 205.000 C 368.400 204.670,368.593 204.400,368.829 204.400 C 369.064 204.400,369.514 204.143,369.829 203.829 C 370.143 203.514,370.400 203.064,370.400 202.829 C 370.400 202.593,370.638 202.400,370.929 202.400 C 371.220 202.400,372.065 201.676,372.807 200.792 C 373.549 199.907,375.226 198.063,376.533 196.693 C 377.841 195.323,379.083 193.707,379.294 193.102 C 379.505 192.496,379.845 192.104,380.049 192.230 C 380.253 192.356,380.394 192.311,380.363 192.130 C 380.193 191.153,380.470 190.400,381.000 190.400 C 381.330 190.400,381.600 190.158,381.600 189.862 C 381.600 189.566,381.960 188.998,382.400 188.600 C 382.840 188.202,383.200 187.642,383.200 187.355 C 383.200 187.069,383.918 186.062,384.795 185.117 C 385.672 184.173,386.392 183.076,386.395 182.681 C 386.398 182.285,386.850 181.545,387.400 181.035 C 387.950 180.525,388.400 179.724,388.400 179.254 C 388.400 178.784,388.625 178.399,388.900 178.397 C 389.470 178.393,390.400 176.603,390.400 175.508 C 390.400 175.105,390.669 174.672,390.998 174.546 C 391.326 174.419,391.508 174.175,391.402 174.003 C 391.296 173.831,391.477 173.468,391.804 173.196 C 392.132 172.924,392.406 172.409,392.413 172.051 C 392.420 171.693,392.690 171.051,393.013 170.624 C 393.336 170.196,393.600 169.352,393.600 168.747 C 393.600 168.142,393.780 167.536,394.000 167.400 C 394.220 167.264,394.400 166.825,394.400 166.425 C 394.400 166.025,394.631 165.506,394.913 165.272 C 395.195 165.038,395.471 164.254,395.527 163.530 C 395.582 162.806,395.801 162.039,396.013 161.827 C 396.226 161.614,396.400 160.951,396.400 160.353 C 396.400 159.756,396.584 159.205,396.809 159.130 C 397.034 159.055,397.314 158.461,397.433 157.809 C 397.551 157.158,397.862 156.360,398.124 156.036 C 398.511 155.556,398.488 155.509,398.000 155.782 C 397.512 156.055,397.493 156.017,397.900 155.579 C 398.175 155.282,398.400 154.641,398.400 154.153 C 398.400 153.666,398.596 153.201,398.836 153.121 C 400.178 152.674,400.298 104.218,398.963 102.114 C 398.653 101.627,398.400 100.512,398.400 99.638 C 398.400 98.763,398.220 97.936,398.000 97.800 C 397.780 97.664,397.600 97.133,397.600 96.619 C 397.600 96.106,397.330 95.582,397.000 95.455 C 396.653 95.322,396.400 94.724,396.400 94.036 C 396.400 93.382,396.220 92.736,396.000 92.600 C 395.780 92.464,395.600 91.843,395.600 91.219 C 395.600 90.581,395.338 89.985,395.000 89.855 C 394.670 89.729,394.400 89.169,394.400 88.613 C 394.400 88.056,394.220 87.600,394.000 87.600 C 393.780 87.600,393.600 86.953,393.600 86.162 C 393.600 85.371,393.346 84.246,393.036 83.662 C 392.726 83.078,392.177 81.925,391.817 81.100 C 391.457 80.275,390.991 79.600,390.781 79.600 C 390.572 79.600,390.400 79.150,390.400 78.600 C 390.400 78.050,390.220 77.600,390.000 77.600 C 389.780 77.600,389.600 77.259,389.600 76.843 C 389.600 76.426,389.330 75.982,389.000 75.855 C 388.670 75.729,388.400 75.393,388.400 75.108 C 388.400 74.824,387.950 74.107,387.400 73.513 C 386.850 72.920,386.400 72.067,386.400 71.617 C 386.400 71.168,386.220 70.800,386.000 70.800 C 385.780 70.800,385.600 70.529,385.600 70.197 C 385.600 69.866,385.150 69.203,384.600 68.725 C 384.050 68.247,383.600 67.613,383.600 67.315 C 383.600 67.018,383.330 66.671,383.000 66.545 C 382.670 66.418,382.400 66.090,382.400 65.816 C 382.400 65.541,381.950 64.831,381.400 64.238 C 380.850 63.644,380.400 63.065,380.400 62.951 C 380.400 62.836,380.175 62.492,379.900 62.185 C 378.713 60.862,378.400 60.409,378.400 60.017 C 378.400 59.788,378.130 59.600,377.800 59.600 C 377.470 59.600,377.245 59.375,377.300 59.100 C 377.355 58.825,377.175 58.645,376.900 58.700 C 376.625 58.755,376.398 58.575,376.396 58.300 C 376.394 58.025,375.676 57.170,374.800 56.400 C 373.924 55.630,373.206 54.801,373.204 54.559 C 373.198 53.848,365.713 46.517,364.399 45.936 C 363.740 45.644,363.200 45.283,363.200 45.134 C 363.200 44.596,359.955 41.600,359.372 41.600 C 359.044 41.600,358.672 41.331,358.546 41.002 C 358.419 40.674,358.154 40.505,357.955 40.628 C 357.757 40.750,357.486 40.569,357.354 40.225 C 357.222 39.881,356.855 39.600,356.538 39.600 C 356.221 39.600,355.545 39.150,355.035 38.600 C 354.525 38.050,353.994 37.600,353.854 37.600 C 353.714 37.600,352.873 36.873,351.985 35.985 C 351.097 35.097,350.196 34.479,349.983 34.611 C 349.769 34.743,349.486 34.569,349.354 34.225 C 349.202 33.828,348.619 33.600,347.757 33.600 C 347.011 33.600,346.400 33.407,346.400 33.171 C 346.400 32.711,345.417 31.600,345.009 31.600 C 344.873 31.600,344.345 31.150,343.835 30.600 C 343.325 30.050,342.713 29.600,342.475 29.600 C 342.236 29.600,341.556 29.150,340.962 28.600 C 340.369 28.050,339.549 27.600,339.142 27.600 C 338.734 27.600,338.400 27.455,338.400 27.277 C 338.400 26.870,335.561 25.600,334.653 25.600 C 334.280 25.600,333.871 25.330,333.745 25.000 C 333.618 24.670,333.163 24.400,332.734 24.400 C 332.304 24.400,332.041 24.257,332.149 24.083 C 332.256 23.909,331.968 23.738,331.508 23.703 C 331.048 23.668,330.548 23.439,330.396 23.194 C 330.003 22.558,328.047 21.600,327.142 21.600 C 326.720 21.600,326.271 21.330,326.145 21.000 C 326.018 20.670,325.584 20.400,325.181 20.400 C 324.777 20.400,324.336 20.220,324.200 20.000 C 324.064 19.780,323.443 19.600,322.819 19.600 C 322.181 19.600,321.585 19.338,321.455 19.000 C 321.329 18.670,320.769 18.400,320.213 18.400 C 319.656 18.400,319.200 18.220,319.200 18.000 C 319.200 17.780,318.750 17.600,318.200 17.600 C 317.650 17.600,317.200 17.455,317.200 17.277 C 317.200 16.835,314.326 15.600,313.299 15.600 C 312.841 15.600,312.406 15.418,312.332 15.196 C 312.258 14.974,311.761 14.708,311.228 14.605 C 310.695 14.503,310.075 14.235,309.849 14.009 C 309.624 13.784,308.598 13.600,307.569 13.600 C 306.394 13.600,305.513 13.377,305.200 13.000 C 304.926 12.670,304.184 12.400,303.551 12.400 C 302.918 12.400,302.400 12.220,302.400 12.000 C 302.400 11.780,301.757 11.600,300.971 11.600 C 300.186 11.600,299.273 11.330,298.943 11.000 C 298.613 10.670,297.906 10.400,297.371 10.400 C 296.837 10.400,296.400 10.220,296.400 10.000 C 296.400 9.780,295.702 9.600,294.849 9.600 C 293.958 9.600,293.086 9.345,292.800 9.000 C 292.526 8.670,291.885 8.400,291.375 8.400 C 290.865 8.400,290.336 8.220,290.200 8.000 C 290.064 7.780,289.264 7.600,288.422 7.600 C 287.580 7.600,286.376 7.331,285.746 7.002 C 285.019 6.623,283.467 6.404,281.500 6.402 C 279.702 6.401,278.400 6.232,278.400 6.000 C 278.400 5.780,277.519 5.600,276.443 5.600 C 275.067 5.600,274.417 5.421,274.254 4.996 C 274.127 4.664,273.882 4.416,273.711 4.444 C 272.612 4.624,269.989 4.341,270.163 4.060 C 270.278 3.873,269.096 3.683,267.535 3.638 C 265.691 3.584,264.496 3.353,264.120 2.977 C 263.737 2.594,262.679 2.400,260.971 2.400 C 259.524 2.400,258.400 2.225,258.400 2.000 C 258.400 1.769,257.144 1.600,255.433 1.600 C 253.535 1.600,252.411 1.433,252.312 1.135 C 252.037 0.312,164.344 -0.611,163.532 0.201 M236.400 11.569 C 241.063 11.996,248.459 12.891,256.400 13.990 C 262.369 14.816,265.491 15.348,271.000 16.475 C 274.300 17.151,277.450 17.783,278.000 17.881 C 280.067 18.248,284.003 19.244,286.261 19.971 C 287.547 20.386,290.670 21.294,293.200 21.989 C 331.884 32.619,366.248 59.388,378.198 88.200 C 387.300 110.145,388.123 138.371,380.320 161.000 C 379.862 162.328,379.356 163.526,377.871 166.800 C 377.322 168.010,376.412 170.045,375.849 171.322 C 374.998 173.251,366.455 186.547,365.647 187.200 C 365.511 187.310,364.688 188.300,363.818 189.400 C 358.988 195.507,346.715 206.498,335.785 214.505 C 325.214 222.249,307.935 233.618,297.200 239.894 C 295.330 240.987,291.730 243.102,289.200 244.595 C 286.670 246.088,283.970 247.663,283.200 248.095 C 282.430 248.527,281.516 249.133,281.169 249.441 C 280.821 249.748,280.403 250.000,280.239 250.000 C 279.345 250.000,256.184 265.053,249.476 269.994 C 242.718 274.971,234.311 283.665,231.813 288.259 C 231.113 289.547,230.089 291.410,229.537 292.400 C 226.562 297.737,225.190 305.891,224.859 320.200 L 224.600 331.400 176.908 331.502 L 129.216 331.603 128.954 330.558 C 128.552 328.956,129.062 303.822,129.570 300.200 C 131.192 288.637,132.648 283.194,136.214 275.363 C 142.221 262.173,144.619 258.685,154.987 248.056 C 164.457 238.348,178.391 227.561,193.800 218.007 C 195.340 217.052,197.230 215.874,198.000 215.389 C 199.261 214.594,202.547 212.641,219.200 202.794 C 240.591 190.146,260.367 174.870,267.869 165.200 C 272.032 159.835,276.993 150.146,278.023 145.368 C 281.698 128.330,279.601 116.823,270.848 105.981 C 264.825 98.521,252.640 91.020,241.800 88.100 C 241.360 87.981,240.820 87.755,240.600 87.597 C 239.740 86.980,233.505 85.395,227.200 84.192 C 207.627 80.457,167.963 81.723,142.800 86.885 C 140.710 87.314,138.190 87.816,137.200 88.000 C 133.779 88.637,122.585 91.263,118.200 92.457 C 108.026 95.227,90.459 100.506,87.800 101.593 C 86.746 102.024,81.844 103.651,77.600 104.979 C 74.062 106.085,69.466 107.711,67.400 108.586 C 62.697 110.577,58.371 112.074,57.872 111.883 C 57.341 111.679,53.875 106.290,46.040 93.485 C 44.588 91.112,40.367 84.272,36.659 78.285 C 32.952 72.298,28.706 65.420,27.223 63.000 C 25.740 60.580,23.319 56.636,21.842 54.235 C 20.365 51.835,19.122 49.715,19.078 49.525 C 18.909 48.777,27.182 45.146,35.800 42.186 C 38.220 41.355,40.380 40.548,40.600 40.393 C 41.208 39.965,67.031 31.489,73.400 29.627 C 76.480 28.726,79.540 27.823,80.200 27.618 C 83.090 26.724,92.763 24.258,101.400 22.213 C 104.700 21.431,108.030 20.619,108.800 20.407 C 110.595 19.913,115.073 18.974,118.400 18.393 C 119.830 18.144,121.810 17.780,122.800 17.586 C 125.739 17.008,139.501 14.915,143.600 14.423 C 145.690 14.172,148.660 13.787,150.200 13.568 C 155.470 12.819,169.277 11.706,179.400 11.216 C 189.238 10.739,230.104 10.992,236.400 11.569 M167.767 387.993 C 167.562 388.198,165.914 388.396,164.103 388.435 C 161.878 388.482,160.663 388.683,160.356 389.053 C 160.075 389.392,159.083 389.600,157.751 389.600 C 156.568 389.600,155.600 389.780,155.600 390.000 C 155.600 390.232,154.298 390.401,152.500 390.402 C 150.533 390.404,148.981 390.623,148.254 391.002 C 147.624 391.331,146.589 391.600,145.954 391.600 C 145.319 391.600,144.800 391.780,144.800 392.000 C 144.800 392.220,144.384 392.400,143.876 392.400 C 143.369 392.400,142.604 392.664,142.176 392.987 C 141.749 393.310,140.995 393.580,140.500 393.587 C 140.005 393.594,139.600 393.780,139.600 394.000 C 139.600 394.220,139.163 394.400,138.629 394.400 C 138.094 394.400,137.387 394.670,137.057 395.000 C 136.727 395.330,136.185 395.600,135.852 395.600 C 135.519 395.600,135.136 395.780,135.000 396.000 C 134.864 396.220,134.425 396.400,134.025 396.400 C 133.625 396.400,133.074 396.670,132.800 397.000 C 132.526 397.330,131.694 397.600,130.951 397.600 C 130.208 397.600,129.600 397.760,129.600 397.957 C 129.600 398.153,129.150 398.426,128.600 398.564 C 128.050 398.702,127.600 398.992,127.600 399.208 C 127.600 399.423,127.329 399.600,126.998 399.600 C 126.102 399.600,121.600 402.518,121.600 403.099 C 121.600 403.374,121.326 403.600,120.992 403.600 C 119.943 403.600,117.146 405.585,117.449 406.114 C 117.603 406.381,117.577 406.462,117.392 406.294 C 117.032 405.968,114.800 407.893,114.800 408.530 C 114.800 408.739,113.630 410.024,112.200 411.386 C 110.770 412.747,109.600 413.995,109.600 414.159 C 109.600 414.323,109.330 414.727,109.000 415.057 C 108.670 415.387,108.400 416.094,108.400 416.629 C 108.400 417.163,108.220 417.600,108.000 417.600 C 107.780 417.600,107.600 417.870,107.600 418.200 C 107.600 418.530,107.465 418.801,107.300 418.803 C 106.912 418.806,105.600 421.107,105.600 421.783 C 105.600 422.069,105.360 422.502,105.066 422.745 C 104.772 422.989,104.293 423.914,104.000 424.800 C 103.707 425.686,103.228 426.611,102.934 426.855 C 102.640 427.098,102.400 427.895,102.400 428.625 C 102.400 429.355,102.243 430.050,102.051 430.168 C 101.859 430.287,101.669 432.139,101.629 434.285 C 101.579 436.994,101.384 438.375,100.993 438.808 C 100.154 439.735,100.161 460.733,101.000 461.841 C 101.398 462.367,101.578 463.710,101.587 466.220 C 101.594 468.211,101.779 470.019,101.998 470.238 C 102.216 470.456,102.437 471.134,102.487 471.743 C 102.537 472.352,102.808 473.041,103.089 473.274 C 103.370 473.507,103.600 473.918,103.600 474.188 C 103.600 474.702,104.107 475.708,106.027 479.000 C 106.669 480.100,107.306 481.315,107.444 481.700 C 107.581 482.085,107.852 482.400,108.047 482.400 C 108.241 482.400,108.400 482.772,108.400 483.227 C 108.400 484.254,109.960 486.395,112.588 488.973 C 113.694 490.058,114.783 491.314,115.007 491.765 C 115.232 492.216,115.844 492.798,116.368 493.059 C 116.892 493.320,117.895 494.179,118.596 494.967 C 119.297 495.755,120.080 496.400,120.335 496.400 C 120.591 496.400,120.800 496.580,120.800 496.800 C 120.800 497.020,121.076 497.200,121.413 497.200 C 121.749 497.200,122.129 497.470,122.255 497.800 C 122.382 498.130,122.897 498.400,123.400 498.400 C 123.903 498.400,124.418 498.670,124.545 499.000 C 124.671 499.330,125.098 499.600,125.492 499.600 C 125.886 499.600,126.927 500.227,127.804 500.992 C 128.682 501.758,129.715 502.388,130.100 502.392 C 130.485 502.397,130.800 502.563,130.800 502.763 C 130.800 502.962,131.835 503.449,133.100 503.844 C 134.365 504.239,135.638 504.796,135.929 505.081 C 136.219 505.366,136.984 505.600,137.629 505.600 C 138.273 505.600,138.800 505.780,138.800 506.000 C 138.800 506.220,139.411 506.400,140.157 506.400 C 140.995 506.400,141.603 506.630,141.745 507.000 C 141.871 507.330,142.341 507.600,142.787 507.600 C 143.234 507.600,143.600 507.780,143.600 508.000 C 143.600 508.220,144.500 508.400,145.600 508.400 C 147.145 508.400,147.600 508.542,147.600 509.024 C 147.600 509.367,147.748 509.556,147.929 509.444 C 148.109 509.332,148.760 509.502,149.374 509.820 C 149.989 510.139,151.176 510.400,152.012 510.400 C 152.849 510.400,153.598 510.593,153.676 510.829 C 153.956 511.667,157.664 511.796,181.000 511.783 C 206.403 511.769,206.977 511.750,207.651 510.939 C 207.913 510.623,208.897 510.400,210.025 510.400 C 211.085 510.400,212.064 510.220,212.200 510.000 C 212.336 509.780,212.955 509.600,213.575 509.600 C 214.195 509.600,214.926 509.330,215.200 509.000 C 215.474 508.670,216.306 508.400,217.049 508.400 C 217.792 508.400,218.400 508.220,218.400 508.000 C 218.400 507.780,218.837 507.600,219.371 507.600 C 219.906 507.600,220.613 507.330,220.943 507.000 C 221.273 506.670,221.901 506.400,222.338 506.400 C 222.775 506.400,223.197 506.209,223.275 505.976 C 223.352 505.743,223.998 505.535,224.710 505.515 C 225.421 505.495,226.204 505.236,226.451 504.939 C 226.697 504.643,227.281 504.387,227.749 504.371 C 228.217 504.355,229.140 503.997,229.800 503.575 C 230.460 503.154,231.270 502.701,231.600 502.568 C 233.288 501.891,234.231 501.352,234.520 500.901 C 234.696 500.625,235.125 500.400,235.474 500.400 C 235.823 500.400,236.525 499.950,237.035 499.400 C 237.545 498.850,238.375 498.398,238.881 498.395 C 239.453 498.392,240.749 497.487,242.316 495.995 C 243.699 494.678,244.985 493.600,245.173 493.600 C 245.361 493.600,245.618 493.330,245.745 493.000 C 245.871 492.670,246.174 492.400,246.418 492.400 C 246.987 492.400,249.200 490.197,249.200 489.631 C 249.200 489.394,249.432 489.200,249.716 489.200 C 250.000 489.200,250.758 488.300,251.400 487.200 C 252.042 486.100,252.689 485.200,252.837 485.200 C 252.986 485.200,253.221 484.885,253.360 484.500 C 253.740 483.448,254.597 482.068,255.549 480.973 C 256.017 480.434,256.400 479.655,256.400 479.240 C 256.400 478.825,256.670 478.382,257.000 478.255 C 257.330 478.129,257.600 477.580,257.600 477.036 C 257.600 476.492,257.780 475.936,258.000 475.800 C 258.220 475.664,258.400 474.843,258.400 473.976 C 258.400 472.842,258.568 472.400,259.000 472.400 C 259.419 472.400,259.600 471.978,259.600 471.000 C 259.600 470.230,259.780 469.600,260.000 469.600 C 260.220 469.600,260.400 468.964,260.400 468.186 C 260.400 467.408,260.643 466.373,260.941 465.886 C 261.239 465.399,261.523 464.100,261.572 463.000 C 261.621 461.900,261.828 460.829,262.031 460.620 C 262.544 460.092,262.514 440.118,262.000 439.800 C 261.780 439.664,261.600 438.548,261.600 437.320 C 261.600 435.680,261.415 434.936,260.900 434.514 C 260.472 434.163,260.433 434.053,260.800 434.229 C 261.287 434.463,261.306 434.416,260.900 433.979 C 260.625 433.682,260.400 432.846,260.400 432.120 C 260.400 431.394,260.220 430.800,260.000 430.800 C 259.780 430.800,259.600 430.102,259.600 429.249 C 259.600 428.358,259.345 427.486,259.000 427.200 C 258.670 426.926,258.400 426.195,258.400 425.575 C 258.400 424.955,258.220 424.336,258.000 424.200 C 257.780 424.064,257.600 423.436,257.600 422.805 C 257.600 422.174,257.330 421.387,257.000 421.057 C 256.670 420.727,256.397 420.219,256.392 419.929 C 256.388 419.638,255.758 418.682,254.992 417.804 C 254.227 416.927,253.600 416.100,253.600 415.967 C 253.600 415.833,253.150 415.201,252.600 414.562 C 252.051 413.923,251.601 413.202,251.600 412.961 C 251.600 412.285,244.057 404.800,243.376 404.800 C 243.046 404.800,242.671 404.530,242.545 404.200 C 242.418 403.870,242.142 403.600,241.931 403.600 C 241.719 403.600,240.957 403.150,240.236 402.600 C 239.514 402.050,238.760 401.600,238.558 401.600 C 238.357 401.600,237.707 401.150,237.113 400.600 C 236.520 400.050,235.835 399.600,235.591 399.600 C 235.346 399.600,234.557 399.150,233.836 398.600 C 233.103 398.041,231.989 397.600,231.311 397.600 C 230.644 397.600,229.876 397.332,229.604 397.004 C 229.332 396.677,228.976 396.491,228.814 396.592 C 228.651 396.692,228.176 396.516,227.759 396.200 C 227.342 395.884,226.617 395.620,226.149 395.613 C 225.681 395.606,225.074 395.330,224.800 395.000 C 224.526 394.670,223.975 394.400,223.575 394.400 C 223.175 394.400,222.736 394.220,222.600 394.000 C 222.464 393.780,221.928 393.600,221.410 393.600 C 220.891 393.600,220.404 393.411,220.327 393.180 C 220.250 392.949,219.560 392.662,218.793 392.544 C 218.027 392.425,217.340 392.164,217.267 391.964 C 217.193 391.764,216.629 391.600,216.012 391.600 C 215.396 391.600,214.408 391.349,213.817 391.043 C 213.226 390.736,211.671 390.470,210.362 390.452 C 209.053 390.433,207.637 390.234,207.217 390.009 C 206.797 389.784,205.618 389.600,204.598 389.600 C 203.482 389.600,202.504 389.361,202.143 389.000 C 201.711 388.568,200.660 388.400,198.395 388.400 C 196.664 388.400,195.139 388.225,195.007 388.011 C 194.692 387.502,168.275 387.485,167.767 387.993 M193.323 399.798 C 198.938 400.363,206.217 401.607,208.400 402.374 C 208.950 402.568,210.390 403.022,211.600 403.383 C 212.810 403.744,214.970 404.502,216.400 405.068 C 217.830 405.634,219.900 406.450,221.000 406.882 C 238.408 413.717,246.800 427.788,246.800 450.139 C 246.800 462.235,245.326 468.233,239.966 477.952 C 235.723 485.646,222.804 494.176,210.210 497.600 C 208.665 498.020,206.410 498.646,205.200 498.990 C 192.264 502.673,166.655 502.387,154.800 498.427 C 154.250 498.243,152.990 497.858,152.000 497.572 C 125.528 489.911,114.015 473.418,115.682 445.546 C 116.720 428.191,123.062 416.688,135.439 409.710 C 150.242 401.365,171.955 397.647,193.323 399.798 " stroke="none" fill="#838383" fill-rule="evenodd"></path><path id="path1" d="M179.400 11.216 C 169.277 11.706,155.470 12.819,150.200 13.568 C 148.660 13.787,145.690 14.172,143.600 14.423 C 139.501 14.915,125.739 17.008,122.800 17.586 C 121.810 17.780,119.830 18.144,118.400 18.393 C 115.073 18.974,110.595 19.913,108.800 20.407 C 108.030 20.619,104.700 21.431,101.400 22.213 C 92.763 24.258,83.090 26.724,80.200 27.618 C 79.540 27.823,76.480 28.726,73.400 29.627 C 67.031 31.489,41.208 39.965,40.600 40.393 C 40.380 40.548,38.220 41.355,35.800 42.186 C 27.182 45.146,18.909 48.777,19.078 49.525 C 19.122 49.715,20.365 51.835,21.842 54.235 C 23.319 56.636,25.740 60.580,27.223 63.000 C 28.706 65.420,32.952 72.298,36.659 78.285 C 40.367 84.272,44.588 91.112,46.040 93.485 C 53.875 106.290,57.341 111.679,57.872 111.883 C 58.371 112.074,62.697 110.577,67.400 108.586 C 69.466 107.711,74.062 106.085,77.600 104.979 C 81.844 103.651,86.746 102.024,87.800 101.593 C 89.592 100.860,104.795 96.202,112.600 93.994 C 120.207 91.842,132.000 88.969,137.200 88.000 C 138.190 87.816,140.710 87.314,142.800 86.885 C 167.963 81.723,207.627 80.457,227.200 84.192 C 233.505 85.395,239.740 86.980,240.600 87.597 C 240.820 87.755,241.360 87.981,241.800 88.100 C 268.664 95.337,283.058 115.494,278.981 140.170 C 278.033 145.912,277.635 147.254,275.368 152.368 C 270.667 162.973,265.867 168.828,253.000 179.654 C 246.658 184.991,229.859 196.492,219.200 202.794 C 202.547 212.641,199.261 214.594,198.000 215.389 C 197.230 215.874,195.340 217.052,193.800 218.007 C 166.446 234.967,146.279 253.846,139.055 269.258 C 134.312 279.376,133.394 281.695,132.024 287.000 C 130.924 291.263,130.515 293.462,129.570 300.200 C 129.062 303.822,128.552 328.956,128.954 330.558 L 129.216 331.603 176.908 331.502 L 224.600 331.400 224.859 320.200 C 225.190 305.891,226.562 297.737,229.537 292.400 C 230.089 291.410,231.113 289.547,231.813 288.259 C 234.311 283.665,242.718 274.971,249.476 269.994 C 256.184 265.053,279.345 250.000,280.239 250.000 C 280.403 250.000,280.821 249.748,281.169 249.441 C 281.516 249.133,282.430 248.527,283.200 248.095 C 283.970 247.663,286.670 246.088,289.200 244.595 C 291.730 243.102,295.330 240.987,297.200 239.894 C 325.860 223.141,354.005 201.808,363.818 189.400 C 364.688 188.300,365.511 187.310,365.647 187.200 C 366.455 186.547,374.998 173.251,375.849 171.322 C 376.412 170.045,377.322 168.010,377.871 166.800 C 379.356 163.526,379.862 162.328,380.320 161.000 C 388.123 138.371,387.300 110.145,378.198 88.200 C 366.248 59.388,331.884 32.619,293.200 21.989 C 290.670 21.294,287.547 20.386,286.261 19.971 C 284.003 19.244,280.067 18.248,278.000 17.881 C 277.450 17.783,274.300 17.151,271.000 16.475 C 265.491 15.348,262.369 14.816,256.400 13.990 C 248.459 12.891,241.063 11.996,236.400 11.569 C 230.104 10.992,189.238 10.739,179.400 11.216 M92.800 113.000 C 92.522 113.335,92.479 113.600,92.702 113.600 C 92.922 113.600,93.326 113.330,93.600 113.000 C 93.878 112.665,93.921 112.400,93.698 112.400 C 93.478 112.400,93.074 112.670,92.800 113.000 M70.171 120.991 C 69.747 121.312,69.580 121.578,69.800 121.581 C 70.394 121.591,71.410 120.877,71.159 120.626 C 71.040 120.506,70.595 120.671,70.171 120.991 M176.400 213.433 L 175.400 214.418 176.493 213.909 C 177.094 213.629,177.673 213.175,177.780 212.900 C 178.082 212.125,177.500 212.350,176.400 213.433 M145.900 343.500 C 162.895 343.558,190.705 343.558,207.700 343.500 C 224.695 343.442,210.790 343.395,176.800 343.395 C 142.810 343.395,128.905 343.442,145.900 343.500 M170.600 399.624 C 139.100 402.745,121.083 414.810,116.984 435.528 C 113.689 452.183,116.157 469.771,123.102 479.139 C 129.363 487.584,139.225 493.875,152.000 497.572 C 152.990 497.858,154.250 498.243,154.800 498.427 C 166.655 502.387,192.264 502.673,205.200 498.990 C 206.410 498.646,208.665 498.020,210.210 497.600 C 222.804 494.176,235.723 485.646,239.966 477.952 C 245.326 468.233,246.800 462.235,246.800 450.139 C 246.800 427.788,238.408 413.717,221.000 406.882 C 219.900 406.450,217.830 405.634,216.400 405.068 C 214.970 404.502,212.810 403.744,211.600 403.383 C 210.390 403.022,208.950 402.568,208.400 402.374 C 201.596 399.983,181.635 398.530,170.600 399.624 " stroke="none" fill="#7c0474" fill-rule="evenodd"></path></g></svg>