<svg id="svg" version="1.1" xmlns="http://www.w3.org/2000/svg" xmlns:xlink="http://www.w3.org/1999/xlink" width="400" height="583.2869080779944" viewBox="0, 0, 400,583.2869080779944"><g id="svgg"><path id="path0" d="M38.906 0.365 C 38.906 0.565,39.043 0.731,39.210 0.733 C 39.430 0.736,39.421 0.795,39.179 0.949 C 38.994 1.066,38.922 1.289,39.018 1.444 C 39.235 1.796,38.123 2.861,37.332 3.060 C 36.358 3.304,33.767 2.799,33.494 2.312 C 33.359 2.070,32.779 1.989,31.349 2.014 C 29.457 2.046,29.421 2.058,30.317 2.336 C 30.828 2.494,31.151 2.635,31.034 2.649 C 30.917 2.663,30.934 2.812,31.072 2.979 C 31.322 3.282,31.292 5.169,31.024 6.014 C 30.835 6.608,29.769 7.214,28.571 7.408 C 26.559 7.735,26.577 7.724,26.299 8.828 C 25.966 10.150,25.457 10.603,24.073 10.808 C 20.827 11.289,20.497 11.428,20.058 12.496 C 19.398 14.099,19.342 14.171,18.380 14.671 C 17.203 15.282,13.860 15.256,13.860 14.636 C 13.860 14.461,13.761 14.379,13.639 14.455 C 13.308 14.659,12.624 14.332,12.798 14.052 C 12.893 13.897,13.014 13.914,13.127 14.098 C 13.258 14.309,13.344 14.288,13.447 14.020 C 13.557 13.733,13.407 13.663,12.752 13.696 C 11.873 13.741,11.667 13.956,12.280 14.191 C 12.480 14.268,12.644 14.495,12.644 14.696 C 12.644 14.932,12.794 15.014,13.070 14.927 C 13.463 14.803,13.465 14.819,13.093 15.127 C 12.779 15.387,12.748 15.565,12.951 15.927 C 13.095 16.184,13.221 16.690,13.232 17.052 C 13.254 17.765,13.510 17.659,9.661 18.528 C 7.017 19.125,6.338 22.621,8.563 24.180 C 9.053 24.523,26.269 24.559,187.852 24.559 C 351.390 24.559,366.711 24.593,367.919 24.950 C 369.588 25.445,370.879 26.729,371.271 28.287 C 371.476 29.099,371.550 40.899,371.550 72.554 C 371.550 98.476,371.640 115.950,371.776 116.306 C 372.471 118.134,376.505 118.465,376.792 116.717 C 377.026 115.290,377.985 114.167,379.157 113.947 C 380.170 113.757,380.614 113.271,380.993 111.942 C 381.372 110.611,382.394 110.021,384.612 109.850 C 384.774 109.838,385.040 109.234,385.203 108.508 C 385.514 107.118,386.250 105.933,386.708 106.086 C 386.858 106.136,387.191 105.981,387.448 105.741 C 387.705 105.502,388.008 105.363,388.122 105.433 C 388.235 105.503,388.337 105.472,388.348 105.364 C 388.520 103.678,389.119 102.922,391.119 101.868 C 393.214 100.764,393.062 104.688,393.066 51.380 C 393.069 14.312,393.007 4.582,392.766 4.340 C 392.599 4.173,392.461 3.867,392.461 3.660 C 392.460 3.452,392.285 2.954,392.073 2.553 C 391.860 2.152,391.690 1.413,391.694 0.912 L 391.702 -0.000 215.304 -0.000 C 58.668 -0.000,38.906 0.041,38.906 0.365 M22.371 5.932 C 22.371 5.985,22.799 6.069,23.323 6.119 C 23.847 6.169,24.223 6.125,24.160 6.023 C 24.044 5.836,22.371 5.751,22.371 5.932 M10.851 13.974 C 10.934 14.190,11.106 14.332,11.234 14.290 C 11.598 14.168,11.493 13.747,11.078 13.660 C 10.818 13.606,10.748 13.703,10.851 13.974 M1.973 20.709 C 1.958 21.066,1.809 21.413,1.641 21.480 C 1.403 21.576,1.405 21.607,1.649 21.622 C 2.035 21.646,2.267 21.086,2.116 20.501 C 2.039 20.204,1.993 20.272,1.973 20.709 M240.366 122.872 C 238.954 123.388,238.889 123.452,238.299 124.864 L 237.690 126.322 237.626 350.030 L 237.563 573.739 238.087 575.230 C 238.529 576.488,238.698 576.717,239.161 576.689 C 239.463 576.671,239.660 576.574,239.598 576.474 C 239.536 576.374,239.589 576.292,239.716 576.292 C 239.967 576.292,240.354 575.145,240.271 574.647 C 240.094 573.582,242.090 572.158,243.760 572.158 C 244.364 572.158,244.973 571.214,245.206 569.918 C 245.440 568.616,246.527 567.604,247.572 567.715 C 248.716 567.837,248.794 567.835,249.550 567.672 C 250.166 567.539,250.215 567.580,250.113 568.140 C 250.052 568.478,250.097 568.754,250.214 568.754 C 250.582 568.754,250.314 565.759,249.855 564.742 C 248.838 562.483,249.307 560.676,250.942 560.553 C 251.715 560.495,252.585 559.853,252.756 559.216 C 253.555 556.239,253.787 556.013,256.077 555.974 C 257.445 555.951,257.747 556.012,257.641 556.289 C 257.568 556.477,257.675 556.798,257.878 557.001 C 258.209 557.332,258.243 557.259,258.204 556.315 C 258.126 554.410,258.192 554.164,258.784 554.160 C 259.199 554.158,259.249 554.104,258.989 553.940 C 258.800 553.820,258.499 553.779,258.320 553.848 C 257.861 554.024,257.033 552.098,257.027 550.838 C 257.020 549.664,257.722 548.933,259.104 548.674 C 260.136 548.480,260.438 548.113,260.696 546.733 C 260.809 546.126,261.066 545.465,261.266 545.264 C 261.467 545.064,261.719 544.742,261.827 544.549 C 262.035 544.177,262.862 544.062,263.764 544.278 C 264.062 544.349,264.360 544.320,264.427 544.212 C 264.706 543.761,265.654 544.074,265.681 544.628 C 265.741 545.815,266.018 545.417,266.018 544.144 C 266.018 543.227,265.819 542.347,265.397 541.391 C 264.877 540.215,264.786 539.684,264.843 538.139 C 265.107 530.857,264.889 125.378,264.620 125.289 C 264.453 125.233,264.316 125.027,264.316 124.831 C 264.316 124.147,263.573 123.045,262.865 122.679 C 261.561 122.004,242.285 122.170,240.366 122.872 M269.585 127.335 C 269.363 127.557,269.435 534.192,269.657 536.170 C 269.755 537.040,269.851 445.371,269.872 332.462 C 269.892 219.553,269.872 127.173,269.828 127.173 C 269.783 127.173,269.674 127.246,269.585 127.335 M252.036 565.593 L 251.307 565.778 251.961 565.807 C 252.321 565.823,252.683 565.726,252.766 565.593 C 252.849 565.459,252.882 565.362,252.841 565.378 C 252.800 565.394,252.438 565.491,252.036 565.593 M245.755 576.697 C 245.459 576.992,245.587 577.251,245.957 577.109 C 246.158 577.032,246.322 576.872,246.322 576.752 C 246.322 576.497,245.987 576.465,245.755 576.697 M242.267 578.397 C 242.355 578.485,242.337 578.677,242.226 578.823 C 242.113 578.971,242.167 579.357,242.346 579.696 C 242.540 580.062,242.669 580.154,242.671 579.927 C 242.673 579.720,242.543 579.419,242.383 579.258 C 242.156 579.031,242.156 578.967,242.383 578.967 C 242.543 578.967,242.675 578.802,242.675 578.602 C 242.675 578.401,242.547 578.237,242.391 578.237 C 242.235 578.237,242.179 578.309,242.267 578.397 " stroke="none" fill="#a9b555" fill-rule="evenodd"></path><path id="path1" d="M33.234 0.182 C 33.056 0.485,33.189 1.796,33.442 2.234 C 33.670 2.626,34.166 2.793,35.944 3.077 C 37.376 3.305,39.478 2.188,39.018 1.444 C 38.922 1.289,38.994 1.066,39.179 0.949 C 39.421 0.795,39.430 0.736,39.210 0.733 C 39.043 0.731,38.906 0.565,38.906 0.365 C 38.906 -0.029,33.462 -0.204,33.234 0.182 M391.705 0.547 C 391.658 1.461,391.748 1.920,392.111 2.616 C 392.303 2.983,392.460 3.452,392.461 3.660 C 392.461 3.867,392.599 4.173,392.766 4.340 C 393.007 4.582,393.069 14.312,393.066 51.380 C 393.062 104.688,393.214 100.764,391.119 101.868 C 389.119 102.922,388.520 103.678,388.348 105.364 C 388.337 105.472,388.235 105.503,388.122 105.433 C 388.008 105.363,387.705 105.502,387.448 105.741 C 387.191 105.981,386.858 106.136,386.708 106.086 C 386.250 105.933,385.514 107.118,385.203 108.508 C 385.040 109.234,384.774 109.838,384.612 109.850 C 382.394 110.021,381.372 110.611,380.993 111.942 C 380.614 113.271,380.170 113.757,379.157 113.947 C 377.985 114.167,377.026 115.290,376.792 116.717 C 376.505 118.465,372.471 118.134,371.776 116.306 C 371.640 115.950,371.550 98.476,371.550 72.554 C 371.550 40.899,371.476 29.099,371.271 28.287 C 370.879 26.729,369.588 25.445,367.919 24.950 C 366.711 24.593,351.390 24.559,187.852 24.559 C 26.269 24.559,9.053 24.523,8.563 24.180 C 6.338 22.621,7.017 19.125,9.661 18.528 C 13.510 17.659,13.254 17.765,13.232 17.052 C 13.221 16.690,13.095 16.184,12.951 15.927 C 12.748 15.565,12.779 15.387,13.093 15.127 C 13.465 14.819,13.463 14.803,13.070 14.927 C 12.821 15.005,12.644 14.935,12.644 14.758 C 12.644 14.205,11.654 13.534,11.340 13.875 C 11.128 14.105,11.148 14.130,11.429 13.982 C 11.732 13.821,11.740 13.846,11.474 14.128 C 11.202 14.418,11.119 14.404,10.912 14.037 C 10.779 13.801,10.562 13.673,10.432 13.754 C 10.301 13.834,9.477 13.919,8.601 13.941 C 6.693 13.990,6.232 14.398,5.985 16.254 L 5.826 17.459 4.124 17.630 C 2.099 17.833,1.885 18.085,1.993 20.130 C 2.067 21.520,2.067 21.520,1.391 21.449 C -0.109 21.291,-0.000 17.128,0.000 74.633 L 0.000 127.172 64.985 127.234 L 129.970 127.295 130.031 355.315 L 130.091 583.334 130.638 583.467 C 131.349 583.639,242.106 583.507,242.280 583.333 C 242.524 583.089,242.629 578.967,242.391 578.967 C 242.264 578.967,242.238 579.093,242.333 579.247 C 242.443 579.425,242.400 579.462,242.214 579.347 C 242.009 579.220,241.997 579.076,242.175 578.862 C 242.314 578.694,242.355 578.485,242.267 578.397 C 242.179 578.309,242.239 578.237,242.400 578.237 C 242.603 578.237,242.622 578.107,242.464 577.812 C 242.261 577.433,242.361 577.389,243.367 577.413 C 243.989 577.428,244.703 577.335,244.953 577.207 C 245.273 577.042,245.359 577.052,245.243 577.240 C 245.031 577.583,245.602 577.581,246.079 577.238 C 246.387 577.016,246.377 576.997,246.018 577.112 C 245.419 577.305,245.489 576.914,246.140 576.432 C 246.441 576.209,246.550 576.092,246.383 576.173 C 246.216 576.254,246.079 576.205,246.079 576.063 C 246.079 575.921,246.172 575.805,246.285 575.805 C 246.399 575.805,246.481 575.342,246.468 574.775 L 246.444 573.744 247.841 573.568 C 250.042 573.290,250.116 573.210,250.294 570.905 C 250.397 569.561,250.361 568.845,250.183 568.735 C 249.997 568.620,249.995 568.524,250.176 568.412 C 250.691 568.094,250.188 567.532,249.518 567.678 C 248.796 567.835,248.713 567.836,247.572 567.715 C 246.527 567.604,245.440 568.616,245.206 569.918 C 244.973 571.214,244.364 572.158,243.760 572.158 C 242.090 572.158,240.094 573.582,240.271 574.647 C 240.354 575.145,239.967 576.292,239.716 576.292 C 239.589 576.292,239.536 576.374,239.598 576.474 C 239.660 576.574,239.463 576.671,239.161 576.689 C 238.698 576.717,238.529 576.488,238.087 575.230 L 237.563 573.739 237.626 350.030 L 237.690 126.322 238.299 124.864 C 239.335 122.382,239.550 122.342,251.988 122.324 C 263.643 122.308,264.316 122.445,264.316 124.831 C 264.316 125.027,264.453 125.233,264.620 125.289 C 264.892 125.379,265.108 531.395,264.840 538.082 C 264.784 539.472,264.885 540.160,265.290 541.157 L 265.811 542.441 266.826 542.312 C 267.385 542.241,268.033 542.085,268.267 541.965 C 268.540 541.825,268.693 541.837,268.693 541.998 C 268.693 542.136,268.814 542.249,268.962 542.249 C 269.110 542.249,269.171 542.091,269.096 541.897 C 269.006 541.661,269.078 541.589,269.315 541.680 C 269.599 541.789,269.646 541.630,269.552 540.878 C 269.464 540.179,269.499 540.032,269.688 540.304 C 269.866 540.560,269.883 539.834,269.743 537.872 C 269.634 536.334,269.544 443.325,269.544 331.185 L 269.544 127.295 321.678 127.233 C 356.476 127.193,373.911 127.090,374.109 126.926 C 374.272 126.790,374.481 125.915,374.573 124.981 L 374.741 123.283 376.258 123.283 C 378.017 123.283,378.359 123.042,378.359 121.805 C 378.359 119.631,378.520 119.392,379.986 119.392 C 381.883 119.392,382.244 119.131,382.273 117.742 C 382.319 115.596,382.414 115.478,384.154 115.407 C 385.945 115.334,386.169 115.122,386.105 113.556 C 386.032 111.771,386.263 111.368,387.356 111.368 C 389.294 111.368,389.886 110.710,390.090 108.328 C 390.149 107.632,390.214 107.592,391.516 107.452 C 393.445 107.245,393.916 106.643,393.920 104.377 C 393.921 103.604,393.945 103.587,395.004 103.587 C 397.284 103.587,397.571 103.207,397.765 99.939 C 398.022 95.628,398.074 1.297,397.820 0.630 C 397.467 -0.298,391.752 -0.376,391.705 0.547 M26.092 2.185 C 25.561 2.405,25.208 3.457,25.316 4.498 C 25.426 5.566,25.295 5.836,24.667 5.836 C 24.324 5.836,24.101 5.928,24.171 6.041 C 24.241 6.154,23.735 6.158,23.046 6.049 C 19.637 5.510,17.751 6.398,17.751 8.542 L 17.751 9.957 17.029 9.813 C 16.632 9.734,16.112 9.752,15.874 9.853 C 15.636 9.954,15.085 10.013,14.650 9.985 C 13.789 9.928,13.830 9.835,13.739 12.036 C 13.666 13.833,13.419 14.501,13.027 13.965 C 12.860 13.737,12.569 13.611,12.380 13.686 C 12.133 13.784,12.160 13.827,12.476 13.841 C 12.718 13.852,12.856 13.958,12.782 14.078 C 12.620 14.339,13.325 14.649,13.639 14.455 C 13.761 14.379,13.860 14.461,13.860 14.636 C 13.860 15.256,17.203 15.282,18.380 14.671 C 19.342 14.171,19.398 14.099,20.058 12.496 C 20.497 11.428,20.827 11.289,24.073 10.808 C 25.457 10.603,25.966 10.150,26.299 8.828 C 26.577 7.724,26.559 7.735,28.571 7.408 C 29.762 7.215,30.835 6.609,31.020 6.025 C 31.281 5.205,31.339 3.172,31.106 3.028 C 30.978 2.949,30.936 2.782,31.013 2.658 C 31.090 2.533,30.955 2.430,30.713 2.428 C 30.433 2.426,30.375 2.359,30.554 2.246 C 30.965 1.983,26.720 1.926,26.092 2.185 M262.432 544.138 C 262.131 544.188,261.884 544.310,261.884 544.409 C 261.884 544.508,261.663 544.827,261.391 545.118 C 261.120 545.410,260.806 546.140,260.694 546.742 C 260.438 548.113,260.135 548.481,259.104 548.674 C 257.722 548.933,257.020 549.664,257.027 550.838 C 257.034 552.154,257.812 553.890,258.401 553.904 C 258.645 553.910,259.228 553.979,259.696 554.058 C 260.665 554.221,261.886 553.842,261.881 553.380 C 261.878 553.165,261.805 553.182,261.641 553.435 C 261.440 553.746,261.405 553.738,261.402 553.374 C 261.400 553.140,261.578 552.948,261.798 552.948 C 262.141 552.948,262.175 552.742,262.044 551.489 L 261.892 550.030 263.431 550.030 C 265.506 550.030,265.746 549.746,265.801 547.224 C 265.870 544.117,265.516 543.410,264.340 544.301 C 264.152 544.443,263.933 544.521,263.853 544.475 C 263.302 544.152,262.908 544.059,262.432 544.138 M253.885 556.474 C 253.437 556.978,253.033 557.935,252.782 559.085 C 252.623 559.814,251.775 560.490,250.942 560.553 C 249.308 560.676,248.840 562.478,249.852 564.742 C 250.092 565.277,250.268 565.878,250.244 566.079 C 250.212 566.347,250.271 566.330,250.465 566.013 C 250.610 565.776,250.810 565.633,250.910 565.694 C 251.009 565.756,251.494 565.715,251.987 565.604 C 252.509 565.486,252.828 565.492,252.750 565.619 C 252.676 565.738,252.786 565.836,252.995 565.836 C 253.203 565.836,253.374 565.677,253.374 565.483 C 253.374 565.289,253.565 565.023,253.799 564.892 C 254.121 564.711,254.225 564.339,254.225 563.362 L 254.225 562.070 255.739 561.826 C 257.691 561.510,257.944 561.226,258.139 559.135 C 258.269 557.730,258.227 557.350,257.903 557.026 C 257.475 556.598,257.367 556.237,257.734 556.464 C 257.858 556.541,258.039 556.476,258.136 556.319 C 258.246 556.141,258.207 556.099,258.031 556.208 C 257.877 556.303,257.751 556.285,257.751 556.168 C 257.751 555.693,254.339 555.963,253.885 556.474 " stroke="none" fill="#9c6463" fill-rule="evenodd"></path></g></svg>