<?xml version="1.0" encoding="UTF-8" standalone="no"?>
<svg
   xmlns:dc="http://purl.org/dc/elements/1.1/"
   xmlns:cc="http://creativecommons.org/ns#"
   xmlns:rdf="http://www.w3.org/1999/02/22-rdf-syntax-ns#"
   xmlns:svg="http://www.w3.org/2000/svg"
   xmlns="http://www.w3.org/2000/svg"
   viewBox="0 0 5333.3335 5333.3335"
   height="5333.3335"
   width="5333.3335"
   xml:space="preserve"
   id="svg2"
   version="1.1"><metadata
     id="metadata8"><rdf:RDF><cc:Work
         rdf:about=""><dc:format>image/svg+xml</dc:format><dc:type
           rdf:resource="http://purl.org/dc/dcmitype/StillImage" /></cc:Work></rdf:RDF></metadata><defs
     id="defs6" /><g
     transform="matrix(1.3333333,0,0,-1.3333333,0,5333.3333)"
     id="g10"><g
       transform="scale(0.1)"
       id="g12"><g
         transform="scale(2.24785)"
         id="g14"><path
           id="path16"
           style="fill:#000000;fill-opacity:1;fill-rule:nonzero;stroke:none"
           d="M 2064.19,2064.19 H 15730.6 V 15730.6 H 2064.19 Z M 16015.3,1494.76 H 1779.48 c -157.25,0 -284.72,127.45 -284.72,284.72 V 16015.3 c 0,157.2 127.47,284.7 284.72,284.7 H 16015.3 c 157.2,0 284.7,-127.5 284.7,-284.7 V 1779.48 c 0,-157.27 -127.5,-284.72 -284.7,-284.72" /></g><g
         transform="scale(2.24785)"
         id="g18"><path
           id="path20"
           style="fill:#000000;fill-opacity:1;fill-rule:nonzero;stroke:none"
           d="M 16015.3,3867.34 H 1779.48 c -157.25,0 -284.72,127.45 -284.72,284.71 0,157.26 127.47,284.72 284.72,284.72 H 16015.3 c 157.2,0 284.7,-127.46 284.7,-284.72 0,-157.26 -127.5,-284.71 -284.7,-284.71" /></g><g
         transform="scale(2.24785)"
         id="g22"><path
           id="path24"
           style="fill:#000000;fill-opacity:1;fill-rule:nonzero;stroke:none"
           d="M 16015.3,6240.09 H 1779.48 c -157.25,0 -284.72,127.45 -284.72,284.71 0,157.27 127.47,284.72 284.72,284.72 H 16015.3 c 157.2,0 284.7,-127.45 284.7,-284.72 0,-157.26 -127.5,-284.71 -284.7,-284.71" /></g><g
         transform="scale(2.24785)"
         id="g26"><path
           id="path28"
           style="fill:#000000;fill-opacity:1;fill-rule:nonzero;stroke:none"
           d="M 16015.3,8612.66 H 1779.48 c -157.25,0 -284.72,127.46 -284.72,284.72 0,157.26 127.47,284.72 284.72,284.72 H 16015.3 c 157.2,0 284.7,-127.46 284.7,-284.72 0,-157.26 -127.5,-284.72 -284.7,-284.72" /></g><g
         transform="scale(2.24785)"
         id="g30"><path
           id="path32"
           style="fill:#000000;fill-opacity:1;fill-rule:nonzero;stroke:none"
           d="M 16015.3,10985.2 H 1779.48 c -157.25,0 -284.72,127.5 -284.72,284.8 0,157.2 127.47,284.7 284.72,284.7 H 16015.3 c 157.2,0 284.7,-127.5 284.7,-284.7 0,-157.3 -127.5,-284.8 -284.7,-284.8" /></g><g
         transform="scale(2.24785)"
         id="g34"><path
           id="path36"
           style="fill:#000000;fill-opacity:1;fill-rule:nonzero;stroke:none"
           d="M 16015.3,13358 H 1779.48 c -157.25,0 -284.72,127.5 -284.72,284.7 0,157.3 127.47,284.7 284.72,284.7 H 16015.3 c 157.2,0 284.7,-127.4 284.7,-284.7 0,-157.2 -127.5,-284.7 -284.7,-284.7" /></g><g
         transform="scale(1.92064)"
         id="g38"><path
           id="path40"
           style="fill:#000000;fill-opacity:1;fill-rule:nonzero;stroke:none"
           d="m 15966.8,10080 c -184.1,0 -333.2,149.2 -333.2,333.2 v 2777 c 0,184.1 149.1,333.2 333.2,333.2 184,0 333.2,-149.1 333.2,-333.2 v -2777 c 0,-184 -149.2,-333.2 -333.2,-333.2" /></g><g
         transform="scale(1.92064)"
         id="g42"><path
           id="path44"
           style="fill:#000000;fill-opacity:1;fill-rule:nonzero;stroke:none"
           d="m 15966.8,4526.41 c -184.1,0 -333.2,149.17 -333.2,333.23 v 2776.57 c 0,184.06 149.1,333.22 333.2,333.22 184,0 333.2,-149.16 333.2,-333.22 V 4859.64 c 0,-184.06 -149.2,-333.23 -333.2,-333.23" /></g><g
         transform="scale(2.24785)"
         id="g46"><path
           id="path48"
           style="fill:#000000;fill-opacity:1;fill-rule:nonzero;stroke:none"
           d="m 13642.5,13357.8 c -157.2,0 -284.7,127.5 -284.7,284.7 v 2372.8 c 0,157.2 127.5,284.7 284.7,284.7 157.3,0 284.7,-127.5 284.7,-284.7 v -2372.8 c 0,-157.2 -127.4,-284.7 -284.7,-284.7" /></g><g
         transform="scale(1.92064)"
         id="g50"><path
           id="path52"
           style="fill:#000000;fill-opacity:1;fill-rule:nonzero;stroke:none"
           d="m 13190.2,12857 c -184.1,0 -333.2,149.1 -333.2,333.2 v 2776.6 c 0,184 149.1,333.2 333.2,333.2 184.1,0 333.2,-149.2 333.2,-333.2 v -2776.6 c 0,-184.1 -149.1,-333.2 -333.2,-333.2" /></g><g
         transform="scale(1.59347)"
         id="g54"><path
           id="path56"
           style="fill:#000000;fill-opacity:1;fill-rule:nonzero;stroke:none"
           d="m 15898.4,2108.6 c -221.9,0 -401.7,179.8 -401.7,401.64 V 5857.4 c 0,221.84 179.8,401.64 401.7,401.64 221.8,0 401.6,-179.8 401.6,-401.64 V 2510.24 c 0,-221.84 -179.8,-401.64 -401.6,-401.64" /></g><g
         transform="scale(1.59347)"
         id="g58"><path
           id="path60"
           style="fill:#000000;fill-opacity:1;fill-rule:nonzero;stroke:none"
           d="m 15898.4,8802.41 c -221.9,0 -401.7,179.8 -401.7,401.64 v 3347.15 c 0,221.8 179.8,401.6 401.7,401.6 221.8,0 401.6,-179.8 401.6,-401.6 V 9204.05 c 0,-221.84 -179.8,-401.64 -401.6,-401.64" /></g><g
         transform="scale(1.59347)"
         id="g62"><path
           id="path64"
           style="fill:#000000;fill-opacity:1;fill-rule:nonzero;stroke:none"
           d="m 12551.2,12149.6 c -221.8,0 -401.6,179.8 -401.6,401.6 v 3347.2 c 0,221.8 179.8,401.6 401.6,401.6 221.8,0 401.6,-179.8 401.6,-401.6 v -3347.2 c 0,-221.8 -179.8,-401.6 -401.6,-401.6" /></g><g
         transform="scale(1.26626)"
         id="g66"><path
           id="path68"
           style="fill:#000000;fill-opacity:1;fill-rule:nonzero;stroke:none"
           d="m 15794.6,6865.59 c -279.2,0 -505.5,226.25 -505.5,505.42 v 4211.49 c 0,279.1 226.3,505.4 505.5,505.4 279.1,0 505.4,-226.3 505.4,-505.4 V 7371.01 c 0,-279.17 -226.3,-505.42 -505.4,-505.42" /></g><g
         transform="scale(2.24785)"
         id="g70"><path
           id="path72"
           style="fill:#000000;fill-opacity:1;fill-rule:nonzero;stroke:none"
           d="m 8897.38,13357.8 c -157.26,0 -284.72,127.5 -284.72,284.7 v 2372.8 c 0,157.2 127.46,284.7 284.72,284.7 157.26,0 284.72,-127.5 284.72,-284.7 v -2372.8 c 0,-157.2 -127.46,-284.7 -284.72,-284.7" /></g><g
         transform="scale(1.92064)"
         id="g74"><path
           id="path76"
           style="fill:#000000;fill-opacity:1;fill-rule:nonzero;stroke:none"
           d="m 7636.21,12857 c -184.05,0 -333.22,149.1 -333.22,333.2 v 2776.6 c 0,184 149.17,333.2 333.22,333.2 184.06,0 333.23,-149.2 333.23,-333.2 v -2776.6 c 0,-184.1 -149.17,-333.2 -333.23,-333.2" /></g><path
         id="path78"
         style="fill:#000000;fill-opacity:1;fill-rule:nonzero;stroke:none"
         d="m 14666.4,3360 c -353.5,0 -640,286.5 -640,640 v 5333.6 c 0,353.5 286.5,640 640,640 353.5,0 640,-286.5 640,-640 V 4000 c 0,-353.5 -286.5,-640 -640,-640" /><g
         transform="scale(1.26626)"
         id="g80"><path
           id="path82"
           style="fill:#000000;fill-opacity:1;fill-rule:nonzero;stroke:none"
           d="m 11582.5,11077 c -279.2,0 -505.4,226.3 -505.4,505.5 v 4212.1 c 0,279.1 226.2,505.4 505.4,505.4 279.1,0 505.4,-226.3 505.4,-505.4 v -4212.1 c 0,-279.2 -226.3,-505.5 -505.4,-505.5" /></g><g
         transform="scale(1.59347)"
         id="g84"><path
           id="path86"
           style="fill:#000000;fill-opacity:1;fill-rule:nonzero;stroke:none"
           d="m 5857.4,12149.6 c -221.82,0 -401.64,179.8 -401.64,401.6 v 3347.2 c 0,221.8 179.82,401.6 401.64,401.6 221.82,0 401.64,-179.8 401.64,-401.6 v -3347.2 c 0,-221.8 -179.82,-401.6 -401.64,-401.6" /></g><path
         id="path88"
         style="fill:#000000;fill-opacity:1;fill-rule:nonzero;stroke:none"
         d="m 9333.6,8693.6 c -353.46,0 -640,286.5 -640,640 v 5332.8 c 0,353.5 286.54,640 640,640 353.47,0 640,-286.5 640,-640 V 9333.6 c 0,-353.5 -286.53,-640 -640,-640" /><g
         transform="scale(2.24785)"
         id="g90"><path
           id="path92"
           style="fill:#000000;fill-opacity:1;fill-rule:nonzero;stroke:none"
           d="m 4152.23,13357.8 c -157.24,0 -284.72,127.5 -284.72,284.7 v 2372.8 c 0,157.2 127.48,284.7 284.72,284.7 157.25,0 284.72,-127.5 284.72,-284.7 v -2372.8 c 0,-157.2 -127.47,-284.7 -284.72,-284.7" /></g></g></g></svg>