<?xml version="1.0" encoding="UTF-8" standalone="no"?>
<svg
   id="svg"
   version="1.1"
   style="display: block;"
   viewBox="0 0 224 270"
   sodipodi:docname="export-2023-02-14 201710.svg"
   inkscape:version="1.2.1 (9c6d41e410, 2022-07-14)"
   xmlns:inkscape="http://www.inkscape.org/namespaces/inkscape"
   xmlns:sodipodi="http://sodipodi.sourceforge.net/DTD/sodipodi-0.dtd"
   xmlns="http://www.w3.org/2000/svg"
   xmlns:svg="http://www.w3.org/2000/svg">
  <defs
     id="defs13" />
  <sodipodi:namedview
     id="namedview11"
     pagecolor="#ffffff"
     bordercolor="#111111"
     borderopacity="1"
     inkscape:showpageshadow="0"
     inkscape:pageopacity="0"
     inkscape:pagecheckerboard="1"
     inkscape:deskcolor="#d1d1d1"
     showgrid="false"
     inkscape:zoom="3.1"
     inkscape:cx="110.96774"
     inkscape:cy="134.83871"
     inkscape:window-width="1920"
     inkscape:window-height="1017"
     inkscape:window-x="-8"
     inkscape:window-y="-8"
     inkscape:window-maximized="1"
     inkscape:current-layer="svg" />
  <path
     d="M0 0 C6.38805359 -0.5323378 11.78673756 -0.0505924 17 4 C19.4034009 7.40291049 19.09264557 10.31543701 18.875 14.375 C18.82945005 18.4471653 18.87953986 20.71892634 20.5 24.5 C23.11794049 27.11794049 25.67661848 28.86953799 28.8515625 30.734375 C37.10801103 35.59817377 43.68227939 41.54448061 46.375 51.0625 C47.88718811 60.58928508 45.94191988 66.77734702 42.48828125 75.578125 C39.1526897 84.45488291 39.31741639 91.21201638 43 100 C44.80498186 103.71350153 44.80498186 103.71350153 48 106 C48.12117187 104.865625 48.24234375 103.73125 48.3671875 102.5625 C48.53617251 101.04163488 48.70545953 99.5208033 48.875 98 C48.95363281 97.25621094 49.03226563 96.51242188 49.11328125 95.74609375 C49.68534208 90.68555567 50.67014735 85.91710223 52 81 C52.33 81 52.66 81 53 81 C53.57953933 85.7453636 54.14869676 90.49182673 54.70898438 95.23950195 C54.90026675 96.84855256 55.09419881 98.4572908 55.29101562 100.06567383 C56.47645867 109.76997671 57.31296803 119.20779543 57 129 C57.66 129 58.32 129 59 129 C59.67561748 127.3369416 60.33933281 125.66905395 61 124 C61.515625 122.80375 62.03125 121.6075 62.5625 120.375 C64.45530319 115.38488249 64.71798794 110.29015734 65 105 C74.60745221 117.43631314 74.98472741 134.8642524 75.5625 150 C75.60568359 151.06089844 75.64886719 152.12179688 75.69335938 153.21484375 C75.79855996 155.80979151 75.90070119 158.40482084 76 161 C78.4070268 157.9624947 79.40101085 156.14625246 79.6875 152.25 C79.78611328 151.05117188 79.78611328 151.05117188 79.88671875 149.828125 C79.92410156 149.22484375 79.96148437 148.6215625 80 148 C82.98880048 150.53436298 84.16279579 153.27779824 85.625 156.875 C86.05039063 157.90367187 86.47578125 158.93234375 86.9140625 159.9921875 C90.30735895 169.39088631 89.26854103 177.8373138 85.17089844 186.81689453 C83.2017789 190.92388569 81.11996318 194.9691659 79 199 C78.67 199 78.34 199 78 199 C77.49666458 196.39643759 76.99720622 193.79223349 76.5 191.1875 C76.35691406 190.44951172 76.21382812 189.71152344 76.06640625 188.95117188 C75.49073719 185.92205609 75 183.090804 75 180 C74.34 180 73.68 180 73 180 C72.9175 180.70125 72.835 181.4025 72.75 182.125 C71.82123251 185.68527538 70.19727086 188.07030552 68 191 C67.34 191.33 66.68 191.66 66 192 C64.89060163 188.67180489 64.71020478 185.85833431 64.5 182.35546875 C64.4175 181.03869141 64.335 179.72191406 64.25 178.36523438 C64.16628645 176.97267905 64.08295655 175.58010062 64 174.1875 C63.87644891 172.12936084 63.75165062 170.07133398 63.62304688 168.01350403 C63.50595578 166.13834765 63.39347911 164.26290482 63.28125 162.38745117 C63.01754143 159.21127374 62.57379229 156.13344381 62 153 C61.34 153 60.68 153 60 153 C59.66355469 154.14855469 59.66355469 154.14855469 59.3203125 155.3203125 C57.51752396 160.34465216 55.19777627 165.07329444 52.875 169.875 C52.40707031 170.84953125 51.93914062 171.8240625 51.45703125 172.828125 C50.30785155 175.22029499 49.15542757 177.61084316 48 180 C47.34 180 46.68 180 46 180 C42.62986913 174.32045675 43.24060795 167.31410982 44.67578125 161.05078125 C45.21860217 159.20621916 45.76410801 157.36244473 46.3125 155.51953125 C48.12443208 148.87921197 47.06407917 143.91643043 43.82421875 137.91015625 C40.69042542 132.91084997 37.14084377 128.22464 33.6015625 123.5078125 C24.92647246 111.91423172 24.92647246 111.91423172 24.82421875 104.28125 C24.62720692 90.94095382 24.62720692 90.94095382 20.86328125 78.2578125 C19.45604289 74.57734295 19.34118984 70.86859457 20 67 C20.66563046 65.66614907 21.33228614 64.33280922 22 63 C22.4529394 57.38355148 22.23524321 53.80068347 19 49 C16.81470331 46.79446908 14.57096822 44.74701937 12 43 C11.34 43 10.68 43 10 43 C10.33 43.66 10.66 44.32 11 45 C12.16735444 53.02556174 8.60682333 57.64712157 4 64 C3.49082031 64.62390625 2.98164063 65.2478125 2.45703125 65.890625 C-3.32197084 74.25700873 -2.43432171 82.83835834 -2.43945312 92.68554688 C-2.55165944 99.92478904 -3.00988367 104.87987642 -7 111 C-9.75 113.5 -9.75 113.5 -12 115 C-14 114 -14 114 -14.8515625 112.00390625 C-15.10679688 111.19824219 -15.36203125 110.39257812 -15.625 109.5625 C-16.01558594 108.35787109 -16.01558594 108.35787109 -16.4140625 107.12890625 C-17 105 -17 105 -17 103 C-20.465 103.99 -20.465 103.99 -24 105 C-24 105.66 -24 106.32 -24 107 C-24.66 107 -25.32 107 -26 107 C-28.29856932 114.66802724 -28.35056037 122.01762386 -28.390625 129.98046875 C-28.54587075 136.76815786 -29.27972231 143.14717208 -33 149 C-35.13818359 150.27294922 -35.13818359 150.27294922 -37 151 C-37.03738281 150.154375 -37.07476562 149.30875 -37.11328125 148.4375 C-37.50436686 141.68935621 -38.21653623 136.17202837 -41 130 C-43.74277578 133.19990508 -45.6302836 136.00499382 -47 140 C-49.5020474 137.4979526 -49.92685717 135.50108746 -50.9453125 132.1171875 C-51.47705078 130.36728516 -51.47705078 130.36728516 -52.01953125 128.58203125 C-52.56673828 126.74705078 -52.56673828 126.74705078 -53.125 124.875 C-53.49753906 123.64394531 -53.87007813 122.41289062 -54.25390625 121.14453125 C-55.17494585 118.09801565 -56.09004336 115.04984076 -57 112 C-60.12197478 113.3089572 -60.12197478 113.3089572 -62 116 C-62.7090343 123.81100078 -62.00259576 130.57265352 -60 138.0625 C-57.85884938 146.39436872 -57.58393809 154.54494043 -57.5625 163.125 C-57.55283203 164.37031494 -57.54316406 165.61562988 -57.53320312 166.89868164 C-57.59451712 173.56342321 -57.85427134 179.05093492 -61 185 C-63.1875 186.5 -63.1875 186.5 -65 187 C-65.44730469 186.48050781 -65.89460938 185.96101562 -66.35546875 185.42578125 C-71.45945791 179.50335846 -71.45945791 179.50335846 -77 174 C-77.66 174 -78.32 174 -79 174 C-80.76650345 177.53300691 -80.50601205 181.18290912 -80 185 C-78.59886101 189.13022313 -76.82403208 193.04240311 -75 197 C-72.00990065 203.60862636 -72.53058725 210.02028944 -74 217 C-74.37715139 222.65727089 -73.67916989 226.72809729 -71.65625 232.01953125 C-71 234 -71 234 -71 237 C-76.59788001 234.53815861 -78.75565277 230.10289526 -81.75 225.0625 C-87.59541629 215.53179368 -93.79263113 206.66228172 -101.13598633 198.20825195 C-111.74722699 185.96618909 -121.93113689 172.03676505 -121.17578125 155.203125 C-121.11777344 154.47609375 -121.05976562 153.7490625 -121 153 C-118.78347782 155.21652218 -118.32505367 156.63479958 -117.3125 159.5625 C-112.26240191 172.46624328 -101.85112874 181.06283689 -89.6015625 186.87109375 C-86.96491324 188.0603348 -86.96491324 188.0603348 -84 189 C-83.70869357 179.3868877 -86.71124335 172.68611166 -91.1875 164.46875 C-95.07532927 157.02824915 -95.28224909 148.10242124 -93.24609375 140 C-91.55952321 135.55539057 -89.82236341 132.00328554 -86 129 C-81.88108402 130.57972542 -79.40223633 133.58215345 -76.5625 136.8125 C-75.62743716 137.86168979 -74.69124724 138.90987625 -73.75390625 139.95703125 C-73.30031738 140.46443848 -72.84672852 140.9718457 -72.37939453 141.49462891 C-70.32385562 143.73789491 -68.17085727 145.86854123 -66 148 C-66.03040667 140.96085564 -67.5410016 135.17083159 -70.0625 128.6875 C-73.28105927 120.12651211 -75.07463057 112.02286161 -71.9921875 103.07421875 C-68.33098739 95.67859454 -62.72269688 89.84710334 -57 84 C-52.28461543 87.4538661 -47.7888386 90.97209834 -43.54296875 94.99609375 C-43.03378906 95.32738281 -42.52460937 95.65867187 -42 96 C-38.88667752 95.33131686 -38.88667752 95.33131686 -37.8125 92.9375 C-35.81060807 85.69989071 -36.9884382 81.14374376 -40.50585938 74.73828125 C-40.97830078 73.91714844 -41.45074219 73.09601563 -41.9375 72.25 C-42.86692893 70.59057944 -43.79285232 68.9291894 -44.71484375 67.265625 C-45.12855225 66.54149414 -45.54226074 65.81736328 -45.96850586 65.07128906 C-48.55140493 59.88470547 -48.7661221 54.83096453 -47.26953125 49.30078125 C-44.10723029 40.56735079 -38.79937689 34.17527949 -32 28 C-31.34 28 -30.68 28 -30 28 C-29.9484375 28.64066406 -29.896875 29.28132813 -29.84375 29.94140625 C-28.9846597 36.49196976 -27.22919548 39.5711268 -22.0234375 43.62109375 C-19.93246124 45.08997365 -19.93246124 45.08997365 -17.3125 46.5 C-13.1186853 49.22031224 -10.51161889 53.15030094 -9.1875 57.9375 C-9.125625 58.618125 -9.06375 59.29875 -9 60 C-5.83778136 55.78370848 -5.42129445 52.1134802 -6 47 C-6.30447659 45.65978252 -6.63793893 44.32582075 -7 43 C-9.49616232 33.82346084 -6.93770212 27.40633681 -2.375 19.3125 C-1.94960937 18.58675781 -1.52421875 17.86101563 -1.0859375 17.11328125 C1.32027419 12.43068944 1.16405858 8.16784513 1 3 C0.505 1.515 0.505 1.515 0 0 Z "
     transform="translate(131,9)"
     style="fill: #D92629;"
     id="path4" />
  <path
     d="M0 0 C5.82922361 2.27481897 9.37078328 6.04107027 13 11 C14.40925805 15.22777414 15.02931344 19.91696253 13.01171875 24 C12.67785156 24.66 12.34398437 25.32 12 26 C11.14551559 31.01761195 11.89990415 35.07882867 13.9375 39.6875 C16.30004905 45.47902649 16.32462004 50.90160369 16.4375 57.0625 C16.63295632 65.0982231 16.99933527 71.37994902 22 78 C22.51820313 78.68964844 23.03640625 79.37929687 23.5703125 80.08984375 C24.70510503 81.54923972 25.85671092 82.99569316 27.0234375 84.4296875 C29.48904971 87.63595792 31.68872757 90.97432565 33.875 94.375 C34.26848633 94.9824707 34.66197266 95.58994141 35.06738281 96.21582031 C38.4576256 101.53484038 39.62432296 105.71514883 39 112 C38.53575242 113.7598222 38.03312339 115.50980477 37.5 117.25 C35.41249555 124.31009761 34.90879847 131.86630445 37 139 C37.66 139 38.32 139 39 139 C39.12383057 138.26861816 39.24766113 137.53723633 39.37524414 136.78369141 C39.97953482 134.09118561 40.80898992 131.94274891 41.99609375 129.4609375 C42.38990234 128.63335937 42.78371094 127.80578125 43.18945312 126.953125 C43.60130859 126.10234375 44.01316406 125.2515625 44.4375 124.375 C44.84548828 123.51648438 45.25347656 122.65796875 45.67382812 121.7734375 C47.31039172 118.35614321 48.89390868 115.15913697 51 112 C51.66 112 52.32 112 53 112 C53.33 111.34 53.66 110.68 54 110 C55.16167068 120.80466513 56.20952891 131.5760582 56.65795898 142.43701172 C56.76249989 146.34707419 56.76249989 146.34707419 58 150 C58.82022749 148.92250558 59.63086169 147.83770492 60.4375 146.75 C60.88996094 146.14671875 61.34242188 145.5434375 61.80859375 144.921875 C63.03900997 142.93707244 63.56112668 141.28012345 64 139 C64.66 139 65.32 139 66 139 C70.5492016 156.76354912 70.5492016 156.76354912 67.81640625 162.47265625 C63.10840053 170.31933246 57.07464219 177.19528826 51 184 C50.03126953 185.11375 50.03126953 185.11375 49.04296875 186.25 C44.96098462 190.66103296 40.33153618 194.02399232 35.375 197.375 C34.42415527 198.01924927 34.42415527 198.01924927 33.45410156 198.67651367 C29.74776761 201.10074282 26.30739293 202.79392998 22 204 C23.85930379 200.60950486 26.03568539 197.64015353 28.4375 194.625 C31.38579184 190.88842802 33.74593829 187.1861146 36 183 C36.47566406 182.28972656 36.95132813 181.57945312 37.44140625 180.84765625 C39.49028853 177.10420968 40.55071522 173.28473335 41.6875 169.1875 C41.91244141 168.39923828 42.13738281 167.61097656 42.36914062 166.79882812 C42.91921595 164.86771261 43.46050006 162.93409664 44 161 C42.70756532 162.1241176 41.41607925 163.24932592 40.125 164.375 C39.40570313 165.00148437 38.68640625 165.62796875 37.9453125 166.2734375 C36.5923402 167.47426834 35.2791655 168.7208345 34 170 C33.01 170 32.02 170 31 170 C30.89977539 169.42781738 30.79955078 168.85563477 30.69628906 168.26611328 C29.50540141 161.50289759 28.26380889 154.74993884 27 148 C26.83983398 147.12633789 26.67966797 146.25267578 26.51464844 145.35253906 C24.89516328 136.65683214 23.35019959 129.13295783 18.171875 121.75 C17 120 17 120 17 118 C16.34 118 15.68 118 15 118 C13.34375 116.171875 13.34375 116.171875 11.5 113.75 C10.8915625 112.96109375 10.283125 112.1721875 9.65625 111.359375 C6.06040571 106.23699305 5.79436275 103.16911745 6 97 C1.23188544 101.48947803 1.23188544 101.48947803 -0.15771484 107.70800781 C-0.18406006 109.31434082 -0.18406006 109.31434082 -0.2109375 110.953125 C-0.23929687 112.13003906 -0.26765625 113.30695313 -0.296875 114.51953125 C-0.34862806 116.99074005 -0.39299535 119.46211545 -0.4296875 121.93359375 C-0.64732365 130.24910849 -0.90583941 135.90583941 -7 142 C-8.65 136.72 -10.3 131.44 -12 126 C-17.40883652 127.80294551 -20.16635997 129.44653455 -24.125 133.1875 C-24.63675781 133.64447266 -25.14851563 134.10144531 -25.67578125 134.57226562 C-33.31095691 141.6480518 -35.8829367 149.69475705 -36.375 159.875 C-36.72279127 166.01712512 -37.96616346 170.66609204 -41 176 C-41.99 176 -42.98 176 -44 176 C-44.99 172.7 -45.98 169.4 -47 166 C-47.99 166 -48.98 166 -50 166 C-50.23976562 166.54527344 -50.47953125 167.09054688 -50.7265625 167.65234375 C-52.30972691 170.57099962 -54.29847282 172.97201509 -56.375 175.5625 C-62.89909264 184.02977334 -65.53946249 192.3846105 -66 203 C-73.53725584 200.84649833 -78.14384034 197.70699422 -82.03125 190.94140625 C-84.63635108 185.72069965 -84.69190585 179.28655277 -83.5 173.625 C-81.74272848 164.39932451 -83.82632653 158.24267801 -88 150 C-90.06968492 145.07217876 -90.68737378 140.30692991 -90 135 C-89.34 134.01 -88.68 133.02 -88 132 C-84.14406926 133.58561638 -81.66783709 136.06509954 -78.75 139 C-77.41195312 140.3303125 -77.41195312 140.3303125 -76.046875 141.6875 C-74 144 -74 144 -74 146 C-69.67475165 142.25145143 -68.24865974 138.61698709 -67.70947266 132.94238281 C-67.65949839 129.37755157 -67.6213585 125.81525134 -67.625 122.25 C-67.62371094 120.95118896 -67.62242188 119.65237793 -67.62109375 118.31420898 C-67.71011325 110.17752281 -68.48980051 102.79136593 -70.55908203 94.94165039 C-72.27519847 88.38357801 -73.2292905 81.75205886 -72 75 C-69.96875 72.11328125 -69.96875 72.11328125 -68 70 C-66.515 70.495 -66.515 70.495 -65 71 C-63.92504883 73.50024414 -63.92504883 73.50024414 -62.95703125 76.78515625 C-62.60576172 77.95498047 -62.25449219 79.12480469 -61.89257812 80.33007812 C-61.53615234 81.56177734 -61.17972656 82.79347656 -60.8125 84.0625 C-60.44447266 85.29806641 -60.07644531 86.53363281 -59.69726562 87.80664062 C-58.78712837 90.86801139 -57.88861754 93.93232673 -57 97 C-55.02 94.03 -53.04 91.06 -51 88 C-45.14631114 93.85368886 -45.48447484 101.12090914 -45 109 C-41.90738435 108.36159374 -41.90738435 108.36159374 -41.06835938 106.14111328 C-38.74510241 98.29933826 -38.54370744 90.87638027 -38.47265625 82.74609375 C-38.33672537 76.46928529 -37.58759514 71.73950625 -35 66 C-34.34 66 -33.68 66 -33 66 C-33 65.34 -33 64.68 -33 64 C-30 62 -30 62 -26 62 C-24.68 65.63 -23.36 69.26 -22 73 C-16.50815143 69.70489086 -14.74521648 67.98130152 -13 62 C-12.39236679 56.15828948 -12.54051302 50.30749675 -12.59960938 44.44140625 C-12.50200662 33.79696418 -9.49348216 27.0088164 -3.25 18.5 C0.46247348 13.39938426 1.32715362 10.36691267 1 4 C0.58268982 1.64470719 0.58268982 1.64470719 0 0 Z "
     transform="translate(140,50)"
     style="fill: #F58723;"
     id="path6" />
  <path
     d="M0 0 C0.0825 1.19625 0.165 2.3925 0.25 3.625 C0.9423879 9.15435128 3.78252375 12.51197347 7.25 16.75 C9 19 9 19 9 21 C9.66 21 10.32 21 11 21 C19.06249847 30.62625762 20.7479557 43.05113683 23 55 C23.2475 56.27875 23.495 57.5575 23.75 58.875 C24.61264164 63.66745356 25.07801437 68.12055597 25 73 C28.22221341 71.29412231 30.67781425 69.42084662 33.1875 66.8125 C36 64 36 64 38 64 C37.02563936 72.96411789 34.82283064 80.39828824 29.5390625 87.77734375 C28.00453061 89.99345706 26.75123786 92.23957556 25.5 94.625 C23.46520435 98.40958735 21.07218522 101.46213011 18.13671875 104.58984375 C16.79080539 105.95763933 16.79080539 105.95763933 17 108 C-10.2753433 119.07500799 -38.85822639 121.14714748 -66.71484375 109.90429688 C-68.828247 108.96958577 -70.92193935 108.01049266 -73 107 C-71.83302324 93.93682735 -68.74522116 85.41710421 -60.875 74.875 C-60.22724609 74.00270752 -60.22724609 74.00270752 -59.56640625 73.11279297 C-58.45167483 71.68098431 -57.23200749 70.33223861 -56 69 C-55.01 69 -54.02 69 -53 69 C-52.01 72.3 -51.02 75.6 -50 79 C-49.01 79 -48.02 79 -47 79 C-44.84172825 73.55740169 -43.82078331 68.98803105 -43.5625 63.125 C-42.94173846 52.25581675 -39.85689178 44.55409068 -32 37 C-31.33355469 36.34773438 -30.66710937 35.69546875 -29.98046875 35.0234375 C-26.21489918 31.52426578 -23.13962683 29.15641604 -18 28 C-15.84705349 33.28830549 -13.72066106 38.55123997 -12 44 C-8.65263014 38.76063848 -7.89041271 35.10014467 -7.7890625 28.9140625 C-7.76070313 27.73585937 -7.73234375 26.55765625 -7.703125 25.34375 C-7.65120892 22.87254462 -7.60688831 20.40116753 -7.5703125 17.9296875 C-7.539375 16.74890625 -7.5084375 15.568125 -7.4765625 14.3515625 C-7.45674316 13.27729004 -7.43692383 12.20301758 -7.41650391 11.09619141 C-6.85480349 6.92064355 -5.08867494 0 0 0 Z "
     transform="translate(146,147)"
     style="fill: #F8DA4D;"
     id="path8" />
</svg>
