<?xml version="1.0" encoding="UTF-8"?>
<!DOCTYPE svg PUBLIC "-//W3C//DTD SVG 1.1//EN" "http://www.w3.org/Graphics/SVG/1.1/DTD/svg11.dtd">
<svg version="1.2" width="70.64mm" height="87.05mm" viewBox="0 0 7064 8705" preserveAspectRatio="xMidYMid" fill-rule="evenodd" stroke-width="28.222" stroke-linejoin="round" xmlns="http://www.w3.org/2000/svg" xmlns:ooo="http://xml.openoffice.org/svg/export" xmlns:xlink="http://www.w3.org/1999/xlink" xmlns:presentation="http://sun.com/xmlns/staroffice/presentation" xmlns:smil="http://www.w3.org/2001/SMIL20/" xmlns:anim="urn:oasis:names:tc:opendocument:xmlns:animation:1.0" xml:space="preserve">
 <defs class="ClipPathGroup">
  <clipPath id="presentation_clip_path" clipPathUnits="userSpaceOnUse">
   <rect x="0" y="0" width="7064" height="8705"/>
  </clipPath>
  <clipPath id="presentation_clip_path_shrink" clipPathUnits="userSpaceOnUse">
   <rect x="7" y="8" width="7050" height="8688"/>
  </clipPath>
 </defs>
 <defs class="TextShapeIndex">
  <g ooo:slide="id1" ooo:id-list="id3"/>
 </defs>
 <defs class="EmbeddedBulletChars">
  <g id="bullet-char-template-57356" transform="scale(0.00048828125,-0.00048828125)">
   <path d="M 580,1141 L 1163,571 580,0 -4,571 580,1141 Z"/>
  </g>
  <g id="bullet-char-template-57354" transform="scale(0.00048828125,-0.00048828125)">
   <path d="M 8,1128 L 1137,1128 1137,0 8,0 8,1128 Z"/>
  </g>
  <g id="bullet-char-template-10146" transform="scale(0.00048828125,-0.00048828125)">
   <path d="M 174,0 L 602,739 174,1481 1456,739 174,0 Z M 1358,739 L 309,1346 659,739 1358,739 Z"/>
  </g>
  <g id="bullet-char-template-10132" transform="scale(0.00048828125,-0.00048828125)">
   <path d="M 2015,739 L 1276,0 717,0 1260,543 174,543 174,936 1260,936 717,1481 1274,1481 2015,739 Z"/>
  </g>
  <g id="bullet-char-template-10007" transform="scale(0.00048828125,-0.00048828125)">
   <path d="M 0,-2 C -7,14 -16,27 -25,37 L 356,567 C 262,823 215,952 215,954 215,979 228,992 255,992 264,992 276,990 289,987 310,991 331,999 354,1012 L 381,999 492,748 772,1049 836,1024 860,1049 C 881,1039 901,1025 922,1006 886,937 835,863 770,784 769,783 710,716 594,584 L 774,223 C 774,196 753,168 711,139 L 727,119 C 717,90 699,76 672,76 641,76 570,178 457,381 L 164,-76 C 142,-110 111,-127 72,-127 30,-127 9,-110 8,-76 1,-67 -2,-52 -2,-32 -2,-23 -1,-13 0,-2 Z"/>
  </g>
  <g id="bullet-char-template-10004" transform="scale(0.00048828125,-0.00048828125)">
   <path d="M 285,-33 C 182,-33 111,30 74,156 52,228 41,333 41,471 41,549 55,616 82,672 116,743 169,778 240,778 293,778 328,747 346,684 L 369,508 C 377,444 397,411 428,410 L 1163,1116 C 1174,1127 1196,1133 1229,1133 1271,1133 1292,1118 1292,1087 L 1292,965 C 1292,929 1282,901 1262,881 L 442,47 C 390,-6 338,-33 285,-33 Z"/>
  </g>
  <g id="bullet-char-template-9679" transform="scale(0.00048828125,-0.00048828125)">
   <path d="M 813,0 C 632,0 489,54 383,161 276,268 223,411 223,592 223,773 276,916 383,1023 489,1130 632,1184 813,1184 992,1184 1136,1130 1245,1023 1353,916 1407,772 1407,592 1407,412 1353,268 1245,161 1136,54 992,0 813,0 Z"/>
  </g>
  <g id="bullet-char-template-8226" transform="scale(0.00048828125,-0.00048828125)">
   <path d="M 346,457 C 273,457 209,483 155,535 101,586 74,649 74,723 74,796 101,859 155,911 209,963 273,989 346,989 419,989 480,963 531,910 582,859 608,796 608,723 608,648 583,586 532,535 482,483 420,457 346,457 Z"/>
  </g>
  <g id="bullet-char-template-8211" transform="scale(0.00048828125,-0.00048828125)">
   <path d="M -4,459 L 1135,459 1135,606 -4,606 -4,459 Z"/>
  </g>
  <g id="bullet-char-template-61548" transform="scale(0.00048828125,-0.00048828125)">
   <path d="M 173,740 C 173,903 231,1043 346,1159 462,1274 601,1332 765,1332 928,1332 1067,1274 1183,1159 1299,1043 1357,903 1357,740 1357,577 1299,437 1183,322 1067,206 928,148 765,148 601,148 462,206 346,322 231,437 173,577 173,740 Z"/>
  </g>
 </defs>
 <g>
  <g id="id2" class="Master_Slide">
   <g id="bg-id2" class="Background"/>
   <g id="bo-id2" class="BackgroundObjects"/>
  </g>
 </g>
 <g class="SlideGroup">
  <g>
   <g id="container-id1">
    <g id="id1" class="Slide" clip-path="url(#presentation_clip_path)">
     <g class="Page">
      <g class="Graphic">
       <g id="id3">
        <rect class="BoundingBox" stroke="none" fill="none" x="0" y="0" width="7064" height="8705"/>
        <path fill="rgb(218,36,40)" stroke="none" d="M 4299,278 C 4325,287 4351,295 4378,304 4364,325 4364,325 4350,346 4062,798 3882,1325 3967,1864 4026,2086 4158,2269 4294,2450 4482,2705 4650,2992 4748,3294 4756,3316 4764,3339 4772,3362 4896,3769 4838,4190 4722,4590 5007,4556 5007,4556 5231,4390 5328,4232 5361,4058 5383,3876 5639,4062 5808,4415 5859,4722 5869,4822 5872,4921 5873,5022 5873,5046 5873,5070 5873,5094 5868,5353 5789,5569 5671,5796 5661,5814 5652,5833 5642,5852 5573,5988 5573,5988 5542,6019 5876,5982 6219,5906 6458,5655 6530,5564 6577,5463 6627,5357 6635,5357 6644,5357 6653,5357 6671,6119 6660,6831 6150,7447 6133,7470 6115,7492 6097,7516 5790,7886 5338,8076 4881,8188 4862,8193 4843,8198 4824,8203 4626,8249 4432,8247 4229,8244 4195,8244 4161,8244 4126,8244 4042,8243 3959,8242 3875,8241 3962,8183 4025,8170 4127,8147 4421,8075 4698,7937 4958,7784 5039,7738 5039,7738 5092,7738 5092,7721 5092,7703 5092,7685 5131,7653 5131,7653 5185,7616 5584,7323 5800,6901 6018,6468 5954,6532 5890,6596 5828,6662 5780,6707 5780,6707 5727,6707 5727,6724 5727,6741 5727,6759 5661,6798 5595,6836 5529,6874 5510,6884 5492,6895 5473,6906 5302,7004 5136,7092 4934,7077 4936,6950 4959,6885 5041,6788 5133,6678 5197,6563 5261,6435 5270,6417 5279,6399 5289,6380 5361,6232 5387,6110 5385,5944 5385,5918 5384,5893 5384,5866 5384,5847 5384,5827 5383,5807 5360,5827 5360,5827 5337,5847 5277,5886 5277,5886 5178,5878 5150,5872 5121,5866 5092,5860 5074,5819 5074,5819 5066,5754 5086,5709 5105,5665 5126,5620 5161,5527 5156,5456 5145,5357 5097,5291 5097,5291 5039,5252 5033,5267 5027,5282 5021,5298 4943,5431 4824,5484 4682,5529 4572,5552 4463,5549 4352,5543 4361,5516 4370,5489 4380,5461 4392,5426 4404,5390 4416,5354 4422,5336 4428,5319 4434,5301 4558,4934 4540,4572 4380,4219 4343,4151 4300,4089 4253,4027 4228,3994 4228,3994 4203,3960 4187,3940 4172,3920 4155,3900 4051,3707 4051,3479 4044,3264 4043,3239 4042,3213 4041,3187 4038,3126 4036,3064 4034,3003 3902,3235 3892,3455 3952,3714 3971,3781 3991,3847 4010,3914 4091,4229 4005,4520 3848,4797 3729,4990 3587,5172 3426,5331 3417,5331 3408,5331 3399,5331 3397,5305 3395,5278 3393,5252 3374,5042 3352,4870 3188,4722 3071,4627 2946,4561 2810,4497 2547,4373 2405,4230 2292,3960 2257,3861 2227,3761 2201,3659 2196,3642 2191,3625 2187,3607 2157,3481 2152,3369 2156,3241 2138,3241 2121,3241 2103,3241 2088,3785 2121,4183 2362,4675 2507,4975 2595,5281 2498,5612 2452,5734 2400,5850 2341,5966 2324,5966 2306,5966 2288,5966 2275,5848 2275,5848 2262,5728 2157,5763 2130,5826 2077,5916 2050,5961 2050,5961 2022,6006 1934,6165 1857,6310 1891,6495 1921,6561 1958,6618 1997,6680 2017,6745 2017,6745 2024,6786 2041,6786 2059,6786 2077,6786 2198,7060 2198,7060 2182,7209 2177,7193 2171,7177 2166,7160 2113,7078 2065,7073 1971,7051 1929,7045 1888,7040 1846,7036 1814,7033 1814,7033 1782,7029 1765,7027 1749,7026 1733,7024 1866,7457 1993,7820 2412,8051 2574,8127 2748,8157 2923,8188 2923,8197 2923,8206 2923,8215 2448,8246 1862,8153 1491,7838 1314,7672 1234,7502 1204,7262 1201,7158 1203,7054 1205,6950 1205,6888 1206,6826 1206,6764 1207,6667 1209,6570 1210,6472 1212,6378 1212,6284 1213,6190 1214,6147 1214,6147 1215,6103 1216,5904 1175,5751 1098,5569 1089,5543 1080,5517 1071,5490 1247,5475 1348,5496 1495,5595 1495,5613 1495,5630 1495,5648 1561,5585 1599,5548 1603,5453 1603,5429 1602,5405 1602,5380 1602,5356 1602,5332 1601,5308 1601,5289 1601,5271 1600,5252 1770,5265 1770,5265 1850,5333 1871,5358 1871,5358 1891,5384 1915,5120 1793,4870 1627,4669 1559,4604 1488,4544 1415,4484 1232,4317 1165,4127 1141,3884 1133,3448 1202,2768 1495,2421 1494,2455 1493,2489 1493,2524 1492,2570 1492,2615 1491,2660 1491,2683 1490,2705 1490,2728 1489,2866 1503,2978 1548,3109 1676,3063 1725,2966 1783,2848 1877,2616 1880,2338 1784,2108 1774,2088 1764,2067 1753,2047 1746,2030 1740,2014 1733,1997 1741,1980 1750,1963 1759,1945 2092,2196 2319,2568 2394,2976 2404,3100 2401,3223 2394,3347 2423,3336 2453,3326 2483,3315 2500,3309 2516,3304 2534,3298 2600,3254 2611,3211 2632,3135 2638,3058 2638,3058 2635,2981 2635,2955 2634,2930 2634,2903 2633,2884 2633,2864 2632,2844 2807,2913 2883,3103 2959,3264 3056,3531 3039,3808 3029,4087 3307,3556 3498,3004 3326,2401 3308,2345 3288,2290 3267,2236 3252,2194 3252,2194 3237,2151 3213,2082 3187,2013 3161,1945 3090,1730 3117,1480 3204,1274 3420,860 3769,595 4163,364 4209,337 4254,308 4299,278 L 4299,278 Z"/>
        <path fill="rgb(246,135,36)" stroke="none" d="M 4061,2976 C 4061,2992 4061,3008 4062,3025 4073,3611 4073,3611 4347,4115 4534,4371 4555,4681 4537,4987 4507,5173 4461,5347 4378,5516 4573,5529 4733,5502 4907,5410 4964,5360 4997,5315 5039,5252 5142,5298 5142,5298 5172,5357 5182,5518 5160,5610 5092,5754 5092,5780 5092,5807 5092,5834 5222,5865 5222,5865 5342,5822 5356,5808 5369,5795 5383,5781 5427,5825 5415,5877 5416,5938 5411,6300 5220,6626 4990,6898 4952,6956 4944,7009 4934,7077 5190,7026 5392,6933 5613,6794 5674,6759 5674,6759 5727,6759 5727,6742 5727,6725 5727,6707 5770,6665 5770,6665 5826,6617 5902,6553 5975,6488 6045,6416 5883,6837 5586,7467 5150,7667 5131,7673 5112,7679 5092,7685 5092,7703 5092,7720 5092,7738 4477,8071 4477,8071 4193,8162 4154,8174 4154,8174 4115,8187 3910,8246 3716,8249 3505,8241 3531,8224 3557,8206 3584,8188 3731,8087 3876,7984 3953,7818 3985,7757 4018,7730 4072,7689 4365,7438 4530,7151 4643,6786 4651,6760 4660,6734 4669,6707 4671,6658 4672,6609 4672,6560 4671,6532 4671,6503 4671,6474 4671,6444 4671,6415 4671,6384 4671,6354 4670,6324 4670,6293 4670,6220 4670,6146 4669,6072 4652,6072 4634,6072 4616,6072 4618,6099 4620,6126 4623,6154 4615,6276 4588,6323 4510,6416 4394,6514 4318,6533 4166,6521 4170,6501 4174,6481 4179,6461 4198,6328 4202,6196 4208,6062 4209,6021 4209,6021 4211,5980 4214,5913 4217,5847 4219,5781 4202,5781 4184,5781 4166,5781 4162,5763 4157,5745 4152,5726 4145,5703 4139,5679 4132,5655 4125,5632 4119,5608 4112,5584 4086,5514 4054,5468 4008,5410 3989,5367 3971,5323 3955,5278 3953,5312 3950,5347 3948,5382 3916,5661 3768,5850 3563,6032 3505,6072 3505,6072 3452,6072 3448,6051 3444,6031 3439,6010 3375,5720 3375,5720 3186,5502 3149,5479 3111,5457 3073,5437 3029,5410 3029,5410 3002,5357 2950,5338 2897,5320 2844,5304 2849,5325 2855,5345 2861,5366 2963,5756 2929,6089 2817,6468 2791,6468 2765,6468 2738,6468 2729,6434 2720,6399 2711,6363 2694,6363 2677,6363 2659,6363 2659,6345 2659,6328 2659,6310 2563,6310 2466,6310 2368,6310 2381,6330 2393,6350 2407,6371 2461,6502 2457,6615 2454,6755 2453,6780 2453,6805 2453,6830 2452,6966 2443,7098 2427,7233 2388,7558 2388,7558 2493,7859 2594,7982 2720,8055 2860,8128 2881,8139 2902,8150 2923,8162 2923,8170 2923,8179 2923,8188 2549,8174 2292,8043 2032,7776 1873,7587 1733,7271 1733,7024 1886,7015 1996,7017 2129,7103 2138,7121 2147,7138 2156,7156 2142,7025 2123,6911 2077,6786 2059,6786 2042,6786 2024,6786 1997,6740 1971,6694 1945,6648 1926,6615 1906,6582 1885,6549 1840,6425 1847,6328 1895,6207 2065,5858 2065,5858 2182,5728 2209,5728 2235,5728 2262,5728 2305,5796 2316,5825 2305,5906 2299,5926 2294,5946 2288,5966 2306,5966 2323,5966 2341,5966 2348,5946 2354,5925 2361,5905 2394,5807 2394,5807 2421,5745 2548,5440 2529,5135 2415,4827 2374,4727 2323,4631 2273,4536 2077,4155 1981,3664 2103,3241 2120,3241 2138,3241 2156,3241 2160,3267 2165,3294 2170,3321 2261,3902 2261,3902 2595,4365 2700,4431 2813,4482 2925,4536 3117,4630 3275,4739 3373,4934 3392,5028 3392,5028 3404,5127 3408,5161 3413,5194 3417,5228 3420,5253 3423,5278 3426,5304 3721,5000 4004,4608 4023,4168 4017,4044 3989,3934 3955,3815 3887,3579 3841,3315 3953,3085 4025,2976 4025,2976 4061,2976 L 4061,2976 Z"/>
        <path fill="rgb(248,217,76)" stroke="none" d="M 3928,5252 C 4019,5312 4024,5338 4061,5437 4081,5467 4081,5467 4102,5498 4153,5593 4157,5673 4166,5781 4184,5781 4201,5781 4219,5781 4221,5874 4222,5968 4223,6062 4223,6088 4223,6115 4224,6142 4225,6279 4222,6393 4166,6521 4315,6497 4428,6475 4537,6363 4598,6274 4604,6178 4616,6072 4634,6072 4651,6072 4669,6072 4778,6400 4704,6803 4561,7109 4450,7325 4208,7678 3981,7791 3971,7814 3960,7837 3950,7861 3862,8024 3743,8120 3584,8215 3938,8228 3938,8228 4299,8241 4299,8250 4299,8258 4299,8267 3804,8270 3311,8271 2817,8241 2870,8228 2870,8228 2923,8215 2923,8197 2923,8180 2923,8162 2901,8156 2879,8151 2857,8145 2675,8074 2526,7953 2422,7787 2350,7595 2383,7374 2408,7175 2424,7035 2425,6895 2425,6755 2426,6729 2426,6704 2426,6678 2427,6544 2421,6435 2368,6310 2464,6310 2560,6310 2659,6310 2659,6327 2659,6345 2659,6363 2676,6363 2693,6363 2711,6363 2729,6398 2746,6432 2764,6468 2958,6109 2917,5691 2844,5304 2905,5322 2966,5339 3029,5357 3029,5375 3029,5392 3029,5410 3048,5417 3067,5423 3087,5430 3252,5504 3323,5602 3399,5763 3438,5867 3447,5961 3452,6072 3664,5925 3840,5775 3902,5516 3915,5428 3923,5340 3928,5252 L 3928,5252 Z"/>
       </g>
      </g>
     </g>
    </g>
   </g>
  </g>
 </g>
</svg>