<?xml version="1.0" encoding="UTF-8"?>
<!DOCTYPE svg PUBLIC "-//W3C//DTD SVG 1.1//EN" "http://www.w3.org/Graphics/SVG/1.1/DTD/svg11.dtd">
<svg version="1.2" width="57.68mm" height="66.15mm" viewBox="0 0 5768 6615" preserveAspectRatio="xMidYMid" fill-rule="evenodd" stroke-width="28.222" stroke-linejoin="round" xmlns="http://www.w3.org/2000/svg" xmlns:ooo="http://xml.openoffice.org/svg/export" xmlns:xlink="http://www.w3.org/1999/xlink" xmlns:presentation="http://sun.com/xmlns/staroffice/presentation" xmlns:smil="http://www.w3.org/2001/SMIL20/" xmlns:anim="urn:oasis:names:tc:opendocument:xmlns:animation:1.0" xml:space="preserve">
 <defs class="ClipPathGroup">
  <clipPath id="presentation_clip_path" clipPathUnits="userSpaceOnUse">
   <rect x="0" y="0" width="5768" height="6615"/>
  </clipPath>
  <clipPath id="presentation_clip_path_shrink" clipPathUnits="userSpaceOnUse">
   <rect x="5" y="6" width="5757" height="6602"/>
  </clipPath>
 </defs>
 <defs class="TextShapeIndex">
  <g ooo:slide="id1" ooo:id-list="id3"/>
 </defs>
 <defs class="EmbeddedBulletChars">
  <g id="bullet-char-template-57356" transform="scale(0.00048828125,-0.00048828125)">
   <path d="M 580,1141 L 1163,571 580,0 -4,571 580,1141 Z"/>
  </g>
  <g id="bullet-char-template-57354" transform="scale(0.00048828125,-0.00048828125)">
   <path d="M 8,1128 L 1137,1128 1137,0 8,0 8,1128 Z"/>
  </g>
  <g id="bullet-char-template-10146" transform="scale(0.00048828125,-0.00048828125)">
   <path d="M 174,0 L 602,739 174,1481 1456,739 174,0 Z M 1358,739 L 309,1346 659,739 1358,739 Z"/>
  </g>
  <g id="bullet-char-template-10132" transform="scale(0.00048828125,-0.00048828125)">
   <path d="M 2015,739 L 1276,0 717,0 1260,543 174,543 174,936 1260,936 717,1481 1274,1481 2015,739 Z"/>
  </g>
  <g id="bullet-char-template-10007" transform="scale(0.00048828125,-0.00048828125)">
   <path d="M 0,-2 C -7,14 -16,27 -25,37 L 356,567 C 262,823 215,952 215,954 215,979 228,992 255,992 264,992 276,990 289,987 310,991 331,999 354,1012 L 381,999 492,748 772,1049 836,1024 860,1049 C 881,1039 901,1025 922,1006 886,937 835,863 770,784 769,783 710,716 594,584 L 774,223 C 774,196 753,168 711,139 L 727,119 C 717,90 699,76 672,76 641,76 570,178 457,381 L 164,-76 C 142,-110 111,-127 72,-127 30,-127 9,-110 8,-76 1,-67 -2,-52 -2,-32 -2,-23 -1,-13 0,-2 Z"/>
  </g>
  <g id="bullet-char-template-10004" transform="scale(0.00048828125,-0.00048828125)">
   <path d="M 285,-33 C 182,-33 111,30 74,156 52,228 41,333 41,471 41,549 55,616 82,672 116,743 169,778 240,778 293,778 328,747 346,684 L 369,508 C 377,444 397,411 428,410 L 1163,1116 C 1174,1127 1196,1133 1229,1133 1271,1133 1292,1118 1292,1087 L 1292,965 C 1292,929 1282,901 1262,881 L 442,47 C 390,-6 338,-33 285,-33 Z"/>
  </g>
  <g id="bullet-char-template-9679" transform="scale(0.00048828125,-0.00048828125)">
   <path d="M 813,0 C 632,0 489,54 383,161 276,268 223,411 223,592 223,773 276,916 383,1023 489,1130 632,1184 813,1184 992,1184 1136,1130 1245,1023 1353,916 1407,772 1407,592 1407,412 1353,268 1245,161 1136,54 992,0 813,0 Z"/>
  </g>
  <g id="bullet-char-template-8226" transform="scale(0.00048828125,-0.00048828125)">
   <path d="M 346,457 C 273,457 209,483 155,535 101,586 74,649 74,723 74,796 101,859 155,911 209,963 273,989 346,989 419,989 480,963 531,910 582,859 608,796 608,723 608,648 583,586 532,535 482,483 420,457 346,457 Z"/>
  </g>
  <g id="bullet-char-template-8211" transform="scale(0.00048828125,-0.00048828125)">
   <path d="M -4,459 L 1135,459 1135,606 -4,606 -4,459 Z"/>
  </g>
  <g id="bullet-char-template-61548" transform="scale(0.00048828125,-0.00048828125)">
   <path d="M 173,740 C 173,903 231,1043 346,1159 462,1274 601,1332 765,1332 928,1332 1067,1274 1183,1159 1299,1043 1357,903 1357,740 1357,577 1299,437 1183,322 1067,206 928,148 765,148 601,148 462,206 346,322 231,437 173,577 173,740 Z"/>
  </g>
 </defs>
 <g>
  <g id="id2" class="Master_Slide">
   <g id="bg-id2" class="Background"/>
   <g id="bo-id2" class="BackgroundObjects"/>
  </g>
 </g>
 <g class="SlideGroup">
  <g>
   <g id="container-id1">
    <g id="id1" class="Slide" clip-path="url(#presentation_clip_path)">
     <g class="Page">
      <g class="Graphic">
       <g id="id3">
        <rect class="BoundingBox" stroke="none" fill="none" x="0" y="0" width="5768" height="6615"/>
        <path fill="rgb(220,36,40)" stroke="none" d="M 1706,384 C 1717,434 1727,484 1737,533 1792,689 1886,778 2019,870 2205,1005 2359,1145 2447,1362 2447,1380 2447,1397 2447,1415 2464,1415 2482,1415 2500,1415 2554,1301 2567,1196 2579,1071 2935,1130 3224,1382 3439,1660 3462,1693 3484,1726 3505,1759 3516,1776 3527,1793 3538,1811 3584,1887 3611,1934 3611,2024 3628,2024 3646,2024 3664,2024 3668,2010 3672,1996 3676,1982 3742,1754 3822,1532 3902,1310 4052,1323 4165,1364 4299,1432 4317,1441 4336,1451 4355,1461 4491,1532 4603,1607 4696,1733 4713,1756 4729,1779 4747,1802 4827,2057 4771,2265 4673,2501 4593,2702 4579,2894 4649,3100 4697,3163 4728,3189 4801,3214 4805,3187 4805,3187 4810,3159 4831,3069 4867,2997 4909,2915 4931,2873 4931,2873 4953,2829 4964,2808 4975,2787 4987,2765 5126,2782 5173,2835 5259,2940 5507,3284 5505,3669 5511,4078 5512,4136 5514,4193 5516,4251 5534,4683 5470,5002 5172,5331 5146,5348 5119,5366 5092,5384 5089,5369 5086,5354 5083,5339 5078,5319 5074,5299 5069,5278 5064,5256 5060,5234 5055,5212 5042,5155 5026,5100 5010,5045 4947,4784 4983,4589 5105,4352 5188,4187 5214,4050 5190,3866 5184,3852 5178,3838 5172,3823 5146,3814 5119,3805 5092,3796 5092,3779 5092,3762 5092,3744 5014,3730 5014,3730 4934,3717 4932,3738 4929,3760 4927,3782 4902,3901 4854,4004 4801,4114 4730,4043 4703,3959 4666,3868 4590,3689 4502,3527 4397,3364 4352,3294 4352,3294 4324,3233 4300,3179 4300,3179 4219,3161 4180,3120 4180,3120 4137,3067 3944,2841 3686,2596 3399,2500 3394,2548 3394,2548 3389,2596 3378,2693 3354,2779 3320,2870 3212,2832 3159,2758 3108,2659 3078,2560 3062,2459 3044,2358 3013,2198 2966,2077 2832,1974 2757,1936 2757,1936 2632,1945 2615,2049 2597,2154 2579,2262 2470,2235 2452,2223 2396,2132 2347,2036 2309,1936 2271,1836 2177,1633 2040,1571 1839,1495 1768,1473 1699,1457 1627,1442 1627,1459 1627,1477 1627,1495 1650,1497 1650,1497 1673,1500 1758,1530 1789,1580 1839,1654 1904,1816 1859,1978 1799,2135 1736,2310 1701,2472 1733,2659 1775,2750 1775,2750 1839,2818 1856,2840 1873,2863 1891,2887 1942,2951 1942,2951 2004,2999 2050,3056 2050,3056 2065,3147 2046,3269 2014,3297 1918,3373 1857,3415 1795,3455 1732,3494 1666,3542 1632,3587 1616,3668 1609,3861 1668,3965 1786,4114 1803,4140 1821,4166 1839,4193 1596,4148 1401,3959 1257,3770 1239,3779 1222,3787 1204,3796 1172,4070 1258,4252 1389,4484 1571,4818 1571,4818 1548,4987 1471,4971 1415,4949 1350,4906 1334,4895 1318,4885 1301,4874 1284,4862 1267,4851 1250,4840 1233,4829 1216,4817 1198,4806 1156,4778 1113,4750 1071,4722 1078,5045 1112,5338 1204,5648 800,5321 800,5321 770,5054 766,4913 769,4775 776,4634 787,4435 788,4308 675,4140 607,4075 607,4075 542,4035 562,4036 582,4038 602,4040 628,4043 654,4045 681,4048 707,4050 733,4053 759,4055 819,4060 879,4061 939,4061 919,4039 899,4016 878,3993 709,3784 702,3584 727,3320 775,3141 914,2985 1072,2892 1124,2870 1124,2870 1204,2870 1214,2900 1224,2930 1235,2961 1251,2993 1267,3024 1283,3056 1350,3076 1350,3076 1415,3082 1437,2820 1385,2677 1219,2475 1184,2434 1149,2393 1114,2351 971,2182 892,2048 900,1821 921,1718 967,1671 1045,1601 1062,1601 1080,1601 1098,1601 1104,1615 1110,1629 1116,1643 1172,1764 1221,1844 1336,1918 1375,1931 1375,1931 1415,1945 1409,1925 1403,1906 1396,1885 1368,1797 1339,1709 1311,1620 1301,1590 1291,1559 1281,1528 1272,1498 1262,1469 1253,1438 1244,1411 1235,1384 1226,1356 1166,1160 1142,996 1232,804 1316,651 1511,384 1706,384 L 1706,384 Z"/>
        <path fill="rgb(245,136,34)" stroke="none" d="M 1627,1442 C 1845,1469 2049,1508 2201,1677 2297,1812 2356,1958 2411,2114 2454,2196 2497,2222 2579,2262 2578,2235 2577,2207 2576,2179 2579,2080 2596,2010 2632,1918 2760,1926 2847,1946 2942,2036 3045,2161 3063,2323 3093,2477 3130,2657 3163,2766 3320,2870 3325,2838 3325,2838 3330,2804 3348,2701 3373,2601 3399,2500 3736,2564 4039,2912 4246,3161 4268,3183 4291,3205 4314,3228 4536,3456 4656,3771 4775,4061 4823,3988 4853,3925 4884,3844 4898,3809 4898,3809 4912,3772 4919,3754 4926,3736 4934,3717 5038,3724 5080,3731 5154,3808 5223,3914 5244,3989 5225,4114 5178,4260 5122,4403 5049,4538 4962,4727 5003,4942 5072,5131 5142,5367 5142,5367 5094,5457 5056,5502 5017,5542 4975,5582 4961,5596 4947,5611 4933,5625 4898,5660 4863,5694 4828,5728 4794,5660 4802,5604 4804,5530 4812,5300 4798,5153 4636,4974 4621,4961 4606,4948 4590,4934 4537,4946 4537,4946 4484,4987 4451,5055 4427,5126 4405,5199 4286,5162 4237,5115 4167,5013 4138,4947 4112,4882 4089,4813 4075,4776 4061,4738 4047,4700 4023,4633 3999,4565 3975,4497 3912,4332 3849,4204 3690,4114 3634,4097 3634,4097 3585,4087 3581,4114 3578,4140 3574,4167 3569,4201 3565,4234 3560,4269 3555,4303 3551,4337 3546,4372 3532,4458 3532,4458 3505,4511 3382,4462 3351,4388 3297,4272 3245,4135 3222,3994 3199,3849 3153,3566 3107,3292 2897,3082 2879,3082 2862,3082 2844,3082 2846,3099 2848,3115 2849,3133 2860,3296 2838,3383 2732,3507 2717,3524 2701,3541 2685,3558 2324,3955 2302,4415 2244,4931 2238,4983 2232,5034 2226,5086 2211,5212 2197,5338 2182,5463 2092,5420 2021,5368 1944,5304 1896,5502 1885,5687 1888,5890 1888,5918 1889,5945 1889,5974 1890,6042 1890,6110 1891,6177 1751,6166 1666,6112 1559,6025 1537,6008 1537,6008 1515,5991 1339,5852 1228,5727 1151,5516 1143,5495 1135,5475 1127,5454 1047,5216 1064,4970 1071,4722 1173,4759 1252,4806 1339,4870 1411,4922 1463,4959 1548,4987 1520,4781 1452,4625 1348,4446 1321,4400 1294,4354 1268,4307 1256,4287 1245,4267 1233,4247 1179,4147 1172,4065 1171,3954 1170,3925 1169,3897 1169,3868 1171,3845 1174,3821 1177,3796 1216,3770 1216,3770 1257,3744 1266,3756 1276,3769 1286,3782 1420,3948 1579,4055 1759,4167 1768,4158 1777,4149 1786,4140 1775,4126 1763,4111 1752,4096 1737,4077 1723,4058 1708,4038 1694,4019 1679,4000 1664,3980 1580,3864 1582,3750 1600,3611 1683,3469 1799,3406 1941,3328 2001,3298 2001,3298 2024,3241 2039,3146 2042,3082 1986,3001 1938,2947 1889,2895 1839,2844 1719,2699 1696,2624 1697,2436 1711,2294 1758,2171 1810,2038 1852,1900 1851,1797 1807,1660 1756,1568 1719,1542 1627,1495 1627,1477 1627,1460 1627,1442 L 1627,1442 Z"/>
        <path fill="rgb(248,218,76)" stroke="none" d="M 2817,3029 C 2902,3066 2949,3104 3004,3178 3023,3203 3023,3203 3043,3229 3172,3445 3198,3689 3236,3934 3272,4139 3333,4312 3452,4484 3478,4497 3478,4497 3505,4511 3509,4485 3512,4459 3516,4432 3520,4398 3525,4364 3530,4329 3535,4295 3539,4261 3544,4227 3558,4140 3558,4140 3585,4087 3666,4087 3724,4099 3789,4148 3942,4303 4000,4495 4069,4696 4096,4774 4125,4851 4155,4927 4164,4952 4174,4976 4183,5001 4236,5096 4309,5151 4405,5199 4407,5175 4409,5152 4411,5128 4434,5029 4470,4981 4537,4908 4665,4955 4744,5058 4805,5178 4834,5272 4837,5362 4836,5460 4837,5478 4837,5496 4837,5515 4838,5646 4814,5744 4749,5860 4675,5925 4675,5925 4588,5981 4565,5996 4565,5996 4541,6011 4510,6031 4479,6051 4448,6071 4411,6094 4374,6119 4338,6143 3822,6478 3131,6587 2531,6465 2302,6412 2076,6334 1865,6230 1856,6213 1848,6195 1839,6177 1856,6177 1873,6177 1891,6177 1883,6151 1874,6125 1865,6098 1844,5834 1836,5550 1944,5304 2035,5345 2106,5400 2182,5463 2183,5438 2184,5414 2185,5388 2251,3961 2251,3961 2650,3565 2665,3551 2680,3538 2695,3524 2772,3443 2814,3377 2825,3264 2824,3222 2824,3222 2822,3180 2822,3151 2821,3123 2820,3094 2819,3062 2819,3062 2817,3029 L 2817,3029 Z"/>
       </g>
      </g>
     </g>
    </g>
   </g>
  </g>
 </g>
</svg>