<?xml version="1.0" encoding="UTF-8"?>
<!DOCTYPE svg PUBLIC "-//W3C//DTD SVG 1.1//EN" "http://www.w3.org/Graphics/SVG/1.1/DTD/svg11.dtd">
<svg version="1.2" width="56.89mm" height="72.23mm" viewBox="0 0 5689 7223" preserveAspectRatio="xMidYMid" fill-rule="evenodd" stroke-width="28.222" stroke-linejoin="round" xmlns="http://www.w3.org/2000/svg" xmlns:ooo="http://xml.openoffice.org/svg/export" xmlns:xlink="http://www.w3.org/1999/xlink" xmlns:presentation="http://sun.com/xmlns/staroffice/presentation" xmlns:smil="http://www.w3.org/2001/SMIL20/" xmlns:anim="urn:oasis:names:tc:opendocument:xmlns:animation:1.0" xml:space="preserve">
 <defs class="ClipPathGroup">
  <clipPath id="presentation_clip_path" clipPathUnits="userSpaceOnUse">
   <rect x="0" y="0" width="5689" height="7223"/>
  </clipPath>
  <clipPath id="presentation_clip_path_shrink" clipPathUnits="userSpaceOnUse">
   <rect x="5" y="7" width="5678" height="7209"/>
  </clipPath>
 </defs>
 <defs class="TextShapeIndex">
  <g ooo:slide="id1" ooo:id-list="id3"/>
 </defs>
 <defs class="EmbeddedBulletChars">
  <g id="bullet-char-template-57356" transform="scale(0.00048828125,-0.00048828125)">
   <path d="M 580,1141 L 1163,571 580,0 -4,571 580,1141 Z"/>
  </g>
  <g id="bullet-char-template-57354" transform="scale(0.00048828125,-0.00048828125)">
   <path d="M 8,1128 L 1137,1128 1137,0 8,0 8,1128 Z"/>
  </g>
  <g id="bullet-char-template-10146" transform="scale(0.00048828125,-0.00048828125)">
   <path d="M 174,0 L 602,739 174,1481 1456,739 174,0 Z M 1358,739 L 309,1346 659,739 1358,739 Z"/>
  </g>
  <g id="bullet-char-template-10132" transform="scale(0.00048828125,-0.00048828125)">
   <path d="M 2015,739 L 1276,0 717,0 1260,543 174,543 174,936 1260,936 717,1481 1274,1481 2015,739 Z"/>
  </g>
  <g id="bullet-char-template-10007" transform="scale(0.00048828125,-0.00048828125)">
   <path d="M 0,-2 C -7,14 -16,27 -25,37 L 356,567 C 262,823 215,952 215,954 215,979 228,992 255,992 264,992 276,990 289,987 310,991 331,999 354,1012 L 381,999 492,748 772,1049 836,1024 860,1049 C 881,1039 901,1025 922,1006 886,937 835,863 770,784 769,783 710,716 594,584 L 774,223 C 774,196 753,168 711,139 L 727,119 C 717,90 699,76 672,76 641,76 570,178 457,381 L 164,-76 C 142,-110 111,-127 72,-127 30,-127 9,-110 8,-76 1,-67 -2,-52 -2,-32 -2,-23 -1,-13 0,-2 Z"/>
  </g>
  <g id="bullet-char-template-10004" transform="scale(0.00048828125,-0.00048828125)">
   <path d="M 285,-33 C 182,-33 111,30 74,156 52,228 41,333 41,471 41,549 55,616 82,672 116,743 169,778 240,778 293,778 328,747 346,684 L 369,508 C 377,444 397,411 428,410 L 1163,1116 C 1174,1127 1196,1133 1229,1133 1271,1133 1292,1118 1292,1087 L 1292,965 C 1292,929 1282,901 1262,881 L 442,47 C 390,-6 338,-33 285,-33 Z"/>
  </g>
  <g id="bullet-char-template-9679" transform="scale(0.00048828125,-0.00048828125)">
   <path d="M 813,0 C 632,0 489,54 383,161 276,268 223,411 223,592 223,773 276,916 383,1023 489,1130 632,1184 813,1184 992,1184 1136,1130 1245,1023 1353,916 1407,772 1407,592 1407,412 1353,268 1245,161 1136,54 992,0 813,0 Z"/>
  </g>
  <g id="bullet-char-template-8226" transform="scale(0.00048828125,-0.00048828125)">
   <path d="M 346,457 C 273,457 209,483 155,535 101,586 74,649 74,723 74,796 101,859 155,911 209,963 273,989 346,989 419,989 480,963 531,910 582,859 608,796 608,723 608,648 583,586 532,535 482,483 420,457 346,457 Z"/>
  </g>
  <g id="bullet-char-template-8211" transform="scale(0.00048828125,-0.00048828125)">
   <path d="M -4,459 L 1135,459 1135,606 -4,606 -4,459 Z"/>
  </g>
  <g id="bullet-char-template-61548" transform="scale(0.00048828125,-0.00048828125)">
   <path d="M 173,740 C 173,903 231,1043 346,1159 462,1274 601,1332 765,1332 928,1332 1067,1274 1183,1159 1299,1043 1357,903 1357,740 1357,577 1299,437 1183,322 1067,206 928,148 765,148 601,148 462,206 346,322 231,437 173,577 173,740 Z"/>
  </g>
 </defs>
 <g>
  <g id="id2" class="Master_Slide">
   <g id="bg-id2" class="Background"/>
   <g id="bo-id2" class="BackgroundObjects"/>
  </g>
 </g>
 <g class="SlideGroup">
  <g>
   <g id="container-id1">
    <g id="id1" class="Slide" clip-path="url(#presentation_clip_path)">
     <g class="Page">
      <g class="Graphic">
       <g id="id3">
        <rect class="BoundingBox" stroke="none" fill="none" x="0" y="0" width="5689" height="7223"/>
        <path fill="rgb(217,38,40)" stroke="none" d="M 860,304 C 887,396 881,466 867,560 853,676 854,793 853,909 853,934 852,959 852,984 851,1153 866,1314 939,1468 1083,1614 1293,1679 1479,1758 1635,1827 1768,1904 1892,2024 1906,2037 1920,2050 1934,2064 2023,2158 2043,2241 2050,2368 2163,2264 2253,2172 2268,2013 2269,1891 2261,1774 2236,1653 2503,1717 2772,1896 2923,2130 3029,2311 3059,2450 3056,2659 3074,2648 3091,2637 3110,2626 3133,2612 3157,2597 3181,2583 3205,2568 3228,2554 3252,2540 3320,2500 3320,2500 3380,2471 3442,2439 3450,2404 3479,2341 3504,2313 3504,2313 3530,2283 3640,2133 3681,1962 3675,1777 3653,1638 3590,1515 3532,1389 3512,1340 3492,1292 3472,1243 3464,1223 3456,1202 3447,1181 3373,981 3362,731 3431,527 3480,434 3535,377 3611,304 3614,332 3618,359 3621,388 3695,928 3955,1337 4378,1680 4424,1712 4470,1744 4516,1776 4823,1985 4990,2241 5066,2606 5117,3093 4975,3583 4696,3981 5165,3708 5165,3708 5463,3267 5481,3232 5498,3196 5516,3161 5567,3213 5547,3310 5548,3380 5548,3400 5548,3419 5548,3440 5549,3504 5549,3568 5549,3632 5549,3654 5549,3676 5549,3698 5549,4028 5535,4346 5463,4669 5459,4688 5455,4707 5451,4726 5313,5368 5015,6031 4484,6442 4457,6464 4457,6464 4429,6487 4200,6674 3952,6808 3677,6918 3657,6926 3636,6934 3615,6943 3595,6951 3576,6958 3556,6966 3538,6972 3521,6979 3503,6986 3443,6999 3405,6990 3347,6971 3368,6961 3368,6961 3389,6950 3568,6859 3706,6739 3849,6600 3871,6580 3892,6560 3914,6539 3996,6453 4065,6362 4135,6266 4149,6248 4163,6229 4178,6209 4205,6172 4233,6134 4261,6096 4293,6053 4326,6010 4358,5967 4496,5786 4606,5593 4714,5394 4753,5323 4791,5253 4830,5183 4858,5132 4886,5081 4914,5030 4927,5006 4940,4982 4954,4957 4979,4911 5004,4864 5029,4817 5054,4771 5079,4725 5105,4680 5183,4535 5215,4435 5208,4271 5208,4237 5207,4202 5206,4167 5207,4090 5207,4090 5172,4061 5160,4090 5147,4119 5134,4148 5074,4253 5012,4280 4898,4311 4794,4332 4690,4350 4585,4364 4510,4376 4510,4376 4441,4406 4357,4440 4283,4435 4193,4431 4114,4273 4168,4093 4220,3934 4275,3770 4337,3611 4405,3452 4511,3192 4498,2838 4405,2576 4333,2417 4222,2210 4061,2130 4061,2112 4061,2095 4061,2077 4044,2077 4026,2077 4008,2077 4017,2094 4026,2112 4035,2130 4116,2375 4020,2630 3912,2854 3894,2888 3894,2888 3876,2923 3867,2923 3858,2923 3849,2923 3847,2894 3845,2865 3843,2836 3832,2737 3832,2737 3768,2687 3751,2677 3734,2668 3717,2659 3716,2677 3716,2696 3715,2715 3677,2833 3610,2890 3505,2950 3261,3047 2998,3101 2738,3135 2742,3120 2746,3106 2750,3091 2804,2870 2831,2652 2712,2447 2642,2364 2571,2284 2474,2235 2471,2263 2469,2291 2467,2320 2445,2431 2422,2474 2341,2553 2255,2609 2206,2633 2103,2629 1884,2565 1782,2445 1653,2262 1635,2227 1617,2192 1601,2156 1650,2354 1743,2488 1869,2645 1918,2712 1918,2712 1918,2764 1936,2764 1953,2764 1971,2764 2019,2887 2030,2987 2027,3118 2027,3151 2026,3184 2026,3218 2025,3243 2025,3268 2024,3294 2006,3294 1989,3294 1971,3294 1961,3266 1951,3238 1941,3209 1884,3079 1800,3003 1670,2950 1612,2931 1554,2913 1495,2897 1504,2910 1513,2923 1522,2937 1534,2954 1545,2972 1558,2991 1569,3008 1581,3026 1593,3044 1673,3195 1690,3344 1688,3512 1688,3541 1688,3541 1688,3572 1681,3917 1542,4245 1362,4537 1237,4487 1237,4487 1177,4458 1123,4451 1069,4447 1015,4443 986,4440 957,4438 927,4436 905,4434 883,4433 860,4431 881,4457 901,4482 923,4509 1086,4741 1066,5047 1032,5317 982,5710 1012,6043 1257,6362 1396,6529 1570,6641 1756,6751 1810,6784 1849,6818 1892,6865 1724,6856 1605,6767 1468,6680 1446,6667 1425,6655 1402,6642 905,6331 657,5800 527,5251 446,4870 496,4492 627,4129 685,3961 711,3826 638,3661 540,3553 426,3478 304,3399 428,3317 556,3335 701,3346 887,3386 971,3513 1071,3664 1098,3664 1124,3664 1151,3664 1274,3389 1306,3117 1205,2828 1111,2611 1005,2470 807,2341 626,2223 503,2098 447,1883 362,1302 605,808 860,304 L 860,304 Z"/>
        <path fill="rgb(246,135,34)" stroke="none" d="M 4008,2077 C 4026,2077 4043,2077 4061,2077 4061,2094 4061,2112 4061,2130 4076,2136 4092,2142 4107,2148 4282,2249 4407,2488 4468,2676 4527,2992 4512,3317 4378,3611 4369,3632 4360,3652 4351,3674 4333,3713 4315,3752 4298,3791 4205,4007 4182,4197 4193,4431 4333,4404 4472,4376 4609,4340 4658,4328 4706,4318 4755,4308 4786,4302 4817,4295 4848,4289 4877,4283 4906,4278 4935,4272 5044,4236 5097,4180 5152,4081 5162,4058 5162,4058 5172,4034 5248,4110 5236,4164 5238,4269 5238,4458 5194,4587 5096,4750 5045,4838 4998,4928 4949,5017 4896,5115 4843,5213 4789,5311 4761,5361 4734,5411 4707,5461 4641,5584 4576,5703 4491,5815 4419,5911 4349,6007 4280,6104 4225,6182 4170,6259 4114,6336 4087,6372 4087,6372 4060,6410 3902,6618 3711,6781 3487,6916 3458,6934 3429,6952 3400,6971 3400,6988 3400,7006 3400,7024 3302,7046 3213,7053 3114,7052 3088,7051 3062,7051 3035,7051 3006,7051 3006,7051 2976,7050 3027,7016 3079,6982 3130,6949 3245,6870 3348,6797 3426,6680 3443,6680 3461,6680 3479,6680 3485,6666 3491,6652 3497,6638 3532,6574 3532,6574 3590,6499 3752,6278 3897,5977 3876,5701 3858,5625 3858,5625 3823,5569 3736,5540 3698,5547 3611,5569 3565,5476 3580,5370 3580,5268 3580,5244 3580,5220 3580,5195 3581,5040 3596,4894 3626,4742 3659,4539 3668,4321 3558,4140 3328,3833 3055,3693 2685,3611 2697,3624 2709,3637 2722,3651 2855,3855 2835,4114 2787,4343 2782,4363 2778,4383 2773,4403 2768,4424 2764,4444 2759,4466 2720,4627 2661,4764 2579,4907 2551,4968 2526,5030 2500,5092 2491,5092 2483,5092 2474,5092 2469,5070 2465,5048 2461,5025 2416,4809 2374,4617 2188,4484 2159,4471 2159,4471 2130,4458 2130,4472 2130,4486 2130,4501 2122,4718 2034,4896 1944,5089 1619,5781 1619,5781 1707,6525 1731,6594 1747,6661 1759,6733 1503,6700 1303,6449 1151,6256 942,5979 971,5588 1012,5261 1036,5022 1056,4741 909,4539 893,4521 877,4503 860,4484 860,4467 860,4449 860,4431 1060,4419 1197,4417 1362,4537 1370,4518 1377,4499 1385,4479 1414,4407 1447,4337 1480,4266 1641,3913 1741,3506 1606,3128 1568,3037 1520,2954 1468,2870 1652,2884 1797,2975 1918,3110 1971,3188 1971,3188 1971,3294 1988,3294 2006,3294 2024,3294 2020,3235 2016,3177 2012,3118 2010,3086 2008,3053 2006,3020 1998,2933 1987,2850 1971,2764 1953,2764 1936,2764 1918,2764 1876,2711 1876,2711 1829,2640 1779,2566 1732,2499 1672,2432 1607,2339 1592,2240 1574,2130 1634,2187 1685,2247 1735,2313 1748,2331 1761,2348 1775,2367 1812,2421 1812,2421 1839,2478 1863,2534 1863,2534 1938,2558 1966,2565 1995,2572 2024,2579 2049,2587 2074,2596 2100,2604 2205,2606 2261,2578 2347,2520 2428,2440 2451,2344 2474,2235 2626,2301 2731,2431 2803,2578 2837,2765 2818,2926 2765,3108 3279,3044 3279,3044 3691,2764 3709,2709 3709,2709 3717,2659 3767,2675 3767,2675 3823,2712 3856,2794 3856,2794 3876,2870 4001,2607 4081,2369 4008,2077 L 4008,2077 Z"/>
        <path fill="rgb(248,218,76)" stroke="none" d="M 2685,3611 C 3037,3660 3303,3795 3530,4076 3670,4268 3679,4436 3664,4669 3656,4717 3647,4764 3638,4811 3590,5060 3607,5317 3611,5569 3703,5542 3703,5542 3796,5516 3896,5602 3899,5668 3910,5797 3905,6135 3631,6508 3416,6751 3173,6965 3173,6965 3056,7024 3064,7041 3073,7059 3082,7077 2701,7095 2363,7054 1997,6944 1973,6937 1948,6929 1922,6922 1778,6845 1734,6707 1688,6559 1683,6542 1677,6524 1671,6506 1517,6024 1646,5626 1869,5187 1887,5152 1905,5117 1924,5082 2026,4884 2088,4676 2130,4458 2232,4472 2277,4510 2341,4590 2419,4734 2465,4880 2500,5040 2670,4703 2873,4246 2774,3863 2755,3805 2734,3748 2712,3690 2699,3651 2699,3651 2685,3611 L 2685,3611 Z"/>
       </g>
      </g>
     </g>
    </g>
   </g>
  </g>
 </g>
</svg>