<?xml version="1.0" encoding="UTF-8" standalone="no"?>
<svg
   id="svg"
   version="1.1"
   style="display: block;"
   viewBox="0 0 240 269"
   sodipodi:docname="export-2023-02-14 201412.svg"
   inkscape:version="1.2.1 (9c6d41e410, 2022-07-14)"
   xmlns:inkscape="http://www.inkscape.org/namespaces/inkscape"
   xmlns:sodipodi="http://sodipodi.sourceforge.net/DTD/sodipodi-0.dtd"
   xmlns="http://www.w3.org/2000/svg"
   xmlns:svg="http://www.w3.org/2000/svg">
  <defs
     id="defs13" />
  <sodipodi:namedview
     id="namedview11"
     pagecolor="#ffffff"
     bordercolor="#111111"
     borderopacity="1"
     inkscape:showpageshadow="0"
     inkscape:pageopacity="0"
     inkscape:pagecheckerboard="1"
     inkscape:deskcolor="#d1d1d1"
     showgrid="false"
     inkscape:zoom="3.1115242"
     inkscape:cx="118.91278"
     inkscape:cy="134.33931"
     inkscape:window-width="1920"
     inkscape:window-height="1017"
     inkscape:window-x="-8"
     inkscape:window-y="-8"
     inkscape:window-maximized="1"
     inkscape:current-layer="svg" />
  <path
     d="M0 0 C-1.051875 0.7734375 -1.051875 0.7734375 -2.125 1.5625 C-8.68306838 7.12260146 -13.30901786 12.78116078 -14.28125 21.53125 C-14.52945098 28.72907845 -12.91325303 35.11228909 -11 42 C-10.30034144 44.99369058 -9.65103064 47.9952432 -9 51 C-6.35786336 48.55237648 -4.40721772 45.84117309 -2.375 42.875 C0.91666667 38.08333333 0.91666667 38.08333333 2 37 C7.95225151 37.11446638 7.95225151 37.11446638 10.5390625 39.30078125 C13.88624507 43.24497591 15.09740569 46.38924193 15.2109375 51.45703125 C15.23929688 52.32263672 15.26765625 53.18824219 15.296875 54.08007812 C15.34861761 55.88977576 15.39298813 57.69970044 15.4296875 59.50976562 C15.61513488 64.72160967 16.10976718 68.48668077 19 73 C21.37482847 75.1521883 22.93511719 75.9783724 26 77 C25.67 76.34 25.34 75.68 25 75 C24.07570259 68.79400307 26.27215326 65.38431406 29.34375 60.07421875 C34.7493684 50.04067705 37.08389922 39.12273134 39 28 C39.66 28 40.32 28 41 28 C45.15828984 36.88885341 45.40908935 44.67999393 45.0625 54.375 C44.9723787 57.02896086 44.90479957 59.68076629 44.84765625 62.3359375 C44.7859021 64.07689697 44.7859021 64.07689697 44.72290039 65.85302734 C45.03364425 69.38209194 45.90931718 71.17510637 48 74 C51.32105665 76.38378066 54.883544 76.42193818 58.875 76.8125 C64.89520335 77.59556495 68.00363415 78.43272474 72 83 C74.02550697 87.05101394 73.56895653 92.02338104 72.33984375 96.29345703 C71.4512907 98.58008656 70.50098284 100.82284921 69.5 103.0625 C66.44554684 109.9320713 64.51012616 115.53037847 67 123 C67.33 123.66 67.66 124.32 68 125 C72.3606482 124.13152833 75.17497872 121.74354929 78.5625 119 C84.62055336 114.12648221 84.62055336 114.12648221 88 113 C88.78218808 130.59054078 86.05773592 141.2757065 76 156 C77.04800781 155.6390625 78.09601563 155.278125 79.17578125 154.90625 C80.55460651 154.43726182 81.93351725 153.9685249 83.3125 153.5 C84.00279297 153.26152344 84.69308594 153.02304688 85.40429688 152.77734375 C88.38931489 151.76791737 90.82658914 151 94 151 C94.64778427 168.49017536 86.0240011 180.15552165 75 193 C74.22527344 193.93199219 73.45054687 194.86398438 72.65234375 195.82421875 C67.29051135 202.01094844 61.55799187 207.19590749 55.0625 212.1875 C54.32845947 212.75251221 53.59441895 213.31752441 52.83813477 213.8996582 C47.06776188 218.21162178 47.06776188 218.21162178 43 219 C43.49371094 218.0821875 43.98742187 217.164375 44.49609375 216.21875 C45.14388003 214.97950667 45.79097875 213.73990377 46.4375 212.5 C46.76298828 211.89929688 47.08847656 211.29859375 47.42382812 210.6796875 C51.64750923 202.49358391 51.13574525 194.00353091 51.0625 185 C51.05573242 183.40865234 51.05573242 183.40865234 51.04882812 181.78515625 C51.03713843 179.19004402 51.02075276 176.59505291 51 174 C50.45730469 174.47703369 49.91460937 174.95406738 49.35546875 175.44555664 C48.64003906 176.07324951 47.92460937 176.70094238 47.1875 177.34765625 C46.47980469 177.96906494 45.77210938 178.59047363 45.04296875 179.23071289 C42.74577276 181.22017027 40.39464864 183.12918075 38 185 C36.5 183.9375 36.5 183.9375 35 182 C33.91836763 175.37500171 36.66514202 170.51735666 40 165 C40.97688636 163.67020705 41.97635425 162.35664282 43 161.0625 C54.15085592 146.84388362 59.62520204 123.76528997 58.578125 105.94140625 C57.80567613 100.67518388 56.08900309 97.22531494 53 93 C53 92.34 53 91.68 53 91 C52.401875 90.71125 51.80375 90.4225 51.1875 90.125 C49 89 49 89 46 87 C46.33773437 87.71285156 46.67546875 88.42570312 47.0234375 89.16015625 C49.45726954 94.38656437 51.6300958 99.39584643 53 105 C50.69 104.67 48.38 104.34 46 104 C46.495 104.598125 46.99 105.19625 47.5 105.8125 C50.13429312 111.41037287 49.88269657 117.44998768 47.875 123.25 C43.59941915 129.52085192 38.75200568 135.29812816 32 139 C28.1875 139.6875 28.1875 139.6875 25 139 C22.42491324 136.59104787 22.0425459 134.68847006 21.828125 131.21875 C21.81396374 128.47146502 21.87025144 125.74394168 22 123 C21.67 123.66 21.34 124.32 21 125 C20.34 125 19.68 125 19 125 C18.7525 125.598125 18.505 126.19625 18.25 126.8125 C16.83629988 129.28647521 15.34944617 130.43370255 13 132 C11.80902287 128.56063615 10.73709319 125.10998859 9.7734375 121.6015625 C4.22363696 101.64756164 -3.85196714 85.83757221 -18.7890625 71.19921875 C-23.1829317 66.82863861 -25.19723113 63.9567854 -25.3125 57.75 C-25.18649518 53.37299035 -25.18649518 53.37299035 -24 51 C-24.66 51 -25.32 51 -26 51 C-26 51.66 -26 52.32 -26 53 C-26.66 53 -27.32 53 -28 53 C-28.28875 53.7425 -28.5775 54.485 -28.875 55.25 C-30 58 -30 58 -31.046875 59.78125 C-33.2743927 64.96661908 -32.90216094 71.96545867 -31.3125 77.3125 C-30.33608716 79.33041987 -29.24966524 81.13879646 -28 83 C-27.48308594 83.79664062 -26.96617188 84.59328125 -26.43359375 85.4140625 C-25.3941932 86.99194768 -24.34065762 88.56066463 -23.26953125 90.1171875 C-20.74484217 93.86149561 -20.76629 96.48160658 -21 101 C-22 103.4375 -22 103.4375 -23 105 C-23.66 105 -24.32 105 -25 105 C-25.33 103.68 -25.66 102.36 -26 101 C-28.97 100.01 -31.94 99.02 -35 98 C-35.33 105.92 -35.66 113.84 -36 122 C-38.23178305 119.76821695 -40.1029209 117.62854816 -42.0625 115.1875 C-46.02566996 110.58648079 -50.68036394 107.82572217 -56 105 C-55.52949219 105.66644531 -55.05898437 106.33289063 -54.57421875 107.01953125 C-46.86420606 118.43290407 -44.57378555 129.37625622 -46 143 C-47.17959453 147.29372411 -48.93912492 151.06234787 -51 155 C-56.7872454 165.44361797 -56.7872454 165.44361797 -59 177 C-60.7074998 175.71937515 -62.37373596 174.38232443 -64 173 C-64 172.34 -64 171.68 -64 171 C-64.66 171 -65.32 171 -66 171 C-67.375 169.6015625 -67.375 169.6015625 -69 167.625 C-73.37943323 162.45856503 -78.17031617 157.74222476 -83 153 C-84.43155899 154.21589984 -84.43155899 154.21589984 -84.3125 157.8125 C-84.19796673 166.83199517 -80.20654532 175.10592538 -76.05078125 182.94140625 C-73.30230992 188.32595788 -73.34904218 192.97860468 -75.1875 198.6875 C-77.08408714 202.1536765 -78.69505163 203.88144335 -82 206 C-82.66 206 -83.32 206 -84 206 C-84.50757862 204.58603098 -85.00574925 203.16868271 -85.5 201.75 C-85.7784375 200.96109375 -86.056875 200.1721875 -86.34375 199.359375 C-87 197 -87 197 -87 193 C-87.66 193 -88.32 193 -89 193 C-93.07646725 202.68160973 -92.95198836 212.75206113 -91 223 C-91.99 222.67 -92.98 222.34 -94 222 C-94 221.34 -94 220.68 -94 220 C-96.64 219.34 -99.28 218.68 -102 218 C-102 217.34 -102 216.68 -102 216 C-103.03125 215.979375 -104.0625 215.95875 -105.125 215.9375 C-109.57713711 214.86037005 -110.92558584 213.75469129 -113.6484375 210.23828125 C-118.40796244 202.35617781 -120.15066112 194.0396671 -120 185 C-118.49440461 186.96382007 -117.10868317 188.78263366 -116 191 C-115.01 191.33 -114.02 191.66 -113 192 C-112.07306287 178.85809139 -115.7426721 171.66226914 -123.44921875 161.32421875 C-126.50918313 156.73812603 -127.24572939 153.18068743 -127.125 147.6875 C-127.10695313 146.61886719 -127.08890625 145.55023438 -127.0703125 144.44921875 C-127.04710938 143.64097656 -127.02390625 142.83273438 -127 142 C-126.34 142 -125.68 142 -125 142 C-123.703125 143.72265625 -123.703125 143.72265625 -122.25 146.0625 C-118.69927213 151.56179804 -114.77096276 157.61702183 -109 161 C-108.01 161 -107.02 161 -106 161 C-104.89247526 154.94279678 -105.64731029 150.9344504 -109.17016602 145.79370117 C-110.40438476 144.10773601 -111.66227751 142.44327344 -112.93359375 140.78515625 C-115.89922429 136.78800205 -116.06473458 133.97522087 -116.13891602 129.09765625 C-116.29047831 121.77392231 -117.04231003 115.71114611 -120.0625 109 C-122.63528441 103.24979599 -124.31163321 98.30592888 -123 92 C-122.34 91.01 -121.68 90.02 -121 89 C-120.34 89 -119.68 89 -119 89 C-118.65453125 90.17304687 -118.3090625 91.34609375 -117.953125 92.5546875 C-116.03328977 97.66900267 -112.74711943 100.54427758 -108.75 104.125 C-101.72147684 110.72943891 -97.55075783 117.03330025 -94 126 C-93.67 123.69 -93.34 121.38 -93 119 C-87.63852254 119.63076205 -83.86281238 121.85126758 -80.3203125 125.9375 C-75.77164621 131.85729536 -74.87890113 135.61296891 -75 143 C-67.39591311 137.81862721 -67.39591311 137.81862721 -63 130 C-62.26317522 125.57905133 -62.73985934 122.85158858 -65.1875 119.1875 C-68.61722238 114.96188511 -72.83716813 111.82098606 -77.2409668 108.67651367 C-82.38327976 104.95832017 -87.51286504 100.39468032 -89 94 C-89.22156961 87.22257649 -87.25992471 82.22184319 -83 77 C-79.45662994 73.41852918 -75.22015609 70.71295749 -71 68 C-70.01 68.495 -70.01 68.495 -69 69 C-69.66 69.70125 -70.32 70.4025 -71 71.125 C-73.34485971 74.49573583 -73.51301839 75.98135598 -73 80 C-71.79255056 83.20476624 -71.79255056 83.20476624 -69 85 C-63.88235366 85.25981773 -63.88235366 85.25981773 -59 84 C-55.43963238 78.37836692 -55.50066082 72.44147538 -56 66 C-56.4474731 64.19449806 -56.94784091 62.40128539 -57.5 60.625 C-59.47142201 53.97740306 -60.80605248 46.50276097 -58.14453125 39.8671875 C-54.35308747 34.66416003 -48.14452753 32.33909681 -42.4375 29.7734375 C-36.62255925 26.7734567 -32.64117956 22.83249544 -28.6875 17.6875 C-21.2400894 8.41572371 -12.73734482 -1.0614454 0 0 Z "
     transform="translate(138,11)"
     style="fill: #DA2428;"
     id="path4" />
  <path
     d="M0 0 C0 3 0 3 -0.24609375 5.1640625 C-0.64443057 10.28553585 -0.21895712 13.42419562 2.9375 17.5625 C5.58725767 20.62278351 8.44599123 23.39747759 11.375 26.1875 C25.82475276 40.31669511 33.61111856 61.39290025 37 81 C40.52381687 78.45395403 40.52381687 78.45395403 43 75 C43.66 75 44.32 75 45 75 C45.495 73.515 45.495 73.515 46 72 C47.1538423 75.46152691 46.99225631 78.14306072 46.83984375 81.74609375 C47.01926303 84.27109187 47.73843496 85.8281292 49 88 C53.08150286 88.33463253 55.38378141 88.3672826 58.94921875 86.2421875 C67.11545334 79.30625024 67.11545334 79.30625024 72 70 C72.1190686 68.21120198 72.17522113 66.4177144 72.1875 64.625 C72.20167969 63.68914062 72.21585938 62.75328125 72.23046875 61.7890625 C71.98668108 58.83881846 71.23112508 56.67635888 70 54 C72.31 54.33 74.62 54.66 77 55 C76.4946875 53.86820313 75.989375 52.73640625 75.46875 51.5703125 C74.81230711 50.08862711 74.15606763 48.60685159 73.5 47.125 C73.16613281 46.37863281 72.83226562 45.63226563 72.48828125 44.86328125 C72.01455078 43.79013672 72.01455078 43.79013672 71.53125 42.6953125 C71.23798828 42.03547363 70.94472656 41.37563477 70.64257812 40.69580078 C70 39 70 39 70 37 C76.06203233 39.46971688 79.40131599 44.10088352 82.14892578 49.80078125 C83.526469 53.36042247 83.72329616 56.64763253 83.6875 60.4375 C83.68242432 61.23953857 83.67734863 62.04157715 83.67211914 62.86791992 C82.96076024 82.37393534 75.1854787 102.36150753 63.48046875 117.81640625 C60.31640937 122.48318513 59.57584236 126.37991127 60 132 C60.66 132.66 61.32 133.32 62 134 C63.27200971 132.89718873 64.54255853 131.79269231 65.8125 130.6875 C66.52019531 130.07261719 67.22789062 129.45773438 67.95703125 128.82421875 C69.98244046 127.06723259 69.98244046 127.06723259 71.63671875 125.26953125 C73 124 73 124 75 124 C78.83475647 135.50426942 76.71804445 151.76957927 71.4375 162.4375 C71.00308594 163.24058594 70.56867188 164.04367188 70.12109375 164.87109375 C68.88123443 167.08590671 68.88123443 167.08590671 68 170 C66.0390625 171.60546875 66.0390625 171.60546875 63.625 173.1875 C62.83351562 173.71730469 62.04203125 174.24710938 61.2265625 174.79296875 C59 176 59 176 56 176 C55.7834375 174.39125 55.7834375 174.39125 55.5625 172.75 C55.16110027 170.07400181 54.68482607 167.60118809 54 165 C53.01257813 165.37253906 52.02515625 165.74507812 51.0078125 166.12890625 C49.71368887 166.60716933 48.41940989 167.0850122 47.125 167.5625 C46.47402344 167.80935547 45.82304687 168.05621094 45.15234375 168.31054688 C43.45502335 168.93173115 41.72843224 169.47152252 40 170 C39.34 169.67 38.68 169.34 38 169 C38.33 168.01 38.66 167.02 39 166 C39.66 166 40.32 166 41 166 C40.53095785 158.51388257 40.53095785 158.51388257 37 152 C36.34 151.67 35.68 151.34 35 151 C34.34 152.32 33.68 153.64 33 155 C32.01 154.67 31.02 154.34 30 154 C29.97284617 152.25008666 29.95353449 150.50005055 29.9375 148.75 C29.92589844 147.77546875 29.91429687 146.8009375 29.90234375 145.796875 C29.98958061 143.29841143 30.37696517 141.3959354 31 139 C32.45260086 127.5139705 29.50843407 121.25240802 23 112 C21.66413246 109.80572329 20.35025807 107.59785211 19.0625 105.375 C18.49660156 104.41335937 17.93070312 103.45171875 17.34765625 102.4609375 C15.40915867 98.92107235 14.87992517 96.28516293 14.9375 92.3125 C14.94652344 91.50425781 14.95554687 90.69601563 14.96484375 89.86328125 C14.97644531 89.24839844 14.98804688 88.63351563 15 88 C9.50238519 93.35294074 7.16985065 96.68379514 6.8671875 104.375 C6.87105469 106.169375 6.87105469 106.169375 6.875 108 C6.87242188 109.19625 6.86984375 110.3925 6.8671875 111.625 C6.90170594 114.84999721 6.90170594 114.84999721 7.48828125 117.359375 C9.45448377 127.50558035 9.40011881 139.05605323 4 148 C3.34 148 2.68 148 2 148 C0.49352402 145.04492094 -1.00406365 142.08542659 -2.5 139.125 C-2.92925781 138.28324219 -3.35851562 137.44148437 -3.80078125 136.57421875 C-4.20683594 135.76855469 -4.61289063 134.96289062 -5.03125 134.1328125 C-5.40830078 133.38918457 -5.78535156 132.64555664 -6.17382812 131.87939453 C-7 130 -7 130 -7 128 C-11.35421795 129.70479469 -11.35421795 129.70479469 -14.21484375 133.19921875 C-15.15658846 136.55857676 -15.01825028 139.1580995 -14.6875 142.625 C-14.58824219 143.75164062 -14.48898438 144.87828125 -14.38671875 146.0390625 C-14.08912433 149.05046631 -14.08912433 149.05046631 -13 152 C-12.72752254 156.8137684 -13.13333773 160.54075124 -15 165 C-17 167 -17 167 -20 167 C-21.5 165.1015625 -21.5 165.1015625 -23 162.625 C-24.90792492 159.49481067 -25.88562986 158.07624676 -29 156 C-29.66 156 -30.32 156 -31 156 C-31.26683594 156.55558594 -31.53367188 157.11117187 -31.80859375 157.68359375 C-33.57633549 161.12054737 -35.63626348 164.36947485 -37.66015625 167.66015625 C-39.76452761 171.33513713 -40.21978189 174.52592291 -40.5625 178.6875 C-40.64628906 179.68136719 -40.73007813 180.67523438 -40.81640625 181.69921875 C-40.87699219 182.45847656 -40.93757813 183.21773437 -41 184 C-47.19520997 183.58303199 -52.42452335 182.44636115 -58.125 180 C-58.84421631 179.69892334 -59.56343262 179.39784668 -60.30444336 179.08764648 C-67.95986184 175.77060569 -74.99169257 171.4987825 -82 167 C-80.68 166.67 -79.36 166.34 -78 166 C-78 166.66 -78 167.32 -78 168 C-76.741875 168.268125 -75.48375 168.53625 -74.1875 168.8125 C-71.00551199 169.59532537 -68.99755689 170.25335928 -67 173 C-67.48339844 171.74123047 -67.48339844 171.74123047 -67.9765625 170.45703125 C-70.53705716 161.80803211 -70.1131756 152.43213316 -65.875 144.44140625 C-65.58625 143.96574219 -65.2975 143.49007812 -65 143 C-64.34 143 -63.68 143 -63 143 C-62.01 147.29 -61.02 151.58 -60 156 C-54.80715009 153.11508338 -52.79895954 150.8965896 -51 145 C-49.89872806 137.97939138 -53.14761395 132.23959449 -56 126 C-56.75143863 124.33398146 -57.50160203 122.66738665 -58.25 121 C-58.56453125 120.319375 -58.8790625 119.63875 -59.203125 118.9375 C-60.66125619 115.39223986 -61.15550466 112.20164283 -61.1875 108.375 C-61.20167969 107.59898437 -61.21585938 106.82296875 -61.23046875 106.0234375 C-61 104 -61 104 -59 102 C-56.15862758 104.78358481 -53.32831845 107.57815727 -50.5 110.375 C-49.68917969 111.1690625 -48.87835938 111.963125 -48.04296875 112.78125 C-46.89248047 113.92207031 -46.89248047 113.92207031 -45.71875 115.0859375 C-45.00654297 115.7876709 -44.29433594 116.4894043 -43.56054688 117.21240234 C-42 119 -42 119 -42 121 C-41.34 121 -40.68 121 -40 121 C-40 121.66 -40 122.32 -40 123 C-39.01 123.33 -38.02 123.66 -37 124 C-36.67 124.66 -36.34 125.32 -36 126 C-35.835 124.845 -35.67 123.69 -35.5 122.5 C-34.274422 116.85518454 -31.68224917 112.00902434 -29.0078125 106.9375 C-22.65323859 94.82784029 -20.8736474 83.43552266 -24.625 70.0625 C-26.5800344 64.42243674 -29.35210592 59.70578336 -33 55 C-27.37052133 55 -22.74798954 59.25201046 -18.890625 63.109375 C-14.40714286 68.18571429 -14.40714286 68.18571429 -13 71 C-12.34 63.41 -11.68 55.82 -11 48 C-6 48 -6 48 -3.1875 50.375 C-1 53 -1 53 -1 55 C-0.34 55 0.32 55 1 55 C2.48659072 50.35440399 3.0160086 46.05849299 0.80078125 41.5703125 C-0.74522548 39.00791343 -2.35956343 36.50276875 -4 34 C-8.5449668 26.29762636 -9.97603172 21.095785 -9 12 C-7.70856403 8.69464641 -6.07687092 5.87053231 -4 3 C-3.34 3 -2.68 3 -2 3 C-2 2.34 -2 1.68 -2 1 C-1.34 0.67 -0.68 0.34 0 0 Z "
     transform="translate(114,61)"
     style="fill: #F68723;"
     id="path6" />
  <path
     d="M0 0 C0.66 0 1.32 0 2 0 C2.06316406 0.72703125 2.12632812 1.4540625 2.19140625 2.203125 C3.40196321 12.14243477 7.50489858 19.07757968 13.23828125 27.15234375 C18.7616758 35.24612795 20.23426517 41.24039807 19 51 C18.8246875 51.67417969 18.649375 52.34835938 18.46875 53.04296875 C17.8458202 55.64370068 17.90571691 58.08022038 17.9375 60.75 C17.94652344 61.73484375 17.95554687 62.7196875 17.96484375 63.734375 C17.97644531 64.48203125 17.98804688 65.2296875 18 66 C21.11785113 65.35355339 21.11785113 65.35355339 22 63 C24.38419873 63.95367949 25.73467287 64.57989872 27.125 66.78125 C28.11000156 69.27893252 28.20359799 71.0776682 28.125 73.75 C28.10695313 74.54921875 28.08890625 75.3484375 28.0703125 76.171875 C28.04710937 76.77515625 28.02390625 77.3784375 28 78 C27.34 78 26.68 78 26 78 C26.33 78.99 26.66 79.98 27 81 C27.75925781 80.71125 28.51851563 80.4225 29.30078125 80.125 C30.29464844 79.75375 31.28851563 79.3825 32.3125 79 C33.29863281 78.62875 34.28476563 78.2575 35.30078125 77.875 C38 77 38 77 41 77 C43.39073445 80.82517513 43.55966552 84.59665524 44 89 C32.54577619 94.31702241 21.48669116 97.89815657 9 100 C7.78828125 100.20753906 6.5765625 100.41507812 5.328125 100.62890625 C-15.39270219 103.70263891 -36.88379583 103.07979889 -57 97 C-55.515 96.505 -55.515 96.505 -54 96 C-54.06960937 95.34515625 -54.13921875 94.6903125 -54.2109375 94.015625 C-54.77041819 84.58437908 -51.44193365 77.76267564 -45.984375 70.2109375 C-44 68 -44 68 -41 67 C-39.84545838 68.24196122 -38.70167438 69.49392845 -37.5625 70.75 C-36.60537109 71.79414063 -36.60537109 71.79414063 -35.62890625 72.859375 C-34.00918675 74.98792725 -33.41732744 76.39023405 -33 79 C-29.20404589 77.22825681 -29.20404589 77.22825681 -27.1875 73.75 C-26.84883839 68.78296298 -26.83622425 64.3531925 -28 59.5 C-29.25805936 54.16908662 -29.75042108 49.89391987 -27.6875 44.6875 C-26 42 -26 42 -23 40 C-22.01 40 -21.02 40 -20 40 C-18.49352402 42.95507906 -16.99593635 45.91457341 -15.5 48.875 C-15.07074219 49.71675781 -14.64148438 50.55851562 -14.19921875 51.42578125 C-13.79316406 52.23144531 -13.38710937 53.03710938 -12.96875 53.8671875 C-12.40317383 54.98262939 -12.40317383 54.98262939 -11.82617188 56.12060547 C-11 58 -11 58 -11 60 C-10.34 60 -9.68 60 -9 60 C-6.45319185 53.60416957 -5.5749662 48.10913694 -5.75 41.25 C-5.75773437 40.01443359 -5.75773437 40.01443359 -5.765625 38.75390625 C-5.81802349 34.68647313 -6.15918298 30.98560509 -7 27 C-7.89203779 9.44967511 -7.89203779 9.44967511 -2.5 2.5625 C-1.675 1.716875 -0.85 0.87125 0 0 Z "
     transform="translate(127,149)"
     style="fill: #F8D94E;"
     id="path8" />
</svg>
