<?xml version="1.0" encoding="UTF-8" standalone="no"?>
<svg
   id="svg"
   version="1.1"
   style="display: block;"
   viewBox="0 0 266 328"
   sodipodi:docname="export-2023-02-14 201626.svg"
   inkscape:version="1.2.1 (9c6d41e410, 2022-07-14)"
   xmlns:inkscape="http://www.inkscape.org/namespaces/inkscape"
   xmlns:sodipodi="http://sodipodi.sourceforge.net/DTD/sodipodi-0.dtd"
   xmlns="http://www.w3.org/2000/svg"
   xmlns:svg="http://www.w3.org/2000/svg">
  <defs
     id="defs13" />
  <sodipodi:namedview
     id="namedview11"
     pagecolor="#ffffff"
     bordercolor="#111111"
     borderopacity="1"
     inkscape:showpageshadow="0"
     inkscape:pageopacity="0"
     inkscape:pagecheckerboard="1"
     inkscape:deskcolor="#d1d1d1"
     showgrid="false"
     inkscape:zoom="2.5518293"
     inkscape:cx="131.67025"
     inkscape:cy="163.80406"
     inkscape:window-width="1920"
     inkscape:window-height="1017"
     inkscape:window-x="-8"
     inkscape:window-y="-8"
     inkscape:window-maximized="1"
     inkscape:current-layer="svg" />
  <path
     d="M0 0 C0.99 0.33 1.98 0.66 3 1 C2.47212891 1.78697266 2.47212891 1.78697266 1.93359375 2.58984375 C-8.95864519 19.68184272 -15.75878572 39.59666011 -12.53125 59.95703125 C-10.31395003 68.33789722 -5.32569956 75.27747908 -0.1875 82.125 C6.91304788 91.73322697 13.29941857 102.59921882 17 114 C17.29648438 114.84820312 17.59296875 115.69640625 17.8984375 116.5703125 C22.57021601 131.95717935 20.39338316 147.85851877 16 163 C26.787003 161.71457139 26.787003 161.71457139 35.2421875 155.4296875 C38.91481937 149.45160789 40.15590783 142.89341938 41 136 C50.66075104 143.0275255 57.0712162 156.37204557 59 168 C59.35590027 171.77448916 59.47452603 175.52229141 59.5 179.3125 C59.50644531 180.2192749 59.51289063 181.1260498 59.51953125 182.06030273 C59.33447234 191.81949095 56.34635153 199.98831493 51.875 208.5625 C51.51535156 209.27212891 51.15570313 209.98175781 50.78515625 210.71289062 C48.17059075 215.82940925 48.17059075 215.82940925 47 217 C59.64220919 215.6137021 72.57760953 212.72821859 81.625 203.25 C84.3636622 199.79343606 86.14448784 195.98591502 88 192 C88.33 192 88.66 192 89 192 C89.69750279 220.7907691 89.24829253 247.69943536 70 271 C69.33484375 271.85078125 68.6696875 272.7015625 67.984375 273.578125 C56.3825955 287.58619951 39.30419347 294.76186064 22 299 C21.29198242 299.18240234 20.58396484 299.36480469 19.85449219 299.55273438 C12.36531876 301.29640865 5.03244167 301.22751982 -2.625 301.125 C-3.91535156 301.11597656 -5.20570313 301.10695313 -6.53515625 301.09765625 C-9.69030249 301.0742848 -12.84504926 301.04152091 -16 301 C-12.70852197 298.80568131 -10.34317701 298.30221483 -6.5 297.4375 C4.62195558 294.71239933 15.09014345 289.49695095 24.9375 283.71875 C28 282 28 282 30 282 C30 281.34 30 280.68 30 280 C31.46875 278.7734375 31.46875 278.7734375 33.5 277.375 C48.60396173 266.30584 56.75614077 250.35529741 65 234 C62.5774379 236.41455363 60.16307742 238.82760387 57.8125 241.3125 C56 243 56 243 54 243 C54 243.66 54 244.32 54 245 C51.50402309 246.44487984 49.00359387 247.88092372 46.5 249.3125 C45.80390625 249.71662109 45.1078125 250.12074219 44.390625 250.53710938 C37.91294885 254.22578607 31.66589772 257.57494233 24 257 C24.10227528 252.19306175 24.94772976 249.74359211 28.0625 246.0625 C31.53175408 241.90370473 33.97402263 237.57217694 36.375 232.75 C36.72054932 232.06429932 37.06609863 231.37859863 37.42211914 230.67211914 C40.15462623 225.07386194 41.138016 220.45532776 41.0625 214.1875 C41.05347656 213.21167969 41.04445312 212.23585937 41.03515625 211.23046875 C41.02355469 210.49441406 41.01195312 209.75835937 41 209 C40.12601562 209.75216797 40.12601562 209.75216797 39.234375 210.51953125 C37 212 37 212 33.25 211.6875 C32.1775 211.460625 31.105 211.23375 30 211 C29.3125 209.4375 29.3125 209.4375 29 207 C29.74918685 205.30618624 30.50099005 203.61332003 31.28125 201.93359375 C32.58483736 198.42666036 32.42722163 195.72293135 32 192 C30.16658535 189.49479421 30.16658535 189.49479421 28 188 C27.773125 188.5775 27.54625 189.155 27.3125 189.75 C24.37246834 194.79005427 19.85685355 196.80184275 14.4921875 198.47265625 C10.32915615 199.35354846 6.23031194 199.23845182 2 199 C2.34933594 197.98679688 2.69867188 196.97359375 3.05859375 195.9296875 C3.51847229 194.57820771 3.97809409 193.22664053 4.4375 191.875 C4.66759766 191.20984375 4.89769531 190.5446875 5.13476562 189.859375 C9.82078268 176.0050637 9.11770146 162.33362212 3.08984375 148.984375 C1.69435491 146.39879395 0.03587753 144.04724547 -1.73828125 141.7109375 C-2.67220703 140.46183594 -2.67220703 140.46183594 -3.625 139.1875 C-4.21539062 138.43855469 -4.80578125 137.68960938 -5.4140625 136.91796875 C-9.37473578 129.63072014 -9.35122522 120.99698503 -9.625 112.875 C-9.66367188 111.91851562 -9.70234375 110.96203125 -9.7421875 109.9765625 C-9.83520128 107.65121801 -9.92103771 105.32585665 -10 103 C-15.00701113 111.7693979 -15.37771801 120.09719095 -13.09375 129.8828125 C-12.36823948 132.40655266 -11.64168751 134.92999367 -10.9140625 137.453125 C-7.84735713 149.35299026 -11.11565341 160.36570608 -17.03857422 170.8359375 C-21.52004814 178.11302641 -26.91611908 184.9937196 -33 191 C-33.33 191 -33.66 191 -34 191 C-34.07476562 190.01 -34.14953125 189.02 -34.2265625 188 C-34.95919704 180.06362827 -35.80068248 173.57001315 -42 168 C-46.39093872 164.39347949 -51.14115556 161.9027619 -56.27368164 159.49926758 C-66.19843362 154.81239736 -71.57873841 149.3807353 -75.8671875 139.19921875 C-77.19795501 135.44094775 -78.31000028 131.66999333 -79.3125 127.8125 C-79.48418701 127.15958984 -79.65587402 126.50667969 -79.83276367 125.83398438 C-80.97650645 121.09434295 -81.1451885 116.83423927 -81 112 C-81.66 112 -82.32 112 -83 112 C-83.58309296 132.58093884 -82.30724451 147.63053745 -73.22900391 166.2253418 C-67.71596203 177.54796212 -64.42092861 189.09742765 -68.0546875 201.640625 C-69.79192306 206.22528217 -71.76645071 210.63727288 -74 215 C-74.66 215 -75.32 215 -76 215 C-76.495 210.545 -76.495 210.545 -77 206 C-80.94944209 207.3164807 -81.98409343 209.71463174 -84 213.125 C-85.0209375 214.79949219 -85.0209375 214.79949219 -86.0625 216.5078125 C-89.39339851 222.51148844 -92.2967215 227.99218591 -91 235 C-89.86694631 237.51109196 -88.48476184 239.66037528 -87 242 C-86.25 244.4375 -86.25 244.4375 -86 246 C-85.34 246 -84.68 246 -84 246 C-79.40774487 256.37357631 -79.40774487 256.37357631 -80 262 C-80.20625 261.38125 -80.4125 260.7625 -80.625 260.125 C-82.62716991 257.03073742 -84.44243618 256.84087872 -88 256 C-89.56922719 255.7970096 -91.14116536 255.61418959 -92.71484375 255.44921875 C-93.9212854 255.32099731 -93.9212854 255.32099731 -95.15209961 255.19018555 C-95.76190674 255.12742432 -96.37171387 255.06466309 -97 255 C-91.97667796 271.35251642 -87.1466398 285.07642287 -71.3125 293.8125 C-65.18441113 296.67808342 -58.6244084 297.82593338 -52 299 C-52 299.33 -52 299.66 -52 300 C-69.9456974 301.19859946 -92.11362981 297.66373767 -106.1328125 285.75 C-112.82854136 279.47450517 -115.83906217 273.0730149 -117 264 C-117.09348058 260.0674563 -117.02070319 256.13975591 -116.95703125 252.20703125 C-116.93463534 249.86133665 -116.91318078 247.51563291 -116.89257812 245.16992188 C-116.8555809 241.49445621 -116.81261261 237.81946258 -116.75317383 234.14428711 C-116.69831475 230.58180109 -116.66948733 227.01983647 -116.64453125 223.45703125 C-116.60885796 221.83146049 -116.60885796 221.83146049 -116.57246399 220.17304993 C-116.54706183 212.68223957 -118.08371557 206.86815686 -121 200 C-121.33 199.01 -121.66 198.02 -122 197 C-115.34454208 196.45669731 -111.54165256 197.22695996 -106 201 C-106 201.66 -106 202.32 -106 203 C-103.48763015 200.59686362 -102.04986905 199.21680482 -101.90234375 195.6171875 C-101.91394531 194.71226562 -101.92554687 193.80734375 -101.9375 192.875 C-101.94652344 191.96492187 -101.95554687 191.05484375 -101.96484375 190.1171875 C-101.97644531 189.41851562 -101.98804687 188.71984375 -102 188 C-95.6 188.49230769 -95.6 188.49230769 -92.5625 191.0625 C-91.7890625 192.0215625 -91.7890625 192.0215625 -91 193 C-90.11239153 183.01440466 -94.73132029 173.57405695 -101 166 C-103.55006966 163.51505982 -106.2485633 161.25686027 -109 159 C-115.92901086 152.68690122 -118.44869129 145.4840709 -119.37109375 136.30859375 C-119.65401537 119.81592756 -117.04285248 94.11737679 -106 81 C-106.02320313 82.29035156 -106.04640625 83.58070312 -106.0703125 84.91015625 C-106.08908236 86.62759834 -106.10728125 88.34504674 -106.125 90.0625 C-106.14175781 90.91005859 -106.15851563 91.75761719 -106.17578125 92.63085938 C-106.21596135 97.83418201 -105.69745815 102.07469821 -104 107 C-99.13973457 105.26419092 -97.27736085 101.59820633 -95.08203125 97.1328125 C-91.56068647 88.3707809 -91.42981605 77.89080531 -95.0625 69.1875 C-95.44535156 68.41792969 -95.82820313 67.64835937 -96.22265625 66.85546875 C-96.47917969 66.24316406 -96.73570313 65.63085938 -97 65 C-96.67 64.34 -96.34 63.68 -96 63 C-83.41477202 72.51080497 -74.84072575 86.55559449 -72 102 C-71.61796865 106.66901792 -71.74428547 111.32610664 -72 116 C-70.88625 115.608125 -69.7725 115.21625 -68.625 114.8125 C-67.99851563 114.59207031 -67.37203125 114.37164062 -66.7265625 114.14453125 C-64.21859987 112.48201304 -63.81307486 110.86202349 -63 108 C-62.76028911 105.10348171 -62.76028911 105.10348171 -62.875 102.1875 C-62.89304688 101.21167969 -62.91109375 100.23585938 -62.9296875 99.23046875 C-62.95289063 98.49441406 -62.97609375 97.75835937 -63 97 C-56.39409513 99.5931074 -53.49970365 106.77760469 -50.66015625 112.87890625 C-46.96346992 122.96914971 -47.60988346 133.4203396 -48 144 C-37.494735 123.90740578 -30.28023856 103.05908052 -36.75 80.25 C-37.46390258 78.15402269 -38.21230263 76.06937445 -39 74 C-39.55494141 72.42412109 -39.55494141 72.42412109 -40.12109375 70.81640625 C-41.05055128 68.19826398 -42.02002686 65.59945926 -43 63 C-45.70633765 54.88098706 -44.65060123 45.45130504 -41.38671875 37.65234375 C-33.21040716 22.01370834 -20.0222315 11.98734269 -5.12890625 3.26171875 C-3.38595083 2.22873783 -1.68578876 1.12385917 0 0 Z "
     transform="translate(162,10)"
     style="fill: #DA2428;"
     id="path4" />
  <path
     d="M0 0 C0.01458252 0.60360352 0.02916504 1.20720703 0.04418945 1.82910156 C0.45307109 23.99822235 0.45307109 23.99822235 10.83984375 43.0390625 C17.89845086 52.71433228 18.68267589 64.41846333 18 76 C16.8832305 83.01639323 15.11972962 89.6119822 12 96 C19.36359479 96.48285867 25.40219048 95.45051845 32 92 C34.13514611 90.10926586 35.41547756 88.40410302 37 86 C40.875 87.75 40.875 87.75 42 90 C42.41106316 96.06318167 41.56704296 99.54503371 39 105 C39 105.99 39 106.98 39 108 C43.89895217 109.18496548 43.89895217 109.18496548 48.4375 107.5625 C48.953125 107.046875 49.46875 106.53125 50 106 C51.66997441 107.66997441 51.2114271 109.64562688 51.25 111.9375 C51.03862295 125.6417786 43.84310004 137.97258224 35.12890625 148.25390625 C33.71323669 150.44354049 33.38045873 152.44174302 33 155 C42.71104254 153.06796012 50.34640041 149.54478233 58.69140625 144.3125 C61 143 61 143 63 143 C63 142.34 63 141.68 63 141 C64.609375 139.4140625 64.609375 139.4140625 66.75 137.625 C69.6243732 135.18382134 72.38543992 132.72350008 75 130 C68.89114024 145.91357968 57.65373965 169.73023297 41.17578125 177.296875 C40.45777344 177.52890625 39.73976563 177.7609375 39 178 C39 178.66 39 179.32 39 180 C15.7501554 192.56632503 15.7501554 192.56632503 5 196 C3.53433594 196.47373047 3.53433594 196.47373047 2.0390625 196.95703125 C-5.67776322 199.17485912 -13.00937019 199.31915237 -21 199 C-20.01 198.34 -19.02 197.68 -18 197 C-12.47595997 193.16321906 -6.97023406 189.29259505 -4.08203125 183 C-2.84672433 180.71668901 -1.61185727 179.70142867 0.4375 178.125 C11.50120208 168.63319002 17.72726234 157.78039438 22 144 C22.33 143.01 22.66 142.02 23 141 C23.08239169 139.15389468 23.10743359 137.30494836 23.09765625 135.45703125 C23.09443359 134.38388672 23.09121094 133.31074219 23.08789062 132.20507812 C23.07951172 131.08552734 23.07113281 129.96597656 23.0625 128.8125 C23.05798828 127.68134766 23.05347656 126.55019531 23.04882812 125.38476562 C23.03703498 122.58979073 23.0205765 119.7949218 23 117 C22.34 117 21.68 117 21 117 C21.0825 118.03125 21.165 119.0625 21.25 120.125 C20.95271596 124.73290254 19.95689208 126.49841728 17 130 C12.59883843 133.71653644 9.72043683 134.45763495 4 134 C4.15339844 133.24460938 4.30679688 132.48921875 4.46484375 131.7109375 C5.1887848 126.6909083 5.36319153 121.68939556 5.5625 116.625 C5.62727539 115.09166016 5.62727539 115.09166016 5.69335938 113.52734375 C5.79887792 111.01834712 5.90099213 108.50926057 6 106 C5.34 106 4.68 106 4 106 C3.81824219 105.32453125 3.63648438 104.6490625 3.44921875 103.953125 C3.19785156 103.06109375 2.94648438 102.1690625 2.6875 101.25 C2.44386719 100.36828125 2.20023437 99.4865625 1.94921875 98.578125 C0.97228187 95.92471618 -0.24996328 94.1968546 -2 92 C-2.71162443 90.35202764 -3.39031953 88.68834592 -4 87 C-4.0825 88.299375 -4.165 89.59875 -4.25 90.9375 C-5.47340204 101.48520952 -11.05660091 108.60586748 -18.8125 115.5 C-21 117 -21 117 -23 117 C-23.15855469 116.2265625 -23.31710938 115.453125 -23.48046875 114.65625 C-25.92507005 103.72245405 -25.92507005 103.72245405 -33.06640625 95.47265625 C-34.46291239 94.61076963 -35.88269597 93.78486645 -37.328125 93.0078125 C-39 92 -39 92 -40 90 C-41.97888961 89.27306096 -43.97954558 88.60183749 -46 88 C-45.7834375 88.76441406 -45.566875 89.52882813 -45.34375 90.31640625 C-41.50927952 105.06846631 -42.77417947 117.64352936 -47 132 C-47.99 132 -48.98 132 -50 132 C-50.33 130.68 -50.66 129.36 -51 128 C-51.66 128 -52.32 128 -53 128 C-53 127.34 -53 126.68 -53 126 C-56.63 126 -60.26 126 -64 126 C-63.51015625 126.76699219 -63.0203125 127.53398437 -62.515625 128.32421875 C-60.47925486 133.26294118 -60.63632222 137.53003573 -60.75 142.8125 C-60.75515625 143.75931641 -60.7603125 144.70613281 -60.765625 145.68164062 C-60.82200895 150.80200779 -61.13256957 155.81232822 -61.75097656 160.89379883 C-63.22748943 173.18863484 -63.22748943 173.18863484 -59.25 184.5625 C-55.42784025 189.22789912 -50.67773692 191.95946234 -45.37890625 194.72265625 C-44.59386719 195.14417969 -43.80882812 195.56570313 -43 196 C-43 196.33 -43 196.66 -43 197 C-57.13854064 196.4624129 -66.84516541 191.51725933 -76.6875 181.4375 C-82.71066175 174.27974266 -88 162.32535175 -88 153 C-82.21549928 152.65292996 -78.03436469 152.72766295 -73 156 C-72.67 156.66 -72.34 157.32 -72 158 C-72.51405169 153.03083364 -73.23384882 148.70973649 -75 144 C-75.66 144 -76.32 144 -77 144 C-77.99907142 142.26827621 -78.99591117 140.53518973 -79.9765625 138.79296875 C-80.69845121 137.52828586 -81.4605497 136.28614797 -82.25 135.0625 C-83.95756641 130.36669238 -83.66397742 126.68283933 -81.8671875 122.12890625 C-75.44405806 108.92954339 -75.44405806 108.92954339 -71 104 C-70.01 104 -69.02 104 -68 104 C-66.38050989 106.57213134 -65.95591249 107.67669159 -66.375 110.75 C-66.58125 111.4925 -66.7875 112.235 -67 113 C-66.34 113 -65.68 113 -65 113 C-64.7525 112.236875 -64.505 111.47375 -64.25 110.6875 C-63 107 -63 107 -61.9765625 104.64453125 C-57.17178082 93.10964756 -57.91488048 81.58932361 -62.19433594 69.94384766 C-63.76022771 66.16577788 -65.67743649 62.56376092 -67.5625 58.9375 C-74.96573697 44.56624665 -78.61521971 26.00297374 -74 10 C-73.34 10 -72.68 10 -72 10 C-71.82984375 11.00417969 -71.6596875 12.00835937 -71.484375 13.04296875 C-68.01185658 34.99567266 -68.01185658 34.99567266 -55.4140625 52.4765625 C-51.43202427 54.98949925 -47.16698259 56.92806011 -42.92578125 58.96240234 C-35.67546165 62.50794415 -29.69183668 66.61632663 -26 74 C-25.26953125 77.55078125 -25.26953125 77.55078125 -24.8125 81.3125 C-24.65394531 82.56675781 -24.49539062 83.82101563 -24.33203125 85.11328125 C-24.22246094 86.06589844 -24.11289063 87.01851563 -24 88 C-12.82036274 76.48527825 -2.14846452 61.65907806 -1.4375 45.0625 C-1.63081563 40.36056509 -2.69176152 36.19834379 -4 31.6875 C-6.56175381 22.77625639 -8.28696243 12.80603817 -4.0625 4.125 C-1.34 0 -1.34 0 0 0 Z "
     transform="translate(153,112)"
     style="fill: #F68724;"
     id="path6" />
  <path
     d="M0 0 C3.43925256 2.29283504 3.61011687 3.26468909 5 7 C5.7734375 8.1446875 5.7734375 8.1446875 6.5625 9.3125 C8.49110336 12.91814977 8.65572069 15.93750416 9 20 C9.66 20 10.32 20 11 20 C11.05841253 23.54159657 11.09373452 27.08306793 11.125 30.625 C11.14175781 31.62402344 11.15851563 32.62304688 11.17578125 33.65234375 C11.21014246 38.84088709 11.10254937 43.14923649 9 48 C14.61346143 47.07053798 18.89289563 46.23156207 23 42 C25.32325083 38.6312863 25.5378636 35.00518216 26 31 C26.66 31 27.32 31 28 31 C32.13554635 43.40663905 29.33554076 58.63580152 23.91943359 70.20166016 C19.73151254 78.39290458 10.58194516 91.70902742 2 96 C1.608125 96.86625 1.21625 97.7325 0.8125 98.625 C-2.51144203 104.81440929 -7.02072657 108.41243594 -13 112 C0.365 112.495 0.365 112.495 14 113 C14 113.33 14 113.66 14 114 C-4.69577483 114.10703059 -23.32914037 114.12912326 -42 113 C-40.02 112.505 -40.02 112.505 -38 112 C-38 111.34 -38 110.68 -38 110 C-38.825 109.79375 -39.65 109.5875 -40.5 109.375 C-47.38987685 106.66826267 -52.99786679 102.1257008 -56.94140625 95.8203125 C-59.6517899 88.59929038 -58.40697275 80.21658879 -57.484375 72.69921875 C-56.87022489 67.40309725 -56.81612625 62.13945729 -56.8125 56.8125 C-56.80025391 55.85408203 -56.78800781 54.89566406 -56.77539062 53.90820312 C-56.76493522 48.86521483 -56.9919725 44.72243621 -59 40 C-55.37 40 -51.74 40 -48 40 C-48 40.66 -48 41.32 -48 42 C-47.34 42 -46.68 42 -46 42 C-45.34 43.32 -44.68 44.64 -44 46 C-36.6789967 32.40839822 -38.23797637 16.62392871 -41 2 C-38.69 2.66 -36.38 3.32 -34 4 C-34 4.66 -34 5.32 -34 6 C-33.278125 6.2475 -32.55625 6.495 -31.8125 6.75 C-25.54964521 9.53349102 -22.87413153 13.26104069 -20.00390625 19.31640625 C-18.53061625 23.25473399 -18.20270424 26.81077909 -18 31 C-9.99913618 25.45625426 -3.33082079 19.79292618 -1 10 C-0.51433034 6.67173438 -0.19949158 3.35696172 0 0 Z "
     transform="translate(148,198)"
     style="fill: #F8D94C;"
     id="path8" />
</svg>
