<?xml version="1.0" encoding="UTF-8" standalone="no"?>
<svg
   id="svg"
   version="1.1"
   style="display: block;"
   viewBox="0 0 197 256"
   sodipodi:docname="export-2023-02-14 201815.svg"
   inkscape:version="1.2.1 (9c6d41e410, 2022-07-14)"
   xmlns:inkscape="http://www.inkscape.org/namespaces/inkscape"
   xmlns:sodipodi="http://sodipodi.sourceforge.net/DTD/sodipodi-0.dtd"
   xmlns="http://www.w3.org/2000/svg"
   xmlns:svg="http://www.w3.org/2000/svg">
  <defs
     id="defs13" />
  <sodipodi:namedview
     id="namedview11"
     pagecolor="#ffffff"
     bordercolor="#111111"
     borderopacity="1"
     inkscape:showpageshadow="0"
     inkscape:pageopacity="0"
     inkscape:pagecheckerboard="1"
     inkscape:deskcolor="#d1d1d1"
     showgrid="false"
     inkscape:zoom="3.2695312"
     inkscape:cx="97.567503"
     inkscape:cy="128.15293"
     inkscape:window-width="1920"
     inkscape:window-height="1017"
     inkscape:window-x="-8"
     inkscape:window-y="-8"
     inkscape:window-maximized="1"
     inkscape:current-layer="svg" />
  <path
     d="M0 0 C-0.52400391 0.81404297 -0.52400391 0.81404297 -1.05859375 1.64453125 C-1.51363281 2.35996094 -1.96867187 3.07539063 -2.4375 3.8125 C-2.88996094 4.52019531 -3.34242187 5.22789063 -3.80859375 5.95703125 C-6.46366527 10.50982602 -6.37430597 14.88158351 -6 20 C-5.11539972 23.41471924 -5.11539972 23.41471924 -4 26 C-3.29875 25.154375 -2.5975 24.30875 -1.875 23.4375 C1 21 1 21 4.0625 20.9375 C8.38070397 22.49940356 10.15535549 24.62610254 12.52734375 28.484375 C14.475433 33.13498595 14.85720396 37.57791796 15.375 42.5625 C16.41577691 51.40580778 18.13951089 58.91280937 22 67 C23.97445397 66.73595202 23.97445397 66.73595202 26 66 C27.3045656 63.00384054 27.3045656 63.00384054 28 60 C30.25 60.0625 30.25 60.0625 33 61 C37.33044975 66.50084158 37.60720338 71.16036944 37 78 C36.835 78.94875 36.67 79.8975 36.5 80.875 C35.49039333 87.18504166 35.18685108 93.51775593 37.1875 99.625 C39.25445238 102.33342036 40.74374923 103.11993222 44 104 C44 100.7 44 97.4 44 94 C47.91391523 94.97847881 49.14653352 95.64235006 52.0625 98.1875 C52.73410156 98.75855469 53.40570313 99.32960938 54.09765625 99.91796875 C58.50078936 104.73700355 59.36905276 108.96013572 59.1875 115.375 C59.14689453 117.24285156 59.14689453 117.24285156 59.10546875 119.1484375 C59.07066406 120.08945313 59.03585938 121.03046875 59 122 C65.68856337 116.68898194 71.49542396 111.35146265 73.0625 102.625 C73.44979035 96.35304787 70.53922844 91.13546534 67.83984375 85.63671875 C64.00905676 77.24743254 63.52856223 68.08068806 66.125 59.1875 C68.00051711 54.3905043 70.81469248 50.03408707 74 46 C74.33 46 74.66 46 75 46 C75.09474609 47.48886719 75.09474609 47.48886719 75.19140625 49.0078125 C76.37900098 63.39447057 82.16582822 73.82924142 90.3984375 85.57421875 C93.41283095 90.139922 93.98920364 94.69103656 93 100 C91.11619572 104.86682628 88.54657434 109.43805506 86.06494141 114.01953125 C84.50428352 116.92188264 83.03336978 119.86360293 81.5625 122.8125 C80.85287109 124.21435547 80.85287109 124.21435547 80.12890625 125.64453125 C78.53369429 128.97294928 77.87763009 131.53543533 77.9375 135.1875 C77.9684375 137.0746875 77.9684375 137.0746875 78 139 C78.54269531 138.62746094 79.08539063 138.25492188 79.64453125 137.87109375 C80.71767578 137.16146484 80.71767578 137.16146484 81.8125 136.4375 C82.52019531 135.96183594 83.22789062 135.48617187 83.95703125 134.99609375 C86 134 86 134 89 135 C92.9675668 140.43703599 92.7456495 146.56255934 92 153 C89.95217348 160.23345176 85.54634249 167.07219451 79 171 C78.01 171 77.02 171 76 171 C76 171.66 76 172.32 76 173 C77.423125 173.2165625 77.423125 173.2165625 78.875 173.4375 C82 175 82 175 83.375 178.5 C84.13234349 183.37888646 84.30363584 188.31983251 84.4375 193.25 C84.48946533 194.42079102 84.48946533 194.42079102 84.54248047 195.61523438 C84.57228211 199.82358758 84.44335115 201.46020315 81.68359375 204.8203125 C80.79800781 205.53960937 79.91242188 206.25890625 79 207 C78.15308594 207.91652344 78.15308594 207.91652344 77.2890625 208.8515625 C64.86476061 222.09248517 48.75332381 231.40236529 31.8125 237.5625 C31.09336426 237.82651611 30.37422852 238.09053223 29.63330078 238.36254883 C23.44416663 240.48624245 23.44416663 240.48624245 20 239 C20.6290625 238.75765625 21.258125 238.5153125 21.90625 238.265625 C38.13648114 231.91041401 53.67222239 221.97140353 62 206 C62.77567823 202.63566781 63.05134579 199.44750279 63 196 C62.34 196 61.68 196 61 196 C60.34 197.32 59.68 198.64 59 200 C58.34 200 57.68 200 57 200 C58.08656644 195.06866002 59.1009238 191.21683811 62 187 C56.18522462 188.11712561 56.18522462 188.11712561 51.8125 191.6875 C50.73417127 194.75658947 49.84551334 197.85952188 49 201 C47.02 200.67 45.04 200.34 43 200 C42.67 201.98 42.34 203.96 42 206 C40.5 204.875 40.5 204.875 39 203 C38.39331828 198.34877349 39.15750087 195.69524887 42 192 C43.99665598 190.32932867 45.99651034 188.66247014 48 187 C50.54465137 183.37074312 50.07568169 180.06029361 49.875 175.75 C49.68154789 167.86967126 51.23982967 163.29687012 56.25 157.3125 C58.28684039 154.62096091 58.37656854 153.29497473 58 150 C57.34 150 56.68 150 56 150 C55.773125 150.5775 55.54625 151.155 55.3125 151.75 C52.70723897 156.21616176 48.78373993 158.3598606 44 160 C45.84055355 155.26714801 45.84055355 155.26714801 47.03515625 153.265625 C50.86850013 144.2642507 47.92148712 133.2757139 44.875 124.5 C44.59213135 123.67628906 44.3092627 122.85257812 44.01782227 122.00390625 C41.89590945 116.32553182 39.06795419 111.52168155 35 107 C34.67 107 34.34 107 34 107 C34.15984375 107.71800781 34.3196875 108.43601562 34.484375 109.17578125 C35.89188735 116.88511026 35.8734895 125.97568696 32 133 C29.890625 133.7734375 29.890625 133.7734375 28 134 C23.09749304 128.97493036 23.09749304 128.97493036 22.625 124.25 C23 121 23 121 24 119 C23.071875 119.474375 22.14375 119.94875 21.1875 120.4375 C18 122 18 122 15 123 C14.67 124.65 14.34 126.3 14 128 C13.34 128 12.68 128 12 128 C10.26391427 124.52782855 11.264546 120.7149856 12 117 C12.98422146 114.99218823 13.98234073 112.99107248 15 111 C15.66680368 107.95720628 15.66680368 107.95720628 15 105 C12.95901358 102.52607706 10.77521629 100.60390733 8.25 98.63671875 C4.83985016 95.91006877 2.76750727 93.90751813 1.125 89.8125 C0.00758065 87.30430121 -0.60760638 86.23113597 -2.99609375 84.82421875 C-7.72132569 83.14289676 -12.01823233 82.68201483 -17 83 C-16.71125 83.49628906 -16.4225 83.99257812 -16.125 84.50390625 C-13.498477 89.31007855 -12.54447737 92.5337284 -13 98 C-15.83967231 98 -18.23735711 97.59732819 -21 97 C-23.90914748 100.24535637 -24.38337572 102.40155626 -24.44140625 106.71875 C-24.46783203 107.81574219 -24.49425781 108.91273437 -24.52148438 110.04296875 C-24.54178711 111.75419922 -24.54178711 111.75419922 -24.5625 113.5 C-24.59698315 115.76056204 -24.63961481 118.02101827 -24.69140625 120.28125 C-24.70373291 121.28220703 -24.71605957 122.28316406 -24.72875977 123.31445312 C-25.00229751 126.0227476 -25.61598718 127.68194219 -27 130 C-28.98 129.01 -28.98 129.01 -31 128 C-31 127.01 -31 126.02 -31 125 C-32.485 125.495 -32.485 125.495 -34 126 C-35.7265443 131.1796329 -35.31250908 135.49260433 -33.5 140.5625 C-32.20067958 144.20059719 -31.45517326 147.09540838 -32 151 C-33.375 153.375 -33.375 153.375 -35 155 C-35.66 155 -36.32 155 -37 155 C-37.66 153.35 -38.32 151.7 -39 150 C-43.63605393 154.13483872 -43.63605393 154.13483872 -45.09765625 159.8203125 C-45.08605469 160.91085938 -45.07445312 162.00140625 -45.0625 163.125 C-45.05347656 164.22070312 -45.04445312 165.31640625 -45.03515625 166.4453125 C-45.02355469 167.28835937 -45.01195312 168.13140625 -45 169 C-45.66 169.33 -46.32 169.66 -47 170 C-46.66226563 170.66386719 -46.32453125 171.32773438 -45.9765625 172.01171875 C-45.53054687 172.89472656 -45.08453125 173.77773437 -44.625 174.6875 C-44.18414062 175.55761719 -43.74328125 176.42773438 -43.2890625 177.32421875 C-41.26843958 181.51854209 -39.71763556 184.91597443 -39.75 189.625 C-39.74226563 190.75808594 -39.74226563 190.75808594 -39.734375 191.9140625 C-40 194 -40 194 -42 197 C-43.98 196.67 -45.96 196.34 -48 196 C-44.69662725 210.00492405 -37.42319014 226.03991394 -28 237 C-24.27034141 239.19574121 -20.26775077 240.3533711 -16 241 C-16 241.33 -16 241.66 -16 242 C-22.32044665 242.28992875 -27.47383524 241.36657376 -33.5 239.5 C-34.80505493 239.10059204 -34.80505493 239.10059204 -36.13647461 238.69311523 C-44.57368856 235.99891124 -52.30907004 232.36270402 -60 228 C-61.00546875 227.43410156 -62.0109375 226.86820313 -63.046875 226.28515625 C-69.1912776 222.59677898 -74.35828685 218.19986004 -79.5546875 213.27734375 C-81.46347588 211.49967022 -83.33601876 209.96344995 -85.4375 208.4375 C-91.31536449 202.8463606 -92.50360436 195.81823133 -93 188 C-89.44774296 189.71435014 -86.25978366 191.77742023 -83 194 C-86.39462485 186.77739393 -89.89221357 180.15832406 -95 174 C-86.98387208 174.20411437 -81.73492042 176.3589944 -75.98046875 181.96875 C-70.76279475 187.66462222 -70.76279475 187.66462222 -70 192 C-68.68 191.01 -67.36 190.02 -66 189 C-63.53199953 190.15173355 -61.95216435 191.04783565 -60 193 C-60 193.99 -60 194.98 -60 196 C-59.01 196 -58.02 196 -57 196 C-56.32076974 189.85048435 -56.32076974 189.85048435 -57.984375 184.0234375 C-61.51662356 179.67758112 -66.05304 176.79124147 -70.66015625 173.6875 C-75.74306523 170.02169586 -78.32087763 166.06674213 -80 160 C-80.18576335 157.71245698 -80.30857805 155.41911186 -80.375 153.125 C-80.75493468 147.29729226 -81.1891279 142.5875444 -85 138 C-87.21700532 136.09679874 -89.50949617 134.36808516 -91.87109375 132.6484375 C-94.75125223 130.41829644 -96.42715021 128.28246912 -98 125 C-98.25 121.125 -98.25 121.125 -98 118 C-97.56171875 118.36351562 -97.1234375 118.72703125 -96.671875 119.1015625 C-89.38434192 124.87826555 -81.34490815 129.82148785 -72 131 C-73.5778125 129.824375 -73.5778125 129.824375 -75.1875 128.625 C-79.6397435 124.83067912 -81.7519292 120.31285646 -84 115 C-84.34458252 114.22873779 -84.68916504 113.45747559 -85.04418945 112.6628418 C-86.66253408 108.15421221 -86.3824397 103.62264579 -86.375 98.875 C-86.37338867 97.81128174 -86.37177734 96.74756348 -86.37011719 95.65161133 C-86.12558129 79.62132431 -83.04041703 61.02641465 -73 48 C-72.67 48 -72.34 48 -72 48 C-71.97421875 49.07636719 -71.9484375 50.15273438 -71.921875 51.26171875 C-71.43487435 65.42219917 -68.37050446 76.74039425 -61 89 C-56.6300596 86.52877334 -54.3200431 84.55415869 -52 80 C-51.02825727 74.59063212 -52.16540227 70.72432955 -55 66 C-49.72670394 65.68360224 -46.48803782 66.17058485 -42 69 C-39.125 71.5625 -39.125 71.5625 -37 74 C-37 74.66 -37 75.32 -37 76 C-36.34 76 -35.68 76 -35 76 C-34.31357108 66.38999513 -38.35211958 60.67355048 -43.73046875 52.98046875 C-46.26335348 49.02916857 -46.45950897 45.59508975 -46 41 C-43.97165703 36.80687843 -40.94665331 33.84942117 -37.375 30.9375 C-32.98848224 27.33123052 -31.28935409 23.46885806 -30.0625 18 C-28.73124637 12.41938477 -26.64821855 9.02624929 -21.6875 5.9375 C-17.59758801 4.10596446 -13.35964992 2.64569337 -9.125 1.1875 C-8.45815186 0.95603271 -7.79130371 0.72456543 -7.10424805 0.48608398 C-2.24098299 -1.12049149 -2.24098299 -1.12049149 0 0 Z "
     transform="translate(100,10)"
     style="fill: #DA2429;"
     id="path4" />
  <path
     d="M0 0 C6.62276988 -0.49057555 12.33104518 0.30973796 18 4 C19.49018036 6.12465491 20.50212769 8.25466396 21.578125 10.61328125 C23.8767806 14.47173887 27.31018023 16.74931837 30.890625 19.37109375 C33 21 33 21 34 23 C34.50227486 27.11865384 33.77921624 29.73483673 32 33.375 C29.84145658 37.85169744 29.64178971 41.07460851 30 46 C30.66 46 31.32 46 32 46 C32.04125 45.2575 32.0825 44.515 32.125 43.75 C33.36501888 39.8527978 35.48243368 38.89948581 39 37 C39.99 37 40.98 37 42 37 C41.95359375 37.59167969 41.9071875 38.18335938 41.859375 38.79296875 C41.66717615 43.00075066 41.61869523 45.35572642 43.8125 49.0625 C45.88726618 51.33151762 45.88726618 51.33151762 49 51 C52.4536103 41.52312888 52.75619562 32.87860036 51 23 C56.83220982 27.06898359 59.30611214 31.48692935 62 38 C62.46921875 39.12921875 62.9384375 40.2584375 63.421875 41.421875 C67.06877419 51.13328072 69.67231311 61.90454796 65.8671875 72.0078125 C64.69671723 74.14141259 63.49234476 76.08127102 62 78 C67.19459335 74.70669572 71.78195476 71.48167307 76 67 C76.33 67 76.66 67 77 67 C77.39173465 71.92161174 76.68109968 74.02876638 73.5625 77.8125 C69.40735939 83.40853615 68.80728086 87.53781076 69.1015625 94.3515625 C69.3405712 100.84825364 67.68084975 103.90671183 63.375 108.875 C62 110 62 110 60 110 C58.19901879 113.82708507 57.71856896 116.77853434 58 121 C58.33 121.66 58.66 122.32 59 123 C59.66 121.35 60.32 119.7 61 118 C62.98 118.33 64.96 118.66 67 119 C67.061875 117.948125 67.12375 116.89625 67.1875 115.8125 C68.15235984 111.28508077 69.50185522 109.92867935 73 107 C74.0209375 106.071875 74.0209375 106.071875 75.0625 105.125 C77 104 77 104 79.25 104.3125 C79.8275 104.539375 80.405 104.76625 81 105 C80.38125 106.03125 79.7625 107.0625 79.125 108.125 C77.29301955 111.31472483 76.0364253 114.45888021 75 118 C75.61875 117.34 76.2375 116.68 76.875 116 C79 114 79 114 81 114 C81.87847436 118.90210383 81.7782957 122.60735515 79.3125 127.01953125 C67.17346117 143.43673828 67.17346117 143.43673828 59 147 C58.81824219 146.26394531 58.63648438 145.52789062 58.44921875 144.76953125 C56.29012405 135.59088418 56.29012405 135.59088418 50 129 C46.85778033 129.31506627 46.85778033 129.31506627 44 130 C44 130.66 44 131.32 44 132 C43.34 132 42.68 132 42 132 C42.2165625 131.41734375 42.433125 130.8346875 42.65625 130.234375 C46.37210488 119.29324674 45.21811898 109.16981344 43 98 C38.99591524 100.23103415 37.18819306 101.95184284 35 106 C34.67 106 34.34 106 34 106 C33.90203125 105.0821875 33.8040625 104.164375 33.703125 103.21875 C32.82388325 96.0029039 31.91959431 90.17633043 28 84 C27.01 83.34 26.02 82.68 25 82 C25 81.34 25 80.68 25 80 C24.319375 79.773125 23.63875 79.54625 22.9375 79.3125 C18.56772962 77.3600494 14.44836188 74.95213992 11.5625 71.0625 C10.81722779 68.32983522 10.8719778 65.81648846 11 63 C7.66871018 66.02844529 6.16588283 68.50319683 5.6640625 73.03125 C5.56848568 81.5184712 6.91235204 88.13649369 10 96 C10.57295179 97.68398003 11.13647002 99.37121987 11.6875 101.0625 C11.91824219 101.75472656 12.14898437 102.44695312 12.38671875 103.16015625 C13.61547963 106.84643889 14.13536651 109.66987494 14.125 113.5625 C14.12886719 115.01849609 14.12886719 115.01849609 14.1328125 116.50390625 C14 119 14 119 13 121 C10.01627151 119.67903042 8.1339292 118.32466574 6.01953125 115.84765625 C5.49552734 115.23599609 4.97152344 114.62433594 4.43164062 113.99414062 C3.89732422 113.35669922 3.36300781 112.71925781 2.8125 112.0625 C2.26658203 111.42892578 1.72066406 110.79535156 1.15820312 110.14257812 C-2.8669324 105.39920281 -2.8669324 105.39920281 -4 102 C-4.66 102 -5.32 102 -6 102 C-7.32 113.55 -8.64 125.1 -10 137 C-10.66 137 -11.32 137 -12 137 C-12.433125 136.0409375 -12.433125 136.0409375 -12.875 135.0625 C-13.82823451 132.84793921 -13.82823451 132.84793921 -16 132 C-16 131.34 -16 130.68 -16 130 C-16.66 130 -17.32 130 -18 130 C-18 133.96 -18 137.92 -18 142 C-21.15437158 138.84562842 -22.70464882 135.7993505 -24.5 131.8125 C-24.80679688 131.13993164 -25.11359375 130.46736328 -25.4296875 129.77441406 C-31.28047468 116.84142403 -31.28047468 116.84142403 -30 113 C-28.02 113.33 -26.04 113.66 -24 114 C-22.84382755 111.6876551 -22.83411296 110.25944273 -22.8125 107.6875 C-22.79123047 106.54861328 -22.79123047 106.54861328 -22.76953125 105.38671875 C-23.30383329 99.8535231 -26.50529431 95.03371464 -29.07421875 90.20703125 C-29.53248047 89.11455078 -29.53248047 89.11455078 -30 88 C-29.505 87.01 -29.505 87.01 -29 86 C-28.34 86.33 -27.68 86.66 -27 87 C-27.33 86.34 -27.66 85.68 -28 85 C-28.55258891 79.96328793 -28.53929549 76.07859097 -26.25 71.5 C-24.19573231 69.21748034 -22.85898185 68.02106495 -20 67 C-19.67 68.98 -19.34 70.96 -19 73 C-16.75094652 71.5905727 -16.75094652 71.5905727 -15 69 C-14.76652696 64.75723128 -15.70422252 60.86993376 -17.0625 56.875 C-18.45548587 52.60317666 -18.72234674 48.76072017 -17 44.5625 C-16.67 44.046875 -16.34 43.53125 -16 43 C-15.01 43 -14.02 43 -13 43 C-13 43.99 -13 44.98 -13 46 C-11.68 46.33 -10.36 46.66 -9 47 C-7.96517183 43.89551548 -7.86068695 41.66996444 -7.82421875 38.4140625 C-7.80037109 37.31835938 -7.77652344 36.22265625 -7.75195312 35.09375 C-7.70913299 32.78924843 -7.6778019 30.48450353 -7.65820312 28.1796875 C-7.44461941 19.71581174 -7.44461941 19.71581174 -4.95703125 15.7109375 C-4.31121094 15.14632812 -3.66539063 14.58171875 -3 14 C1.75 14.875 1.75 14.875 4 16 C4.5326514 9.741346 2.81849506 5.54891215 0 0 Z "
     transform="translate(82,92)"
     style="fill: #F68723;"
     id="path6" />
  <path
     d="M0 0 C1 3 1 3 1.25 5.875 C2.23028607 9.9595253 3.7801821 11.34015043 7 14 C8.15314967 14.68978359 9.32056015 15.35620096 10.5 16 C17.16758059 19.68814111 19.82892737 24.02689302 22.21875 31.12890625 C23.30153043 35.10812433 23.73038549 38.88837874 24 43 C24.5775 42.030625 25.155 41.06125 25.75 40.0625 C28.09242495 36.87419938 28.39497955 36.59831222 32 36 C35.65063225 48.25569399 36.79919679 58.29804933 31 70 C31.66 70 32.32 70 33 70 C33 69.34 33 68.68 33 68 C36 66 36 66 37.9375 66.125 C43.17403899 68.34656199 45.14100028 72.75412176 47.25 77.73828125 C48.18995698 80.57283902 48.30369464 83.03897727 48 86 C33.72413793 94.32758621 33.72413793 94.32758621 27 95 C27 95.66 27 96.32 27 97 C18.60188332 98.66070866 10.55270455 99.31160411 2 99.25 C0.89527344 99.25773437 -0.20945312 99.26546875 -1.34765625 99.2734375 C-2.40855469 99.27085937 -3.46945313 99.26828125 -4.5625 99.265625 C-5.51253906 99.26336914 -6.46257812 99.26111328 -7.44140625 99.25878906 C-10.12279723 98.98757967 -11.67153183 98.30213603 -14 97 C-15.60875 96.5359375 -15.60875 96.5359375 -17.25 96.0625 C-22.9547889 93.55041291 -26.46136104 88.52299316 -29 83 C-29.87718055 78.01126628 -29.48770935 73.01934201 -29 68 C-28.34 68 -27.68 68 -27 68 C-27 68.66 -27 69.32 -27 70 C-25.68 70.66 -24.36 71.32 -23 72 C-23 72.99 -23 73.98 -23 75 C-22.34 75 -21.68 75 -21 75 C-20.92652344 73.56333984 -20.92652344 73.56333984 -20.8515625 72.09765625 C-20.43976753 64.58049157 -19.86816786 57.10429024 -19 49.625 C-18.8755249 48.52877319 -18.8755249 48.52877319 -18.74853516 47.41040039 C-18.12577917 42.25155835 -18.12577917 42.25155835 -17 40 C-16.34 40 -15.68 40 -15 40 C-13.52230782 41.63432755 -12.11730681 43.33476368 -10.75 45.0625 C-9.94949219 46.06152344 -9.14898437 47.06054688 -8.32421875 48.08984375 C-7.55722656 49.05019531 -6.79023437 50.01054687 -6 51 C-2.51278844 55.60620921 -2.51278844 55.60620921 2 59 C2.35177378 50.68771582 1.91374916 43.79856394 -1 36 C-1.34804687 35.02417969 -1.69609375 34.04835937 -2.0546875 33.04296875 C-2.73769424 31.14101934 -3.42951551 29.24219659 -4.1328125 27.34765625 C-6.55736366 20.78389389 -7.71313367 12.53858635 -5.17578125 5.81640625 C-3.70343171 3.62156548 -1.86458442 1.86458442 0 0 Z "
     transform="translate(93,154)"
     style="fill: #F8D84D;"
     id="path8" />
</svg>
