<?xml version="1.0" encoding="UTF-8" standalone="no"?>
<svg
   id="svg"
   version="1.1"
   style="display: block;"
   viewBox="0 0 217 249"
   sodipodi:docname="export-2023-02-14 201238.svg"
   inkscape:version="1.2.1 (9c6d41e410, 2022-07-14)"
   xmlns:inkscape="http://www.inkscape.org/namespaces/inkscape"
   xmlns:sodipodi="http://sodipodi.sourceforge.net/DTD/sodipodi-0.dtd"
   xmlns="http://www.w3.org/2000/svg"
   xmlns:svg="http://www.w3.org/2000/svg">
  <defs
     id="defs13" />
  <sodipodi:namedview
     id="namedview11"
     pagecolor="#ffffff"
     bordercolor="#111111"
     borderopacity="1"
     inkscape:showpageshadow="0"
     inkscape:pageopacity="0"
     inkscape:pagecheckerboard="1"
     inkscape:deskcolor="#d1d1d1"
     showgrid="false"
     inkscape:zoom="3.3614458"
     inkscape:cx="107.69176"
     inkscape:cy="100.55197"
     inkscape:window-width="1920"
     inkscape:window-height="1017"
     inkscape:window-x="-8"
     inkscape:window-y="-8"
     inkscape:window-maximized="1"
     inkscape:current-layer="svg" />
  <path
     d="M0 0 C0.390625 1.88802083 0.78125 3.77604167 1.171875 5.6640625 C3.24961344 11.524853 6.79654435 14.91083551 11.8125 18.375 C18.86164063 23.48992521 24.67209036 28.77810559 28 37 C28 37.66 28 38.32 28 39 C28.66 39 29.32 39 30 39 C32.03165952 34.66579301 32.52060632 30.71403788 33 26 C46.46417032 28.19922927 57.37296298 37.75427883 65.5 48.25 C66.35658058 49.48418563 67.19154046 50.73377032 68 52 C68.40992188 52.64066406 68.81984375 53.28132813 69.2421875 53.94140625 C70.98139932 56.81410439 72 58.58928078 72 62 C72.66 62 73.32 62 74 62 C74.14695312 61.47535156 74.29390625 60.95070312 74.4453125 60.41015625 C76.9339739 51.81426257 79.98154094 43.42042625 83 35 C88.65795522 35.51569904 92.95906721 37.0465884 98 39.625 C98.70406982 39.98255371 99.40813965 40.34010742 100.13354492 40.70849609 C105.27790324 43.41693576 109.5129319 46.25941069 113 51 C113.639375 51.86625 114.27875 52.7325 114.9375 53.625 C117.96348191 63.23694254 115.8658957 71.102645 112.15478516 80.03417969 C109.12414104 87.62087378 108.6016652 94.87491233 111.25 102.6875 C113.03522248 105.04654399 114.22400762 106.04276125 117 107 C117.15275391 105.95779297 117.15275391 105.95779297 117.30859375 104.89453125 C118.11717006 101.50947448 119.46675713 98.77712981 121.0625 95.6875 C121.88427734 94.08455078 121.88427734 94.08455078 122.72265625 92.44921875 C123.14417969 91.64097656 123.56570312 90.83273438 124 90 C129.25717817 90.65714727 131.04074883 92.65397079 134.29296875 96.62890625 C143.65801683 109.63710805 143.5821751 124.19916425 143.81005859 139.64575195 C143.85304776 141.82478567 143.92105748 144.00348194 144.01513672 146.1809082 C144.71067145 162.50122237 142.27094847 174.58307584 131 187 C130.01 187.66 129.02 188.32 128 189 C127.87882813 188.443125 127.75765625 187.88625 127.6328125 187.3125 C127.46523437 186.549375 127.29765625 185.78625 127.125 185 C126.94453125 184.17113281 126.7640625 183.34226563 126.578125 182.48828125 C126.08575477 180.36909317 125.49074264 178.27418339 124.875 176.1875 C122.50152579 166.34341845 123.85444181 158.94723535 128.4921875 150.0078125 C131.6260461 143.75633291 132.60339507 138.58580254 131.6875 131.625 C131.460625 131.08875 131.23375 130.5525 131 130 C130.01 129.67 129.02 129.34 128 129 C128 128.34 128 127.68 128 127 C125.03 126.505 125.03 126.505 122 126 C121.9175 126.804375 121.835 127.60875 121.75 128.4375 C120.79803325 132.95934205 118.98419821 136.84702701 117 141 C114.3159617 138.3159617 113.29455616 135.14053934 111.875 131.6875 C109.0227006 124.93249665 105.67386592 118.82515982 101.69921875 112.671875 C100 110 100 110 98.95703125 107.703125 C98.0507007 105.64349046 98.0507007 105.64349046 95 105 C93.4921875 103.43359375 93.4921875 103.43359375 91.875 101.4375 C84.57745779 92.89069169 74.82592193 83.60864064 64 80 C63.814375 81.794375 63.814375 81.794375 63.625 83.625 C63.17674946 87.27596813 62.29553163 90.54524899 61 94 C56.90075252 92.53598304 54.90622092 89.76573048 53 86 C51.86945039 82.27722421 51.25984898 78.45804148 50.578125 74.6328125 C49.399828 68.59911925 47.61219009 64.009377 42.5625 60.125 C39.70339275 58.66500828 39.70339275 58.66500828 35 59 C34.34 62.96 33.68 66.92 33 71 C28.85588115 69.96397029 28.20143062 69.52765458 26.06640625 66.078125 C24.2149625 62.47018333 22.78627651 58.68897584 21.34375 54.90234375 C17.78315039 47.21186262 12.61397675 44.86964186 5 42 C2.33426933 41.19068584 -0.26864428 40.56688515 -3 40 C-3 40.66 -3 41.32 -3 42 C-2.13375 42.0928125 -2.13375 42.0928125 -1.25 42.1875 C1.95743327 43.34573979 3.11932004 45.21140558 5 48 C7.45915826 54.14789565 5.78017837 60.27803773 3.5 66.1875 C1.12299606 72.81157177 -0.19428286 78.9219566 1 86 C2.58367492 89.46090454 2.58367492 89.46090454 5 92 C5.66 92.86625 6.32 93.7325 7 94.625 C8.91688255 97.04209566 8.91688255 97.04209566 11.25 98.875 C13 101 13 101 13.5625 104.4375 C12.83491105 109.04556335 11.632909 110.108501 8 113 C5.68698588 114.56726646 3.36099409 116.09484401 0.98828125 117.5703125 C-1.54180171 119.3895863 -2.82582561 121.0721864 -3.40625 124.1640625 C-3.68383452 131.45065603 -1.43921114 135.37623252 3 141 C3.66 141.99 4.32 142.98 5 144 C-4.16441522 142.30447587 -11.55701231 135.15204867 -17 128 C-17.66 128.33 -18.32 128.66 -19 129 C-20.19350862 139.3437414 -16.9574814 146.22298203 -12 155 C-5.13025309 167.62185603 -5.13025309 167.62185603 -6 174 C-8.88305128 173.40074509 -10.99659057 172.54853768 -13.453125 170.93359375 C-14.071875 170.53076172 -14.690625 170.12792969 -15.328125 169.71289062 C-15.96234375 169.29201172 -16.5965625 168.87113281 -17.25 168.4375 C-17.8996875 168.01275391 -18.549375 167.58800781 -19.21875 167.15039062 C-20.81578918 166.1052694 -22.4083442 165.05330163 -24 164 C-23.73474173 176.20188031 -22.4739045 187.28567087 -19 199 C-34.26672714 186.62096758 -34.26672714 186.62096758 -35.3828125 176.54345703 C-35.54467839 171.22279031 -35.44914827 165.97724775 -35.15771484 160.66235352 C-34.76908741 153.13619265 -34.71279915 148.33163115 -39 142 C-41.56809828 139.5404226 -41.56809828 139.5404226 -44 138 C-43.25234375 138.0721875 -42.5046875 138.144375 -41.734375 138.21875 C-40.74953125 138.3115625 -39.7646875 138.404375 -38.75 138.5 C-37.77546875 138.5928125 -36.8009375 138.685625 -35.796875 138.78125 C-33.53697847 138.95800168 -31.26679807 139 -29 139 C-29.763125 138.154375 -30.52625 137.30875 -31.3125 136.4375 C-37.71223055 128.54692312 -37.95421304 120.98670694 -37 111 C-35.22230096 104.21723164 -29.96228828 98.33165426 -23.96875 94.8046875 C-22 94 -22 94 -19 94 C-18.608125 95.134375 -18.21625 96.26875 -17.8125 97.4375 C-17.214375 98.613125 -16.61625 99.78875 -16 101 C-13.44961446 101.77723098 -13.44961446 101.77723098 -11 102 C-10.16616522 92.08663091 -12.16176239 86.67533304 -18.41796875 79.0546875 C-19.73905557 77.49149995 -21.06598265 75.9334137 -22.39355469 74.37573242 C-27.80086773 67.97066574 -30.79477807 62.89564754 -30.46484375 54.34375 C-29.68813181 50.42755536 -27.93258971 48.65329545 -25 46 C-24.34 46 -23.68 46 -23 46 C-22.76925781 46.53109375 -22.53851563 47.0621875 -22.30078125 47.609375 C-20.18810777 52.18544245 -18.36183544 55.20395164 -14 58 C-12.515 58.495 -12.515 58.495 -11 59 C-11.23710693 58.26362305 -11.47421387 57.52724609 -11.71850586 56.76855469 C-12.79283802 53.42946399 -13.86519028 50.0897407 -14.9375 46.75 C-15.31068359 45.59113281 -15.68386719 44.43226562 -16.06835938 43.23828125 C-16.42607422 42.12324219 -16.78378906 41.00820313 -17.15234375 39.859375 C-17.48226318 38.83295898 -17.81218262 37.80654297 -18.15209961 36.74902344 C-20.4396198 29.33253126 -21.31298107 23.13505109 -17.9375 15.875 C-14.76405056 10.10183209 -7.39704492 0 0 0 Z "
     transform="translate(64,14)"
     style="fill: #DC2428;"
     id="path4" />
  <path
     d="M0 0 C8.23006138 1.03068058 15.95087095 2.49891805 21.71484375 8.90625 C25.34578242 14.00619439 27.55435106 19.51673157 29.62890625 25.3984375 C31.26856774 28.50959008 32.88377433 29.47559011 36 31 C35.95875 29.96875 35.9175 28.9375 35.875 27.875 C35.99575149 24.13170373 36.64872018 21.46265453 38 18 C42.82936924 18.28976215 46.11956488 19.06203838 49.72265625 22.4453125 C53.6056829 27.17144279 54.28570272 33.31087436 55.4375 39.125 C56.8265106 45.91733454 58.07022915 50.04681943 64 54 C64.185625 52.7625 64.185625 52.7625 64.375 51.5 C65.07102155 47.60227933 66.00880949 43.83260331 67 40 C79.71553153 42.41359626 91.18109554 55.55525985 99 65 C99.84820312 65.82886719 100.69640625 66.65773438 101.5703125 67.51171875 C109.97611639 76.12023495 114.4958499 88.03520961 119 99 C120.8272911 96.25906335 121.93698178 93.86174676 123.125 90.8125 C123.65480469 89.46091797 123.65480469 89.46091797 124.1953125 88.08203125 C124.46085938 87.39496094 124.72640625 86.70789063 125 86 C128.92888829 86.26787875 130.54876221 86.52437097 133.3125 89.4375 C135.93834051 93.42488744 136.72274819 96.26639649 136 101 C134.21621689 106.53730355 132.12312326 111.9218218 129.35546875 117.04296875 C126.08445699 124.17886473 127.62397025 132.3087885 130.24609375 139.453125 C132.8839717 148.36450544 132.8839717 148.36450544 131.04516602 151.76660156 C129.64021348 153.46825372 128.16367752 154.98207597 126.5625 156.5 C126.03333984 157.03625 125.50417969 157.5725 124.95898438 158.125 C123.65911369 159.43658124 122.33210945 160.72117493 121 162 C119.7235616 159.44712321 120.01604259 157.33807504 120.11621094 154.54003906 C120.40333498 145.82012126 119.86481409 140.29423787 113.75 133.5 C113.1725 133.005 112.595 132.51 112 132 C110.01979579 132.44033992 110.01979579 132.44033992 108 134 C106.73847391 136.5863924 105.84356955 139.25200829 105 142 C100.50182013 140.62555615 98.66799679 138.83362646 96 135 C94.91908859 132.47603038 93.95773515 130.02277349 93.0625 127.4375 C92.54277204 126.01131545 92.02192724 124.58553743 91.5 123.16015625 C90.57712499 120.60761046 89.66200707 118.05256358 88.75 115.49609375 C86.36905562 109.23828269 83.99913282 104.39548233 78 101 C75.87092266 100.3457836 75.87092266 100.3457836 74 100 C73.86722656 100.98742187 73.73445313 101.97484375 73.59765625 102.9921875 C73.42105469 104.27351563 73.24445313 105.55484375 73.0625 106.875 C72.88847656 108.15117187 72.71445313 109.42734375 72.53515625 110.7421875 C72 114 72 114 71 116 C66.34644862 114.15069389 65.18950607 111.34693396 63.13330078 106.96875 C61.15517822 101.78693821 60.31453977 96.45854357 59.4375 91 C57.6773267 80.27724816 55.93997905 69.93997905 48 62 C47.34 62 46.68 62 46 62 C46.06960937 62.6290625 46.13921875 63.258125 46.2109375 63.90625 C46.60152232 70.08121 45.78920126 73.35633043 41.78515625 78.0703125 C41.19605469 78.70710938 40.60695312 79.34390625 40 80 C26.33293222 94.98968724 25.51499614 112.39176214 23.3125 131.875 C23.08590582 133.83470713 22.85869655 135.79434324 22.63085938 137.75390625 C22.08015673 142.50181657 21.53774559 147.25060546 21 152 C17.59787701 150.38617243 14.89675481 148.41396234 12 146 C10.16656665 153.4556867 9.74834509 160.46724957 9.875 168.125 C9.88402344 169.176875 9.89304687 170.22875 9.90234375 171.3125 C9.92564147 173.87524878 9.95834888 176.43749512 10 179 C4.67162047 178.58208788 1.47201568 176.53843917 -2.5625 173.25 C-3.38911133 172.60417969 -3.38911133 172.60417969 -4.23242188 171.9453125 C-10.86978355 166.68581357 -15.06779253 161.96958953 -18 154 C-18.30164062 153.22140625 -18.60328125 152.4428125 -18.9140625 151.640625 C-21.9032755 142.64504944 -21.26173206 133.35449773 -21 124 C-17.15628436 125.37078748 -14.16166017 127.15529782 -10.875 129.5625 C-8.16499947 131.54351862 -6.1961513 132.93461623 -3 134 C-4.03569981 126.20664636 -6.60148586 120.30281727 -10.5625 113.5625 C-11.56568997 111.81488444 -12.56707618 110.06623187 -13.56640625 108.31640625 C-14.00927979 107.55787354 -14.45215332 106.79934082 -14.90844727 106.01782227 C-16.93734481 102.26724338 -17.18872663 99.1398318 -17.25 94.9375 C-17.27578125 93.87402344 -17.3015625 92.81054688 -17.328125 91.71484375 C-17.21984375 90.81894531 -17.1115625 89.92304688 -17 89 C-15.515 88.01 -15.515 88.01 -14 87 C-13.63390625 87.4846875 -13.2678125 87.969375 -12.890625 88.46875 C-7.82218437 94.7439622 -1.82570272 98.78577303 5 103 C5.33 102.67 5.66 102.34 6 102 C5.57847656 101.44570312 5.15695313 100.89140625 4.72265625 100.3203125 C4.17480469 99.59585938 3.62695312 98.87140625 3.0625 98.125 C2.51722656 97.40570313 1.97195312 96.68640625 1.41015625 95.9453125 C-1.76214588 91.56911732 -1.68184579 87.2599532 -1 82 C2.10516468 76.61771455 6.5151036 74.25500216 11.890625 71.296875 C14.13291327 70.17393516 14.13291327 70.17393516 15 68 C15.57534047 64.40412204 15.69204322 62.00384291 13.578125 58.9375 C11.77205858 56.8998866 9.90455674 54.94542706 8 53 C3.46360307 47.50857214 2.61569012 44.67610002 2.6328125 37.5703125 C3.18438967 32.20710466 4.97309992 27.55304937 6.90625 22.54296875 C8.51384847 17.33549798 8.45143029 13.42556932 6.8125 8.25 C4.86509321 4.75809816 3.47678341 3.78537526 0 2 C0 1.34 0 0.68 0 0 Z "
     transform="translate(61,54)"
     style="fill: #F58822;"
     id="path6" />
  <path
     d="M0 0 C3.21650818 1.37552618 4.97385651 2.82900258 7.0625 5.625 C7.79146484 6.57246094 7.79146484 6.57246094 8.53515625 7.5390625 C13.4045971 15.71972313 14.38835518 24.93002836 15.84179688 34.18164062 C17.20077448 41.94917481 19.47757125 48.47142217 24 55 C24.99 55.495 24.99 55.495 26 56 C26.13277344 55.01257813 26.26554687 54.02515625 26.40234375 53.0078125 C26.57894531 51.72648437 26.75554687 50.44515625 26.9375 49.125 C27.11152344 47.84882813 27.28554687 46.57265625 27.46484375 45.2578125 C28 42 28 42 29 40 C32.06137848 40 34.25423631 40.45110458 36.74609375 42.28515625 C42.52521518 48.14150425 44.69702189 55.40648443 47.30908203 63.0078125 C48.32900677 65.94865555 49.42306476 68.85349174 50.5625 71.75 C50.91441406 72.67296875 51.26632813 73.5959375 51.62890625 74.546875 C53.6208537 78.11081516 56.37685356 80.18842678 60 82 C60.0825 81.113125 60.165 80.22625 60.25 79.3125 C61.0934086 75.58744536 62.45552764 73.79071162 65 71 C69.84442086 72.79422995 72.82365926 76.7002335 75.12890625 81.20703125 C76.2437363 84.78148633 76.32981989 88.16854423 76.3125 91.875 C76.32861328 92.55691406 76.34472656 93.23882812 76.36132812 93.94140625 C76.36604875 98.89806542 75.49263917 102.60646164 73 107 C70.21484375 109.44140625 70.21484375 109.44140625 66.9375 111.5625 C66.06315308 112.13254761 66.06315308 112.13254761 65.17114258 112.71411133 C63.9963642 113.47490637 62.81632131 114.22764115 61.63085938 114.97167969 C60.23204648 115.85368566 58.8557049 116.7711554 57.484375 117.6953125 C37.96658367 130.37523816 11.86005924 134.46889006 -10.83422852 129.86694336 C-19.46907332 127.84730177 -28.03729423 124.91425143 -36 121 C-36.33 120.34 -36.66 119.68 -37 119 C-36.34 119 -35.68 119 -35 119 C-35.33 118.01 -35.66 117.02 -36 116 C-36.79646333 106.02610695 -37.10650659 95.28852682 -33 86 C-29.56404834 87.52708963 -26.88087546 89.59927045 -24 92 C-23.96261719 91.06285156 -23.92523438 90.12570313 -23.88671875 89.16015625 C-21.40040631 35.21058221 -21.40040631 35.21058221 -6.3125 20.25 C-5.75175781 19.73953125 -5.19101563 19.2290625 -4.61328125 18.703125 C-1.69689766 15.6243278 -0.10919568 13.16038606 0.29296875 8.88671875 C0.24076172 7.30310547 0.24076172 7.30310547 0.1875 5.6875 C0.16042969 4.61886719 0.13335937 3.55023438 0.10546875 2.44921875 C0.05326172 1.23685547 0.05326172 1.23685547 0 0 Z "
     transform="translate(106,114)"
     style="fill: #F8DA4C;"
     id="path8" />
</svg>
