<?xml version="1.0" encoding="UTF-8"?>
<!DOCTYPE svg PUBLIC "-//W3C//DTD SVG 1.1//EN" "http://www.w3.org/Graphics/SVG/1.1/DTD/svg11.dtd">
<svg version="1.2" width="59.53mm" height="71.7mm" viewBox="0 0 5953 7170" preserveAspectRatio="xMidYMid" fill-rule="evenodd" stroke-width="28.222" stroke-linejoin="round" xmlns="http://www.w3.org/2000/svg" xmlns:ooo="http://xml.openoffice.org/svg/export" xmlns:xlink="http://www.w3.org/1999/xlink" xmlns:presentation="http://sun.com/xmlns/staroffice/presentation" xmlns:smil="http://www.w3.org/2001/SMIL20/" xmlns:anim="urn:oasis:names:tc:opendocument:xmlns:animation:1.0" xml:space="preserve">
 <defs class="ClipPathGroup">
  <clipPath id="presentation_clip_path" clipPathUnits="userSpaceOnUse">
   <rect x="0" y="0" width="5953" height="7170"/>
  </clipPath>
  <clipPath id="presentation_clip_path_shrink" clipPathUnits="userSpaceOnUse">
   <rect x="5" y="7" width="5942" height="7156"/>
  </clipPath>
 </defs>
 <defs class="TextShapeIndex">
  <g ooo:slide="id1" ooo:id-list="id3"/>
 </defs>
 <defs class="EmbeddedBulletChars">
  <g id="bullet-char-template-57356" transform="scale(0.00048828125,-0.00048828125)">
   <path d="M 580,1141 L 1163,571 580,0 -4,571 580,1141 Z"/>
  </g>
  <g id="bullet-char-template-57354" transform="scale(0.00048828125,-0.00048828125)">
   <path d="M 8,1128 L 1137,1128 1137,0 8,0 8,1128 Z"/>
  </g>
  <g id="bullet-char-template-10146" transform="scale(0.00048828125,-0.00048828125)">
   <path d="M 174,0 L 602,739 174,1481 1456,739 174,0 Z M 1358,739 L 309,1346 659,739 1358,739 Z"/>
  </g>
  <g id="bullet-char-template-10132" transform="scale(0.00048828125,-0.00048828125)">
   <path d="M 2015,739 L 1276,0 717,0 1260,543 174,543 174,936 1260,936 717,1481 1274,1481 2015,739 Z"/>
  </g>
  <g id="bullet-char-template-10007" transform="scale(0.00048828125,-0.00048828125)">
   <path d="M 0,-2 C -7,14 -16,27 -25,37 L 356,567 C 262,823 215,952 215,954 215,979 228,992 255,992 264,992 276,990 289,987 310,991 331,999 354,1012 L 381,999 492,748 772,1049 836,1024 860,1049 C 881,1039 901,1025 922,1006 886,937 835,863 770,784 769,783 710,716 594,584 L 774,223 C 774,196 753,168 711,139 L 727,119 C 717,90 699,76 672,76 641,76 570,178 457,381 L 164,-76 C 142,-110 111,-127 72,-127 30,-127 9,-110 8,-76 1,-67 -2,-52 -2,-32 -2,-23 -1,-13 0,-2 Z"/>
  </g>
  <g id="bullet-char-template-10004" transform="scale(0.00048828125,-0.00048828125)">
   <path d="M 285,-33 C 182,-33 111,30 74,156 52,228 41,333 41,471 41,549 55,616 82,672 116,743 169,778 240,778 293,778 328,747 346,684 L 369,508 C 377,444 397,411 428,410 L 1163,1116 C 1174,1127 1196,1133 1229,1133 1271,1133 1292,1118 1292,1087 L 1292,965 C 1292,929 1282,901 1262,881 L 442,47 C 390,-6 338,-33 285,-33 Z"/>
  </g>
  <g id="bullet-char-template-9679" transform="scale(0.00048828125,-0.00048828125)">
   <path d="M 813,0 C 632,0 489,54 383,161 276,268 223,411 223,592 223,773 276,916 383,1023 489,1130 632,1184 813,1184 992,1184 1136,1130 1245,1023 1353,916 1407,772 1407,592 1407,412 1353,268 1245,161 1136,54 992,0 813,0 Z"/>
  </g>
  <g id="bullet-char-template-8226" transform="scale(0.00048828125,-0.00048828125)">
   <path d="M 346,457 C 273,457 209,483 155,535 101,586 74,649 74,723 74,796 101,859 155,911 209,963 273,989 346,989 419,989 480,963 531,910 582,859 608,796 608,723 608,648 583,586 532,535 482,483 420,457 346,457 Z"/>
  </g>
  <g id="bullet-char-template-8211" transform="scale(0.00048828125,-0.00048828125)">
   <path d="M -4,459 L 1135,459 1135,606 -4,606 -4,459 Z"/>
  </g>
  <g id="bullet-char-template-61548" transform="scale(0.00048828125,-0.00048828125)">
   <path d="M 173,740 C 173,903 231,1043 346,1159 462,1274 601,1332 765,1332 928,1332 1067,1274 1183,1159 1299,1043 1357,903 1357,740 1357,577 1299,437 1183,322 1067,206 928,148 765,148 601,148 462,206 346,322 231,437 173,577 173,740 Z"/>
  </g>
 </defs>
 <g>
  <g id="id2" class="Master_Slide">
   <g id="bg-id2" class="Background"/>
   <g id="bo-id2" class="BackgroundObjects"/>
  </g>
 </g>
 <g class="SlideGroup">
  <g>
   <g id="container-id1">
    <g id="id1" class="Slide" clip-path="url(#presentation_clip_path)">
     <g class="Page">
      <g class="Graphic">
       <g id="id3">
        <rect class="BoundingBox" stroke="none" fill="none" x="0" y="0" width="5953" height="7170"/>
        <path fill="rgb(217,38,41)" stroke="none" d="M 3479,251 C 3648,237 3790,250 3928,357 3992,447 3984,524 3978,632 3977,739 3978,799 4021,899 4090,969 4158,1015 4242,1064 4460,1193 4634,1350 4705,1602 4745,1854 4694,2018 4603,2251 4514,2485 4519,2664 4616,2897 4664,2995 4664,2995 4748,3055 4752,3025 4755,2995 4758,2964 4763,2924 4767,2884 4772,2844 4774,2824 4776,2804 4778,2784 4793,2650 4819,2524 4854,2394 4863,2394 4872,2394 4881,2394 4896,2520 4911,2645 4926,2771 4931,2813 4936,2856 4941,2898 4973,3155 4995,3405 4986,3664 5004,3664 5021,3664 5039,3664 5057,3620 5075,3576 5092,3532 5106,3500 5120,3468 5134,3436 5184,3304 5191,3169 5198,3029 5452,3358 5462,3819 5477,4219 5479,4247 5480,4276 5481,4304 5484,4373 5486,4442 5489,4510 5553,4430 5579,4382 5587,4279 5589,4247 5589,4247 5592,4215 5593,4199 5594,4183 5595,4166 5674,4234 5705,4306 5744,4401 5755,4428 5766,4456 5778,4484 5868,4732 5840,4956 5732,5193 5680,5302 5625,5409 5568,5516 5560,5516 5551,5516 5542,5516 5529,5447 5515,5378 5502,5309 5499,5289 5495,5270 5491,5250 5476,5170 5463,5095 5463,5013 5445,5013 5428,5013 5410,5013 5408,5032 5405,5050 5403,5069 5379,5163 5336,5227 5277,5304 5260,5313 5243,5321 5225,5330 5195,5242 5190,5168 5185,5075 5183,5040 5180,5006 5178,4970 5176,4933 5174,4896 5172,4859 5168,4805 5165,4750 5162,4696 5159,4646 5156,4597 5153,4547 5146,4463 5134,4382 5119,4299 5101,4299 5084,4299 5066,4299 5057,4329 5057,4329 5048,4360 5000,4493 4939,4618 4877,4745 4865,4771 4853,4797 4840,4823 4809,4887 4779,4950 4748,5013 4731,5013 4713,5013 4695,5013 4606,4863 4622,4677 4660,4512 4675,4463 4689,4414 4704,4365 4752,4190 4724,4058 4638,3900 4555,3767 4461,3643 4367,3519 4138,3212 4138,3212 4135,3010 4130,2657 4130,2657 4031,2322 3993,2224 3990,2126 4008,2024 4025,1988 4043,1953 4061,1918 4073,1769 4067,1675 3981,1548 3923,1489 3864,1435 3796,1389 3779,1389 3761,1389 3743,1389 3752,1406 3761,1424 3770,1442 3800,1654 3706,1776 3584,1944 3571,1961 3557,1977 3544,1994 3391,2216 3414,2443 3414,2703 3411,2895 3399,3026 3293,3188 3221,3254 3221,3254 3161,3294 3108,3267 3108,3267 3086,3214 3079,3193 3072,3172 3065,3150 3055,3118 3055,3118 3044,3085 3029,3029 3029,3029 3029,2976 2937,3002 2937,3002 2844,3029 2844,3046 2844,3064 2844,3082 2826,3082 2809,3082 2791,3082 2730,3285 2729,3479 2728,3690 2723,3869 2704,4038 2606,4193 2549,4227 2549,4227 2500,4246 2499,4223 2498,4201 2497,4178 2486,4000 2468,3854 2394,3690 2321,3775 2272,3849 2235,3955 2169,3889 2158,3836 2131,3746 2117,3700 2117,3700 2103,3653 2088,3604 2088,3604 2073,3555 2063,3522 2054,3490 2043,3456 2019,3375 1995,3295 1971,3214 1888,3249 1888,3249 1839,3320 1820,3527 1838,3705 1891,3904 1948,4124 1955,4340 1956,4567 1956,4600 1956,4632 1957,4666 1955,4843 1948,4988 1865,5145 1807,5185 1807,5185 1759,5198 1747,5184 1735,5171 1723,5157 1588,5000 1588,5000 1442,4854 1424,4854 1407,4854 1389,4854 1342,4948 1349,5044 1362,5145 1399,5255 1446,5358 1495,5463 1574,5638 1560,5807 1521,5992 1511,6141 1530,6249 1583,6389 1600,6442 1600,6442 1600,6521 1452,6456 1395,6338 1316,6205 1161,5953 997,5718 803,5495 523,5171 253,4802 273,4357 275,4338 276,4319 278,4299 336,4357 349,4395 375,4472 509,4814 784,5041 1108,5195 1178,5226 1178,5226 1257,5251 1264,4997 1185,4820 1066,4602 964,4405 958,4169 1012,3955 1057,3837 1103,3743 1204,3664 1313,3706 1378,3785 1453,3871 1478,3898 1503,3926 1528,3954 1540,3967 1552,3981 1564,3994 1618,4054 1675,4110 1733,4166 1732,3980 1692,3827 1625,3656 1540,3429 1493,3215 1574,2978 1671,2782 1819,2628 1971,2473 2096,2565 2214,2658 2327,2764 2340,2773 2354,2782 2368,2791 2450,2773 2450,2773 2478,2710 2531,2518 2500,2398 2407,2228 2395,2207 2382,2185 2369,2163 2345,2119 2320,2075 2296,2031 2285,2012 2274,1992 2263,1973 2194,1835 2189,1702 2228,1556 2312,1324 2452,1155 2632,992 2650,992 2667,992 2685,992 2686,1009 2688,1026 2689,1043 2712,1217 2758,1298 2896,1405 2951,1444 2951,1444 3021,1481 3132,1553 3201,1657 3236,1784 3237,1802 3239,1820 3241,1839 3324,1727 3335,1630 3320,1495 3312,1459 3303,1424 3293,1389 3227,1146 3295,976 3416,762 3427,743 3438,724 3450,704 3514,580 3509,467 3505,331 3492,291 3492,291 3479,251 L 3479,251 Z"/>
        <path fill="rgb(245,135,35)" stroke="none" d="M 3717,1336 C 3871,1396 3965,1496 4061,1627 4098,1739 4114,1863 4061,1971 4052,1988 4043,2006 4034,2024 4012,2156 4031,2264 4085,2386 4148,2539 4149,2682 4152,2845 4157,3058 4166,3224 4299,3399 4312,3418 4326,3436 4340,3455 4370,3493 4401,3531 4432,3569 4497,3654 4555,3743 4613,3833 4623,3849 4634,3865 4644,3881 4734,4022 4765,4132 4748,4299 4736,4345 4723,4392 4709,4438 4653,4624 4640,4824 4695,5013 4713,5013 4730,5013 4748,5013 4752,4994 4755,4974 4758,4954 4774,4883 4796,4826 4828,4761 4838,4739 4848,4717 4859,4694 4870,4672 4881,4649 4892,4626 4903,4603 4914,4581 4925,4557 4968,4467 5010,4382 5066,4299 5083,4299 5101,4299 5119,4299 5127,4281 5136,4264 5145,4246 5176,4532 5204,4817 5215,5104 5218,5207 5218,5207 5251,5304 5273,5275 5294,5247 5315,5218 5327,5202 5339,5186 5352,5170 5384,5117 5398,5073 5410,5013 5427,5013 5445,5013 5463,5013 5583,5483 5583,5483 5511,5634 5386,5842 5227,6023 5066,6203 5040,6233 5040,6233 5014,6263 4906,6380 4784,6469 4652,6557 4627,6574 4627,6574 4602,6592 4504,6656 4413,6701 4299,6733 4348,6643 4405,6564 4469,6485 4547,6386 4609,6288 4669,6177 4682,6158 4694,6139 4707,6120 4761,6021 4789,5920 4819,5812 4825,5791 4831,5770 4837,5748 4852,5697 4866,5646 4881,5595 4846,5625 4812,5654 4778,5684 4759,5701 4740,5717 4720,5734 4685,5766 4650,5799 4616,5833 4590,5833 4564,5833 4537,5833 4534,5818 4531,5803 4529,5787 4497,5608 4464,5430 4431,5251 4427,5228 4422,5205 4418,5181 4375,4951 4334,4752 4197,4557 4166,4510 4166,4510 4166,4457 4149,4457 4131,4457 4113,4457 4070,4409 4070,4409 4021,4345 4005,4324 3989,4303 3972,4282 3877,4146 3870,4065 3875,3902 3749,4021 3749,4021 3713,4185 3712,4228 3712,4228 3711,4271 3710,4302 3710,4333 3709,4365 3707,4431 3706,4496 3705,4562 3700,4782 3693,4931 3532,5092 3488,4953 3444,4813 3399,4669 3256,4717 3183,4760 3079,4859 3065,4871 3051,4883 3037,4896 2836,5083 2767,5296 2754,5565 2745,5728 2712,5851 2632,5992 2606,5992 2580,5992 2553,5992 2527,5905 2500,5817 2473,5727 2447,5727 2421,5727 2394,5727 2388,5742 2381,5756 2375,5771 2333,5848 2280,5912 2225,5980 2053,6204 1983,6425 1971,6706 1771,6649 1650,6566 1547,6387 1478,6249 1476,6079 1508,5929 1554,5685 1499,5522 1389,5304 1334,5174 1318,5048 1336,4907 1353,4881 1371,4855 1389,4828 1491,4870 1556,4935 1633,5013 1669,5048 1669,5048 1705,5084 1759,5145 1759,5145 1759,5198 1874,5099 1911,5003 1926,4853 1927,4758 1928,4664 1928,4570 1928,4536 1928,4501 1928,4466 1926,4251 1905,4055 1850,3847 1805,3674 1780,3499 1812,3320 1866,3244 1866,3244 1918,3188 1957,3201 1957,3201 1997,3214 2026,3280 2026,3280 2051,3367 2061,3398 2070,3429 2079,3461 2089,3494 2098,3526 2108,3560 2118,3592 2127,3625 2138,3659 2162,3740 2185,3821 2209,3902 2261,3823 2314,3745 2368,3664 2522,3819 2513,4011 2526,4219 2608,4203 2608,4203 2630,4144 2692,3936 2697,3740 2699,3525 2703,3359 2722,3234 2791,3082 2808,3082 2826,3082 2844,3082 2844,3064 2844,3047 2844,3029 2923,2976 2923,2976 3029,2976 3064,3072 3099,3168 3135,3267 3280,3180 3327,3134 3373,2976 3389,2822 3385,2667 3383,2512 3386,2230 3466,2050 3631,1825 3729,1690 3752,1610 3743,1442 3732,1379 3732,1379 3717,1336 L 3717,1336 Z"/>
        <path fill="rgb(248,218,77)" stroke="none" d="M 3875,3902 C 3878,3934 3880,3965 3882,3998 3900,4144 3975,4233 4067,4345 4113,4405 4113,4405 4113,4457 4131,4457 4148,4457 4166,4457 4380,4712 4424,5041 4484,5357 4490,5391 4497,5425 4504,5459 4526,5586 4539,5704 4537,5833 4622,5788 4687,5738 4753,5669 4828,5595 4828,5595 4881,5595 4855,5832 4797,6029 4657,6224 4616,6283 4583,6342 4550,6405 4496,6505 4433,6586 4355,6669 4320,6705 4320,6705 4325,6759 3604,7052 2847,7107 2111,6809 2055,6785 1999,6759 1944,6733 1975,6387 2057,6162 2265,5883 2282,5860 2282,5860 2300,5836 2329,5798 2361,5763 2394,5727 2420,5727 2446,5727 2473,5727 2500,5815 2526,5902 2553,5992 2579,5992 2605,5992 2632,5992 2689,5848 2716,5727 2723,5572 2739,5284 2821,5081 3029,4881 3047,4863 3064,4846 3082,4828 3182,4736 3263,4673 3399,4643 3456,4783 3512,4922 3558,5066 3647,4927 3667,4830 3669,4667 3670,4636 3671,4604 3672,4572 3673,4507 3674,4442 3675,4376 3676,4345 3677,4314 3678,4282 3678,4253 3679,4225 3679,4195 3694,4085 3741,3902 3875,3902 L 3875,3902 Z"/>
       </g>
      </g>
     </g>
    </g>
   </g>
  </g>
 </g>
</svg>