<?xml version="1.0" encoding="UTF-8" standalone="no"?>
<svg
   id="svg"
   version="1.1"
   style="display: block;"
   viewBox="0 0 214 272"
   sodipodi:docname="export-2023-02-14 201851.svg"
   inkscape:version="1.2.1 (9c6d41e410, 2022-07-14)"
   xmlns:inkscape="http://www.inkscape.org/namespaces/inkscape"
   xmlns:sodipodi="http://sodipodi.sourceforge.net/DTD/sodipodi-0.dtd"
   xmlns="http://www.w3.org/2000/svg"
   xmlns:svg="http://www.w3.org/2000/svg">
  <defs
     id="defs13" />
  <sodipodi:namedview
     id="namedview11"
     pagecolor="#ffffff"
     bordercolor="#111111"
     borderopacity="1"
     inkscape:showpageshadow="0"
     inkscape:pageopacity="0"
     inkscape:pagecheckerboard="1"
     inkscape:deskcolor="#d1d1d1"
     showgrid="false"
     inkscape:zoom="3.0772059"
     inkscape:cx="105.94026"
     inkscape:cy="136.16249"
     inkscape:window-width="1920"
     inkscape:window-height="1017"
     inkscape:window-x="-8"
     inkscape:window-y="-8"
     inkscape:window-maximized="1"
     inkscape:current-layer="svg" />
  <path
     d="M0 0 C1.02531502 3.46115152 0.78801399 6.10718312 0.27539062 9.68066406 C-0.24540743 14.06681793 -0.22572457 18.46294126 -0.25 22.875 C-0.270625 23.80441406 -0.29125 24.73382813 -0.3125 25.69140625 C-0.34807319 32.06790133 0.23708795 38.16650798 3 44 C8.45195862 49.50782512 16.39215283 51.95975409 23.39355469 54.96484375 C29.31348728 57.55744273 34.32772962 60.46736069 39 65 C39.52980469 65.50273438 40.05960938 66.00546875 40.60546875 66.5234375 C43.96545688 70.08107199 44.71167537 73.19458942 45 78 C49.26629097 74.07962451 52.67712262 70.59861511 53.21484375 64.60546875 C53.27733103 59.97446708 52.95663168 55.54400049 52 51 C62.12026447 53.41811629 72.26987497 60.16932787 78 69 C81.98904069 75.86425833 83.13148942 81.1106349 83 89 C83.67546875 88.59007813 84.3509375 88.18015625 85.046875 87.7578125 C85.93890625 87.21898438 86.8309375 86.68015625 87.75 86.125 C88.63171875 85.59132813 89.5134375 85.05765625 90.421875 84.5078125 C93 83 93 83 95.265625 81.91796875 C97.58794731 80.68881167 97.91797637 79.36692669 99 77 C99.9590625 75.9171875 99.9590625 75.9171875 100.9375 74.8125 C105.10484947 69.12975073 106.63918497 62.67621533 106.421875 55.66796875 C105.59241459 50.42239965 103.21574179 45.78398795 101 41 C100.23672371 39.17215416 99.48565463 37.33913658 98.75 35.5 C98.43546875 34.7265625 98.1209375 33.953125 97.796875 33.15625 C94.99912788 25.58587545 94.58687324 16.12183782 97.1875 8.4375 C99.05785469 4.89027558 101.12574698 2.75194438 104 0 C104.12375 1.0415625 104.2475 2.083125 104.375 3.15625 C107.1659377 23.56153227 116.98973368 39.04161501 133 52 C134.71520243 53.22807468 136.44416283 54.43720275 138.1875 55.625 C149.78662283 63.53349284 156.11856748 73.19700875 159 87 C160.91173941 105.41642296 155.5521583 123.92548815 145 139 C162.72991243 128.67949081 162.72991243 128.67949081 174 112 C174.65822061 110.66247697 175.32280046 109.32801468 176 108 C177.94365093 109.94365093 177.18692239 113.6169294 177.203125 116.26953125 C177.21009399 117.01339584 177.21706299 117.75726044 177.22424316 118.52366638 C177.2417835 120.95333388 177.2479777 123.38277156 177.25 125.8125 C177.25100708 126.63544556 177.25201416 127.45839111 177.25305176 128.30627441 C177.24268386 140.77397174 176.70745819 152.78781807 174 165 C173.85014648 165.70946777 173.70029297 166.41893555 173.54589844 167.14990234 C168.33887794 191.41063798 157.07680932 216.47877191 137 232 C135.97519531 232.85271484 135.97519531 232.85271484 134.9296875 233.72265625 C126.24929083 240.80075748 116.86863957 245.86377938 106.5 250 C105.72213135 250.31517578 104.9442627 250.63035156 104.14282227 250.95507812 C103.40475342 251.23802734 102.66668457 251.52097656 101.90625 251.8125 C101.24947266 252.06644531 100.59269531 252.32039062 99.91601562 252.58203125 C97.63674053 253.07924315 96.19496713 252.71782017 94 252 C94.80050781 251.61521484 94.80050781 251.61521484 95.6171875 251.22265625 C102.34934736 247.76339764 107.57945954 243.24105237 113 238 C113.80308594 237.23945313 114.60617188 236.47890625 115.43359375 235.6953125 C118.52644253 232.44711515 121.15790728 228.9835669 123.8125 225.375 C124.33948486 224.66279297 124.86646973 223.95058594 125.40942383 223.21679688 C126.46235943 221.7925113 127.51375025 220.36708222 128.56347656 218.94042969 C129.77398577 217.3052959 131.00571984 215.68590613 132.2421875 214.0703125 C137.43680181 207.2067458 141.59857989 199.936222 145.69921875 192.39111328 C147.14485763 189.73372079 148.60331526 187.083571 150.0625 184.43359375 C151.12554873 182.49769705 152.18805297 180.56150126 153.25 178.625 C153.74532227 177.72225342 154.24064453 176.81950684 154.75097656 175.8894043 C155.71068156 174.12956865 156.66345864 172.36593526 157.60888672 170.59838867 C158.54208074 168.85532375 159.4919103 167.12107083 160.45751953 165.39575195 C163.4052228 159.93002302 164.61545222 156.15761925 164.375 149.9375 C164.34148437 148.64714844 164.30796875 147.35679687 164.2734375 146.02734375 C164.33702532 143.12348159 164.33702532 143.12348159 163 142 C162.525625 143.093125 162.05125 144.18625 161.5625 145.3125 C159.27268371 149.26981317 156.95995825 150.28032591 152.640625 151.453125 C148.71207479 152.26673007 144.77040707 152.9207768 140.796875 153.47265625 C137.9777988 153.91069066 137.9777988 153.91069066 135.37890625 155.05078125 C132.19764898 156.32014991 129.38921209 156.13291028 126 156 C123.00515133 150.01030267 125.05729715 143.22823869 127.00170898 137.20507812 C129.09952963 131.01458059 131.42252998 125.009389 134 119 C138.02467326 109.14835872 137.51266995 95.79799692 134 85.875 C131.2967386 79.87980137 127.09906435 72.04953217 121 69 C121 68.34 121 67.68 121 67 C120.34 67 119.68 67 119 67 C119.33 67.66 119.66 68.32 120 69 C123.0971106 78.2913318 119.44773612 87.91758848 115.36328125 96.3984375 C114.68845703 97.68621094 114.68845703 97.68621094 114 99 C113.67 99 113.34 99 113 99 C112.9175 97.906875 112.835 96.81375 112.75 95.6875 C112.36310791 91.96723336 112.36310791 91.96723336 109.9375 90.0625 C109.298125 89.711875 108.65875 89.36125 108 89 C107.979375 89.70125 107.95875 90.4025 107.9375 91.125 C106.48312663 95.58507833 103.95712032 97.74556863 100 100 C90.76811145 103.69175494 80.82714451 105.73137055 71 107 C71.144375 106.45472656 71.28875 105.90945312 71.4375 105.34765625 C73.49790161 96.97727469 74.52665695 88.74875652 70 81 C67.38295038 77.86802163 64.68148221 74.84074111 61 73 C60.9175 74.051875 60.835 75.10375 60.75 76.1875 C59.92138149 80.39964409 59.04709497 82.03525894 56 85 C52.75441459 87.11668614 50.88935623 88.03705651 47 87.875 C38.73000996 85.46291957 34.85872401 80.92696464 30 74 C29.29894911 72.68442033 28.61709821 71.35698637 28 70 C29.87058497 77.48233988 33.38478091 82.56185559 38.13671875 88.49609375 C40 91 40 91 40 93 C40.66 93 41.32 93 42 93 C43.80679587 97.62369023 44.21839082 101.42528653 44.125 106.375 C44.10695313 107.62023437 44.08890625 108.86546875 44.0703125 110.1484375 C44.04710938 111.08945313 44.02390625 112.03046875 44 113 C43.34 113 42.68 113 42 113 C41.62875 111.948125 41.2575 110.89625 40.875 109.8125 C38.72368908 104.88241248 35.53146258 102.02995782 30.609375 100.02734375 C28.41896373 99.28687453 26.23002199 98.60953935 24 98 C24.33773437 98.49628906 24.67546875 98.99257812 25.0234375 99.50390625 C25.46945313 100.18324219 25.91546875 100.86257812 26.375 101.5625 C26.81585938 102.22378906 27.25671875 102.88507813 27.7109375 103.56640625 C30.74244133 109.28951803 31.36219229 114.91027205 31.3125 121.25 C31.30512817 122.37088013 31.30512817 122.37088013 31.29760742 123.5144043 C31.02286403 136.57387345 25.77404778 148.96081102 19 160 C14.25 158.125 14.25 158.125 12 157 C9.9625237 156.77141886 7.91959697 156.58975722 5.875 156.4375 C4.77929688 156.35371094 3.68359375 156.26992187 2.5546875 156.18359375 C1.71164063 156.12300781 0.86859375 156.06242188 0 156 C0.78375 156.969375 1.5675 157.93875 2.375 158.9375 C8.55404747 167.70719627 7.79836039 179.26365144 6.5 189.5 C4.62577663 204.33081104 5.76447336 216.94302937 15 229 C20.27704536 235.3203233 26.82884073 239.55171086 33.875 243.6875 C35.90651103 244.94225681 37.40359443 246.23555173 39 248 C32.66893159 247.66678587 28.1838854 244.30257041 23 241 C22.17242187 240.52433594 21.34484375 240.04867187 20.4921875 239.55859375 C1.72612411 227.82245066 -7.67884672 207.74474052 -12.57861328 186.98803711 C-15.62803812 172.60132419 -13.73528335 158.29724074 -8.8125 144.5625 C-6.59120006 138.24165809 -5.62054267 133.13513029 -8.375 126.875 C-12.07507933 122.82253216 -16.40595576 119.96333388 -21 117 C-16.31188741 113.8745916 -11.48972393 114.55142334 -6 115 C1.02922453 116.50716706 4.20255708 121.30383562 8 127 C8.99 127 9.98 127 11 127 C15.67101947 116.59447002 16.85252018 106.32959261 13.03515625 95.41015625 C9.50746745 87.19663177 5.49335668 81.85029654 -2 77 C-8.83662807 72.53913178 -13.47545537 67.79522413 -15.609375 59.68359375 C-18.80518067 37.72840882 -9.62323388 19.05314386 0 0 Z "
     transform="translate(32,11)"
     style="fill: #D92628;"
     id="path4" />
  <path
     d="M0 0 C0.66 0 1.32 0 2 0 C2 0.66 2 1.32 2 2 C2.5775 2.22816406 3.155 2.45632812 3.75 2.69140625 C10.34653788 6.52793435 15.0864607 15.54543147 17.375 22.65625 C19.60837421 34.60480203 19.03967012 46.87144517 14 58 C13.65324219 58.78246094 13.30648437 59.56492188 12.94921875 60.37109375 C12.28577726 61.84910818 11.61921637 63.3257272 10.94921875 64.80078125 C7.42752708 72.96009157 6.58877952 80.13591404 7 89 C12.27771109 87.98339172 17.52309428 86.93025734 22.72265625 85.55859375 C24.55326579 85.10957632 26.39816617 84.71902076 28.24609375 84.34765625 C29.40238281 84.10917969 30.55867187 83.87070313 31.75 83.625 C32.83796875 83.41101563 33.9259375 83.19703125 35.046875 82.9765625 C39.16714625 81.61403894 41.16965129 79.49462767 43.25 75.75 C43.62125 74.88375 43.62125 74.88375 44 74 C46.85046469 76.85046469 46.4022105 78.89007791 46.5 82.875 C46.47635347 90.00865036 44.82541031 94.90535325 41.13085938 101.0703125 C39.19191121 104.3789149 37.40075392 107.76817585 35.57910156 111.14233398 C33.57286625 114.85238046 31.54286568 118.54905693 29.50878906 122.24389648 C28.47091519 124.13977967 27.44211261 126.04064802 26.42089844 127.94555664 C23.91973488 132.60023922 21.45430056 137.09444949 18.25 141.3125 C15.54425297 144.92704756 12.88124585 148.55974358 10.28051758 152.25 C8.20876102 155.1824539 6.10832483 158.09376603 4 161 C2.99646484 162.38445312 2.99646484 162.38445312 1.97265625 163.796875 C-4.00505682 171.6693642 -11.23677877 177.82219618 -19.6875 182.9375 C-20.780625 183.618125 -21.87375 184.29875 -23 185 C-23 185.66 -23 186.32 -23 187 C-26.67387495 187.85298376 -30.0447393 188.10789471 -33.8125 188.0625 C-34.78832031 188.05347656 -35.76414062 188.04445313 -36.76953125 188.03515625 C-37.87361328 188.01775391 -37.87361328 188.01775391 -39 188 C-37.07206143 186.71470762 -35.13518192 185.44267279 -33.1875 184.1875 C-28.84905329 181.21013461 -24.95264904 178.42897356 -22 174 C-21.34 174 -20.68 174 -20 174 C-19.773125 173.484375 -19.54625 172.96875 -19.3125 172.4375 C-18 170 -18 170 -15.8125 167.1875 C-9.67142392 158.80997234 -4.1875077 147.42021372 -5 137 C-5.66478565 134.12041444 -5.66478565 134.12041444 -7 132 C-10.28976808 130.90341064 -11.71303767 131.20046862 -15 132 C-16.75317063 128.49365873 -16.19029691 124.48752707 -16.1875 120.625 C-16.18814453 119.71685547 -16.18878906 118.80871094 -16.18945312 117.87304688 C-16.14342728 112.0026601 -15.58919697 106.50108958 -14.45703125 100.734375 C-13.17505016 93.06440267 -12.86580268 84.83520624 -17 78 C-25.71360132 66.38186491 -36.00753413 61.10943686 -50 58 C-49.54625 58.495 -49.0925 58.99 -48.625 59.5 C-43.59861153 67.23290533 -44.3391125 77.02823471 -46.16821289 85.68432617 C-46.33957764 86.42787354 -46.51094238 87.1714209 -46.6875 87.9375 C-46.86466553 88.72165283 -47.04183105 89.50580566 -47.22436523 90.3137207 C-48.67995512 96.39220867 -50.90905184 101.5702344 -54 107 C-55.057976 109.31327291 -56.02874869 111.64854946 -57 114 C-57.33 114 -57.66 114 -58 114 C-58.15855469 113.154375 -58.31710938 112.30875 -58.48046875 111.4375 C-60.1606147 103.26883463 -61.74835393 96.02339276 -68.8125 91 C-69.8953125 90.505 -69.8953125 90.505 -71 90 C-70.99097656 90.53625 -70.98195312 91.0725 -70.97265625 91.625 C-71.28320383 99.83425774 -74.60116111 106.58526839 -78.01513672 113.88574219 C-90.28894711 140.02638041 -90.28894711 140.02638041 -86.97265625 168.16015625 C-86.07794313 170.77243111 -85.47344669 173.28391108 -85 176 C-94.68217421 174.76178234 -102.25773106 165.29746678 -108 158 C-115.90900182 147.52528032 -114.7972163 132.72732848 -113.23046875 120.375 C-112.35248623 111.32731571 -111.57657423 100.73238268 -117.125 93.0625 C-117.74375 92.381875 -118.3625 91.70125 -119 91 C-119 90.34 -119 89.68 -119 89 C-111.43801103 88.55298587 -106.23664375 88.46425909 -100 93 C-99.72027344 92.28328125 -99.44054687 91.5665625 -99.15234375 90.828125 C-98.03655542 88.08971568 -96.81857788 85.4265024 -95.5625 82.75 C-89.47775792 69.43177397 -85.70923781 54.04692537 -90.8125 39.75 C-92.2462483 36.30021482 -94.03537711 33.17492066 -96 30 C-89.05953274 30.52053504 -83.58745855 33.94222048 -79 39.0625 C-77 42 -77 42 -77 46 C-76.34 46 -75.68 46 -75 46 C-75.14219564 43.79142945 -75.28891847 41.58315013 -75.4375 39.375 C-75.51871094 38.14523438 -75.59992188 36.91546875 -75.68359375 35.6484375 C-75.96663944 32.38467612 -76.41038953 29.22056141 -77 26 C-77.66 26 -78.32 26 -79 26 C-80.5859375 23.98828125 -80.5859375 23.98828125 -82.375 21.3125 C-84.26151698 18.51214007 -86.04772957 15.94711047 -88.3125 13.4375 C-90.75455528 9.91008682 -91.30721032 6.18408503 -92 2 C-89.73998057 4.16557085 -87.81570914 6.43482235 -85.9375 8.9375 C-85.43089844 9.60652344 -84.92429688 10.27554688 -84.40234375 10.96484375 C-83 13 -83 13 -81.98828125 15.1796875 C-81.07872466 17.30189181 -81.07872466 17.30189181 -78.25 18.1875 C-77.1775 18.455625 -76.105 18.72375 -75 19 C-74.05125 19.309375 -73.1025 19.61875 -72.125 19.9375 C-68.13800248 20.01723995 -66.03607583 18.9508552 -62.76953125 16.74609375 C-59.72682728 13.7436905 -58.85675534 10.09636145 -58 6 C-52.24725363 8.48356451 -48.2800948 13.3841541 -45.5625 18.9375 C-44.25907208 26.0339409 -44.99730881 32.11574905 -47 39 C-27.54182 36.56657048 -27.54182 36.56657048 -12 26 C-11.30083013 23.89491632 -11.30083013 23.89491632 -11 22 C-9.125 22.625 -9.125 22.625 -7 24 C-5.75 27.125 -5.75 27.125 -5 30 C-0.2617887 20.0635569 2.76513355 11.0605342 0 0 Z "
     transform="translate(151,78)"
     style="fill: #F68722;"
     id="path6" />
  <path
     d="M0 0 C13.31090091 1.85961116 23.33847798 6.96536497 31.9375 17.5625 C37.20571399 24.83068412 37.56375641 31.19672684 37 40 C36.69528707 41.79675557 36.3613744 43.58877798 36 45.375 C34.21234614 54.76647733 34.83483479 64.48140206 35 74 C38.465 73.01 38.465 73.01 42 72 C45.75978941 75.26938209 45.89243155 77.75220599 46.3125 82.625 C46.12279857 95.40613383 35.73815434 109.50682535 27.625 118.6875 C18.4375 126.78125 18.4375 126.78125 14 129 C14.33 129.66 14.66 130.32 15 131 C0.59827212 131.6961093 -12.17648198 130.15531318 -26 126 C-26.93972656 125.71898437 -27.87945312 125.43796875 -28.84765625 125.1484375 C-34.29681133 122.24090285 -35.97563849 117.03545225 -37.6875 111.4375 C-37.89955078 110.77814453 -38.11160156 110.11878906 -38.33007812 109.43945312 C-44.14137621 91.19894337 -39.27078669 76.15164593 -30.84790039 59.55932617 C-30.16443986 58.24123523 -29.47749441 56.92494473 -28.78686523 55.6105957 C-24.90465336 48.13051645 -22.55735588 40.27061812 -21 32 C-17.12869608 32.55304342 -15.42669408 33.9666324 -13 37 C-10.06399903 42.44338866 -8.31366372 47.97904127 -7 54 C-0.56755549 41.28520136 7.09059078 24.0210709 3.36328125 9.5234375 C2.6289035 7.32388658 1.83784171 5.16189208 1 3 C0.505 1.515 0.505 1.515 0 0 Z "
     transform="translate(101,136)"
     style="fill: #F8DA4C;"
     id="path8" />
</svg>
