<?xml version="1.0" encoding="UTF-8"?>
<!DOCTYPE svg PUBLIC "-//W3C//DTD SVG 1.1//EN" "http://www.w3.org/Graphics/SVG/1.1/DTD/svg11.dtd">
<svg version="1.2" width="63.76mm" height="71.44mm" viewBox="0 0 6376 7144" preserveAspectRatio="xMidYMid" fill-rule="evenodd" stroke-width="28.222" stroke-linejoin="round" xmlns="http://www.w3.org/2000/svg" xmlns:ooo="http://xml.openoffice.org/svg/export" xmlns:xlink="http://www.w3.org/1999/xlink" xmlns:presentation="http://sun.com/xmlns/staroffice/presentation" xmlns:smil="http://www.w3.org/2001/SMIL20/" xmlns:anim="urn:oasis:names:tc:opendocument:xmlns:animation:1.0" xml:space="preserve">
 <defs class="ClipPathGroup">
  <clipPath id="presentation_clip_path" clipPathUnits="userSpaceOnUse">
   <rect x="0" y="0" width="6376" height="7144"/>
  </clipPath>
  <clipPath id="presentation_clip_path_shrink" clipPathUnits="userSpaceOnUse">
   <rect x="6" y="7" width="6364" height="7130"/>
  </clipPath>
 </defs>
 <defs class="TextShapeIndex">
  <g ooo:slide="id1" ooo:id-list="id3"/>
 </defs>
 <defs class="EmbeddedBulletChars">
  <g id="bullet-char-template-57356" transform="scale(0.00048828125,-0.00048828125)">
   <path d="M 580,1141 L 1163,571 580,0 -4,571 580,1141 Z"/>
  </g>
  <g id="bullet-char-template-57354" transform="scale(0.00048828125,-0.00048828125)">
   <path d="M 8,1128 L 1137,1128 1137,0 8,0 8,1128 Z"/>
  </g>
  <g id="bullet-char-template-10146" transform="scale(0.00048828125,-0.00048828125)">
   <path d="M 174,0 L 602,739 174,1481 1456,739 174,0 Z M 1358,739 L 309,1346 659,739 1358,739 Z"/>
  </g>
  <g id="bullet-char-template-10132" transform="scale(0.00048828125,-0.00048828125)">
   <path d="M 2015,739 L 1276,0 717,0 1260,543 174,543 174,936 1260,936 717,1481 1274,1481 2015,739 Z"/>
  </g>
  <g id="bullet-char-template-10007" transform="scale(0.00048828125,-0.00048828125)">
   <path d="M 0,-2 C -7,14 -16,27 -25,37 L 356,567 C 262,823 215,952 215,954 215,979 228,992 255,992 264,992 276,990 289,987 310,991 331,999 354,1012 L 381,999 492,748 772,1049 836,1024 860,1049 C 881,1039 901,1025 922,1006 886,937 835,863 770,784 769,783 710,716 594,584 L 774,223 C 774,196 753,168 711,139 L 727,119 C 717,90 699,76 672,76 641,76 570,178 457,381 L 164,-76 C 142,-110 111,-127 72,-127 30,-127 9,-110 8,-76 1,-67 -2,-52 -2,-32 -2,-23 -1,-13 0,-2 Z"/>
  </g>
  <g id="bullet-char-template-10004" transform="scale(0.00048828125,-0.00048828125)">
   <path d="M 285,-33 C 182,-33 111,30 74,156 52,228 41,333 41,471 41,549 55,616 82,672 116,743 169,778 240,778 293,778 328,747 346,684 L 369,508 C 377,444 397,411 428,410 L 1163,1116 C 1174,1127 1196,1133 1229,1133 1271,1133 1292,1118 1292,1087 L 1292,965 C 1292,929 1282,901 1262,881 L 442,47 C 390,-6 338,-33 285,-33 Z"/>
  </g>
  <g id="bullet-char-template-9679" transform="scale(0.00048828125,-0.00048828125)">
   <path d="M 813,0 C 632,0 489,54 383,161 276,268 223,411 223,592 223,773 276,916 383,1023 489,1130 632,1184 813,1184 992,1184 1136,1130 1245,1023 1353,916 1407,772 1407,592 1407,412 1353,268 1245,161 1136,54 992,0 813,0 Z"/>
  </g>
  <g id="bullet-char-template-8226" transform="scale(0.00048828125,-0.00048828125)">
   <path d="M 346,457 C 273,457 209,483 155,535 101,586 74,649 74,723 74,796 101,859 155,911 209,963 273,989 346,989 419,989 480,963 531,910 582,859 608,796 608,723 608,648 583,586 532,535 482,483 420,457 346,457 Z"/>
  </g>
  <g id="bullet-char-template-8211" transform="scale(0.00048828125,-0.00048828125)">
   <path d="M -4,459 L 1135,459 1135,606 -4,606 -4,459 Z"/>
  </g>
  <g id="bullet-char-template-61548" transform="scale(0.00048828125,-0.00048828125)">
   <path d="M 173,740 C 173,903 231,1043 346,1159 462,1274 601,1332 765,1332 928,1332 1067,1274 1183,1159 1299,1043 1357,903 1357,740 1357,577 1299,437 1183,322 1067,206 928,148 765,148 601,148 462,206 346,322 231,437 173,577 173,740 Z"/>
  </g>
 </defs>
 <g>
  <g id="id2" class="Master_Slide">
   <g id="bg-id2" class="Background"/>
   <g id="bo-id2" class="BackgroundObjects"/>
  </g>
 </g>
 <g class="SlideGroup">
  <g>
   <g id="container-id1">
    <g id="id1" class="Slide" clip-path="url(#presentation_clip_path)">
     <g class="Page">
      <g class="Graphic">
       <g id="id3">
        <rect class="BoundingBox" stroke="none" fill="none" x="0" y="0" width="6376" height="7144"/>
        <path fill="rgb(218,36,40)" stroke="none" d="M 3664,304 C 3636,325 3636,325 3607,346 3434,493 3312,642 3286,874 3279,1064 3322,1233 3373,1415 3391,1495 3408,1574 3426,1653 3495,1589 3547,1517 3601,1439 3688,1312 3688,1312 3717,1283 3874,1286 3874,1286 3942,1344 4031,1448 4063,1531 4066,1666 4067,1688 4068,1711 4068,1735 4070,1783 4071,1831 4072,1879 4077,2016 4090,2116 4166,2235 4229,2292 4270,2314 4351,2341 4343,2324 4334,2306 4325,2288 4300,2124 4359,2034 4440,1894 4583,1628 4645,1339 4695,1045 4713,1045 4730,1045 4748,1045 4858,1280 4865,1486 4856,1743 4853,1813 4851,1883 4850,1953 4848,1999 4848,1999 4847,2046 4855,2140 4878,2187 4933,2262 5021,2325 5115,2326 5221,2336 5380,2357 5462,2379 5568,2500 5622,2607 5610,2739 5577,2852 5554,2912 5529,2972 5502,3031 5421,3213 5370,3361 5436,3558 5445,3576 5453,3593 5462,3611 5578,3588 5652,3525 5742,3452 5902,3324 5902,3324 5991,3294 6012,3759 5940,4042 5674,4431 5702,4422 5729,4412 5758,4402 5794,4390 5831,4378 5867,4365 5886,4359 5904,4353 5923,4346 6002,4319 6066,4299 6150,4299 6167,4762 5939,5070 5648,5410 5627,5435 5607,5459 5585,5485 5444,5649 5292,5786 5120,5918 5101,5933 5081,5948 5061,5963 4909,6077 4909,6077 4801,6098 4814,6074 4827,6049 4841,6024 4858,5992 4875,5959 4892,5926 4901,5910 4909,5894 4918,5878 5030,5661 5016,5437 5014,5199 5014,5156 5014,5156 5014,5113 5014,5045 5013,4976 5013,4908 4998,4920 4984,4933 4969,4946 4950,4962 4931,4979 4912,4996 4893,5013 4874,5029 4855,5046 4794,5099 4732,5149 4669,5199 4629,5170 4629,5170 4589,5119 4561,4944 4634,4815 4722,4669 4748,4634 4774,4599 4801,4565 5096,4189 5241,3579 5213,3107 5193,2968 5147,2876 5066,2765 5066,2747 5066,2730 5066,2712 5050,2704 5034,2696 5018,2689 4960,2659 4960,2659 4880,2606 4889,2625 4898,2644 4908,2663 4972,2801 5029,2934 5066,3082 5005,3073 4943,3065 4880,3056 4894,3071 4907,3087 4920,3104 4990,3252 4983,3411 4930,3565 4817,3731 4689,3884 4510,3982 4409,4000 4409,4000 4325,3982 4257,3918 4247,3867 4241,3776 4241,3703 4242,3631 4246,3558 4237,3576 4228,3593 4219,3611 4202,3611 4184,3611 4166,3611 4160,3627 4153,3643 4146,3659 4109,3725 4070,3755 4008,3796 3976,3705 3948,3614 3922,3521 3775,2993 3562,2575 3167,2188 3050,2072 2997,1996 2994,1832 2997,1716 2997,1716 3029,1653 3011,1653 2994,1653 2976,1653 2976,1671 2976,1688 2976,1706 2958,1706 2941,1706 2923,1706 2915,1726 2908,1746 2900,1766 2870,1839 2870,1839 2842,1886 2783,2023 2793,2208 2835,2350 2861,2403 2890,2451 2923,2500 2937,2521 2950,2542 2964,2564 2992,2606 3020,2647 3048,2688 3115,2787 3114,2857 3108,2976 3082,3041 3082,3041 3055,3082 3038,3082 3020,3082 3002,3082 2994,3047 2985,3012 2976,2976 2897,2950 2819,2924 2738,2897 2729,3106 2720,3316 2711,3532 2652,3473 2603,3416 2551,3352 2446,3230 2323,3157 2182,3082 2195,3100 2207,3117 2220,3136 2424,3437 2485,3727 2447,4087 2416,4201 2369,4301 2315,4405 2161,4681 2161,4681 2103,4987 2058,4953 2014,4918 1971,4881 1971,4864 1971,4846 1971,4828 1953,4828 1936,4828 1918,4828 1881,4791 1881,4791 1838,4739 1723,4602 1596,4477 1468,4352 1430,4384 1430,4384 1433,4479 1436,4718 1542,4937 1652,5144 1725,5287 1723,5410 1675,5561 1625,5652 1582,5698 1495,5754 1477,5754 1460,5754 1442,5754 1428,5717 1415,5679 1402,5642 1395,5621 1387,5600 1380,5578 1362,5516 1362,5516 1362,5410 1345,5410 1327,5410 1309,5410 1202,5666 1205,5933 1256,6204 1230,6195 1204,6186 1177,6177 1177,6160 1177,6142 1177,6124 1107,6107 1037,6090 966,6072 966,6054 966,6037 966,6019 938,6018 911,6018 883,6017 765,5988 729,5959 657,5866 531,5658 485,5438 489,5199 529,5250 566,5299 595,5357 621,5366 648,5375 675,5384 699,5036 602,4846 398,4572 317,4451 298,4357 301,4211 301,4183 302,4155 302,4126 303,4104 304,4083 304,4061 322,4061 339,4061 357,4061 391,4107 391,4107 430,4168 524,4314 628,4474 780,4564 807,4564 833,4564 860,4564 889,4403 869,4297 776,4161 743,4117 710,4073 676,4029 598,3923 593,3849 592,3720 587,3526 568,3365 488,3188 420,3036 375,2905 410,2738 427,2712 445,2686 463,2659 480,2659 498,2659 516,2659 525,2690 534,2721 544,2753 594,2888 681,2964 787,3059 973,3234 1083,3400 1177,3638 1186,3577 1195,3515 1204,3452 1345,3469 1445,3528 1539,3636 1659,3793 1683,3892 1680,4087 1881,3950 1881,3950 1997,3743 2017,3627 2004,3554 1939,3457 1849,3346 1737,3263 1620,3179 1484,3081 1349,2960 1309,2791 1304,2612 1355,2479 1468,2341 1562,2247 1674,2175 1786,2103 1812,2116 1812,2116 1838,2130 1821,2148 1804,2167 1786,2186 1724,2275 1719,2314 1733,2421 1765,2505 1765,2505 1838,2553 1974,2560 1974,2560 2103,2527 2197,2378 2196,2221 2182,2050 2170,2003 2157,1955 2143,1908 2090,1732 2055,1534 2126,1359 2226,1221 2390,1160 2541,1092 2695,1013 2800,908 2905,772 3102,527 3327,276 3664,304 L 3664,304 Z"/>
        <path fill="rgb(246,135,35)" stroke="none" d="M 3029,1627 C 3029,1706 3029,1706 3022,1764 3012,1899 3023,1982 3106,2092 3177,2173 3252,2246 3330,2320 3712,2694 3918,3251 4008,3770 4101,3703 4101,3703 4166,3611 4184,3611 4201,3611 4219,3611 4232,3572 4232,3572 4246,3532 4276,3623 4272,3694 4268,3790 4273,3856 4292,3898 4325,3955 4433,3964 4494,3965 4588,3909 4804,3725 4804,3725 4933,3479 4937,3432 4938,3384 4938,3337 4939,3312 4939,3287 4939,3262 4933,3184 4913,3126 4880,3056 4942,3064 5003,3073 5066,3082 5052,3052 5039,3022 5025,2991 5008,2952 4990,2913 4973,2874 4964,2854 4955,2834 4946,2814 4934,2786 4934,2786 4921,2757 4913,2739 4905,2722 4897,2704 4880,2659 4880,2659 4880,2606 5041,2671 5129,2794 5202,2945 5238,3039 5243,3126 5243,3226 5242,3247 5242,3268 5242,3290 5223,3806 5018,4335 4708,4744 4624,4867 4605,4970 4616,5119 4633,5137 4651,5154 4669,5172 4702,5143 4736,5114 4770,5084 4788,5068 4807,5052 4826,5035 4880,4989 4880,4989 4924,4941 4960,4908 4960,4908 5013,4908 5114,5212 5058,5642 4918,5924 4907,5946 4895,5967 4884,5989 4851,6047 4851,6047 4828,6124 4776,6167 4776,6167 4712,6209 4691,6223 4670,6237 4648,6251 4589,6283 4589,6283 4510,6283 4504,6241 4504,6241 4499,6197 4488,6126 4475,6061 4457,5992 4431,6002 4405,6012 4378,6022 4344,6035 4310,6047 4275,6060 4258,6067 4241,6073 4223,6080 4178,6096 4133,6110 4087,6124 4069,6116 4052,6107 4034,6098 4043,6072 4051,6046 4060,6019 4078,6019 4095,6019 4113,6019 4101,5821 4101,5821 4008,5648 3990,5640 3973,5631 3955,5622 3937,5657 3920,5692 3902,5728 3876,5719 3849,5710 3822,5701 3822,5655 3821,5609 3821,5562 3820,5536 3820,5511 3820,5484 3822,5418 3832,5368 3849,5304 3887,5000 3809,4835 3637,4590 3602,4532 3567,4474 3533,4415 3518,4389 3503,4364 3488,4338 3436,4244 3422,4174 3424,4069 3424,4048 3424,4026 3425,4004 3425,3988 3425,3972 3426,3955 3280,4097 3218,4185 3210,4388 3211,4436 3211,4436 3211,4484 3211,4516 3211,4548 3210,4580 3211,4665 3211,4665 3227,4732 3279,5000 3277,5306 3135,5542 3117,5542 3100,5542 3082,5542 3042,5464 3002,5386 2963,5308 2951,5285 2940,5263 2928,5240 2918,5219 2907,5198 2896,5176 2886,5156 2876,5136 2865,5116 2844,5066 2844,5066 2844,5013 2728,5058 2728,5058 2653,5151 2628,5240 2632,5309 2640,5400 2643,5430 2646,5460 2648,5491 2656,5570 2656,5570 2685,5648 2692,5776 2681,5874 2632,5992 2579,6045 2579,6045 2500,6045 2460,5995 2460,5995 2420,5929 2370,5847 2344,5809 2262,5754 2244,5754 2227,5754 2209,5754 2202,5769 2195,5783 2187,5799 2141,5890 2086,5976 2033,6063 1977,6160 1965,6244 1956,6354 1954,6381 1951,6407 1949,6434 1947,6454 1946,6474 1944,6495 1780,6484 1642,6454 1491,6389 1472,6381 1453,6373 1434,6365 1231,6277 1045,6164 860,6045 895,6036 930,6028 966,6019 966,6036 966,6054 966,6072 999,6079 1032,6086 1066,6093 1151,6114 1204,6131 1256,6204 1244,6171 1244,6171 1231,6137 1163,5908 1174,5660 1286,5448 1294,5436 1302,5423 1309,5410 1327,5410 1344,5410 1362,5410 1388,5524 1415,5637 1442,5754 1579,5678 1632,5619 1680,5463 1709,5277 1623,5125 1547,4960 1528,4916 1508,4872 1488,4828 1480,4810 1471,4792 1463,4774 1424,4680 1411,4595 1410,4494 1410,4474 1409,4453 1409,4432 1415,4378 1415,4378 1468,4325 1543,4399 1618,4473 1693,4547 1714,4568 1736,4589 1758,4611 1788,4641 1788,4641 1819,4672 1838,4690 1857,4709 1877,4728 1918,4775 1918,4775 1918,4828 1935,4828 1953,4828 1971,4828 1971,4846 1971,4863 1971,4881 1997,4890 2023,4899 2050,4908 2059,4925 2068,4942 2077,4960 2081,4930 2085,4899 2090,4868 2122,4718 2191,4590 2261,4456 2430,4136 2477,3834 2377,3481 2326,3331 2252,3207 2156,3082 2305,3082 2427,3195 2529,3297 2648,3431 2648,3431 2685,3505 2702,3305 2720,3104 2738,2897 2870,2897 2870,2897 2944,2960 3002,3029 3002,3029 3002,3082 3020,3082 3037,3082 3055,3082 3095,2959 3109,2846 3050,2727 3009,2659 2966,2593 2923,2527 2803,2323 2765,2185 2791,1944 2825,1857 2868,1782 2923,1706 2940,1706 2958,1706 2976,1706 2976,1689 2976,1671 2976,1653 2993,1645 3011,1636 3029,1627 L 3029,1627 Z"/>
        <path fill="rgb(248,217,78)" stroke="none" d="M 3373,3955 C 3390,3955 3408,3955 3426,3955 3427,3974 3429,3994 3431,4013 3463,4276 3571,4460 3723,4673 3869,4888 3908,5046 3875,5304 3871,5322 3866,5340 3861,5358 3845,5427 3846,5492 3847,5562 3847,5588 3848,5614 3848,5641 3848,5661 3848,5681 3849,5701 3931,5684 3931,5684 3955,5622 4018,5647 4053,5664 4090,5722 4116,5788 4119,5836 4117,5906 4116,5927 4116,5948 4115,5970 4115,5986 4114,6002 4113,6019 4096,6019 4078,6019 4060,6019 4069,6045 4078,6071 4087,6098 4107,6090 4127,6083 4148,6075 4174,6065 4200,6055 4227,6045 4253,6035 4280,6025 4306,6015 4378,5992 4378,5992 4457,5992 4520,6093 4525,6193 4537,6310 4234,6450 3941,6545 3611,6601 3579,6606 3547,6612 3514,6617 2965,6699 2397,6682 1865,6521 1904,6508 1904,6508 1944,6495 1942,6478 1941,6460 1939,6442 1924,6193 2012,6012 2156,5813 2209,5754 2209,5754 2288,5728 2319,5760 2349,5794 2379,5827 2404,5854 2404,5854 2430,5883 2473,5939 2489,5976 2500,6045 2600,5998 2600,5998 2653,5906 2662,5775 2663,5658 2632,5529 2599,5388 2586,5275 2640,5137 2685,5066 2685,5066 2764,5013 2790,5013 2817,5013 2844,5013 2883,5092 2923,5170 2963,5248 2974,5270 2985,5293 2997,5316 3008,5337 3019,5358 3030,5380 3045,5410 3045,5410 3060,5440 3082,5490 3082,5490 3082,5542 3099,5542 3117,5542 3135,5542 3202,5373 3225,5228 3221,5046 3220,5014 3220,5014 3220,4980 3219,4873 3210,4775 3187,4669 3164,4205 3164,4205 3307,4023 3328,4001 3350,3978 3373,3955 L 3373,3955 Z"/>
       </g>
      </g>
     </g>
    </g>
   </g>
  </g>
 </g>
</svg>