<?xml version="1.0" encoding="UTF-8"?>
<!DOCTYPE svg PUBLIC "-//W3C//DTD SVG 1.1//EN" "http://www.w3.org/Graphics/SVG/1.1/DTD/svg11.dtd">
<svg version="1.2" width="52.39mm" height="68mm" viewBox="0 0 5239 6800" preserveAspectRatio="xMidYMid" fill-rule="evenodd" stroke-width="28.222" stroke-linejoin="round" xmlns="http://www.w3.org/2000/svg" xmlns:ooo="http://xml.openoffice.org/svg/export" xmlns:xlink="http://www.w3.org/1999/xlink" xmlns:presentation="http://sun.com/xmlns/staroffice/presentation" xmlns:smil="http://www.w3.org/2001/SMIL20/" xmlns:anim="urn:oasis:names:tc:opendocument:xmlns:animation:1.0" xml:space="preserve">
 <defs class="ClipPathGroup">
  <clipPath id="presentation_clip_path" clipPathUnits="userSpaceOnUse">
   <rect x="0" y="0" width="5239" height="6800"/>
  </clipPath>
  <clipPath id="presentation_clip_path_shrink" clipPathUnits="userSpaceOnUse">
   <rect x="5" y="6" width="5229" height="6787"/>
  </clipPath>
 </defs>
 <defs class="TextShapeIndex">
  <g ooo:slide="id1" ooo:id-list="id3"/>
 </defs>
 <defs class="EmbeddedBulletChars">
  <g id="bullet-char-template-57356" transform="scale(0.00048828125,-0.00048828125)">
   <path d="M 580,1141 L 1163,571 580,0 -4,571 580,1141 Z"/>
  </g>
  <g id="bullet-char-template-57354" transform="scale(0.00048828125,-0.00048828125)">
   <path d="M 8,1128 L 1137,1128 1137,0 8,0 8,1128 Z"/>
  </g>
  <g id="bullet-char-template-10146" transform="scale(0.00048828125,-0.00048828125)">
   <path d="M 174,0 L 602,739 174,1481 1456,739 174,0 Z M 1358,739 L 309,1346 659,739 1358,739 Z"/>
  </g>
  <g id="bullet-char-template-10132" transform="scale(0.00048828125,-0.00048828125)">
   <path d="M 2015,739 L 1276,0 717,0 1260,543 174,543 174,936 1260,936 717,1481 1274,1481 2015,739 Z"/>
  </g>
  <g id="bullet-char-template-10007" transform="scale(0.00048828125,-0.00048828125)">
   <path d="M 0,-2 C -7,14 -16,27 -25,37 L 356,567 C 262,823 215,952 215,954 215,979 228,992 255,992 264,992 276,990 289,987 310,991 331,999 354,1012 L 381,999 492,748 772,1049 836,1024 860,1049 C 881,1039 901,1025 922,1006 886,937 835,863 770,784 769,783 710,716 594,584 L 774,223 C 774,196 753,168 711,139 L 727,119 C 717,90 699,76 672,76 641,76 570,178 457,381 L 164,-76 C 142,-110 111,-127 72,-127 30,-127 9,-110 8,-76 1,-67 -2,-52 -2,-32 -2,-23 -1,-13 0,-2 Z"/>
  </g>
  <g id="bullet-char-template-10004" transform="scale(0.00048828125,-0.00048828125)">
   <path d="M 285,-33 C 182,-33 111,30 74,156 52,228 41,333 41,471 41,549 55,616 82,672 116,743 169,778 240,778 293,778 328,747 346,684 L 369,508 C 377,444 397,411 428,410 L 1163,1116 C 1174,1127 1196,1133 1229,1133 1271,1133 1292,1118 1292,1087 L 1292,965 C 1292,929 1282,901 1262,881 L 442,47 C 390,-6 338,-33 285,-33 Z"/>
  </g>
  <g id="bullet-char-template-9679" transform="scale(0.00048828125,-0.00048828125)">
   <path d="M 813,0 C 632,0 489,54 383,161 276,268 223,411 223,592 223,773 276,916 383,1023 489,1130 632,1184 813,1184 992,1184 1136,1130 1245,1023 1353,916 1407,772 1407,592 1407,412 1353,268 1245,161 1136,54 992,0 813,0 Z"/>
  </g>
  <g id="bullet-char-template-8226" transform="scale(0.00048828125,-0.00048828125)">
   <path d="M 346,457 C 273,457 209,483 155,535 101,586 74,649 74,723 74,796 101,859 155,911 209,963 273,989 346,989 419,989 480,963 531,910 582,859 608,796 608,723 608,648 583,586 532,535 482,483 420,457 346,457 Z"/>
  </g>
  <g id="bullet-char-template-8211" transform="scale(0.00048828125,-0.00048828125)">
   <path d="M -4,459 L 1135,459 1135,606 -4,606 -4,459 Z"/>
  </g>
  <g id="bullet-char-template-61548" transform="scale(0.00048828125,-0.00048828125)">
   <path d="M 173,740 C 173,903 231,1043 346,1159 462,1274 601,1332 765,1332 928,1332 1067,1274 1183,1159 1299,1043 1357,903 1357,740 1357,577 1299,437 1183,322 1067,206 928,148 765,148 601,148 462,206 346,322 231,437 173,577 173,740 Z"/>
  </g>
 </defs>
 <g>
  <g id="id2" class="Master_Slide">
   <g id="bg-id2" class="Background"/>
   <g id="bo-id2" class="BackgroundObjects"/>
  </g>
 </g>
 <g class="SlideGroup">
  <g>
   <g id="container-id1">
    <g id="id1" class="Slide" clip-path="url(#presentation_clip_path)">
     <g class="Page">
      <g class="Graphic">
       <g id="id3">
        <rect class="BoundingBox" stroke="none" fill="none" x="0" y="0" width="5239" height="6800"/>
        <path fill="rgb(218,36,41)" stroke="none" d="M 2659,278 C 2645,299 2645,299 2631,321 2619,340 2607,359 2594,379 2582,397 2570,416 2558,435 2488,556 2490,671 2500,807 2523,897 2523,897 2553,966 2571,943 2590,921 2609,898 2685,833 2685,833 2766,832 2880,873 2927,929 2990,1031 3042,1154 3052,1272 3065,1404 3093,1638 3139,1836 3241,2050 3293,2043 3293,2043 3347,2024 3381,1945 3381,1945 3399,1865 3459,1867 3459,1867 3532,1892 3646,2037 3654,2160 3638,2341 3633,2366 3629,2391 3624,2417 3598,2584 3590,2752 3642,2913 3697,2985 3737,3006 3823,3029 3823,2942 3823,2855 3823,2765 3926,2790 3959,2808 4036,2875 4054,2890 4072,2906 4090,2921 4206,3049 4229,3160 4224,3330 4223,3379 4223,3379 4222,3430 4221,3455 4220,3480 4220,3505 4396,3365 4550,3224 4592,2993 4602,2827 4525,2689 4453,2543 4352,2321 4339,2079 4408,1844 4458,1717 4532,1601 4616,1495 4625,1495 4634,1495 4643,1495 4645,1534 4645,1534 4648,1574 4679,1955 4832,2231 5050,2542 5130,2662 5145,2783 5119,2923 5069,3052 5001,3173 4935,3294 4894,3371 4855,3449 4816,3527 4798,3564 4798,3564 4778,3602 4736,3690 4719,3758 4720,3854 4721,3904 4721,3904 4722,3955 4736,3945 4751,3935 4766,3925 4794,3906 4794,3906 4823,3887 4842,3875 4860,3862 4880,3849 4934,3823 4934,3823 5013,3849 5118,3993 5112,4155 5093,4325 5038,4517 4922,4698 4749,4802 4722,4802 4696,4802 4669,4802 4669,4819 4669,4837 4669,4855 4707,4860 4707,4860 4745,4866 4828,4907 4828,4907 4864,5000 4884,5129 4889,5260 4892,5390 4894,5421 4894,5421 4895,5453 4896,5564 4893,5607 4820,5696 4796,5715 4773,5734 4749,5754 4726,5778 4726,5778 4703,5803 4375,6153 3948,6400 3500,6563 3481,6570 3462,6577 3443,6584 3279,6640 3279,6640 3188,6601 3204,6594 3221,6588 3238,6581 3668,6413 4079,6150 4299,5728 4319,5639 4327,5554 4325,5463 4308,5463 4290,5463 4272,5463 4255,5498 4237,5533 4220,5569 4202,5569 4185,5569 4167,5569 4195,5438 4222,5336 4299,5225 4145,5254 4145,5254 4029,5349 4001,5430 3977,5512 3955,5595 3903,5587 3850,5578 3796,5569 3787,5621 3779,5674 3770,5728 3730,5698 3730,5698 3690,5648 3674,5525 3695,5455 3770,5357 3823,5313 3875,5269 3929,5225 3996,5129 3983,5041 3978,4927 3973,4719 4014,4598 4147,4440 4201,4368 4203,4333 4193,4246 4176,4246 4158,4246 4140,4246 4134,4261 4128,4277 4122,4292 4053,4411 3949,4467 3823,4511 3871,4385 3871,4385 3903,4332 4004,4094 3926,3804 3846,3571 3838,3550 3831,3528 3823,3505 3767,3355 3692,3228 3585,3108 3576,3108 3567,3108 3558,3108 3562,3127 3567,3146 3571,3166 3608,3370 3608,3610 3505,3796 3449,3817 3449,3817 3399,3823 3270,3690 3270,3690 3257,3565 3267,3479 3267,3479 3294,3426 3269,3439 3244,3451 3219,3464 3135,3505 3135,3505 3056,3532 3047,3575 3038,3619 3029,3664 3012,3664 2994,3664 2976,3664 2930,3572 2957,3471 2976,3373 3002,3320 3029,3267 3056,3214 3073,3134 3073,3134 3056,3056 3002,2990 2944,2939 2877,2887 2787,2815 2732,2762 2688,2654 2659,2587 2643,2559 2579,2522 2454,2477 2341,2465 2209,2474 2217,2487 2224,2500 2232,2513 2302,2641 2327,2726 2315,2870 2240,2870 2176,2860 2103,2844 2026,2930 2014,2987 2012,3101 2011,3130 2011,3159 2010,3189 2009,3234 2009,3234 2009,3280 2008,3340 2007,3400 2005,3460 2005,3486 2005,3513 2004,3540 1997,3612 1981,3656 1944,3717 1892,3691 1892,3691 1839,3664 1839,3638 1839,3612 1839,3585 1799,3598 1799,3598 1759,3611 1714,3748 1725,3862 1772,3996 1807,4093 1827,4169 1812,4273 1776,4335 1776,4335 1733,4378 1715,4378 1698,4378 1680,4378 1662,4335 1645,4291 1627,4246 1504,4355 1504,4355 1466,4506 1466,4535 1466,4564 1467,4593 1467,4622 1467,4651 1467,4681 1468,4703 1468,4726 1468,4749 1451,4757 1433,4766 1415,4775 1424,4793 1433,4810 1442,4828 1454,4852 1466,4875 1478,4899 1490,4922 1501,4945 1513,4969 1567,5080 1608,5170 1607,5294 1607,5324 1607,5324 1608,5355 1600,5410 1601,5410 1548,5489 1495,5481 1443,5472 1389,5463 1476,5834 1669,6258 1918,6548 2017,6606 2123,6636 2235,6653 2235,6662 2235,6671 2235,6680 2068,6688 1932,6663 1772,6614 1738,6603 1738,6603 1703,6592 1480,6521 1275,6425 1071,6310 1045,6295 1018,6280 991,6264 828,6167 692,6050 554,5920 504,5873 454,5832 398,5792 243,5644 212,5458 198,5251 292,5297 377,5351 463,5410 373,5219 281,5044 146,4881 358,4886 496,4943 649,5092 787,5242 787,5242 807,5357 842,5331 877,5305 913,5278 978,5308 1020,5332 1071,5384 1071,5410 1071,5436 1071,5463 1098,5463 1124,5463 1151,5463 1169,5300 1169,5300 1125,5146 1031,5031 911,4955 789,4873 655,4776 587,4671 542,4511 537,4450 534,4389 532,4329 522,4175 511,4050 410,3929 351,3878 291,3833 228,3787 152,3728 108,3672 66,3585 60,3482 60,3482 66,3399 78,3409 89,3419 101,3429 294,3581 507,3712 754,3743 712,3712 712,3712 670,3681 552,3580 496,3461 437,3320 427,3300 418,3279 409,3258 366,3139 373,3019 374,2894 374,2865 374,2837 374,2808 380,2384 462,1892 728,1548 736,1548 745,1548 754,1548 755,1576 755,1605 756,1634 769,2009 850,2308 1045,2632 1161,2567 1222,2515 1283,2394 1309,2251 1279,2149 1204,2024 1343,2015 1429,2028 1548,2103 1624,2171 1624,2171 1680,2235 1680,2253 1680,2270 1680,2288 1697,2288 1715,2288 1733,2288 1751,2034 1644,1883 1502,1679 1435,1575 1430,1484 1442,1362 1495,1252 1575,1173 1670,1096 1786,1001 1831,899 1863,754 1899,606 1954,517 2085,435 2193,386 2305,348 2417,309 2435,303 2453,297 2471,291 2599,248 2599,248 2659,278 L 2659,278 Z"/>
        <path fill="rgb(246,135,35)" stroke="none" d="M 2182,2447 C 2358,2434 2509,2455 2659,2553 2698,2609 2725,2665 2753,2728 2814,2830 2905,2890 3000,2960 3055,3003 3055,3003 3082,3056 3095,3165 3076,3234 3029,3330 2972,3448 2967,3534 2976,3664 2994,3664 3011,3664 3029,3664 3030,3644 3031,3625 3032,3605 3065,3501 3121,3476 3214,3426 3240,3426 3267,3426 3294,3426 3292,3442 3291,3457 3290,3473 3285,3585 3284,3647 3342,3745 3396,3805 3396,3805 3479,3796 3570,3546 3578,3317 3532,3056 3686,3163 3751,3280 3823,3452 3835,3482 3848,3512 3860,3543 3957,3800 4026,4085 3925,4352 3894,4409 3862,4460 3823,4511 3960,4423 4081,4338 4193,4220 4202,4220 4211,4220 4220,4220 4230,4350 4211,4406 4129,4506 4019,4654 4003,4763 4011,4943 4017,5115 3973,5196 3859,5327 3823,5357 3823,5357 3770,5357 3722,5458 3709,5537 3717,5648 3726,5666 3734,5683 3743,5701 3761,5657 3778,5614 3796,5569 3849,5578 3901,5586 3955,5595 3957,5567 3958,5540 3960,5511 3985,5391 4021,5355 4114,5278 4141,5253 4141,5253 4168,5228 4220,5198 4219,5198 4279,5207 4294,5213 4310,5219 4325,5225 4309,5252 4293,5279 4276,5308 4227,5392 4194,5475 4167,5569 4183,5551 4199,5534 4216,5516 4272,5463 4272,5463 4325,5463 4349,5593 4346,5691 4281,5807 3960,6242 3960,6242 3743,6336 3739,6317 3734,6297 3729,6277 3672,6034 3672,6034 3505,5860 3422,5868 3422,5868 3346,5886 3346,5904 3346,5921 3346,5939 3329,5939 3312,5939 3294,5939 3299,5924 3305,5908 3311,5892 3409,5603 3379,5335 3320,5040 3214,5099 3166,5144 3108,5251 3100,5251 3091,5251 3082,5251 3079,5227 3077,5203 3074,5178 3051,4987 3027,4833 2923,4669 2897,4652 2871,4634 2844,4616 2844,4599 2844,4582 2844,4564 2826,4558 2808,4552 2789,4545 2674,4494 2565,4430 2488,4327 2469,4255 2470,4188 2473,4114 2385,4194 2346,4259 2332,4379 2330,4604 2365,4779 2447,4987 2462,5031 2477,5076 2492,5121 2498,5139 2504,5157 2510,5176 2543,5274 2556,5348 2556,5451 2556,5490 2556,5490 2556,5529 2553,5595 2553,5595 2526,5648 2447,5613 2398,5577 2342,5512 2328,5496 2314,5480 2300,5463 2286,5446 2271,5429 2257,5412 2242,5395 2228,5378 2213,5361 2107,5235 2107,5235 2077,5146 2059,5146 2042,5146 2024,5146 1989,5451 1954,5757 1918,6071 1900,6071 1883,6071 1865,6071 1854,6046 1854,6046 1842,6020 1817,5962 1817,5962 1759,5939 1759,5922 1759,5904 1759,5886 1742,5886 1724,5886 1706,5886 1706,5991 1706,6096 1706,6204 1623,6120 1582,6040 1534,5934 1526,5916 1518,5899 1510,5880 1355,5538 1355,5538 1389,5437 1441,5445 1494,5454 1548,5463 1578,5402 1578,5364 1579,5296 1580,5266 1580,5266 1580,5235 1566,5089 1481,4961 1413,4834 1401,4805 1401,4805 1389,4775 1402,4749 1402,4749 1415,4722 1433,4731 1450,4740 1468,4749 1459,4731 1451,4714 1442,4696 1427,4563 1428,4460 1488,4339 1542,4278 1578,4247 1653,4220 1662,4272 1671,4324 1680,4378 1739,4341 1739,4341 1786,4273 1792,4160 1767,4057 1731,3952 1694,3839 1687,3737 1733,3626 1742,3612 1750,3599 1759,3585 1785,3585 1812,3585 1839,3585 1839,3611 1839,3637 1839,3664 1874,3673 1908,3682 1944,3691 1972,3608 1975,3550 1976,3463 1976,3434 1977,3405 1977,3376 1979,3315 1979,3254 1980,3193 1986,2969 1986,2969 2051,2863 2068,2848 2086,2833 2103,2817 2229,2841 2229,2841 2288,2870 2302,2705 2257,2594 2182,2447 L 2182,2447 Z"/>
        <path fill="rgb(248,216,77)" stroke="none" d="M 2473,4087 C 2500,4167 2500,4167 2507,4243 2533,4351 2574,4387 2659,4458 2689,4476 2720,4494 2751,4511 2928,4608 2998,4723 3061,4911 3090,5016 3101,5116 3108,5225 3124,5199 3139,5174 3155,5147 3217,5063 3225,5056 3320,5040 3417,5364 3447,5630 3294,5939 3311,5939 3329,5939 3346,5939 3346,5922 3346,5904 3346,5886 3426,5833 3426,5833 3477,5837 3616,5895 3668,6012 3723,6144 3748,6219 3751,6284 3743,6362 3366,6583 3366,6583 3188,6601 3188,6618 3188,6636 3188,6653 2966,6697 2753,6715 2526,6713 2497,6713 2468,6713 2438,6714 2410,6714 2382,6714 2353,6713 2328,6713 2303,6713 2277,6713 2206,6706 2165,6688 2103,6653 2061,6641 2061,6641 2017,6629 1866,6562 1773,6429 1706,6283 1683,6151 1693,6019 1706,5886 1724,5886 1741,5886 1759,5886 1759,5904 1759,5921 1759,5939 1794,5957 1829,5974 1865,5992 1865,6018 1865,6044 1865,6071 1883,6071 1900,6071 1918,6071 1920,6033 1920,6033 1922,5995 1933,5796 1948,5598 1971,5400 1974,5371 1974,5371 1978,5342 1994,5205 1994,5205 2024,5146 2041,5146 2059,5146 2077,5146 2116,5189 2153,5234 2189,5279 2210,5306 2231,5332 2253,5360 2274,5385 2294,5410 2315,5437 2407,5558 2407,5558 2526,5648 2536,5428 2524,5246 2447,5040 2438,5014 2429,4988 2419,4961 2401,4911 2383,4861 2364,4811 2300,4637 2269,4419 2337,4241 2376,4183 2424,4137 2473,4087 L 2473,4087 Z"/>
       </g>
      </g>
     </g>
    </g>
   </g>
  </g>
 </g>
</svg>