<?xml version="1.0" encoding="UTF-8"?>
<!DOCTYPE svg PUBLIC "-//W3C//DTD SVG 1.1//EN" "http://www.w3.org/Graphics/SVG/1.1/DTD/svg11.dtd">
<svg version="1.2" width="135.47mm" height="135.47mm" viewBox="0 0 13547 13547" preserveAspectRatio="xMidYMid" fill-rule="evenodd" stroke-width="28.222" stroke-linejoin="round" xmlns="http://www.w3.org/2000/svg" xmlns:ooo="http://xml.openoffice.org/svg/export" xmlns:xlink="http://www.w3.org/1999/xlink" xmlns:presentation="http://sun.com/xmlns/staroffice/presentation" xmlns:smil="http://www.w3.org/2001/SMIL20/" xmlns:anim="urn:oasis:names:tc:opendocument:xmlns:animation:1.0" xml:space="preserve">
 <defs class="ClipPathGroup">
  <clipPath id="presentation_clip_path" clipPathUnits="userSpaceOnUse">
   <rect x="0" y="0" width="13547" height="13547"/>
  </clipPath>
  <clipPath id="presentation_clip_path_shrink" clipPathUnits="userSpaceOnUse">
   <rect x="13" y="13" width="13520" height="13520"/>
  </clipPath>
 </defs>
 <defs class="TextShapeIndex">
  <g ooo:slide="id1" ooo:id-list="id3"/>
 </defs>
 <defs class="EmbeddedBulletChars">
  <g id="bullet-char-template-57356" transform="scale(0.00048828125,-0.00048828125)">
   <path d="M 580,1141 L 1163,571 580,0 -4,571 580,1141 Z"/>
  </g>
  <g id="bullet-char-template-57354" transform="scale(0.00048828125,-0.00048828125)">
   <path d="M 8,1128 L 1137,1128 1137,0 8,0 8,1128 Z"/>
  </g>
  <g id="bullet-char-template-10146" transform="scale(0.00048828125,-0.00048828125)">
   <path d="M 174,0 L 602,739 174,1481 1456,739 174,0 Z M 1358,739 L 309,1346 659,739 1358,739 Z"/>
  </g>
  <g id="bullet-char-template-10132" transform="scale(0.00048828125,-0.00048828125)">
   <path d="M 2015,739 L 1276,0 717,0 1260,543 174,543 174,936 1260,936 717,1481 1274,1481 2015,739 Z"/>
  </g>
  <g id="bullet-char-template-10007" transform="scale(0.00048828125,-0.00048828125)">
   <path d="M 0,-2 C -7,14 -16,27 -25,37 L 356,567 C 262,823 215,952 215,954 215,979 228,992 255,992 264,992 276,990 289,987 310,991 331,999 354,1012 L 381,999 492,748 772,1049 836,1024 860,1049 C 881,1039 901,1025 922,1006 886,937 835,863 770,784 769,783 710,716 594,584 L 774,223 C 774,196 753,168 711,139 L 727,119 C 717,90 699,76 672,76 641,76 570,178 457,381 L 164,-76 C 142,-110 111,-127 72,-127 30,-127 9,-110 8,-76 1,-67 -2,-52 -2,-32 -2,-23 -1,-13 0,-2 Z"/>
  </g>
  <g id="bullet-char-template-10004" transform="scale(0.00048828125,-0.00048828125)">
   <path d="M 285,-33 C 182,-33 111,30 74,156 52,228 41,333 41,471 41,549 55,616 82,672 116,743 169,778 240,778 293,778 328,747 346,684 L 369,508 C 377,444 397,411 428,410 L 1163,1116 C 1174,1127 1196,1133 1229,1133 1271,1133 1292,1118 1292,1087 L 1292,965 C 1292,929 1282,901 1262,881 L 442,47 C 390,-6 338,-33 285,-33 Z"/>
  </g>
  <g id="bullet-char-template-9679" transform="scale(0.00048828125,-0.00048828125)">
   <path d="M 813,0 C 632,0 489,54 383,161 276,268 223,411 223,592 223,773 276,916 383,1023 489,1130 632,1184 813,1184 992,1184 1136,1130 1245,1023 1353,916 1407,772 1407,592 1407,412 1353,268 1245,161 1136,54 992,0 813,0 Z"/>
  </g>
  <g id="bullet-char-template-8226" transform="scale(0.00048828125,-0.00048828125)">
   <path d="M 346,457 C 273,457 209,483 155,535 101,586 74,649 74,723 74,796 101,859 155,911 209,963 273,989 346,989 419,989 480,963 531,910 582,859 608,796 608,723 608,648 583,586 532,535 482,483 420,457 346,457 Z"/>
  </g>
  <g id="bullet-char-template-8211" transform="scale(0.00048828125,-0.00048828125)">
   <path d="M -4,459 L 1135,459 1135,606 -4,606 -4,459 Z"/>
  </g>
  <g id="bullet-char-template-61548" transform="scale(0.00048828125,-0.00048828125)">
   <path d="M 173,740 C 173,903 231,1043 346,1159 462,1274 601,1332 765,1332 928,1332 1067,1274 1183,1159 1299,1043 1357,903 1357,740 1357,577 1299,437 1183,322 1067,206 928,148 765,148 601,148 462,206 346,322 231,437 173,577 173,740 Z"/>
  </g>
 </defs>
 <g>
  <g id="id2" class="Master_Slide">
   <g id="bg-id2" class="Background"/>
   <g id="bo-id2" class="BackgroundObjects"/>
  </g>
 </g>
 <g class="SlideGroup">
  <g>
   <g id="container-id1">
    <g id="id1" class="Slide" clip-path="url(#presentation_clip_path)">
     <g class="Page">
      <g class="Graphic">
       <g id="id3">
        <rect class="BoundingBox" stroke="none" fill="none" x="0" y="0" width="13547" height="13547"/>
        <defs>
         <clipPath id="clip_path_1" clipPathUnits="userSpaceOnUse">
          <path d="M 0,0 L 13546,0 13546,13546 0,13546 0,0 Z"/>
         </clipPath>
        </defs>
        <g clip-path="url(#clip_path_1)">
         <path fill="rgb(235,180,95)" stroke="none" d="M 5627,5138 C 3997,5138 2619,3971 2351,2363 L 2344,2319 C 2314,2142 2361,1971 2474,1838 2583,1709 2743,1635 2913,1635 L 4319,1635 4319,934 2913,934 C 2537,934 2182,1098 1939,1385 1694,1674 1590,2056 1653,2434 L 1660,2479 C 1985,4426 3653,5839 5626,5839 5626,5839 5627,5839 5627,5839 L 5627,5138 C 5627,5138 5627,5138 5627,5138 L 5627,5138 Z"/>
         <path fill="rgb(255,195,110)" stroke="none" d="M 11607,1385 C 11364,1098 11009,934 10633,934 L 9227,934 9227,1635 10633,1635 C 10803,1635 10963,1709 11072,1838 11185,1971 11232,2142 11202,2319 L 11195,2363 C 10927,3971 9549,5138 7920,5138 7919,5138 7919,5138 7919,5138 L 7919,5839 C 7919,5839 7920,5839 7920,5839 9893,5839 11561,4426 11886,2479 L 11893,2434 C 11956,2056 11852,1674 11607,1385 L 11607,1385 Z"/>
         <path fill="rgb(255,195,110)" stroke="none" d="M 7474,10977 L 6072,10977 6306,6072 7240,6072 7474,10977 Z"/>
         <path fill="rgb(235,180,95)" stroke="none" d="M 6306,6072 L 6072,10977 6773,10977 6773,6072 6306,6072 Z"/>
         <path fill="rgb(255,215,130)" stroke="none" d="M 8174,11911 L 5372,11911 5372,10977 C 5372,10848 5476,10743 5605,10743 L 7941,10743 C 8070,10743 8174,10848 8174,10977 L 8174,11911 8174,11911 Z"/>
         <path fill="rgb(255,195,110)" stroke="none" d="M 6773,10743 L 5605,10743 C 5476,10743 5372,10848 5372,10977 L 5372,11911 6539,11911 6539,10977 C 6539,10848 6644,10743 6773,10743 L 6773,10743 Z"/>
         <path fill="rgb(155,90,80)" stroke="none" d="M 9109,12378 L 4437,12378 4766,11886 C 4853,11756 4998,11678 5155,11678 L 8391,11678 C 8548,11678 8693,11756 8780,11886 L 9109,12378 9109,12378 Z"/>
         <path fill="rgb(135,70,65)" stroke="none" d="M 6556,11678 L 5155,11678 C 4998,11678 4853,11756 4766,11886 L 4437,12378 5839,12378 6167,11886 C 6254,11756 6400,11678 6556,11678 L 6556,11678 Z"/>
         <path fill="rgb(170,100,85)" stroke="none" d="M 9109,13546 L 4437,13546 C 4309,13546 4204,13441 4204,13312 L 4204,12378 C 4204,12249 4309,12145 4437,12145 L 9109,12145 C 9237,12145 9342,12249 9342,12378 L 9342,13312 C 9342,13441 9237,13546 9109,13546 L 9109,13546 Z"/>
         <path fill="rgb(155,90,80)" stroke="none" d="M 5839,13312 L 5839,12378 C 5839,12249 5943,12145 6072,12145 L 4438,12145 C 4309,12145 4204,12249 4204,12378 L 4204,13312 C 4204,13441 4309,13546 4438,13546 L 6072,13546 C 5943,13546 5839,13441 5839,13312 L 5839,13312 Z"/>
         <path fill="rgb(255,215,130)" stroke="none" d="M 8634,5403 L 7600,6207 C 7518,6271 7417,6306 7313,6306 L 6233,6306 C 6129,6306 6028,6271 5946,6207 L 4912,5403 C 4310,4935 3925,4243 3846,3485 L 3503,234 10043,234 9700,3485 C 9621,4243 9236,4936 8634,5403 L 8634,5403 Z"/>
         <path fill="rgb(255,195,110)" stroke="none" d="M 6739,6207 L 6259,5403 C 5980,4935 5801,4243 5764,3485 L 5605,234 3503,234 3846,3485 C 3925,4243 4310,4936 4912,5404 L 5946,6208 C 6028,6271 6129,6306 6233,6306 L 6872,6306 C 6824,6306 6777,6271 6739,6207 L 6739,6207 Z"/>
         <path fill="rgb(255,215,130)" stroke="none" d="M 10043,467 L 3503,467 C 3374,467 3270,363 3270,234 L 3270,234 C 3270,105 3374,0 3503,0 L 10043,0 C 10172,0 10276,105 10276,234 L 10276,234 C 10276,363 10172,467 10043,467 L 10043,467 Z"/>
         <path fill="rgb(255,215,130)" stroke="none" d="M 7474,7941 L 6072,7941 C 5943,7941 5839,7836 5839,7707 L 5839,7474 C 5839,7345 5943,7240 6072,7240 L 7474,7240 C 7603,7240 7707,7345 7707,7474 L 7707,7707 C 7707,7836 7603,7941 7474,7941 L 7474,7941 Z"/>
         <path fill="rgb(255,195,110)" stroke="none" d="M 6539,7707 L 6539,7474 C 6539,7345 6644,7240 6773,7240 L 6072,7240 C 5943,7240 5839,7345 5839,7474 L 5839,7707 C 5839,7836 5943,7941 6072,7941 L 6773,7941 C 6644,7941 6539,7836 6539,7707 L 6539,7707 Z"/>
         <path fill="rgb(255,195,110)" stroke="none" d="M 9969,934 L 10018,467 3528,467 3577,934 9969,934 Z"/>
         <path fill="rgb(235,180,95)" stroke="none" d="M 5617,467 L 3528,467 3577,934 5640,934 5617,467 Z"/>
         <path fill="rgb(255,195,110)" stroke="none" d="M 5372,234 C 5372,105 5476,0 5605,0 L 3503,0 C 3374,0 3270,105 3270,234 3270,363 3374,467 3503,467 L 5605,467 C 5476,467 5372,363 5372,234 L 5372,234 Z"/>
         <path fill="rgb(255,255,255)" stroke="none" d="M 9564,1182 C 9215,1102 8941,828 8861,479 8855,453 8821,453 8815,479 8735,828 8461,1102 8112,1182 8086,1187 8086,1222 8112,1228 8461,1308 8735,1582 8815,1931 8820,1957 8855,1957 8861,1931 8941,1582 9215,1308 9564,1228 9590,1222 9590,1187 9564,1182 L 9564,1182 Z"/>
         <path fill="rgb(255,255,255)" stroke="none" d="M 8541,2237 C 8296,2174 8103,1981 8039,1735 8033,1711 8001,1711 7994,1735 7931,1981 7738,2174 7492,2237 7468,2244 7468,2276 7492,2282 7738,2346 7931,2539 7994,2784 8001,2809 8033,2809 8039,2784 8103,2539 8296,2346 8541,2282 8566,2276 8566,2244 8541,2237 L 8541,2237 Z"/>
        </g>
       </g>
      </g>
     </g>
    </g>
   </g>
  </g>
 </g>
</svg>