<svg id="svg" version="1.1" xmlns="http://www.w3.org/2000/svg" xmlns:xlink="http://www.w3.org/1999/xlink" width="400" height="289.78444236176193" viewBox="0, 0, 400,289.78444236176193"><g id="svgg"><path id="path0" d="M236.522 0.185 C 236.123 0.244,234.819 0.435,233.623 0.610 C 232.428 0.786,231.319 1.028,231.159 1.150 C 231.000 1.271,229.924 1.598,228.768 1.876 C 227.612 2.154,226.667 2.483,226.667 2.608 C 226.667 2.732,226.214 2.919,225.661 3.023 C 225.109 3.126,224.489 3.376,224.285 3.577 C 224.080 3.779,223.334 4.174,222.625 4.455 C 221.917 4.737,220.984 5.219,220.552 5.527 C 220.119 5.835,219.682 6.087,219.581 6.087 C 219.389 6.087,218.905 6.452,217.950 7.319 C 217.643 7.598,217.318 7.826,217.229 7.826 C 217.049 7.826,214.944 9.417,214.050 10.229 C 212.435 11.695,211.049 13.089,210.067 14.234 C 208.158 16.460,207.537 17.242,207.537 17.419 C 207.536 17.515,207.282 17.885,206.972 18.243 C 206.661 18.601,206.353 19.045,206.287 19.230 C 206.211 19.442,205.906 19.326,205.456 18.913 C 205.065 18.554,204.591 18.261,204.402 18.261 C 204.213 18.261,204.058 18.137,204.058 17.985 C 204.058 17.833,203.569 17.479,202.971 17.199 C 202.373 16.918,201.744 16.553,201.573 16.387 C 201.402 16.222,199.967 15.454,198.385 14.681 C 196.802 13.909,195.043 13.039,194.476 12.749 C 193.910 12.459,192.964 12.131,192.375 12.020 C 191.786 11.910,191.304 11.730,191.304 11.620 C 191.304 11.510,190.293 11.176,189.058 10.877 C 187.822 10.578,186.674 10.232,186.507 10.107 C 186.339 9.982,185.230 9.724,184.043 9.534 C 182.856 9.344,181.749 9.086,181.585 8.959 C 180.427 8.070,164.407 8.047,163.781 8.933 C 163.694 9.056,162.580 9.327,161.304 9.536 C 160.029 9.745,158.920 10.008,158.841 10.121 C 158.761 10.233,157.913 10.493,156.957 10.697 C 156.000 10.902,154.929 11.252,154.575 11.477 C 154.222 11.701,153.802 11.884,153.641 11.884 C 153.480 11.884,152.493 12.275,151.449 12.754 C 150.405 13.232,149.424 13.623,149.268 13.623 C 149.113 13.623,148.986 13.734,148.986 13.869 C 148.986 14.005,148.399 14.358,147.681 14.653 C 146.964 14.949,146.377 15.279,146.377 15.387 C 146.377 15.494,145.986 15.744,145.507 15.942 C 145.029 16.140,144.636 16.384,144.634 16.484 C 144.633 16.585,144.118 16.912,143.491 17.213 C 142.864 17.513,142.283 17.937,142.199 18.155 C 142.116 18.373,141.876 18.551,141.668 18.551 C 141.459 18.551,141.086 18.779,140.838 19.058 C 140.591 19.337,139.881 19.957,139.262 20.435 C 137.257 21.984,133.410 25.975,131.449 28.540 C 131.130 28.957,130.661 29.521,130.407 29.794 C 130.152 30.067,129.762 30.714,129.539 31.232 C 129.164 32.103,128.116 32.584,128.116 31.884 C 128.116 31.725,127.948 31.594,127.742 31.594 C 127.537 31.594,126.865 31.337,126.248 31.023 C 125.632 30.709,124.463 30.235,123.651 29.970 C 122.839 29.705,122.042 29.385,121.880 29.258 C 121.719 29.132,120.936 28.869,120.141 28.675 C 119.346 28.481,118.565 28.223,118.406 28.102 C 118.246 27.981,117.007 27.659,115.652 27.388 C 114.297 27.116,112.928 26.780,112.609 26.641 C 111.885 26.325,107.583 25.797,105.732 25.797 C 104.971 25.797,104.348 25.667,104.348 25.507 C 104.348 25.327,102.754 25.217,100.145 25.217 C 97.536 25.217,95.942 25.327,95.942 25.507 C 95.942 25.667,95.266 25.797,94.440 25.797 C 92.569 25.797,87.732 26.396,87.536 26.653 C 87.457 26.757,86.091 27.069,84.503 27.346 C 82.914 27.623,81.544 27.956,81.459 28.086 C 81.374 28.215,80.620 28.484,79.783 28.682 C 78.946 28.881,78.261 29.140,78.261 29.258 C 78.261 29.376,77.543 29.634,76.667 29.830 C 75.790 30.026,74.909 30.345,74.710 30.539 C 74.511 30.732,73.793 31.054,73.116 31.254 C 72.438 31.454,71.884 31.743,71.884 31.896 C 71.884 32.049,71.736 32.174,71.556 32.174 C 71.195 32.174,67.189 34.161,66.957 34.455 C 66.877 34.556,66.420 34.834,65.942 35.073 C 65.464 35.312,64.820 35.736,64.511 36.014 C 64.202 36.293,63.774 36.522,63.559 36.522 C 63.345 36.522,63.095 36.717,63.003 36.957 C 62.912 37.196,62.702 37.391,62.538 37.391 C 62.169 37.391,58.119 40.424,57.026 41.518 C 56.587 41.958,56.129 42.319,56.010 42.319 C 55.761 42.319,49.782 48.147,49.216 48.943 C 48.582 49.832,46.550 52.223,46.014 52.711 C 45.736 52.965,45.507 53.311,45.507 53.481 C 45.507 53.651,45.121 54.242,44.649 54.794 C 44.178 55.346,43.786 55.960,43.780 56.159 C 43.773 56.359,43.667 56.522,43.544 56.522 C 43.421 56.522,43.064 57.011,42.750 57.609 C 42.436 58.207,42.101 58.761,42.004 58.841 C 41.831 58.984,41.395 59.761,40.377 61.739 C 40.090 62.297,39.712 62.906,39.537 63.092 C 39.362 63.279,39.052 64.029,38.847 64.759 C 38.643 65.489,38.376 66.087,38.255 66.087 C 38.133 66.087,37.945 66.441,37.836 66.874 C 37.728 67.307,37.404 68.187,37.117 68.831 C 36.830 69.474,36.431 70.717,36.231 71.594 C 36.030 72.471,35.754 73.330,35.618 73.504 C 35.481 73.677,35.212 74.851,35.021 76.113 C 34.829 77.374,34.572 78.475,34.450 78.560 C 34.060 78.831,33.588 87.576,33.796 90.682 C 34.015 93.965,33.925 94.190,32.391 94.198 C 31.953 94.201,31.594 94.317,31.594 94.456 C 31.594 94.595,31.056 94.795,30.399 94.900 C 29.741 95.005,28.665 95.332,28.007 95.627 C 27.350 95.922,26.486 96.261,26.087 96.380 C 25.061 96.687,19.875 99.449,19.758 99.750 C 19.705 99.888,19.531 100.000,19.371 100.000 C 18.964 100.000,16.456 101.778,15.998 102.391 C 15.790 102.670,15.487 102.899,15.326 102.899 C 15.164 102.899,13.729 104.236,12.136 105.870 C 8.445 109.657,8.525 109.565,8.096 110.507 C 7.896 110.946,7.636 111.304,7.518 111.304 C 7.108 111.304,4.058 116.596,4.058 117.308 C 4.058 117.513,3.933 117.681,3.780 117.681 C 3.627 117.681,3.340 118.236,3.142 118.913 C 2.944 119.591,2.681 120.216,2.558 120.302 C 2.435 120.389,2.103 121.367,1.819 122.476 C 1.536 123.585,1.225 124.558,1.127 124.638 C -0.257 125.769,-0.251 146.897,1.134 147.821 C 1.257 147.904,1.594 148.982,1.882 150.217 C 2.170 151.453,2.499 152.464,2.614 152.464 C 2.729 152.464,2.988 153.051,3.188 153.768 C 3.389 154.486,3.649 155.072,3.766 155.072 C 3.883 155.072,4.203 155.659,4.477 156.377 C 4.751 157.094,5.095 157.681,5.241 157.681 C 5.388 157.681,5.507 157.877,5.507 158.116 C 5.507 158.355,5.768 158.812,6.087 159.130 C 6.406 159.449,6.667 159.816,6.667 159.945 C 6.667 160.075,6.895 160.434,7.174 160.743 C 7.453 161.052,8.059 161.826,8.522 162.464 C 9.624 163.983,14.840 168.986,15.322 168.986 C 15.448 168.986,15.857 169.312,16.232 169.710 C 16.606 170.109,16.755 170.435,16.563 170.435 C 16.371 170.435,16.130 170.663,16.027 170.942 C 15.924 171.221,15.552 171.841,15.200 172.319 C 14.848 172.797,14.471 173.482,14.362 173.841 C 14.253 174.199,14.051 174.493,13.912 174.493 C 13.774 174.493,13.496 174.949,13.294 175.507 C 13.092 176.065,12.828 176.522,12.707 176.522 C 12.586 176.522,12.323 177.076,12.124 177.754 C 11.924 178.431,11.616 179.134,11.441 179.315 C 11.265 179.496,10.951 180.409,10.743 181.344 C 10.535 182.279,10.255 183.114,10.120 183.200 C 9.985 183.285,9.712 184.329,9.513 185.518 C 9.314 186.708,9.017 187.774,8.851 187.888 C 8.415 188.188,8.446 202.301,8.885 203.216 C 9.068 203.600,9.378 204.891,9.574 206.087 C 9.769 207.283,10.012 208.326,10.114 208.406 C 10.216 208.486,10.465 209.188,10.666 209.966 C 10.868 210.745,11.355 212.086,11.748 212.946 C 12.142 213.806,12.464 214.637,12.464 214.791 C 12.464 214.946,12.574 215.072,12.710 215.072 C 12.845 215.072,13.174 215.562,13.442 216.159 C 14.305 218.088,15.071 219.420,15.318 219.420 C 15.451 219.420,15.703 219.736,15.879 220.122 C 16.643 221.799,23.410 228.571,25.084 229.333 C 25.476 229.512,25.797 229.752,25.797 229.866 C 25.797 229.981,26.188 230.237,26.667 230.435 C 27.145 230.633,27.536 230.883,27.536 230.990 C 27.536 231.098,28.123 231.428,28.841 231.723 C 29.558 232.019,30.145 232.372,30.145 232.507 C 30.145 232.643,30.272 232.754,30.428 232.754 C 30.583 232.754,31.529 233.128,32.529 233.585 C 33.529 234.043,34.772 234.510,35.290 234.623 C 35.808 234.736,36.232 234.934,36.232 235.063 C 36.232 235.191,37.080 235.457,38.116 235.652 C 39.152 235.848,40.000 236.105,40.000 236.224 C 40.000 236.343,41.011 236.598,42.246 236.791 C 43.482 236.984,44.709 237.257,44.973 237.397 C 45.237 237.538,47.347 237.816,49.662 238.016 L 53.870 238.380 54.906 239.918 C 55.476 240.764,55.942 241.585,55.942 241.743 C 55.942 241.900,56.076 242.029,56.239 242.029 C 56.402 242.029,56.660 242.355,56.812 242.754 C 56.963 243.152,57.212 243.478,57.365 243.478 C 57.517 243.478,57.715 243.709,57.805 243.992 C 57.895 244.274,58.327 244.911,58.767 245.407 C 59.206 245.903,60.087 246.932,60.725 247.695 C 62.075 249.309,66.041 253.285,67.866 254.854 C 70.335 256.976,71.239 257.681,71.490 257.681 C 71.630 257.681,71.908 257.942,72.107 258.261 C 72.306 258.580,72.663 258.841,72.901 258.841 C 73.139 258.841,73.333 258.975,73.333 259.140 C 73.333 259.304,73.562 259.521,73.841 259.622 C 74.367 259.813,76.692 261.356,77.290 261.911 C 77.478 262.085,78.067 262.404,78.599 262.619 C 79.130 262.835,79.630 263.096,79.710 263.200 C 79.996 263.573,84.700 265.917,86.159 266.413 C 86.757 266.617,87.246 266.873,87.246 266.983 C 87.246 267.093,87.601 267.272,88.033 267.381 C 88.466 267.490,89.347 267.814,89.990 268.101 C 90.633 268.388,91.844 268.795,92.681 269.004 C 93.518 269.214,94.203 269.479,94.203 269.594 C 94.203 269.708,95.149 269.968,96.304 270.171 C 97.460 270.374,98.471 270.624,98.551 270.728 C 98.739 270.974,101.887 271.594,102.947 271.594 C 103.399 271.594,103.768 271.706,103.768 271.843 C 103.768 273.004,129.605 273.279,136.232 272.189 C 138.964 271.740,142.457 270.937,142.609 270.723 C 142.688 270.611,143.275 270.351,143.913 270.145 C 144.551 269.939,145.138 269.692,145.217 269.596 C 145.297 269.499,145.819 269.167,146.377 268.857 C 146.935 268.547,147.555 268.156,147.756 267.987 C 147.956 267.819,148.478 267.388,148.915 267.029 C 149.352 266.671,150.192 265.979,150.781 265.492 C 152.009 264.476,151.572 264.232,154.493 267.561 C 156.939 270.348,161.829 275.072,162.269 275.072 C 162.398 275.072,162.776 275.366,163.108 275.725 C 163.440 276.083,164.189 276.703,164.772 277.101 C 165.355 277.500,165.993 277.972,166.191 278.151 C 166.388 278.329,166.968 278.691,167.478 278.955 C 167.988 279.219,168.406 279.538,168.406 279.663 C 168.406 279.789,168.862 280.071,169.420 280.290 C 169.978 280.509,170.435 280.781,170.435 280.895 C 170.435 281.009,171.021 281.343,171.738 281.638 C 172.455 281.933,173.042 282.262,173.042 282.369 C 173.043 282.476,173.533 282.723,174.130 282.918 C 174.728 283.113,175.283 283.357,175.362 283.460 C 175.622 283.797,178.664 285.183,179.928 285.540 C 180.605 285.732,181.159 285.986,181.159 286.104 C 181.159 286.222,181.844 286.480,182.681 286.676 C 183.518 286.872,184.333 287.132,184.493 287.253 C 184.652 287.374,185.826 287.692,187.101 287.960 C 188.377 288.227,189.681 288.561,190.000 288.702 C 193.207 290.113,216.731 290.121,217.681 288.711 C 217.761 288.593,219.033 288.264,220.507 287.980 C 221.982 287.696,223.188 287.377,223.188 287.270 C 223.188 287.163,223.971 286.902,224.928 286.690 C 225.884 286.478,226.667 286.219,226.667 286.114 C 226.667 286.009,227.286 285.745,228.043 285.526 C 228.801 285.308,229.877 284.895,230.435 284.610 C 230.993 284.325,232.167 283.741,233.043 283.313 C 233.920 282.884,234.703 282.446,234.783 282.338 C 234.862 282.229,235.384 281.957,235.942 281.733 C 236.500 281.509,237.413 281.025,237.971 280.657 C 238.529 280.290,239.181 279.865,239.420 279.713 C 240.527 279.010,243.080 277.253,243.399 276.976 C 243.594 276.806,244.098 276.406,244.519 276.087 C 248.322 273.204,252.884 268.651,255.737 264.888 C 256.023 264.511,256.578 263.812,256.971 263.333 C 257.363 262.855,257.758 262.236,257.847 261.957 C 257.937 261.678,258.116 261.449,258.245 261.449 C 258.375 261.449,258.642 261.058,258.841 260.580 C 259.039 260.101,259.300 259.710,259.420 259.710 C 259.541 259.710,259.813 259.286,260.024 258.768 C 260.235 258.250,260.557 257.696,260.739 257.536 C 260.921 257.377,261.246 256.790,261.461 256.232 C 261.675 255.674,261.933 255.152,262.034 255.072 C 262.329 254.838,264.005 251.228,264.211 250.383 C 264.475 249.298,264.993 249.202,266.436 249.969 C 267.122 250.334,268.205 250.801,268.842 251.006 C 269.479 251.212,270.132 251.484,270.294 251.611 C 270.455 251.737,271.238 252.000,272.033 252.194 C 272.828 252.389,273.609 252.647,273.768 252.770 C 274.130 253.047,278.275 253.913,279.239 253.913 C 279.631 253.913,279.995 254.034,280.048 254.182 C 280.421 255.218,300.194 255.250,300.869 254.216 C 300.949 254.094,301.667 253.906,302.464 253.799 C 304.419 253.538,306.746 253.015,307.101 252.757 C 307.261 252.642,308.042 252.389,308.837 252.194 C 309.632 252.000,310.414 251.737,310.576 251.611 C 310.737 251.484,311.391 251.218,312.029 251.020 C 312.667 250.822,313.449 250.499,313.768 250.301 C 314.087 250.104,314.837 249.783,315.435 249.587 C 316.033 249.391,316.522 249.131,316.522 249.009 C 316.522 248.888,317.043 248.616,317.681 248.406 C 318.319 248.195,318.841 247.933,318.841 247.824 C 318.841 247.714,319.362 247.389,320.000 247.101 C 320.638 246.814,321.159 246.477,321.159 246.352 C 321.159 246.228,321.420 246.043,321.737 245.943 C 322.055 245.842,322.481 245.605,322.683 245.416 C 322.886 245.227,323.702 244.626,324.497 244.080 C 325.292 243.534,326.164 242.882,326.436 242.631 C 326.708 242.379,327.549 241.652,328.305 241.014 C 329.883 239.682,331.214 238.354,332.984 236.342 C 335.466 233.520,335.942 232.935,335.942 232.701 C 335.942 232.571,336.170 232.212,336.449 231.905 C 337.285 230.984,337.584 230.579,337.975 229.837 C 338.180 229.448,338.443 229.065,338.560 228.986 C 338.761 228.848,339.102 228.238,340.435 225.628 C 340.754 225.004,341.093 224.428,341.190 224.348 C 341.286 224.268,341.534 223.681,341.740 223.043 C 341.946 222.406,342.356 221.430,342.651 220.875 C 342.946 220.320,343.267 219.439,343.365 218.918 C 343.463 218.397,343.641 217.971,343.761 217.971 C 343.881 217.971,344.147 217.156,344.352 216.159 C 344.557 215.163,344.831 214.210,344.961 214.040 C 345.260 213.652,346.084 208.619,346.086 207.174 C 346.086 206.576,346.217 206.087,346.377 206.087 C 346.536 206.087,346.667 205.506,346.667 204.796 C 346.667 203.532,346.690 203.500,347.754 203.309 C 348.351 203.201,348.971 203.018,349.130 202.902 C 349.290 202.787,350.268 202.530,351.304 202.333 C 352.341 202.136,353.319 201.873,353.478 201.750 C 353.638 201.626,354.453 201.365,355.291 201.168 C 356.128 200.972,356.881 200.703,356.963 200.570 C 357.045 200.437,357.795 200.128,358.629 199.884 C 359.463 199.639,360.662 199.174,361.293 198.850 C 361.925 198.526,362.599 198.261,362.791 198.261 C 362.983 198.261,363.184 198.162,363.237 198.042 C 363.290 197.922,364.246 197.369,365.362 196.813 C 367.273 195.861,369.021 194.833,369.737 194.238 C 369.912 194.093,370.499 193.747,371.042 193.469 C 371.585 193.190,372.094 192.870,372.174 192.757 C 372.254 192.643,372.622 192.391,372.993 192.195 C 373.364 192.000,373.885 191.649,374.152 191.414 C 374.419 191.180,375.225 190.523,375.942 189.955 C 380.072 186.681,382.828 183.947,386.268 179.710 C 386.721 179.152,387.171 178.630,387.267 178.551 C 387.364 178.471,387.921 177.688,388.505 176.812 C 389.090 175.935,389.826 174.891,390.142 174.493 C 390.458 174.094,390.719 173.605,390.721 173.406 C 390.723 173.207,390.822 173.042,390.942 173.041 C 391.062 173.040,391.681 172.029,392.319 170.795 C 392.957 169.560,393.558 168.486,393.656 168.406 C 393.951 168.166,395.942 163.483,395.942 163.029 C 395.942 162.798,396.048 162.609,396.177 162.609 C 396.306 162.609,396.584 161.924,396.794 161.087 C 397.004 160.250,397.277 159.435,397.401 159.275 C 397.524 159.116,397.859 157.877,398.145 156.522 C 398.430 155.167,398.757 153.992,398.872 153.912 C 400.236 152.952,400.219 128.853,398.854 127.826 C 398.748 127.746,398.499 126.777,398.299 125.671 C 398.100 124.566,397.684 123.106,397.374 122.426 C 397.065 121.747,396.812 121.045,396.812 120.867 C 396.812 120.689,396.486 119.830,396.087 118.958 C 395.688 118.087,395.362 117.262,395.362 117.124 C 395.362 116.987,394.711 115.654,393.915 114.162 C 393.119 112.670,392.199 110.895,391.872 110.217 C 391.545 109.540,391.185 108.986,391.072 108.986 C 390.959 108.986,390.682 108.562,390.456 108.043 C 390.231 107.525,389.950 107.036,389.832 106.955 C 389.341 106.622,386.989 102.935,387.211 102.848 C 387.600 102.696,389.197 97.404,389.426 95.507 C 389.542 94.551,389.784 93.585,389.963 93.361 C 390.454 92.750,390.420 77.338,389.928 77.174 C 389.728 77.107,389.565 76.687,389.565 76.239 C 389.565 75.186,388.700 70.957,388.407 70.580 C 388.284 70.420,388.088 69.833,387.972 69.275 C 387.855 68.717,387.524 67.735,387.235 67.091 C 386.946 66.448,386.620 65.568,386.512 65.135 C 386.403 64.702,386.223 64.348,386.113 64.348 C 386.002 64.348,385.677 63.696,385.390 62.899 C 385.104 62.101,384.766 61.449,384.640 61.449 C 384.514 61.449,384.330 61.128,384.231 60.735 C 384.133 60.342,383.662 59.442,383.185 58.736 C 382.709 58.030,382.319 57.308,382.319 57.132 C 382.319 56.956,382.185 56.812,382.022 56.812 C 381.858 56.812,381.601 56.486,381.449 56.087 C 381.298 55.688,381.040 55.362,380.877 55.362 C 380.713 55.362,380.580 55.233,380.580 55.075 C 380.580 54.797,379.229 52.918,378.179 51.738 C 376.634 50.000,373.358 46.667,373.196 46.667 C 373.092 46.667,372.656 46.341,372.228 45.943 C 370.839 44.651,368.163 42.609,367.860 42.609 C 367.698 42.609,367.461 42.445,367.333 42.246 C 367.206 42.046,366.710 41.688,366.232 41.449 C 365.754 41.211,365.297 40.932,365.217 40.830 C 364.904 40.429,358.718 37.391,358.216 37.391 C 357.922 37.391,357.681 37.278,357.681 37.139 C 357.681 37.000,356.996 36.696,356.159 36.465 C 354.742 36.072,354.619 35.965,354.361 34.906 C 354.208 34.280,353.996 33.703,353.888 33.623 C 353.781 33.543,353.526 32.728,353.322 31.812 C 353.118 30.895,352.842 30.145,352.707 30.145 C 352.573 30.145,352.465 29.917,352.467 29.638 C 352.472 28.976,349.263 22.534,348.778 22.232 C 348.573 22.104,348.406 21.856,348.406 21.680 C 348.406 21.503,348.080 20.932,347.681 20.409 C 347.283 19.886,346.957 19.324,346.957 19.160 C 346.957 18.996,346.696 18.721,346.377 18.551 C 346.058 18.380,345.797 18.097,345.797 17.922 C 345.797 17.387,340.437 11.830,338.575 10.435 C 338.043 10.036,337.385 9.514,337.112 9.275 C 336.384 8.637,335.576 8.122,335.000 7.929 C 334.721 7.835,334.493 7.636,334.493 7.487 C 334.493 7.338,334.101 7.080,333.623 6.913 C 333.145 6.746,332.754 6.506,332.754 6.380 C 332.754 6.253,332.264 5.939,331.667 5.682 C 331.069 5.425,330.384 5.087,330.145 4.930 C 329.614 4.582,326.484 3.188,326.235 3.188 C 326.136 3.188,325.508 2.942,324.839 2.640 C 324.170 2.339,322.841 1.923,321.884 1.716 C 320.928 1.509,320.075 1.240,319.991 1.117 C 319.024 -0.279,298.304 -0.252,295.711 1.148 C 295.440 1.295,294.271 1.633,293.113 1.899 C 291.956 2.165,290.938 2.499,290.850 2.641 C 290.762 2.782,290.506 2.899,290.281 2.899 C 289.275 2.899,282.477 6.265,280.987 7.501 C 280.813 7.646,280.259 7.977,279.755 8.237 C 279.252 8.498,278.841 8.838,278.841 8.993 C 278.841 9.148,278.678 9.278,278.478 9.281 C 278.097 9.286,276.717 10.325,275.309 11.667 C 274.255 12.671,273.058 12.262,271.446 10.348 C 270.981 9.795,268.890 8.240,268.333 8.033 C 268.054 7.929,267.826 7.710,267.826 7.545 C 267.826 7.381,267.663 7.246,267.464 7.246 C 267.264 7.246,266.718 6.916,266.250 6.513 C 265.781 6.110,265.097 5.705,264.728 5.613 C 264.359 5.520,264.058 5.352,264.058 5.240 C 264.058 4.975,262.139 4.058,261.584 4.058 C 261.351 4.058,261.159 3.942,261.159 3.800 C 261.159 3.658,260.572 3.369,259.855 3.157 C 259.138 2.945,258.551 2.681,258.551 2.570 C 258.551 2.459,257.540 2.134,256.304 1.848 C 255.069 1.562,253.991 1.235,253.910 1.121 C 253.360 0.353,240.201 -0.355,236.522 0.185 M250.870 8.527 C 257.146 10.098,262.503 12.954,267.084 17.170 L 269.096 19.021 268.290 20.452 C 266.949 22.835,264.626 28.152,264.802 28.437 C 264.893 28.584,265.382 28.884,265.889 29.104 C 266.397 29.323,267.817 29.968,269.046 30.536 L 271.280 31.568 273.491 27.016 C 282.002 9.494,307.375 2.259,326.325 11.950 C 337.352 17.589,344.012 26.455,347.127 39.644 C 347.682 41.992,348.285 44.536,348.467 45.296 C 348.649 46.057,348.884 46.541,348.989 46.372 C 349.106 46.181,350.385 46.782,352.343 47.947 C 356.032 50.143,356.232 50.097,356.232 47.046 C 356.232 46.040,356.301 45.217,356.385 45.217 C 357.322 45.217,363.356 48.952,366.232 51.312 C 386.527 67.966,388.001 96.878,369.516 115.718 C 368.108 117.153,366.957 118.415,366.957 118.524 C 366.957 118.790,370.999 123.570,371.447 123.833 C 372.218 124.285,381.337 114.025,382.227 111.704 C 382.628 110.659,382.965 111.027,385.310 115.072 C 402.931 145.466,385.529 184.481,349.879 194.512 C 346.332 195.510,346.685 195.675,346.336 192.849 C 344.272 176.108,332.410 159.240,317.246 151.481 C 313.887 149.762,314.178 149.647,312.636 153.299 C 310.998 157.180,310.913 156.751,313.568 158.030 C 328.952 165.440,339.967 184.120,338.830 200.870 C 336.710 232.104,310.349 252.412,280.000 246.190 C 276.333 245.439,266.957 241.932,266.957 241.312 C 266.957 241.277,267.216 240.021,267.534 238.522 C 267.851 237.023,268.196 234.732,268.299 233.430 L 268.488 231.062 267.215 230.887 C 266.515 230.791,264.839 230.683,263.491 230.646 L 261.039 230.580 260.691 233.478 C 256.647 267.171,219.755 290.296,186.955 279.697 C 174.511 275.676,162.489 266.612,155.797 256.205 C 155.638 255.957,154.942 254.916,154.251 253.892 C 153.560 252.867,152.339 250.692,151.538 249.058 C 149.860 245.637,150.200 245.788,147.148 247.118 C 145.847 247.685,144.424 248.304,143.986 248.493 C 142.927 248.950,142.879 248.774,145.375 253.569 L 147.562 257.769 146.484 258.667 C 141.426 262.880,139.783 263.692,135.039 264.326 C 103.952 268.480,79.048 259.397,63.382 238.189 L 62.580 237.102 63.246 236.828 C 63.613 236.676,64.630 236.351,65.507 236.105 C 68.084 235.381,68.054 235.446,67.041 232.850 C 66.554 231.601,65.983 230.091,65.773 229.493 C 65.326 228.220,65.487 228.252,63.146 228.975 C 50.919 232.749,33.752 228.166,25.095 218.814 C 14.425 207.290,13.334 188.714,22.566 175.741 L 24.050 173.657 26.445 174.761 C 31.948 177.299,38.566 178.570,43.943 178.122 L 46.432 177.914 46.224 175.551 C 46.110 174.252,45.932 172.601,45.830 171.884 L 45.645 170.580 42.726 170.679 C 30.731 171.086,16.565 162.682,11.197 151.975 C 1.181 131.995,13.546 105.775,34.822 101.880 L 35.877 101.687 36.818 104.539 C 38.212 108.765,37.799 108.464,40.932 107.526 C 44.066 106.587,45.217 106.163,45.217 105.945 C 45.217 105.859,44.701 104.228,44.070 102.321 C 30.915 62.546,75.949 22.116,117.681 36.236 C 125.151 38.763,133.237 43.335,138.647 48.091 L 140.337 49.577 141.400 48.724 C 141.985 48.255,143.215 47.106,144.133 46.171 L 145.802 44.471 144.713 43.445 C 142.881 41.721,140.548 39.884,138.116 38.250 C 136.841 37.393,135.745 36.656,135.681 36.611 C 135.449 36.450,137.654 33.427,139.601 31.236 C 150.686 18.765,167.254 13.463,182.961 17.362 C 188.924 18.842,194.832 21.409,199.510 24.553 C 203.009 26.905,202.872 26.523,201.616 30.406 C 201.046 32.170,200.580 33.718,200.580 33.847 C 200.580 34.514,207.772 36.207,207.944 35.580 C 213.528 15.224,231.749 3.741,250.870 8.527 " stroke="none" fill="#04ac33" fill-rule="evenodd"></path><path id="path1" d="M237.826 7.817 C 223.031 9.933,212.225 19.972,207.944 35.580 C 207.772 36.207,200.580 34.514,200.580 33.847 C 200.580 33.718,201.046 32.170,201.616 30.406 C 202.872 26.523,203.009 26.905,199.510 24.553 C 194.832 21.409,188.924 18.842,182.961 17.362 C 167.254 13.463,150.686 18.765,139.601 31.236 C 137.654 33.427,135.449 36.450,135.681 36.611 C 135.745 36.656,136.841 37.393,138.116 38.250 C 140.548 39.884,142.881 41.721,144.713 43.445 L 145.802 44.471 144.133 46.171 C 143.215 47.106,141.985 48.255,141.400 48.724 L 140.337 49.577 138.647 48.091 C 133.237 43.335,125.151 38.763,117.681 36.236 C 75.949 22.116,30.915 62.546,44.070 102.321 C 44.701 104.228,45.217 105.859,45.217 105.945 C 45.217 106.163,44.066 106.587,40.932 107.526 C 37.799 108.464,38.212 108.765,36.818 104.539 L 35.877 101.687 34.822 101.880 C 13.546 105.775,1.181 131.995,11.197 151.975 C 16.565 162.682,30.731 171.086,42.726 170.679 L 45.645 170.580 45.830 171.884 C 45.932 172.601,46.110 174.252,46.224 175.551 L 46.432 177.914 43.943 178.122 C 38.566 178.570,31.948 177.299,26.445 174.761 L 24.050 173.657 22.566 175.741 C 13.334 188.714,14.425 207.290,25.095 218.814 C 33.752 228.166,50.919 232.749,63.146 228.975 C 65.487 228.252,65.326 228.220,65.773 229.493 C 65.983 230.091,66.554 231.601,67.041 232.850 C 68.054 235.446,68.084 235.381,65.507 236.105 C 64.630 236.351,63.613 236.676,63.246 236.828 L 62.580 237.102 63.382 238.189 C 79.048 259.397,103.952 268.480,135.039 264.326 C 139.783 263.692,141.426 262.880,146.484 258.667 L 147.562 257.769 145.375 253.569 C 142.879 248.774,142.927 248.950,143.986 248.493 C 144.424 248.304,145.847 247.685,147.148 247.118 C 150.200 245.788,149.860 245.637,151.538 249.058 C 152.339 250.692,153.560 252.867,154.251 253.892 C 154.942 254.916,155.638 255.957,155.797 256.205 C 162.489 266.612,174.511 275.676,186.955 279.697 C 219.755 290.296,256.647 267.171,260.691 233.478 L 261.039 230.580 263.491 230.646 C 264.839 230.683,266.515 230.791,267.215 230.887 L 268.488 231.062 268.299 233.430 C 268.196 234.732,267.851 237.023,267.534 238.522 C 267.216 240.021,266.957 241.277,266.957 241.312 C 266.957 242.446,278.795 246.216,284.630 246.941 C 319.564 251.282,347.966 217.157,336.486 184.638 C 332.502 173.352,323.373 162.753,313.568 158.030 C 310.913 156.751,310.998 157.180,312.636 153.299 C 314.178 149.647,313.887 149.762,317.246 151.481 C 332.410 159.240,344.272 176.108,346.336 192.849 C 346.685 195.675,346.332 195.510,349.879 194.512 C 385.529 184.481,402.931 145.466,385.310 115.072 C 382.965 111.027,382.628 110.659,382.227 111.704 C 381.337 114.025,372.218 124.285,371.447 123.833 C 370.999 123.570,366.957 118.790,366.957 118.524 C 366.957 118.415,368.108 117.153,369.516 115.718 C 388.001 96.878,386.527 67.966,366.232 51.312 C 363.356 48.952,357.322 45.217,356.385 45.217 C 356.301 45.217,356.232 46.040,356.232 47.046 C 356.232 50.097,356.032 50.143,352.343 47.947 C 350.385 46.782,349.106 46.181,348.989 46.372 C 348.884 46.541,348.649 46.057,348.467 45.296 C 348.285 44.536,347.682 41.992,347.127 39.644 C 344.012 26.455,337.352 17.589,326.325 11.950 C 307.375 2.259,282.002 9.494,273.491 27.016 L 271.280 31.568 269.046 30.536 C 267.817 29.968,266.397 29.323,265.889 29.104 C 265.382 28.884,264.893 28.584,264.802 28.437 C 264.626 28.152,266.949 22.835,268.290 20.452 L 269.096 19.021 267.084 17.170 C 259.329 10.033,247.893 6.377,237.826 7.817 " stroke="none" fill="#5cbc1c" fill-rule="evenodd"></path></g></svg>