<?xml version="1.0" encoding="UTF-8"?>
<!DOCTYPE svg PUBLIC "-//W3C//DTD SVG 1.1//EN" "http://www.w3.org/Graphics/SVG/1.1/DTD/svg11.dtd">
<svg version="1.2" width="61.38mm" height="83.22mm" viewBox="10173 5913 6138 8322" preserveAspectRatio="xMidYMid" fill-rule="evenodd" stroke-width="28.222" stroke-linejoin="round" xmlns="http://www.w3.org/2000/svg" xmlns:ooo="http://xml.openoffice.org/svg/export" xmlns:xlink="http://www.w3.org/1999/xlink" xmlns:presentation="http://sun.com/xmlns/staroffice/presentation" xmlns:smil="http://www.w3.org/2001/SMIL20/" xmlns:anim="urn:oasis:names:tc:opendocument:xmlns:animation:1.0" xml:space="preserve">
 <defs class="EmbeddedBulletChars">
  <g id="bullet-char-template-57356" transform="scale(0.00048828125,-0.00048828125)">
   <path d="M 580,1141 L 1163,571 580,0 -4,571 580,1141 Z"/>
  </g>
  <g id="bullet-char-template-57354" transform="scale(0.00048828125,-0.00048828125)">
   <path d="M 8,1128 L 1137,1128 1137,0 8,0 8,1128 Z"/>
  </g>
  <g id="bullet-char-template-10146" transform="scale(0.00048828125,-0.00048828125)">
   <path d="M 174,0 L 602,739 174,1481 1456,739 174,0 Z M 1358,739 L 309,1346 659,739 1358,739 Z"/>
  </g>
  <g id="bullet-char-template-10132" transform="scale(0.00048828125,-0.00048828125)">
   <path d="M 2015,739 L 1276,0 717,0 1260,543 174,543 174,936 1260,936 717,1481 1274,1481 2015,739 Z"/>
  </g>
  <g id="bullet-char-template-10007" transform="scale(0.00048828125,-0.00048828125)">
   <path d="M 0,-2 C -7,14 -16,27 -25,37 L 356,567 C 262,823 215,952 215,954 215,979 228,992 255,992 264,992 276,990 289,987 310,991 331,999 354,1012 L 381,999 492,748 772,1049 836,1024 860,1049 C 881,1039 901,1025 922,1006 886,937 835,863 770,784 769,783 710,716 594,584 L 774,223 C 774,196 753,168 711,139 L 727,119 C 717,90 699,76 672,76 641,76 570,178 457,381 L 164,-76 C 142,-110 111,-127 72,-127 30,-127 9,-110 8,-76 1,-67 -2,-52 -2,-32 -2,-23 -1,-13 0,-2 Z"/>
  </g>
  <g id="bullet-char-template-10004" transform="scale(0.00048828125,-0.00048828125)">
   <path d="M 285,-33 C 182,-33 111,30 74,156 52,228 41,333 41,471 41,549 55,616 82,672 116,743 169,778 240,778 293,778 328,747 346,684 L 369,508 C 377,444 397,411 428,410 L 1163,1116 C 1174,1127 1196,1133 1229,1133 1271,1133 1292,1118 1292,1087 L 1292,965 C 1292,929 1282,901 1262,881 L 442,47 C 390,-6 338,-33 285,-33 Z"/>
  </g>
  <g id="bullet-char-template-9679" transform="scale(0.00048828125,-0.00048828125)">
   <path d="M 813,0 C 632,0 489,54 383,161 276,268 223,411 223,592 223,773 276,916 383,1023 489,1130 632,1184 813,1184 992,1184 1136,1130 1245,1023 1353,916 1407,772 1407,592 1407,412 1353,268 1245,161 1136,54 992,0 813,0 Z"/>
  </g>
  <g id="bullet-char-template-8226" transform="scale(0.00048828125,-0.00048828125)">
   <path d="M 346,457 C 273,457 209,483 155,535 101,586 74,649 74,723 74,796 101,859 155,911 209,963 273,989 346,989 419,989 480,963 531,910 582,859 608,796 608,723 608,648 583,586 532,535 482,483 420,457 346,457 Z"/>
  </g>
  <g id="bullet-char-template-8211" transform="scale(0.00048828125,-0.00048828125)">
   <path d="M -4,459 L 1135,459 1135,606 -4,606 -4,459 Z"/>
  </g>
  <g id="bullet-char-template-61548" transform="scale(0.00048828125,-0.00048828125)">
   <path d="M 173,740 C 173,903 231,1043 346,1159 462,1274 601,1332 765,1332 928,1332 1067,1274 1183,1159 1299,1043 1357,903 1357,740 1357,577 1299,437 1183,322 1067,206 928,148 765,148 601,148 462,206 346,322 231,437 173,577 173,740 Z"/>
  </g>
 </defs>
 <g class="Page">
  <g class="Group">
   <g class="com.sun.star.drawing.ClosedBezierShape">
    <g id="id3">
     <rect class="BoundingBox" stroke="none" fill="none" x="10173" y="5913" width="6138" height="6138"/>
     <path fill="none" stroke="rgb(38,38,38)" stroke-width="185" stroke-linejoin="round" stroke-linecap="round" d="M 13242,11957 L 15688,11957 C 15981,11957 16217,11721 16217,11428 L 16217,6535 C 16217,6243 15981,6006 15688,6006 L 10795,6006 C 10502,6006 10266,6243 10266,6535 L 10266,11428 C 10266,11721 10502,11957 10795,11957 L 13242,11957 Z"/>
    </g>
   </g>
   <g class="com.sun.star.drawing.OpenBezierShape">
    <g id="id4">
     <rect class="BoundingBox" stroke="none" fill="none" x="11946" y="7064" width="851" height="3339"/>
     <path fill="none" stroke="rgb(38,38,38)" stroke-width="185" stroke-linejoin="round" stroke-linecap="round" d="M 12703,7157 L 12370,7157 12370,7157 12370,7157 C 12312,7157 12254,7172 12204,7201 12153,7230 12112,7271 12083,7322 12054,7372 12039,7430 12039,7488 L 12039,7488 12039,10309"/>
    </g>
   </g>
   <g class="com.sun.star.drawing.PolyLineShape">
    <g id="id5">
     <rect class="BoundingBox" stroke="none" fill="none" x="14102" y="7561" width="187" height="354"/>
     <path fill="none" stroke="rgb(38,38,38)" stroke-width="185" stroke-linejoin="round" stroke-linecap="round" d="M 14195,7821 L 14195,7666 14195,7654"/>
    </g>
   </g>
   <g class="com.sun.star.drawing.OpenBezierShape">
    <g id="id6">
     <rect class="BoundingBox" stroke="none" fill="none" x="12610" y="7064" width="2343" height="696"/>
     <path fill="none" stroke="rgb(38,38,38)" stroke-width="185" stroke-linejoin="round" stroke-linecap="round" d="M 12703,7157 L 14527,7157 14527,7157 C 14586,7157 14643,7172 14693,7201 14744,7230 14786,7271 14815,7322 14844,7372 14859,7430 14859,7488 L 14859,7488 14859,7666 14195,7666"/>
    </g>
   </g>
   <g class="com.sun.star.drawing.OpenBezierShape">
    <g id="id7">
     <rect class="BoundingBox" stroke="none" fill="none" x="14102" y="7064" width="519" height="684"/>
     <path fill="none" stroke="rgb(38,38,38)" stroke-width="185" stroke-linejoin="round" stroke-linecap="round" d="M 14527,7157 L 14527,7157 14527,7157 C 14469,7157 14412,7172 14361,7201 14311,7230 14269,7272 14240,7323 14210,7373 14195,7430 14195,7488 L 14195,7654"/>
    </g>
   </g>
   <g class="com.sun.star.drawing.OpenBezierShape">
    <g id="id8">
     <rect class="BoundingBox" stroke="none" fill="none" x="11531" y="7728" width="2758" height="3173"/>
     <path fill="none" stroke="rgb(38,38,38)" stroke-width="185" stroke-linejoin="round" stroke-linecap="round" d="M 13863,10807 L 13863,10807 C 13805,10807 13748,10791 13698,10762 13647,10733 13606,10692 13576,10641 13547,10591 13532,10533 13532,10475 L 13532,10475 13532,10309 11707,10309 11707,10309 C 11693,10309 11679,10313 11666,10320 11653,10327 11643,10339 11636,10350 11628,10364 11624,10377 11624,10392 L 11624,10475 11624,10475 11624,10475 C 11624,10533 11640,10591 11669,10641 11698,10692 11740,10733 11790,10762 11840,10791 11898,10807 11956,10807 L 13863,10807 13863,10807 C 13863,10807 13863,10807 13864,10807 13922,10807 13979,10791 14029,10762 14080,10733 14122,10692 14151,10641 14180,10591 14195,10533 14195,10475 L 14195,10475 14195,7821"/>
    </g>
   </g>
   <g class="com.sun.star.drawing.ClosedBezierShape">
    <g id="id9">
     <rect class="BoundingBox" stroke="none" fill="none" x="11764" y="13307" width="433" height="928"/>
     <path fill="rgb(38,38,38)" stroke="none" d="M 11765,14186 L 11765,13353 11765,13353 C 11765,13352 11765,13350 11765,13349 11765,13341 11767,13335 11771,13328 11774,13322 11779,13316 11786,13312 11792,13308 11800,13307 11807,13307 11809,13307 11810,13307 11811,13307 L 11979,13307 C 12125,13307 12196,13387 12196,13536 L 12196,13627 C 12196,13775 12125,13856 11979,13856 L 11911,13856 11911,14186 11911,14186 C 11911,14188 11911,14189 11911,14191 11911,14198 11909,14206 11905,14212 11901,14219 11896,14224 11890,14227 11883,14231 11876,14233 11869,14233 11867,14233 11866,14233 11864,14233 L 11811,14233 11811,14233 C 11810,14233 11809,14233 11807,14233 11800,14233 11792,14231 11786,14227 11779,14224 11774,14219 11771,14212 11767,14206 11765,14198 11765,14191 11765,14189 11765,14188 11765,14186 Z M 11979,13723 C 12026,13723 12051,13702 12051,13636 L 12051,13526 C 12051,13460 12024,13439 11979,13439 L 11911,13439 11911,13723 11979,13723 Z"/>
    </g>
   </g>
   <g class="com.sun.star.drawing.ClosedBezierShape">
    <g id="id10">
     <rect class="BoundingBox" stroke="none" fill="none" x="12326" y="13307" width="493" height="928"/>
     <path fill="rgb(38,38,38)" stroke="none" d="M 12327,14193 L 12327,14193 C 12327,14189 12328,14185 12329,14181 L 12468,13349 12468,13349 C 12468,13342 12470,13336 12474,13329 12477,13323 12483,13317 12490,13313 12497,13309 12505,13307 12512,13307 12514,13307 12515,13307 12517,13307 L 12629,13307 12629,13307 C 12630,13307 12632,13307 12633,13307 12641,13307 12649,13309 12656,13313 12662,13317 12668,13322 12672,13329 12675,13335 12678,13342 12678,13349 L 12817,14181 12817,14181 C 12818,14185 12818,14189 12818,14193 12818,14219 12802,14233 12774,14233 L 12723,14233 12723,14233 C 12721,14233 12720,14233 12718,14233 12710,14233 12702,14231 12695,14227 12688,14223 12683,14217 12679,14210 12675,14204 12673,14197 12673,14190 L 12653,14049 12653,14051 12482,14051 12462,14190 12462,14190 C 12462,14197 12459,14204 12456,14210 12451,14217 12447,14223 12440,14227 12433,14231 12425,14233 12417,14233 12415,14233 12414,14233 12412,14233 L 12371,14233 C 12342,14233 12327,14219 12327,14193 Z M 12636,13926 L 12568,13468 12565,13468 12499,13926 12636,13926 Z"/>
    </g>
   </g>
   <g class="com.sun.star.drawing.ClosedBezierShape">
    <g id="id11">
     <rect class="BoundingBox" stroke="none" fill="none" x="13023" y="13307" width="434" height="928"/>
     <path fill="rgb(38,38,38)" stroke="none" d="M 13024,14186 L 13024,13353 13024,13353 C 13024,13352 13024,13350 13024,13349 13024,13341 13026,13335 13030,13328 13033,13322 13038,13316 13045,13312 13051,13308 13059,13307 13066,13307 13068,13307 13069,13307 13071,13307 L 13239,13307 C 13383,13307 13455,13387 13455,13536 L 13455,13627 C 13455,13775 13383,13856 13239,13856 L 13170,13856 13170,14186 13170,14186 C 13170,14188 13170,14189 13170,14191 13170,14198 13167,14206 13164,14212 13160,14219 13155,14224 13149,14227 13142,14231 13135,14233 13128,14233 13126,14233 13125,14233 13123,14233 L 13071,14233 13071,14233 C 13069,14233 13068,14233 13066,14233 13059,14233 13051,14231 13045,14227 13038,14224 13033,14219 13030,14212 13026,14206 13024,14198 13024,14191 13024,14189 13024,14188 13024,14186 Z M 13239,13723 C 13284,13723 13309,13702 13309,13636 L 13309,13526 C 13309,13460 13284,13439 13239,13439 L 13170,13439 13170,13723 13239,13723 Z"/>
    </g>
   </g>
   <g class="com.sun.star.drawing.ClosedBezierShape">
    <g id="id12">
     <rect class="BoundingBox" stroke="none" fill="none" x="13666" y="13307" width="399" height="928"/>
     <path fill="rgb(38,38,38)" stroke="none" d="M 13666,14186 L 13666,13353 13666,13353 C 13666,13352 13666,13350 13666,13349 13666,13341 13669,13335 13672,13328 13676,13322 13681,13316 13687,13312 13694,13308 13701,13307 13708,13307 13710,13307 13711,13307 13712,13307 L 14017,13307 14017,13307 C 14018,13307 14019,13307 14021,13307 14028,13307 14036,13308 14042,13312 14049,13316 14054,13322 14058,13328 14062,13335 14063,13342 14063,13349 14063,13350 14063,13352 14063,13353 L 14063,13393 14063,13393 C 14063,13394 14063,13395 14063,13397 14063,13404 14062,13412 14058,13418 14054,13425 14049,13431 14042,13434 14036,13438 14028,13439 14021,13439 14019,13439 14018,13439 14017,13439 L 13812,13439 13812,13684 13965,13684 13965,13684 C 13967,13684 13968,13684 13969,13684 13977,13684 13984,13685 13990,13689 13997,13693 14002,13699 14006,13705 14010,13712 14012,13718 14012,13726 14012,13727 14012,13729 14011,13730 L 14011,13770 14011,13770 C 14012,13771 14012,13773 14012,13774 14012,13781 14010,13789 14006,13795 14002,13802 13997,13808 13990,13811 13984,13815 13977,13816 13969,13816 13968,13816 13967,13816 13965,13816 L 13812,13816 13812,14100 14017,14100 14017,14100 C 14018,14100 14019,14100 14021,14100 14028,14100 14036,14102 14042,14106 14049,14110 14054,14116 14058,14122 14062,14129 14063,14135 14063,14143 14063,14144 14063,14145 14063,14147 L 14063,14186 14063,14186 C 14063,14188 14063,14189 14063,14190 14063,14198 14062,14206 14058,14212 14054,14219 14049,14223 14042,14227 14036,14231 14028,14233 14021,14233 14019,14233 14018,14233 14017,14233 L 13712,14233 13712,14233 C 13711,14233 13710,14233 13708,14233 13701,14233 13694,14231 13687,14227 13681,14224 13676,14219 13672,14212 13669,14206 13666,14198 13666,14191 13666,14189 13666,14188 13666,14186 Z"/>
    </g>
   </g>
   <g class="com.sun.star.drawing.ClosedBezierShape">
    <g id="id13">
     <rect class="BoundingBox" stroke="none" fill="none" x="14278" y="13306" width="443" height="929"/>
     <path fill="rgb(38,38,38)" stroke="none" d="M 14279,14186 L 14279,13353 14279,13353 C 14279,13352 14278,13350 14278,13349 14278,13341 14280,13335 14284,13328 14288,13322 14294,13316 14300,13312 14307,13308 14313,13306 14321,13306 14322,13306 14324,13307 14326,13307 L 14495,13307 C 14646,13307 14711,13377 14711,13520 L 14711,13577 C 14711,13672 14680,13733 14615,13759 L 14615,13762 C 14688,13784 14712,13853 14712,13958 L 14712,14120 14712,14120 C 14712,14124 14712,14128 14712,14132 14712,14149 14713,14166 14716,14182 L 14716,14182 C 14717,14188 14718,14194 14719,14200 14719,14221 14704,14233 14679,14233 L 14621,14233 14621,14233 C 14619,14233 14617,14233 14614,14233 14607,14233 14599,14231 14592,14227 14586,14223 14581,14218 14576,14211 14574,14206 14571,14199 14570,14193 L 14570,14193 C 14568,14173 14566,14152 14566,14131 14566,14127 14566,14123 14567,14119 L 14567,13950 C 14567,13864 14540,13836 14475,13836 L 14425,13836 14425,14186 14425,14186 C 14425,14188 14425,14189 14425,14191 14425,14198 14424,14206 14420,14212 14417,14219 14410,14224 14404,14227 14398,14231 14390,14233 14383,14233 14381,14233 14380,14233 14379,14233 L 14326,14233 14326,14233 C 14324,14233 14322,14233 14321,14233 14313,14233 14307,14231 14300,14227 14294,14224 14288,14219 14284,14212 14280,14206 14278,14198 14278,14191 14278,14189 14279,14188 14279,14186 Z M 14477,13704 C 14530,13704 14564,13680 14564,13606 L 14564,13534 C 14564,13468 14542,13439 14490,13439 L 14424,13439 14424,13704 14477,13704 Z"/>
    </g>
   </g>
  </g>
 </g>
</svg>