<?xml version="1.0" encoding="UTF-8"?>
<!DOCTYPE svg PUBLIC "-//W3C//DTD SVG 1.1//EN" "http://www.w3.org/Graphics/SVG/1.1/DTD/svg11.dtd">
<svg version="1.2" width="61.4mm" height="83.35mm" viewBox="2699 5913 6140 8335" preserveAspectRatio="xMidYMid" fill-rule="evenodd" stroke-width="28.222" stroke-linejoin="round" xmlns="http://www.w3.org/2000/svg" xmlns:ooo="http://xml.openoffice.org/svg/export" xmlns:xlink="http://www.w3.org/1999/xlink" xmlns:presentation="http://sun.com/xmlns/staroffice/presentation" xmlns:smil="http://www.w3.org/2001/SMIL20/" xmlns:anim="urn:oasis:names:tc:opendocument:xmlns:animation:1.0" xml:space="preserve">
 <defs class="EmbeddedBulletChars">
  <g id="bullet-char-template-57356" transform="scale(0.00048828125,-0.00048828125)">
   <path d="M 580,1141 L 1163,571 580,0 -4,571 580,1141 Z"/>
  </g>
  <g id="bullet-char-template-57354" transform="scale(0.00048828125,-0.00048828125)">
   <path d="M 8,1128 L 1137,1128 1137,0 8,0 8,1128 Z"/>
  </g>
  <g id="bullet-char-template-10146" transform="scale(0.00048828125,-0.00048828125)">
   <path d="M 174,0 L 602,739 174,1481 1456,739 174,0 Z M 1358,739 L 309,1346 659,739 1358,739 Z"/>
  </g>
  <g id="bullet-char-template-10132" transform="scale(0.00048828125,-0.00048828125)">
   <path d="M 2015,739 L 1276,0 717,0 1260,543 174,543 174,936 1260,936 717,1481 1274,1481 2015,739 Z"/>
  </g>
  <g id="bullet-char-template-10007" transform="scale(0.00048828125,-0.00048828125)">
   <path d="M 0,-2 C -7,14 -16,27 -25,37 L 356,567 C 262,823 215,952 215,954 215,979 228,992 255,992 264,992 276,990 289,987 310,991 331,999 354,1012 L 381,999 492,748 772,1049 836,1024 860,1049 C 881,1039 901,1025 922,1006 886,937 835,863 770,784 769,783 710,716 594,584 L 774,223 C 774,196 753,168 711,139 L 727,119 C 717,90 699,76 672,76 641,76 570,178 457,381 L 164,-76 C 142,-110 111,-127 72,-127 30,-127 9,-110 8,-76 1,-67 -2,-52 -2,-32 -2,-23 -1,-13 0,-2 Z"/>
  </g>
  <g id="bullet-char-template-10004" transform="scale(0.00048828125,-0.00048828125)">
   <path d="M 285,-33 C 182,-33 111,30 74,156 52,228 41,333 41,471 41,549 55,616 82,672 116,743 169,778 240,778 293,778 328,747 346,684 L 369,508 C 377,444 397,411 428,410 L 1163,1116 C 1174,1127 1196,1133 1229,1133 1271,1133 1292,1118 1292,1087 L 1292,965 C 1292,929 1282,901 1262,881 L 442,47 C 390,-6 338,-33 285,-33 Z"/>
  </g>
  <g id="bullet-char-template-9679" transform="scale(0.00048828125,-0.00048828125)">
   <path d="M 813,0 C 632,0 489,54 383,161 276,268 223,411 223,592 223,773 276,916 383,1023 489,1130 632,1184 813,1184 992,1184 1136,1130 1245,1023 1353,916 1407,772 1407,592 1407,412 1353,268 1245,161 1136,54 992,0 813,0 Z"/>
  </g>
  <g id="bullet-char-template-8226" transform="scale(0.00048828125,-0.00048828125)">
   <path d="M 346,457 C 273,457 209,483 155,535 101,586 74,649 74,723 74,796 101,859 155,911 209,963 273,989 346,989 419,989 480,963 531,910 582,859 608,796 608,723 608,648 583,586 532,535 482,483 420,457 346,457 Z"/>
  </g>
  <g id="bullet-char-template-8211" transform="scale(0.00048828125,-0.00048828125)">
   <path d="M -4,459 L 1135,459 1135,606 -4,606 -4,459 Z"/>
  </g>
  <g id="bullet-char-template-61548" transform="scale(0.00048828125,-0.00048828125)">
   <path d="M 173,740 C 173,903 231,1043 346,1159 462,1274 601,1332 765,1332 928,1332 1067,1274 1183,1159 1299,1043 1357,903 1357,740 1357,577 1299,437 1183,322 1067,206 928,148 765,148 601,148 462,206 346,322 231,437 173,577 173,740 Z"/>
  </g>
 </defs>
 <g class="Page">
  <g class="Group">
   <g class="com.sun.star.drawing.ClosedBezierShape">
    <g id="id3">
     <rect class="BoundingBox" stroke="none" fill="none" x="2699" y="5913" width="6140" height="6138"/>
     <path fill="none" stroke="rgb(38,38,38)" stroke-width="185" stroke-linejoin="round" stroke-linecap="round" d="M 5769,11957 L 8216,11957 C 8508,11957 8745,11721 8745,11428 L 8745,6535 C 8745,6243 8508,6006 8216,6006 L 3321,6006 C 3029,6006 2792,6243 2792,6535 L 2792,11428 C 2792,11721 3029,11957 3321,11957 L 5769,11957 Z"/>
    </g>
   </g>
   <g class="com.sun.star.drawing.OpenBezierShape">
    <g id="id4">
     <rect class="BoundingBox" stroke="none" fill="none" x="4415" y="8484" width="2709" height="2496"/>
     <path fill="none" stroke="rgb(38,38,38)" stroke-width="185" stroke-linejoin="round" stroke-linecap="round" d="M 7030,8577 L 7030,9847 7030,9847 C 7030,10029 6982,10208 6891,10366 6800,10524 6668,10656 6510,10747 6352,10839 6173,10886 5991,10886 L 5547,10886 5547,10886 C 5365,10886 5185,10839 5027,10747 4868,10656 4738,10524 4647,10366 4556,10208 4508,10029 4508,9847 L 4508,9847 4508,8593"/>
    </g>
   </g>
   <g class="com.sun.star.drawing.OpenBezierShape">
    <g id="id5">
     <rect class="BoundingBox" stroke="none" fill="none" x="4415" y="6984" width="817" height="1704"/>
     <path fill="none" stroke="rgb(38,38,38)" stroke-width="185" stroke-linejoin="round" stroke-linecap="round" d="M 4508,8594 L 4508,7393 4508,7393 4508,7393 C 4508,7337 4522,7283 4550,7235 4578,7187 4617,7146 4665,7119 4713,7091 4768,7077 4823,7077 L 4823,7077 4823,7077 C 4878,7077 4933,7091 4980,7119 5028,7146 5068,7187 5096,7235 5123,7283 5138,7337 5138,7393 L 5138,7393 5138,8594"/>
    </g>
   </g>
   <g class="com.sun.star.drawing.OpenBezierShape">
    <g id="id6">
     <rect class="BoundingBox" stroke="none" fill="none" x="6307" y="6984" width="817" height="1704"/>
     <path fill="none" stroke="rgb(38,38,38)" stroke-width="185" stroke-linejoin="round" stroke-linecap="round" d="M 6400,8594 L 6400,7393 6400,7393 6400,7393 C 6400,7337 6414,7283 6442,7235 6469,7187 6509,7146 6557,7119 6605,7091 6660,7077 6715,7077 L 6715,7077 6715,7077 6715,7077 6715,7077 C 6770,7077 6825,7091 6873,7119 6921,7146 6960,7187 6988,7235 7016,7283 7030,7337 7030,7393 L 7030,7393 7030,8594"/>
    </g>
   </g>
   <g class="com.sun.star.drawing.OpenBezierShape">
    <g id="id7">
     <rect class="BoundingBox" stroke="none" fill="none" x="5045" y="7922" width="818" height="1090"/>
     <path fill="none" stroke="rgb(38,38,38)" stroke-width="185" stroke-linejoin="round" stroke-linecap="round" d="M 5138,8918 L 5138,8330 5138,8330 5138,8330 C 5138,8275 5152,8219 5180,8172 5207,8124 5248,8085 5296,8057 5344,8029 5398,8015 5453,8015 L 5453,8015 5453,8015 5454,8015 C 5509,8015 5563,8029 5611,8057 5659,8085 5699,8124 5727,8172 5754,8220 5769,8275 5769,8330 L 5769,8330 5769,8492"/>
    </g>
   </g>
   <g class="com.sun.star.drawing.OpenBezierShape">
    <g id="id8">
     <rect class="BoundingBox" stroke="none" fill="none" x="5676" y="7922" width="818" height="1585"/>
     <path fill="none" stroke="rgb(38,38,38)" stroke-width="185" stroke-linejoin="round" stroke-linecap="round" d="M 5769,8963 L 5769,8330 5769,8330 5769,8330 C 5769,8275 5783,8219 5811,8172 5839,8124 5878,8085 5926,8057 5973,8029 6029,8015 6084,8015 L 6084,8015 6084,8015 6084,8015 C 6140,8015 6194,8029 6242,8057 6290,8085 6329,8124 6357,8172 6384,8220 6400,8275 6400,8330 L 6400,8330 6400,9097 6400,9097 C 6400,9153 6384,9207 6357,9255 6329,9303 6290,9343 6242,9371 6194,9398 6140,9413 6084,9413 L 6084,9413 6084,9413 6082,9413 C 6027,9413 5973,9398 5926,9371 5920,9367 5914,9364 5908,9360"/>
    </g>
   </g>
   <g class="com.sun.star.drawing.OpenBezierShape">
    <g id="id9">
     <rect class="BoundingBox" stroke="none" fill="none" x="4415" y="8825" width="1601" height="818"/>
     <path fill="none" stroke="rgb(38,38,38)" stroke-width="185" stroke-linejoin="round" stroke-linecap="round" d="M 4508,9288 L 4508,9288 C 4508,9223 4524,9159 4557,9103 4589,9046 4636,9000 4693,8968 4749,8935 4813,8918 4878,8918 L 5607,8918 5607,8918 C 5662,8918 5717,8932 5765,8960 5813,8987 5852,9028 5880,9076 5908,9124 5922,9178 5922,9233 L 5922,9233 5922,9233 5922,9233 5922,9234 C 5922,9289 5908,9343 5880,9391 5852,9439 5813,9479 5765,9507 5717,9534 5662,9549 5607,9549 L 5607,9549 5116,9549"/>
    </g>
   </g>
   <g class="com.sun.star.drawing.OpenBezierShape">
    <g id="id10">
     <rect class="BoundingBox" stroke="none" fill="none" x="5386" y="9456" width="528" height="748"/>
     <path fill="none" stroke="rgb(38,38,38)" stroke-width="185" stroke-linejoin="round" stroke-linecap="round" d="M 5479,9549 L 5479,9549 5479,9549 C 5539,9549 5598,9564 5650,9594 5701,9623 5744,9667 5774,9719 5803,9771 5820,9830 5820,9890 L 5820,9890 5820,10110"/>
    </g>
   </g>
   <g class="com.sun.star.drawing.ClosedBezierShape">
    <g id="id11">
     <rect class="BoundingBox" stroke="none" fill="none" x="4551" y="13307" width="441" height="928"/>
     <path fill="rgb(38,38,38)" stroke="none" d="M 4552,14186 L 4552,13353 4552,13353 C 4552,13352 4552,13350 4552,13349 4552,13341 4553,13335 4557,13328 4560,13322 4566,13316 4573,13312 4579,13308 4586,13307 4594,13307 4595,13307 4597,13307 4598,13307 L 4767,13307 C 4918,13307 4983,13377 4983,13520 L 4983,13577 C 4983,13672 4953,13733 4888,13759 L 4888,13762 C 4961,13784 4984,13853 4984,13958 L 4984,14120 4984,14120 C 4984,14124 4984,14128 4984,14132 4984,14149 4986,14166 4988,14182 L 4988,14182 C 4990,14188 4991,14194 4991,14200 4991,14221 4976,14233 4951,14233 L 4893,14233 4893,14233 C 4891,14233 4889,14233 4887,14233 4879,14233 4871,14231 4865,14227 4858,14223 4853,14218 4849,14211 4846,14206 4843,14199 4843,14193 L 4843,14193 C 4840,14173 4839,14152 4839,14131 4839,14127 4839,14123 4839,14119 L 4839,13950 C 4839,13864 4814,13836 4748,13836 L 4696,13836 4696,14186 4696,14186 C 4696,14188 4696,14189 4696,14191 4696,14198 4694,14206 4691,14212 4687,14219 4681,14224 4675,14227 4668,14231 4662,14233 4654,14233 4653,14233 4651,14233 4650,14233 L 4597,14233 4597,14233 C 4596,14233 4595,14233 4594,14233 4586,14233 4579,14231 4573,14227 4566,14223 4560,14219 4557,14212 4553,14206 4552,14198 4552,14191 4552,14189 4552,14188 4552,14186 Z M 4749,13704 C 4803,13704 4836,13680 4836,13606 L 4836,13534 C 4836,13468 4814,13439 4762,13439 L 4696,13439 4696,13704 4749,13704 Z"/>
    </g>
   </g>
   <g class="com.sun.star.drawing.ClosedBezierShape">
    <g id="id12">
     <rect class="BoundingBox" stroke="none" fill="none" x="5206" y="13294" width="443" height="954"/>
     <path fill="rgb(38,38,38)" stroke="none" d="M 5207,14013 L 5207,13526 C 5207,13378 5286,13294 5428,13294 5569,13294 5648,13378 5648,13526 L 5648,14013 C 5648,14161 5569,14246 5428,14246 5286,14246 5207,14161 5207,14013 Z M 5503,14022 L 5503,13517 C 5503,13451 5474,13426 5428,13426 5381,13426 5352,13451 5352,13517 L 5352,14022 C 5352,14089 5381,14114 5428,14114 5474,14114 5503,14089 5503,14022 Z"/>
    </g>
   </g>
   <g class="com.sun.star.drawing.ClosedBezierShape">
    <g id="id13">
     <rect class="BoundingBox" stroke="none" fill="none" x="5868" y="13294" width="431" height="954"/>
     <path fill="rgb(38,38,38)" stroke="none" d="M 5869,14018 L 5869,13521 C 5869,13378 5943,13294 6084,13294 6224,13294 6298,13378 6298,13521 L 6298,13573 6298,13573 C 6298,13574 6298,13575 6298,13577 6298,13584 6295,13592 6292,13598 6288,13604 6283,13610 6277,13613 6271,13617 6263,13619 6256,13619 6254,13619 6253,13619 6252,13619 L 6207,13619 6207,13619 C 6205,13619 6204,13619 6202,13619 6195,13619 6187,13617 6181,13613 6174,13610 6170,13604 6166,13598 6162,13592 6160,13584 6160,13577 6160,13575 6160,13574 6160,13573 L 6160,13512 C 6160,13451 6131,13426 6088,13426 6044,13426 6015,13451 6015,13512 L 6015,14029 C 6015,14090 6044,14114 6088,14114 6131,14114 6160,14090 6160,14029 L 6160,13934 6160,13934 C 6160,13932 6160,13931 6160,13930 6160,13922 6162,13915 6166,13908 6170,13902 6174,13897 6181,13893 6187,13889 6195,13887 6202,13887 6204,13887 6205,13887 6207,13887 L 6252,13887 6252,13887 C 6253,13887 6254,13887 6256,13887 6263,13887 6271,13889 6277,13893 6283,13897 6288,13902 6292,13908 6295,13915 6298,13922 6298,13930 6298,13931 6298,13932 6298,13934 L 6298,14018 C 6298,14161 6224,14246 6084,14246 5943,14246 5869,14161 5869,14018 Z"/>
    </g>
   </g>
   <g class="com.sun.star.drawing.ClosedBezierShape">
    <g id="id14">
     <rect class="BoundingBox" stroke="none" fill="none" x="6516" y="13307" width="472" height="928"/>
     <path fill="rgb(38,38,38)" stroke="none" d="M 6518,14186 L 6518,13353 6518,13353 C 6517,13352 6517,13350 6517,13349 6517,13341 6519,13335 6523,13328 6527,13322 6532,13316 6539,13312 6545,13308 6552,13307 6560,13307 6561,13307 6562,13307 6564,13307 L 6617,13307 6617,13307 C 6618,13307 6620,13307 6621,13307 6628,13307 6635,13308 6642,13312 6648,13316 6654,13322 6658,13328 6661,13335 6663,13341 6663,13349 6663,13350 6663,13352 6663,13353 L 6663,13697 6836,13341 6836,13341 C 6837,13339 6838,13337 6840,13334 6845,13326 6852,13319 6860,13314 6868,13309 6878,13307 6888,13307 6889,13307 6890,13307 6891,13307 L 6936,13307 C 6962,13307 6977,13319 6977,13337 L 6977,13337 C 6976,13346 6974,13354 6970,13361 L 6820,13647 6983,14176 6983,14176 C 6986,14183 6987,14191 6987,14198 6987,14221 6973,14233 6946,14233 L 6889,14233 6889,14233 C 6889,14233 6888,14233 6887,14233 6878,14233 6869,14231 6861,14226 6853,14222 6846,14214 6841,14206 6839,14203 6838,14199 6836,14194 L 6721,13820 6663,13938 6663,14186 6663,14186 C 6663,14188 6663,14189 6663,14191 6663,14198 6661,14206 6658,14212 6654,14219 6648,14224 6642,14227 6635,14231 6628,14233 6621,14233 6620,14233 6618,14233 6617,14233 L 6564,14233 6564,14233 C 6562,14233 6561,14233 6560,14233 6552,14233 6545,14231 6539,14227 6532,14224 6527,14219 6523,14212 6519,14206 6517,14198 6517,14191 6517,14189 6517,14188 6518,14186 Z"/>
    </g>
   </g>
  </g>
 </g>
</svg>