<?xml version="1.0" encoding="UTF-8"?>
<!DOCTYPE svg PUBLIC "-//W3C//DTD SVG 1.1//EN" "http://www.w3.org/Graphics/SVG/1.1/DTD/svg11.dtd">
<svg version="1.2" width="61.4mm" height="83.36mm" viewBox="17645 5913 6140 8336" preserveAspectRatio="xMidYMid" fill-rule="evenodd" stroke-width="28.222" stroke-linejoin="round" xmlns="http://www.w3.org/2000/svg" xmlns:ooo="http://xml.openoffice.org/svg/export" xmlns:xlink="http://www.w3.org/1999/xlink" xmlns:presentation="http://sun.com/xmlns/staroffice/presentation" xmlns:smil="http://www.w3.org/2001/SMIL20/" xmlns:anim="urn:oasis:names:tc:opendocument:xmlns:animation:1.0" xml:space="preserve">
 <defs class="EmbeddedBulletChars">
  <g id="bullet-char-template-57356" transform="scale(0.00048828125,-0.00048828125)">
   <path d="M 580,1141 L 1163,571 580,0 -4,571 580,1141 Z"/>
  </g>
  <g id="bullet-char-template-57354" transform="scale(0.00048828125,-0.00048828125)">
   <path d="M 8,1128 L 1137,1128 1137,0 8,0 8,1128 Z"/>
  </g>
  <g id="bullet-char-template-10146" transform="scale(0.00048828125,-0.00048828125)">
   <path d="M 174,0 L 602,739 174,1481 1456,739 174,0 Z M 1358,739 L 309,1346 659,739 1358,739 Z"/>
  </g>
  <g id="bullet-char-template-10132" transform="scale(0.00048828125,-0.00048828125)">
   <path d="M 2015,739 L 1276,0 717,0 1260,543 174,543 174,936 1260,936 717,1481 1274,1481 2015,739 Z"/>
  </g>
  <g id="bullet-char-template-10007" transform="scale(0.00048828125,-0.00048828125)">
   <path d="M 0,-2 C -7,14 -16,27 -25,37 L 356,567 C 262,823 215,952 215,954 215,979 228,992 255,992 264,992 276,990 289,987 310,991 331,999 354,1012 L 381,999 492,748 772,1049 836,1024 860,1049 C 881,1039 901,1025 922,1006 886,937 835,863 770,784 769,783 710,716 594,584 L 774,223 C 774,196 753,168 711,139 L 727,119 C 717,90 699,76 672,76 641,76 570,178 457,381 L 164,-76 C 142,-110 111,-127 72,-127 30,-127 9,-110 8,-76 1,-67 -2,-52 -2,-32 -2,-23 -1,-13 0,-2 Z"/>
  </g>
  <g id="bullet-char-template-10004" transform="scale(0.00048828125,-0.00048828125)">
   <path d="M 285,-33 C 182,-33 111,30 74,156 52,228 41,333 41,471 41,549 55,616 82,672 116,743 169,778 240,778 293,778 328,747 346,684 L 369,508 C 377,444 397,411 428,410 L 1163,1116 C 1174,1127 1196,1133 1229,1133 1271,1133 1292,1118 1292,1087 L 1292,965 C 1292,929 1282,901 1262,881 L 442,47 C 390,-6 338,-33 285,-33 Z"/>
  </g>
  <g id="bullet-char-template-9679" transform="scale(0.00048828125,-0.00048828125)">
   <path d="M 813,0 C 632,0 489,54 383,161 276,268 223,411 223,592 223,773 276,916 383,1023 489,1130 632,1184 813,1184 992,1184 1136,1130 1245,1023 1353,916 1407,772 1407,592 1407,412 1353,268 1245,161 1136,54 992,0 813,0 Z"/>
  </g>
  <g id="bullet-char-template-8226" transform="scale(0.00048828125,-0.00048828125)">
   <path d="M 346,457 C 273,457 209,483 155,535 101,586 74,649 74,723 74,796 101,859 155,911 209,963 273,989 346,989 419,989 480,963 531,910 582,859 608,796 608,723 608,648 583,586 532,535 482,483 420,457 346,457 Z"/>
  </g>
  <g id="bullet-char-template-8211" transform="scale(0.00048828125,-0.00048828125)">
   <path d="M -4,459 L 1135,459 1135,606 -4,606 -4,459 Z"/>
  </g>
  <g id="bullet-char-template-61548" transform="scale(0.00048828125,-0.00048828125)">
   <path d="M 173,740 C 173,903 231,1043 346,1159 462,1274 601,1332 765,1332 928,1332 1067,1274 1183,1159 1299,1043 1357,903 1357,740 1357,577 1299,437 1183,322 1067,206 928,148 765,148 601,148 462,206 346,322 231,437 173,577 173,740 Z"/>
  </g>
 </defs>
 <g class="Page">
  <g class="Group">
   <g class="com.sun.star.drawing.ClosedBezierShape">
    <g id="id3">
     <rect class="BoundingBox" stroke="none" fill="none" x="17645" y="5913" width="6140" height="6138"/>
     <path fill="none" stroke="rgb(38,38,38)" stroke-width="185" stroke-linejoin="round" stroke-linecap="round" d="M 20714,11957 L 23162,11957 C 23454,11957 23691,11721 23691,11428 L 23691,6535 C 23691,6243 23454,6006 23162,6006 L 18267,6006 C 17975,6006 17738,6243 17738,6535 L 17738,11428 C 17738,11721 17975,11957 18267,11957 L 20714,11957 Z"/>
    </g>
   </g>
   <g class="com.sun.star.drawing.LineShape">
    <g id="id4">
     <rect class="BoundingBox" stroke="none" fill="none" x="20669" y="9582" width="486" height="532"/>
     <path fill="none" stroke="rgb(38,38,38)" stroke-width="185" stroke-linejoin="round" stroke-linecap="round" d="M 20762,9675 L 21061,10020"/>
    </g>
   </g>
   <g class="com.sun.star.drawing.OpenBezierShape">
    <g id="id5">
     <rect class="BoundingBox" stroke="none" fill="none" x="19236" y="6984" width="1572" height="2265"/>
     <path fill="none" stroke="rgb(38,38,38)" stroke-width="185" stroke-linejoin="round" stroke-linecap="round" d="M 20714,8679 L 19461,7077 C 19242,7479 19300,7992 19600,8323 L 20315,9155"/>
    </g>
   </g>
   <g class="com.sun.star.drawing.LineShape">
    <g id="id6">
     <rect class="BoundingBox" stroke="none" fill="none" x="21054" y="9139" width="533" height="630"/>
     <path fill="none" stroke="rgb(38,38,38)" stroke-width="185" stroke-linejoin="round" stroke-linecap="round" d="M 21493,9675 L 21147,9232"/>
    </g>
   </g>
   <g class="com.sun.star.drawing.OpenBezierShape">
    <g id="id7">
     <rect class="BoundingBox" stroke="none" fill="none" x="19885" y="6984" width="2352" height="3217"/>
     <path fill="none" stroke="rgb(38,38,38)" stroke-width="185" stroke-linejoin="round" stroke-linecap="round" d="M 19978,9675 L 22011,7077 C 22229,7479 22172,7992 21872,8323 L 20368,10107"/>
    </g>
   </g>
   <g class="com.sun.star.drawing.ClosedBezierShape">
    <g id="id8">
     <rect class="BoundingBox" stroke="none" fill="none" x="20621" y="9019" width="274" height="274"/>
     <path fill="none" stroke="rgb(38,38,38)" stroke-width="185" stroke-linejoin="round" stroke-linecap="round" d="M 20757,9112 L 20757,9112 20758,9112 C 20765,9112 20773,9114 20779,9118 20786,9122 20791,9127 20795,9134 20799,9140 20801,9147 20801,9155 20801,9162 20799,9170 20795,9177 20791,9184 20786,9189 20779,9193 20773,9197 20766,9199 20758,9199 20751,9199 20743,9197 20736,9193 20730,9189 20724,9184 20720,9177 20716,9170 20714,9163 20714,9155 L 20714,9155 20714,9155 C 20714,9148 20716,9140 20720,9134 20724,9127 20730,9122 20736,9118 20743,9114 20750,9112 20757,9112 Z"/>
    </g>
   </g>
   <g class="com.sun.star.drawing.ClosedBezierShape">
    <g id="id9">
     <rect class="BoundingBox" stroke="none" fill="none" x="19063" y="9582" width="1399" height="1398"/>
     <path fill="none" stroke="rgb(38,38,38)" stroke-width="185" stroke-linejoin="round" stroke-linecap="round" d="M 20368,10280 C 20368,10386 20341,10491 20287,10583 20234,10675 20157,10752 20065,10805 19973,10858 19869,10886 19762,10886 19656,10886 19551,10858 19459,10805 19367,10752 19290,10675 19237,10583 19184,10491 19156,10387 19156,10280 19156,10174 19184,10069 19237,9977 19290,9886 19367,9809 19459,9756 19551,9703 19656,9675 19762,9675 19869,9675 19973,9703 20065,9756 20157,9809 20234,9886 20287,9977 20341,10069 20368,10173 20368,10280 Z"/>
    </g>
   </g>
   <g class="com.sun.star.drawing.ClosedBezierShape">
    <g id="id10">
     <rect class="BoundingBox" stroke="none" fill="none" x="19409" y="9927" width="707" height="707"/>
     <path fill="none" stroke="rgb(38,38,38)" stroke-width="185" stroke-linejoin="round" stroke-linecap="round" d="M 20022,10280 C 20022,10326 20010,10371 19987,10410 19964,10450 19932,10482 19892,10505 19853,10528 19808,10540 19762,10540 19717,10540 19672,10528 19632,10505 19593,10482 19560,10450 19537,10410 19514,10371 19502,10326 19502,10280 19502,10235 19514,10190 19537,10150 19560,10111 19593,10078 19632,10055 19672,10032 19717,10020 19762,10020 19808,10020 19853,10032 19892,10055 19932,10078 19964,10111 19987,10150 20010,10190 20022,10235 20022,10280 Z"/>
    </g>
   </g>
   <g class="com.sun.star.drawing.ClosedBezierShape">
    <g id="id11">
     <rect class="BoundingBox" stroke="none" fill="none" x="20968" y="9582" width="1399" height="1398"/>
     <path fill="none" stroke="rgb(38,38,38)" stroke-width="185" stroke-linejoin="round" stroke-linecap="round" d="M 22273,10280 C 22273,10386 22246,10491 22192,10583 22139,10675 22062,10752 21970,10805 21878,10858 21774,10886 21667,10886 21561,10886 21457,10858 21364,10805 21272,10752 21195,10675 21142,10583 21089,10491 21061,10387 21061,10280 21061,10174 21089,10069 21142,9977 21195,9886 21272,9809 21364,9756 21457,9703 21561,9675 21667,9675 21774,9675 21878,9703 21970,9756 22062,9809 22139,9886 22192,9977 22246,10069 22273,10173 22273,10280 Z"/>
    </g>
   </g>
   <g class="com.sun.star.drawing.ClosedBezierShape">
    <g id="id12">
     <rect class="BoundingBox" stroke="none" fill="none" x="21314" y="9927" width="706" height="707"/>
     <path fill="none" stroke="rgb(38,38,38)" stroke-width="185" stroke-linejoin="round" stroke-linecap="round" d="M 21926,10280 C 21926,10326 21915,10371 21892,10410 21870,10450 21837,10482 21797,10505 21758,10528 21713,10540 21667,10540 21622,10540 21577,10528 21537,10505 21498,10482 21465,10450 21442,10410 21420,10371 21407,10326 21407,10280 21407,10235 21420,10190 21442,10150 21465,10111 21498,10078 21537,10055 21577,10032 21622,10020 21667,10020 21713,10020 21758,10032 21797,10055 21837,10078 21870,10111 21892,10150 21915,10190 21926,10235 21926,10280 Z"/>
    </g>
   </g>
   <g class="com.sun.star.drawing.ClosedBezierShape">
    <g id="id13">
     <rect class="BoundingBox" stroke="none" fill="none" x="18384" y="13295" width="435" height="953"/>
     <path fill="rgb(38,38,38)" stroke="none" d="M 18385,14013 L 18385,14008 18385,14008 C 18384,14006 18384,14005 18384,14004 18384,13996 18386,13989 18390,13982 18394,13976 18400,13971 18406,13967 18413,13963 18419,13961 18427,13961 18428,13961 18430,13961 18431,13962 L 18476,13962 18476,13962 C 18477,13961 18479,13961 18480,13961 18487,13961 18495,13963 18501,13967 18508,13971 18514,13976 18517,13982 18521,13989 18522,13996 18522,14004 18522,14005 18522,14006 18522,14008 L 18522,14025 C 18522,14091 18552,14115 18598,14115 18645,14115 18673,14091 18673,14022 18673,13946 18644,13897 18549,13813 18427,13706 18387,13631 18387,13525 18387,13379 18463,13295 18604,13295 18746,13295 18816,13382 18816,13520 L 18816,13520 C 18816,13521 18816,13523 18816,13525 18816,13532 18815,13540 18811,13546 18808,13553 18803,13558 18796,13561 18790,13565 18782,13566 18775,13566 18773,13566 18771,13566 18770,13566 L 18725,13566 18725,13566 C 18723,13566 18721,13566 18719,13566 18712,13566 18706,13565 18699,13561 18693,13558 18687,13553 18683,13546 18680,13540 18678,13532 18678,13525 18678,13523 18678,13521 18678,13520 L 18678,13518 C 18678,13452 18653,13427 18606,13427 18560,13427 18533,13452 18533,13514 18533,13577 18563,13631 18658,13714 18780,13821 18817,13895 18817,14010 18817,14161 18740,14246 18597,14246 18454,14246 18385,14161 18385,14013 Z"/>
    </g>
   </g>
   <g class="com.sun.star.drawing.ClosedBezierShape">
    <g id="id14">
     <rect class="BoundingBox" stroke="none" fill="none" x="19025" y="13294" width="431" height="954"/>
     <path fill="rgb(38,38,38)" stroke="none" d="M 19025,14018 L 19025,13521 C 19025,13378 19099,13294 19239,13294 19379,13294 19453,13378 19453,13521 L 19453,13573 19453,13573 C 19454,13574 19454,13575 19454,13577 19454,13584 19452,13592 19448,13598 19444,13604 19440,13610 19433,13613 19427,13617 19419,13619 19411,13619 19410,13619 19409,13619 19407,13619 L 19362,13619 19362,13619 C 19361,13619 19359,13619 19358,13619 19351,13619 19344,13617 19337,13613 19331,13610 19325,13604 19321,13598 19318,13592 19316,13584 19316,13577 19316,13575 19316,13574 19316,13573 L 19316,13512 C 19316,13451 19287,13426 19243,13426 19200,13426 19170,13451 19170,13512 L 19170,14029 C 19170,14090 19200,14114 19243,14114 19287,14114 19316,14090 19316,14029 L 19316,13934 19316,13934 C 19316,13932 19316,13931 19316,13930 19316,13922 19318,13915 19321,13908 19325,13902 19331,13897 19337,13893 19344,13889 19351,13887 19358,13887 19359,13887 19361,13887 19362,13887 L 19407,13887 19407,13887 C 19409,13887 19410,13887 19411,13887 19419,13887 19427,13889 19433,13893 19440,13897 19444,13902 19448,13908 19452,13915 19454,13922 19454,13930 19454,13931 19454,13932 19453,13934 L 19453,14018 C 19453,14161 19379,14246 19239,14246 19099,14246 19025,14161 19025,14018 Z"/>
    </g>
   </g>
   <g class="com.sun.star.drawing.ClosedBezierShape">
    <g id="id15">
     <rect class="BoundingBox" stroke="none" fill="none" x="19673" y="13307" width="148" height="928"/>
     <path fill="rgb(38,38,38)" stroke="none" d="M 19673,14186 L 19673,13353 19673,13353 C 19673,13352 19673,13350 19673,13349 19673,13341 19676,13335 19679,13328 19683,13322 19688,13316 19694,13312 19700,13308 19708,13307 19715,13307 19717,13307 19718,13307 19719,13307 L 19772,13307 19772,13307 C 19774,13307 19775,13307 19776,13307 19784,13307 19792,13308 19798,13312 19805,13316 19809,13322 19813,13328 19817,13335 19819,13341 19819,13349 19819,13350 19819,13352 19819,13353 L 19819,14186 19819,14186 C 19819,14188 19819,14189 19819,14191 19819,14198 19817,14206 19813,14212 19809,14219 19805,14224 19798,14227 19792,14231 19784,14233 19776,14233 19775,14233 19774,14233 19772,14233 L 19719,14233 19719,14233 C 19718,14233 19717,14233 19715,14233 19708,14233 19700,14231 19694,14227 19688,14224 19683,14219 19679,14212 19676,14206 19673,14198 19673,14191 19673,14189 19673,14188 19673,14186 Z"/>
    </g>
   </g>
   <g class="com.sun.star.drawing.ClosedBezierShape">
    <g id="id16">
     <rect class="BoundingBox" stroke="none" fill="none" x="20034" y="13295" width="436" height="954"/>
     <path fill="rgb(38,38,38)" stroke="none" d="M 20034,14013 L 20034,14008 20034,14008 C 20034,14006 20034,14005 20034,14004 20034,13996 20037,13989 20040,13982 20044,13976 20049,13971 20055,13967 20062,13963 20069,13961 20076,13961 20078,13961 20079,13961 20081,13962 L 20126,13962 20126,13962 C 20127,13961 20129,13961 20131,13961 20138,13961 20146,13963 20152,13967 20159,13971 20164,13976 20167,13982 20171,13989 20173,13996 20173,14004 20173,14005 20173,14006 20173,14008 L 20173,14025 C 20173,14091 20202,14115 20248,14115 20295,14115 20324,14091 20324,14022 20324,13946 20295,13897 20199,13813 20077,13706 20038,13631 20038,13525 20038,13379 20114,13295 20255,13295 20397,13295 20467,13382 20467,13520 L 20467,13520 C 20467,13521 20467,13523 20467,13525 20467,13532 20465,13540 20461,13546 20458,13553 20453,13558 20446,13561 20440,13565 20433,13566 20426,13566 20424,13566 20422,13566 20420,13566 L 20375,13566 20375,13566 C 20373,13566 20372,13566 20370,13566 20363,13566 20356,13565 20349,13561 20343,13558 20338,13553 20334,13546 20331,13540 20329,13532 20329,13525 20329,13523 20329,13521 20329,13520 L 20329,13518 C 20329,13452 20303,13427 20256,13427 20210,13427 20183,13452 20183,13516 20183,13579 20214,13632 20309,13715 20431,13823 20468,13897 20468,14012 20468,14163 20391,14247 20248,14247 20105,14247 20034,14161 20034,14013 Z"/>
    </g>
   </g>
   <g class="com.sun.star.drawing.ClosedBezierShape">
    <g id="id17">
     <rect class="BoundingBox" stroke="none" fill="none" x="20658" y="13295" width="437" height="953"/>
     <path fill="rgb(38,38,38)" stroke="none" d="M 20658,14013 L 20658,14008 20658,14008 C 20658,14006 20658,14005 20658,14004 20658,13996 20660,13989 20664,13982 20668,13976 20673,13971 20679,13967 20686,13963 20693,13961 20700,13961 20702,13961 20703,13961 20705,13962 L 20750,13962 20750,13962 C 20751,13961 20753,13961 20754,13961 20761,13961 20769,13963 20775,13967 20782,13971 20788,13977 20791,13983 20795,13990 20796,13996 20796,14004 20796,14005 20796,14007 20796,14008 L 20796,14025 C 20796,14091 20825,14115 20871,14115 20918,14115 20947,14091 20947,14022 20947,13946 20918,13897 20823,13813 20701,13706 20661,13631 20661,13525 20661,13379 20737,13295 20878,13295 21019,13295 21090,13382 21090,13520 L 21090,13520 C 21090,13521 21090,13523 21090,13525 21090,13532 21088,13540 21084,13546 21081,13553 21076,13558 21069,13561 21063,13565 21056,13566 21049,13566 21047,13566 21045,13566 21043,13566 L 20998,13566 20998,13566 C 20997,13566 20995,13566 20993,13566 20986,13566 20979,13565 20972,13561 20966,13558 20961,13553 20957,13546 20954,13540 20952,13532 20952,13525 20952,13523 20952,13521 20952,13520 L 20952,13518 C 20952,13452 20926,13427 20879,13427 20833,13427 20808,13452 20808,13514 20808,13577 20838,13631 20934,13714 21055,13821 21093,13895 21093,14010 21093,14161 21016,14246 20873,14246 20730,14246 20658,14161 20658,14013 Z"/>
    </g>
   </g>
   <g class="com.sun.star.drawing.ClosedBezierShape">
    <g id="id18">
     <rect class="BoundingBox" stroke="none" fill="none" x="21297" y="13294" width="444" height="954"/>
     <path fill="rgb(38,38,38)" stroke="none" d="M 21297,14013 L 21297,13526 C 21297,13378 21377,13294 21518,13294 21660,13294 21739,13378 21739,13526 L 21739,14013 C 21739,14161 21660,14246 21518,14246 21376,14246 21297,14161 21297,14013 Z M 21594,14022 L 21594,13517 C 21594,13451 21565,13426 21518,13426 21472,13426 21443,13452 21443,13517 L 21443,14022 C 21443,14089 21472,14114 21518,14114 21564,14114 21594,14089 21594,14022 Z"/>
    </g>
   </g>
   <g class="com.sun.star.drawing.ClosedBezierShape">
    <g id="id19">
     <rect class="BoundingBox" stroke="none" fill="none" x="21969" y="13307" width="442" height="928"/>
     <path fill="rgb(38,38,38)" stroke="none" d="M 21969,14186 L 21969,13353 21969,13353 C 21969,13352 21969,13350 21969,13349 21969,13341 21971,13335 21975,13328 21979,13322 21984,13316 21990,13312 21997,13308 22004,13307 22011,13307 22013,13307 22014,13307 22016,13307 L 22185,13307 C 22336,13307 22401,13377 22401,13520 L 22401,13577 C 22401,13672 22370,13733 22305,13759 L 22305,13762 C 22378,13784 22402,13853 22402,13958 L 22402,14120 22402,14120 C 22402,14124 22402,14128 22402,14132 22402,14149 22403,14166 22406,14182 L 22406,14182 C 22408,14188 22409,14194 22409,14200 22409,14221 22394,14233 22369,14233 L 22311,14233 22311,14233 C 22309,14233 22307,14233 22305,14233 22297,14233 22289,14231 22282,14227 22276,14223 22270,14218 22266,14211 22263,14205 22261,14199 22260,14193 L 22260,14193 C 22258,14172 22256,14151 22256,14129 22256,14126 22256,14122 22256,14119 L 22256,13950 C 22256,13864 22232,13836 22165,13836 L 22115,13836 22115,14186 22115,14186 C 22115,14188 22115,14189 22115,14191 22115,14198 22113,14206 22109,14212 22106,14219 22101,14224 22094,14227 22088,14231 22080,14233 22073,14233 22071,14233 22070,14233 22069,14233 L 22016,14233 22016,14233 C 22014,14233 22013,14233 22011,14233 22004,14233 21997,14231 21990,14227 21984,14224 21979,14219 21975,14212 21971,14206 21969,14198 21969,14191 21969,14189 21969,14188 21969,14186 Z M 22168,13704 C 22222,13704 22255,13680 22255,13606 L 22255,13534 C 22255,13468 22233,13439 22181,13439 L 22115,13439 22115,13704 22168,13704 Z"/>
    </g>
   </g>
   <g class="com.sun.star.drawing.ClosedBezierShape">
    <g id="id20">
     <rect class="BoundingBox" stroke="none" fill="none" x="22609" y="13295" width="437" height="954"/>
     <path fill="rgb(38,38,38)" stroke="none" d="M 22610,14013 L 22610,14008 22610,14008 C 22609,14006 22609,14005 22609,14004 22609,13996 22611,13989 22615,13982 22619,13976 22625,13971 22631,13967 22638,13963 22644,13961 22652,13961 22653,13961 22655,13961 22656,13962 L 22701,13962 22701,13962 C 22702,13961 22704,13961 22705,13961 22713,13961 22720,13963 22726,13967 22733,13971 22738,13977 22742,13983 22746,13990 22748,13996 22748,14004 22748,14005 22748,14007 22747,14008 L 22747,14025 C 22747,14091 22777,14115 22823,14115 22870,14115 22898,14091 22898,14022 22898,13946 22869,13897 22774,13813 22652,13706 22612,13631 22612,13525 22612,13379 22688,13295 22829,13295 22971,13295 23041,13382 23041,13520 L 23041,13520 C 23041,13521 23041,13523 23041,13525 23041,13532 23040,13540 23036,13546 23033,13553 23028,13558 23021,13561 23015,13565 23007,13566 23000,13566 22998,13566 22996,13566 22995,13566 L 22951,13566 22951,13566 C 22949,13566 22947,13566 22946,13566 22938,13566 22931,13565 22925,13561 22919,13558 22914,13553 22910,13546 22907,13540 22904,13532 22904,13525 22904,13523 22904,13521 22905,13520 L 22905,13518 C 22905,13452 22879,13427 22832,13427 22786,13427 22759,13452 22759,13516 22759,13579 22789,13632 22885,13715 23006,13823 23044,13897 23044,14012 23044,14163 22967,14247 22824,14247 22681,14247 22610,14161 22610,14013 Z"/>
    </g>
   </g>
  </g>
 </g>
</svg>